<?xml version="1.0" encoding="UTF-8" standalone="no"?>
<svg
   version="1.2"
   width="186.71181mm"
   height="15.43612mm"
   viewBox="0 0 88.541051 7.3200004"
   id="svg46"
   sodipodi:docname="README-7.svg"
   xmlns:inkscape="http://www.inkscape.org/namespaces/inkscape"
   xmlns:sodipodi="http://sodipodi.sourceforge.net/DTD/sodipodi-0.dtd"
   xmlns="http://www.w3.org/2000/svg"
   xmlns:svg="http://www.w3.org/2000/svg">
  <defs
     id="defs50" />
  <sodipodi:namedview
     id="namedview48"
     pagecolor="#ffffff"
     bordercolor="#666666"
     borderopacity="1.0"
     inkscape:pageshadow="2"
     inkscape:pageopacity="0.0"
     inkscape:pagecheckerboard="0"
     inkscape:document-units="mm" />
  <style
     text="style/css"
     id="style2"><![CDATA[
tspan { white-space: pre; }
]]></style>
  <!-- Page: 1/1 -->
  <g
     color="#7f7f7f"
     id="g14"
     transform="translate(-6.3014377,-3.3591)">
    <line
       transform="translate(12.045,9.1391)"
       stroke-linejoin="round"
       stroke-linecap="round"
       stroke-width="0.089"
       stroke="currentColor"
       x1="0.044500001"
       y1="0"
       x2="82.752998"
       y2="0"
       id="line4" />
    <line
       transform="translate(12.045,8.1391)"
       stroke-linejoin="round"
       stroke-linecap="round"
       stroke-width="0.089"
       stroke="currentColor"
       x1="0.044500001"
       y1="0"
       x2="82.752998"
       y2="0"
       id="line6" />
    <line
       transform="translate(12.045,7.1391)"
       stroke-linejoin="round"
       stroke-linecap="round"
       stroke-width="0.089"
       stroke="currentColor"
       x1="0.044500001"
       y1="0"
       x2="82.752998"
       y2="0"
       id="line8" />
    <line
       transform="translate(12.045,6.1391)"
       stroke-linejoin="round"
       stroke-linecap="round"
       stroke-width="0.089"
       stroke="currentColor"
       x1="0.044500001"
       y1="0"
       x2="82.752998"
       y2="0"
       id="line10" />
    <line
       transform="translate(12.045,5.1391)"
       stroke-linejoin="round"
       stroke-linecap="round"
       stroke-width="0.089"
       stroke="currentColor"
       x1="0.044500001"
       y1="0"
       x2="82.752998"
       y2="0"
       id="line12" />
  </g>
  <rect
     x="13.981963"
     y="6.6855001"
     width="1.9586999"
     height="0.189"
     ry="0.094499998"
     fill="currentColor"
     id="rect16" />
  <polygon
     transform="translate(15.498462,3.5745)"
     stroke-linejoin="round"
     stroke-linecap="round"
     stroke-width="0.0667"
     fill="currentColor"
     stroke="currentColor"
     points="0.0333,0.2167 0.0333,-0.2167 55.7569,-1.2167 55.7569,-0.7833 "
     id="polygon18" />
  <path
     d="m 70.870962,4.74 c 0.212,0 0.416,0.108 0.416,0.344 0,0.284 -0.224,0.48 -0.412,0.592 -0.144,0.088 -0.304,0.144 -0.472,0.144 -0.212,0 -0.42,-0.108 -0.42,-0.344 0,-0.284 0.228,-0.48 0.416,-0.592 0.144,-0.088 0.304,-0.144 0.472,-0.144 z"
     fill="currentColor"
     id="path20"
     style="stroke-width:0.004" />
  <rect
     x="71.172966"
     y="2.5756001"
     width="0.1158"
     height="2.5077"
     ry="0.033300001"
     fill="currentColor"
     id="rect22" />
  <path
     d="m 33.754662,5.74 c 0.212,0 0.416,0.108 0.416,0.344 0,0.284 -0.224,0.48 -0.412,0.592 -0.144,0.088 -0.304,0.144 -0.472,0.144 -0.212,0 -0.42,-0.108 -0.42,-0.344 0,-0.284 0.228,-0.48 0.416,-0.592 0.144,-0.088 0.304,-0.144 0.472,-0.144 z"
     fill="currentColor"
     id="path24"
     style="stroke-width:0.004" />
  <rect
     x="34.056664"
     y="3.2407999"
     width="0.1158"
     height="2.8424001"
     ry="0.033300001"
     fill="currentColor"
     id="rect26" />
  <path
     d="m 52.312762,5.24 c 0.212,0 0.416,0.108 0.416,0.344 0,0.284 -0.224,0.48 -0.412,0.592 -0.144,0.088 -0.304,0.144 -0.472,0.144 -0.212,0 -0.42,-0.108 -0.42,-0.344 0,-0.284 0.228,-0.48 0.416,-0.592 0.144,-0.088 0.304,-0.144 0.472,-0.144 z"
     fill="currentColor"
     id="path28"
     style="stroke-width:0.004" />
  <rect
     x="52.614761"
     y="2.9082"
     width="0.1158"
     height="2.6751001"
     ry="0.033300001"
     fill="currentColor"
     id="rect30" />
  <text
     font-family="serif"
     font-size="2.2002px"
     text-anchor="start"
     fill="currentColor"
     id="text34"
     x="-0.019337697"
     y="4.5339999"><tspan
       id="tspan32">Violin</tspan></text>
  <path
     d="m 15.196462,6.24 c 0.212,0 0.416,0.108 0.416,0.344 0,0.284 -0.224,0.48 -0.412,0.592 -0.144,0.088 -0.304,0.144 -0.472,0.144 -0.212,0 -0.42,-0.108 -0.42,-0.344 0,-0.284 0.228,-0.48 0.416,-0.592 0.144,-0.088 0.304,-0.144 0.472,-0.144 z"
     fill="currentColor"
     id="path36"
     style="stroke-width:0.004" />
  <path
     d="m 8.0395623,3.74 c 0.02,0 0.04,-0.004 0.06,-0.004 0.616,0 1.016,0.508 1.016,1.036 0,0.304 -0.132,0.612 -0.428,0.832 -0.088,0.068 -0.188,0.116 -0.292,0.148 0.012,0.144 0.02,0.288 0.02,0.432 0,0.076 0,0.148 -0.004,0.224 -0.028,0.48 -0.352,0.904 -0.824,0.904 -0.432,0 -0.78,-0.348 -0.78,-0.78 0,-0.232 0.212,-0.416 0.448,-0.416 0.216,0 0.38,0.192 0.38,0.416 0,0.208 -0.172,0.38 -0.38,0.38 -0.048,0 -0.096,-0.016 -0.14,-0.036 0.104,0.164 0.28,0.28 0.484,0.28 0.004,0 0.008,-0.004 0.012,-0.004 0.372,-0.008 0.616,-0.372 0.64,-0.768 0.004,-0.072 0.008,-0.14 0.008,-0.212 0,-0.128 -0.008,-0.256 -0.02,-0.384 -0.116,0.02 -0.232,0.032 -0.356,0.032 -0.752,0 -1.332,-0.684 -1.332,-1.488 0,-0.712 0.532,-1.224 1.004,-1.76 -0.072,-0.252 -0.14,-0.504 -0.168,-0.764 -0.024,-0.204 -0.028,-0.408 -0.028,-0.616 0,-0.464 0.22,-0.904 0.6,-1.18 0.02,-0.016 0.044,-0.016 0.064,0 0.28,0.336 0.528,0.984 0.528,1.436 0,0.576 -0.348,1.024 -0.732,1.46 0.08,0.276 0.156,0.552 0.22,0.832 z m 0.34,1.86 c 0.276,-0.096 0.468,-0.384 0.468,-0.664 0,-0.368 -0.276,-0.736 -0.716,-0.772 0.1,0.468 0.192,0.94 0.248,1.436 z m -1.552,-0.944 c 0,0.544 0.524,1.004 1.068,1.004 0.112,0 0.22,-0.008 0.328,-0.024 -0.06,-0.512 -0.152,-0.988 -0.256,-1.468 -0.316,0.036 -0.5,0.248 -0.5,0.484 0,0.176 0.104,0.368 0.328,0.496 0.016,0.016 0.028,0.036 0.028,0.056 0,0.044 -0.036,0.084 -0.08,0.084 -0.012,0 -0.024,-0.004 -0.036,-0.008 -0.32,-0.172 -0.464,-0.456 -0.464,-0.736 0,-0.352 0.228,-0.692 0.632,-0.784 -0.056,-0.24 -0.12,-0.476 -0.184,-0.712 -0.432,0.484 -0.864,0.968 -0.864,1.608 z m 1.36,-4.076 c -0.396,0.2 -0.644,0.604 -0.644,1.048 0,0.304 0.06,0.548 0.132,0.8 0.328,-0.388 0.596,-0.792 0.596,-1.3 0,-0.232 -0.016,-0.336 -0.084,-0.548 z"
     fill="currentColor"
     id="path38"
     style="stroke-width:0.004" />
  <path
     d="m 11.575562,2.504 c 0.084,-0.052 0.168,-0.108 0.228,-0.188 0.044,-0.06 0.072,-0.128 0.1,-0.196 0.016,-0.036 0.08,-0.028 0.08,0.028 v 1.024 h 0.272 c 0.036,0 0.052,0.028 0.052,0.056 0,0.028 -0.016,0.052 -0.052,0.052 h -0.272 v 0.064 c 0,0.18 0.104,0.352 0.272,0.352 0.028,0 0.04,0.02 0.04,0.04 0,0.02 -0.012,0.044 -0.04,0.044 -0.164,0 -0.328,-0.052 -0.492,-0.052 -0.164,0 -0.328,0.052 -0.492,0.052 -0.028,0 -0.04,-0.024 -0.04,-0.044 0,-0.02 0.012,-0.04 0.04,-0.04 0.168,0 0.272,-0.172 0.272,-0.352 V 3.28 h -0.692 c -0.084,0 -0.116,-0.052 -0.116,-0.084 0,-0.008 0.004,-0.02 0.008,-0.024 0.324,-0.384 0.584,-0.832 0.584,-1.332 0,-0.04 0.028,-0.072 0.06,-0.06 0.088,0.028 0.176,0.052 0.268,0.052 0.092,0 0.18,-0.024 0.268,-0.052 0.048,-0.016 0.084,0.032 0.06,0.06 l -1.132,1.332 h 0.692 V 2.584 c 0,-0.032 0.008,-0.064 0.032,-0.08 z"
     fill="currentColor"
     id="path40"
     style="stroke-width:0.004" />
  <path
     d="m 11.575562,4.5241 c 0.084,-0.052 0.168,-0.108 0.228,-0.188 0.044,-0.06 0.072,-0.128 0.1,-0.196 0.016,-0.036 0.08,-0.028 0.08,0.028 v 1.024 h 0.272 c 0.036,0 0.052,0.028 0.052,0.056 0,0.028 -0.016,0.052 -0.052,0.052 h -0.272 v 0.064 c 0,0.18 0.104,0.352 0.272,0.352 0.028,0 0.04,0.02 0.04,0.04 0,0.02 -0.012,0.044 -0.04,0.044 -0.164,0 -0.328,-0.052 -0.492,-0.052 -0.164,0 -0.328,0.052 -0.492,0.052 -0.028,0 -0.04,-0.024 -0.04,-0.044 0,-0.02 0.012,-0.04 0.04,-0.04 0.168,0 0.272,-0.172 0.272,-0.352 v -0.064 h -0.692 c -0.084,0 -0.116,-0.052 -0.116,-0.084 0,-0.008 0.004,-0.02 0.008,-0.024 0.324,-0.384 0.584,-0.832 0.584,-1.332 0,-0.04 0.028,-0.072 0.06,-0.06 0.088,0.028 0.176,0.052 0.268,0.052 0.092,0 0.18,-0.024 0.268,-0.052 0.048,-0.016 0.084,0.032 0.06,0.06 l -1.132,1.332 h 0.692 v -0.588 c 0,-0.032 0.008,-0.064 0.032,-0.08 z"
     fill="currentColor"
     id="path42"
     style="stroke-width:0.004" />
  <rect
     x="15.498463"
     y="3.5734999"
     width="0.1158"
     height="3.0098"
     ry="0.033300001"
     fill="currentColor"
     id="rect44" />
</svg>
