<?xml version="1.0" encoding="UTF-8" standalone="no"?>
<svg
   version="1.2"
   width="102.9069mm"
   height="18.854696mm"
   viewBox="0 0 53.236091 9.7539661"
   id="svg146"
   sodipodi:docname="README-16.svg"
   xmlns:inkscape="http://www.inkscape.org/namespaces/inkscape"
   xmlns:sodipodi="http://sodipodi.sourceforge.net/DTD/sodipodi-0.dtd"
   xmlns="http://www.w3.org/2000/svg"
   xmlns:svg="http://www.w3.org/2000/svg">
  <defs
     id="defs150" />
  <sodipodi:namedview
     id="namedview148"
     pagecolor="#ffffff"
     bordercolor="#666666"
     borderopacity="1.0"
     inkscape:pageshadow="2"
     inkscape:pageopacity="0.0"
     inkscape:pagecheckerboard="0"
     inkscape:document-units="mm"
     fit-margin-top="2"
     fit-margin-left="2"
     fit-margin-right="2"
     fit-margin-bottom="2" />
  <style
     text="style/css"
     id="style2"><![CDATA[
tspan { white-space: pre; }
]]></style>
  <!-- Page: 1/1 -->
  <g
     color="#7f7f7f"
     id="g14"
     transform="translate(-12.105354,-2.5440802)">
    <line
       transform="translate(13.14,9.7234)"
       stroke-linejoin="round"
       stroke-linecap="round"
       stroke-width="0.094"
       stroke="currentColor"
       x1="0.046999998"
       y1="0"
       x2="51.023201"
       y2="0"
       id="line4" />
    <line
       transform="translate(13.14,8.7234)"
       stroke-linejoin="round"
       stroke-linecap="round"
       stroke-width="0.094"
       stroke="currentColor"
       x1="0.046999998"
       y1="0"
       x2="51.023201"
       y2="0"
       id="line6" />
    <line
       transform="translate(13.14,7.7234)"
       stroke-linejoin="round"
       stroke-linecap="round"
       stroke-width="0.094"
       stroke="currentColor"
       x1="0.046999998"
       y1="0"
       x2="51.023201"
       y2="0"
       id="line8" />
    <line
       transform="translate(13.14,6.7234)"
       stroke-linejoin="round"
       stroke-linecap="round"
       stroke-width="0.094"
       stroke="currentColor"
       x1="0.046999998"
       y1="0"
       x2="51.023201"
       y2="0"
       id="line10" />
    <line
       transform="translate(13.14,5.7234)"
       stroke-linejoin="round"
       stroke-linecap="round"
       stroke-width="0.094"
       stroke="currentColor"
       x1="0.046999998"
       y1="0"
       x2="51.023201"
       y2="0"
       id="line12" />
  </g>
  <rect
     x="48.178646"
     y="8.0823202"
     width="1.9578"
     height="0.19400001"
     ry="0.097000003"
     fill="currentColor"
     id="rect16" />
  <rect
     x="35.678646"
     y="8.0823202"
     width="1.9578"
     height="0.19400001"
     ry="0.097000003"
     fill="currentColor"
     id="rect18" />
  <rect
     x="21.791346"
     y="8.0823202"
     width="1.9578"
     height="0.19400001"
     ry="0.097000003"
     fill="currentColor"
     id="rect20" />
  <rect
     x="9.2913456"
     y="8.0823202"
     width="1.9578"
     height="0.19400001"
     ry="0.097000003"
     fill="currentColor"
     id="rect22" />
  <rect
     x="51.926247"
     y="3.1323199"
     width="0.1786"
     height="4.0939999"
     ry="0.0000"
     fill="currentColor"
     id="rect24" />
  <path
     d="m 28.997646,7.1393198 c 0.216,0 0.424,0.108 0.424,0.348 0,0.284 -0.224,0.48 -0.412,0.592 -0.144,0.084 -0.304,0.14 -0.468,0.14 -0.216,0 -0.424,-0.108 -0.424,-0.348 0,-0.284 0.224,-0.48 0.412,-0.592 0.144,-0.084 0.304,-0.14 0.468,-0.14 z"
     fill="currentColor"
     id="path26"
     style="stroke-width:0.004" />
  <path
     d="m 22.997646,7.6393198 c 0.216,0 0.424,0.108 0.424,0.348 0,0.284 -0.224,0.48 -0.412,0.592 -0.144,0.084 -0.304,0.14 -0.468,0.14 -0.216,0 -0.424,-0.108 -0.424,-0.348 0,-0.284 0.224,-0.48 0.412,-0.592 0.144,-0.084 0.304,-0.14 0.468,-0.14 z"
     fill="currentColor"
     id="path28"
     style="stroke-width:0.004" />
  <rect
     x="23.300646"
     y="4.6793199"
     width="0.1222"
     height="3.3081"
     ry="0.036400001"
     fill="currentColor"
     id="rect30" />
  <polygon
     transform="translate(23.422846,4.7156198)"
     stroke-linejoin="round"
     stroke-linecap="round"
     stroke-width="0.0611"
     fill="currentColor"
     stroke="currentColor"
     points="1.0126,0.3199 -0.0306,-0.0191 -0.0306,0.4667 1.0126,0.8056 "
     id="polygon32" />
  <path
     d="m 13.493646,7.1793198 0.4,-1.308 c -0.14,0.048 -0.28,0.092 -0.428,0.092 -0.184,0 -0.348,-0.132 -0.348,-0.316 0,-0.156 0.124,-0.288 0.284,-0.288 0.1,0 0.196,0.064 0.228,0.16 0.04,0.112 0.024,0.236 0.14,0.236 0.068,0 0.224,-0.208 0.244,-0.276 l 0.184,-0.608 c -0.136,0.048 -0.276,0.092 -0.42,0.092 -0.184,0 -0.348,-0.132 -0.348,-0.316 0,-0.156 0.124,-0.288 0.284,-0.288 0.1,0 0.196,0.064 0.228,0.16 0.04,0.112 0.024,0.236 0.14,0.236 0.064,0 0.204,-0.208 0.232,-0.268 0.02,-0.044 0.088,-0.044 0.104,0 l -0.72,2.692 c -0.028,0.024 -0.068,0.036 -0.104,0.036 -0.036,0 -0.072,-0.012 -0.1,-0.036 z"
     fill="currentColor"
     id="path34"
     style="stroke-width:0.004" />
  <path
     d="m 19.993646,7.1793198 0.4,-1.308 c -0.14,0.048 -0.28,0.092 -0.428,0.092 -0.184,0 -0.348,-0.132 -0.348,-0.316 0,-0.156 0.124,-0.288 0.284,-0.288 0.1,0 0.196,0.064 0.228,0.16 0.04,0.112 0.024,0.236 0.14,0.236 0.068,0 0.224,-0.208 0.244,-0.276 l 0.184,-0.608 c -0.136,0.048 -0.276,0.092 -0.42,0.092 -0.184,0 -0.348,-0.132 -0.348,-0.316 0,-0.156 0.124,-0.288 0.284,-0.288 0.1,0 0.196,0.064 0.228,0.16 0.04,0.112 0.024,0.236 0.14,0.236 0.064,0 0.204,-0.208 0.232,-0.268 0.02,-0.044 0.088,-0.044 0.104,0 l -0.72,2.692 c -0.028,0.024 -0.068,0.036 -0.104,0.036 -0.036,0 -0.072,-0.012 -0.1,-0.036 z"
     fill="currentColor"
     id="path36"
     style="stroke-width:0.004" />
  <polygon
     transform="translate(16.922846,4.2156198)"
     stroke-linejoin="round"
     stroke-linecap="round"
     stroke-width="0.0611"
     fill="currentColor"
     stroke="currentColor"
     points="1.0126,0.3199 -0.0306,-0.0191 -0.0306,0.4667 1.0126,0.8056 "
     id="polygon38" />
  <rect
     x="16.800646"
     y="4.1793199"
     width="0.1222"
     height="3.3081"
     ry="0.036400001"
     fill="currentColor"
     id="rect40" />
  <path
     d="m 16.497646,7.1393198 c 0.216,0 0.424,0.108 0.424,0.348 0,0.284 -0.224,0.48 -0.412,0.592 -0.144,0.084 -0.304,0.14 -0.468,0.14 -0.216,0 -0.424,-0.108 -0.424,-0.348 0,-0.284 0.224,-0.48 0.412,-0.592 0.144,-0.084 0.304,-0.14 0.468,-0.14 z"
     fill="currentColor"
     id="path42"
     style="stroke-width:0.004" />
  <line
     stroke-linejoin="round"
     stroke-linecap="round"
     stroke-width="0.1504"
     stroke="currentColor"
     x1="18.417646"
     y1="1.6323198"
     x2="18.417646"
     y2="2.3323197"
     id="line44" />
  <line
     stroke-linejoin="round"
     stroke-linecap="round"
     stroke-width="0.1504"
     stroke="currentColor"
     x1="10.600646"
     y1="1.6323198"
     x2="10.600646"
     y2="2.3323197"
     id="line46" />
  <line
     stroke-linejoin="round"
     stroke-linecap="round"
     stroke-width="0.1504"
     stroke="currentColor"
     x1="18.417646"
     y1="1.6323198"
     x2="15.543746"
     y2="1.6323198"
     id="line48" />
  <line
     stroke-linejoin="round"
     stroke-linecap="round"
     stroke-width="0.1504"
     stroke="currentColor"
     x1="10.600646"
     y1="1.6323198"
     x2="13.674645"
     y2="1.6323198"
     id="line50" />
  <text
     font-family="serif"
     font-style="italic"
     font-size="1.7465px"
     text-anchor="start"
     fill="currentColor"
     id="text54"
     x="14.074546"
     y="2.1910198"><tspan
       id="tspan52">5</tspan></text>
  <line
     stroke-linejoin="round"
     stroke-linecap="round"
     stroke-width="0.1504"
     stroke="currentColor"
     x1="29.717646"
     y1="1.6323198"
     x2="29.717646"
     y2="2.3323197"
     id="line56" />
  <line
     stroke-linejoin="round"
     stroke-linecap="round"
     stroke-width="0.1504"
     stroke="currentColor"
     x1="19.517645"
     y1="1.6323198"
     x2="19.517645"
     y2="2.3323197"
     id="line58" />
  <line
     stroke-linejoin="round"
     stroke-linecap="round"
     stroke-width="0.1504"
     stroke="currentColor"
     x1="29.717646"
     y1="1.6323198"
     x2="25.652246"
     y2="1.6323198"
     id="line60" />
  <line
     stroke-linejoin="round"
     stroke-linecap="round"
     stroke-width="0.1504"
     stroke="currentColor"
     x1="19.517645"
     y1="1.6323198"
     x2="23.783047"
     y2="1.6323198"
     id="line62" />
  <text
     font-family="serif"
     font-style="italic"
     font-size="1.7465px"
     text-anchor="start"
     fill="currentColor"
     id="text66"
     x="24.183146"
     y="2.1910198"><tspan
       id="tspan64">5</tspan></text>
  <path
     stroke-width="0.0752"
     stroke-linejoin="round"
     stroke-linecap="round"
     stroke="currentColor"
     fill="currentColor"
     d="m 29.622846,8.1793198 c 0.3231,0.412 0.8717,0.412 1.1948,0 v 0 c -0.3231,0.2992 -0.8717,0.2992 -1.1948,0 z"
     id="path68" />
  <line
     stroke-linejoin="round"
     stroke-linecap="round"
     stroke-width="0.1504"
     stroke="currentColor"
     x1="41.204945"
     y1="1.6323198"
     x2="41.204945"
     y2="2.3323197"
     id="line70" />
  <line
     stroke-linejoin="round"
     stroke-linecap="round"
     stroke-width="0.1504"
     stroke="currentColor"
     x1="32.000645"
     y1="1.6323198"
     x2="32.000645"
     y2="2.3323197"
     id="line72" />
  <line
     stroke-linejoin="round"
     stroke-linecap="round"
     stroke-width="0.1504"
     stroke="currentColor"
     x1="41.204945"
     y1="1.6323198"
     x2="37.637344"
     y2="1.6323198"
     id="line74" />
  <line
     stroke-linejoin="round"
     stroke-linecap="round"
     stroke-width="0.1504"
     stroke="currentColor"
     x1="32.000645"
     y1="1.6323198"
     x2="35.768246"
     y2="1.6323198"
     id="line76" />
  <text
     font-family="serif"
     font-style="italic"
     font-size="1.7465px"
     text-anchor="start"
     fill="currentColor"
     id="text80"
     x="36.168247"
     y="2.1910198"><tspan
       id="tspan78">5</tspan></text>
  <polygon
     transform="translate(37.310046,4.7156198)"
     stroke-linejoin="round"
     stroke-linecap="round"
     stroke-width="0.0611"
     fill="currentColor"
     stroke="currentColor"
     points="1.0126,0.3199 -0.0306,-0.0191 -0.0306,0.4667 1.0126,0.8056 "
     id="polygon82" />
  <rect
     x="37.187847"
     y="4.6793199"
     width="0.1222"
     height="3.3081"
     ry="0.036400001"
     fill="currentColor"
     id="rect84" />
  <path
     d="m 36.884846,7.6393198 c 0.216,0 0.424,0.108 0.424,0.348 0,0.284 -0.224,0.48 -0.412,0.592 -0.144,0.084 -0.304,0.14 -0.468,0.14 -0.216,0 -0.424,-0.108 -0.424,-0.348 0,-0.284 0.224,-0.48 0.412,-0.592 0.144,-0.084 0.304,-0.14 0.468,-0.14 z"
     fill="currentColor"
     id="path86"
     style="stroke-width:0.004" />
  <rect
     x="29.300646"
     y="4.1793199"
     width="0.1222"
     height="3.3081"
     ry="0.036400001"
     fill="currentColor"
     id="rect88" />
  <path
     d="m 33.880846,7.1793198 0.4,-1.308 c -0.14,0.048 -0.28,0.092 -0.428,0.092 -0.184,0 -0.348,-0.132 -0.348,-0.316 0,-0.156 0.124,-0.288 0.284,-0.288 0.1,0 0.196,0.064 0.228,0.16 0.04,0.112 0.024,0.236 0.14,0.236 0.068,0 0.224,-0.208 0.244,-0.276 l 0.184,-0.608 c -0.136,0.048 -0.276,0.092 -0.42,0.092 -0.184,0 -0.348,-0.132 -0.348,-0.316 0,-0.156 0.124,-0.288 0.284,-0.288 0.1,0 0.196,0.064 0.228,0.16 0.04,0.112 0.024,0.236 0.14,0.236 0.064,0 0.204,-0.208 0.232,-0.268 0.02,-0.044 0.088,-0.044 0.104,0 l -0.72,2.692 c -0.028,0.024 -0.068,0.036 -0.104,0.036 -0.036,0 -0.072,-0.012 -0.1,-0.036 z"
     fill="currentColor"
     id="path90"
     style="stroke-width:0.004" />
  <polygon
     transform="translate(32.322846,4.2156198)"
     stroke-linejoin="round"
     stroke-linecap="round"
     stroke-width="0.0611"
     fill="currentColor"
     stroke="currentColor"
     points="1.0126,0.3199 -0.0306,-0.0191 -0.0306,0.4667 1.0126,0.8056 "
     id="polygon92" />
  <polygon
     transform="translate(32.322846,5.2156198)"
     stroke-linejoin="round"
     stroke-linecap="round"
     stroke-width="0.0611"
     fill="currentColor"
     stroke="currentColor"
     points="1.0126,0.3199 -0.0306,-0.0191 -0.0306,0.4667 1.0126,0.8056 "
     id="polygon94" />
  <rect
     x="32.200645"
     y="4.1793199"
     width="0.1222"
     height="3.3081"
     ry="0.036400001"
     fill="currentColor"
     id="rect96" />
  <path
     d="m 31.897646,7.1393198 c 0.216,0 0.424,0.108 0.424,0.348 0,0.284 -0.224,0.48 -0.412,0.592 -0.144,0.084 -0.304,0.14 -0.468,0.14 -0.216,0 -0.424,-0.108 -0.424,-0.348 0,-0.284 0.224,-0.48 0.412,-0.592 0.144,-0.084 0.304,-0.14 0.468,-0.14 z"
     fill="currentColor"
     id="path98"
     style="stroke-width:0.004" />
  <polygon
     transform="translate(29.422846,4.2156198)"
     stroke-linejoin="round"
     stroke-linecap="round"
     stroke-width="0.0611"
     fill="currentColor"
     stroke="currentColor"
     points="1.0126,0.3199 -0.0306,-0.0191 -0.0306,0.4667 1.0126,0.8056 "
     id="polygon100" />
  <polygon
     transform="translate(29.422846,5.2156198)"
     stroke-linejoin="round"
     stroke-linecap="round"
     stroke-width="0.0611"
     fill="currentColor"
     stroke="currentColor"
     points="1.0126,0.3199 -0.0306,-0.0191 -0.0306,0.4667 1.0126,0.8056 "
     id="polygon102" />
  <polygon
     transform="translate(43.810046,4.2156198)"
     stroke-linejoin="round"
     stroke-linecap="round"
     stroke-width="0.0611"
     fill="currentColor"
     stroke="currentColor"
     points="1.0126,0.3199 -0.0306,-0.0191 -0.0306,0.4667 1.0126,0.8056 "
     id="polygon104" />
  <path
     d="m 43.384846,7.1393198 c 0.216,0 0.424,0.108 0.424,0.348 0,0.284 -0.224,0.48 -0.412,0.592 -0.144,0.084 -0.304,0.14 -0.468,0.14 -0.216,0 -0.424,-0.108 -0.424,-0.348 0,-0.284 0.224,-0.48 0.412,-0.592 0.144,-0.084 0.304,-0.14 0.468,-0.14 z"
     fill="currentColor"
     id="path106"
     style="stroke-width:0.004" />
  <path
     d="m 39.880846,7.1793198 0.4,-1.308 c -0.14,0.048 -0.28,0.092 -0.428,0.092 -0.184,0 -0.348,-0.132 -0.348,-0.316 0,-0.156 0.124,-0.288 0.284,-0.288 0.1,0 0.196,0.064 0.228,0.16 0.04,0.112 0.024,0.236 0.14,0.236 0.068,0 0.224,-0.208 0.244,-0.276 l 0.184,-0.608 c -0.136,0.048 -0.276,0.092 -0.42,0.092 -0.184,0 -0.348,-0.132 -0.348,-0.316 0,-0.156 0.124,-0.288 0.284,-0.288 0.1,0 0.196,0.064 0.228,0.16 0.04,0.112 0.024,0.236 0.14,0.236 0.064,0 0.204,-0.208 0.232,-0.268 0.02,-0.044 0.088,-0.044 0.104,0 l -0.72,2.692 c -0.028,0.024 -0.068,0.036 -0.104,0.036 -0.036,0 -0.072,-0.012 -0.1,-0.036 z"
     fill="currentColor"
     id="path108"
     style="stroke-width:0.004" />
  <rect
     x="43.687847"
     y="4.1793199"
     width="0.1222"
     height="3.3081"
     ry="0.036400001"
     fill="currentColor"
     id="rect110" />
  <polygon
     transform="translate(10.922846,4.7156198)"
     stroke-linejoin="round"
     stroke-linecap="round"
     stroke-width="0.0611"
     fill="currentColor"
     stroke="currentColor"
     points="1.0126,0.3199 -0.0306,-0.0191 -0.0306,0.4667 1.0126,0.8056 "
     id="polygon112" />
  <rect
     x="10.800646"
     y="4.6793199"
     width="0.1222"
     height="3.3081"
     ry="0.036400001"
     fill="currentColor"
     id="rect114" />
  <path
     d="m 6.8266458,4.7273198 h 0.452 c 0,0.188 0.112,0.364 0.284,0.364 0.028,0 0.044,0.02 0.044,0.044 0,0.024 -0.016,0.044 -0.044,0.044 -0.172,0 -0.336,-0.052 -0.508,-0.052 -0.172,0 -0.34,0.052 -0.512,0.052 -0.028,0 -0.044,-0.02 -0.044,-0.044 0,-0.024 0.016,-0.044 0.044,-0.044 0.172,0 0.284,-0.176 0.284,-0.364 z m 0.032,-0.796 c 0.088,-0.056 0.176,-0.112 0.236,-0.196 0.044,-0.06 0.068,-0.132 0.1,-0.2 0.016,-0.04 0.084,-0.024 0.084,0.032 v 1 h 0.284 c 0.036,0 0.056,0.028 0.056,0.056 0,0.028 -0.02,0.056 -0.056,0.056 h -0.284 v 0.048 h -0.452 v -0.048 h -0.68 c -0.088,0 -0.12,-0.052 -0.12,-0.088 0,-0.008 0.004,-0.02 0.008,-0.024 0.324,-0.376 0.564,-0.828 0.564,-1.324 0,-0.04 0.032,-0.076 0.064,-0.064 0.088,0.028 0.18,0.052 0.276,0.052 0.096,0 0.188,-0.024 0.276,-0.052 0.052,-0.016 0.088,0.036 0.064,0.064 l -1.132,1.324 h 0.68 v -0.552 c 0,-0.032 0.004,-0.068 0.032,-0.084 z"
     fill="currentColor"
     id="path116"
     style="stroke-width:0.004" />
  <path
     d="m 6.8266458,6.7448198 h 0.452 c 0,0.188 0.112,0.364 0.284,0.364 0.028,0 0.044,0.02 0.044,0.044 0,0.024 -0.016,0.044 -0.044,0.044 -0.172,0 -0.336,-0.052 -0.508,-0.052 -0.172,0 -0.34,0.052 -0.512,0.052 -0.028,0 -0.044,-0.02 -0.044,-0.044 0,-0.024 0.016,-0.044 0.044,-0.044 0.172,0 0.284,-0.176 0.284,-0.364 z m 0.032,-0.796 c 0.088,-0.056 0.176,-0.112 0.236,-0.196 0.044,-0.06 0.068,-0.132 0.1,-0.2 0.016,-0.04 0.084,-0.024 0.084,0.032 v 1 h 0.284 c 0.036,0 0.056,0.028 0.056,0.056 0,0.028 -0.02,0.056 -0.056,0.056 h -0.284 v 0.048 h -0.452 v -0.048 h -0.68 c -0.088,0 -0.12,-0.052 -0.12,-0.088 0,-0.008 0.004,-0.02 0.008,-0.024 0.324,-0.376 0.564,-0.828 0.564,-1.324 0,-0.04 0.032,-0.076 0.064,-0.064 0.088,0.028 0.18,0.052 0.276,0.052 0.096,0 0.188,-0.024 0.276,-0.052 0.052,-0.016 0.088,0.036 0.064,0.064 l -1.132,1.324 h 0.68 v -0.552 c 0,-0.032 0.004,-0.068 0.032,-0.084 z"
     fill="currentColor"
     id="path118"
     style="stroke-width:0.004" />
  <path
     d="m 2.9026458,8.5513198 -0.004,0.164 h -0.02 c -0.432,0 -0.784,-0.352 -0.784,-0.784 0,-0.232 0.216,-0.416 0.452,-0.416 0.216,0 0.38,0.192 0.38,0.416 0,0.208 -0.172,0.38 -0.38,0.38 -0.044,0 -0.092,-0.012 -0.136,-0.032 0.104,0.16 0.276,0.272 0.476,0.272 z m 0.432,-3.416 c 0.02,0 0.036,-0.004 0.056,-0.004 0.62,0 1.02,0.512 1.02,1.04 0,0.304 -0.132,0.616 -0.428,0.836 -0.088,0.068 -0.188,0.112 -0.292,0.144 0.012,0.14 0.02,0.284 0.02,0.428 0,0.076 -0.004,0.152 -0.008,0.228 -0.028,0.476 -0.348,0.896 -0.804,0.908 l 0.004,-0.164 c 0.372,-0.008 0.616,-0.372 0.64,-0.768 0.004,-0.072 0.004,-0.144 0.004,-0.216 0,-0.124 -0.004,-0.252 -0.016,-0.376 -0.116,0.02 -0.232,0.032 -0.356,0.032 -0.752,0 -1.332,-0.688 -1.332,-1.492 0,-0.708 0.528,-1.228 0.996,-1.764 -0.076,-0.252 -0.14,-0.5 -0.172,-0.76 -0.024,-0.204 -0.028,-0.412 -0.028,-0.62 0,-0.464 0.224,-0.904 0.6,-1.176 0.02,-0.016 0.052,-0.012 0.072,0.004 0.28,0.336 0.528,0.98 0.528,1.432 0,0.572 -0.344,1.02 -0.724,1.456 0.08,0.276 0.152,0.552 0.22,0.832 z m 0.34,1.86 c 0.276,-0.096 0.46,-0.384 0.46,-0.66 0,-0.364 -0.272,-0.728 -0.704,-0.768 0.1,0.468 0.188,0.932 0.244,1.428 z m -1.548,-0.936 c 0,0.544 0.52,1 1.06,1 0.112,0 0.22,-0.008 0.328,-0.024 -0.056,-0.508 -0.152,-0.984 -0.256,-1.464 -0.316,0.036 -0.496,0.248 -0.496,0.48 0,0.176 0.104,0.364 0.328,0.492 0.02,0.016 0.024,0.04 0.024,0.06 0,0.044 -0.036,0.084 -0.084,0.084 -0.012,0 -0.02,-0.004 -0.032,-0.008 -0.32,-0.172 -0.468,-0.456 -0.468,-0.736 0,-0.352 0.232,-0.692 0.636,-0.784 -0.056,-0.236 -0.12,-0.476 -0.184,-0.708 -0.428,0.484 -0.856,0.968 -0.856,1.608 z m 1.432,-3.54 c 0,-0.228 -0.016,-0.32 -0.084,-0.528 -0.396,0.196 -0.648,0.6 -0.648,1.04 0,0.3 0.068,0.54 0.14,0.788 0.324,-0.388 0.592,-0.796 0.592,-1.3 z"
     fill="currentColor"
     id="path120"
     style="stroke-width:0.004" />
  <path
     d="m 10.497646,7.6393198 c 0.216,0 0.424,0.108 0.424,0.348 0,0.284 -0.224,0.48 -0.412,0.592 -0.144,0.084 -0.304,0.14 -0.468,0.14 -0.2160002,0 -0.4240002,-0.108 -0.4240002,-0.348 0,-0.284 0.224,-0.48 0.4120002,-0.592 0.144,-0.084 0.304,-0.14 0.468,-0.14 z"
     fill="currentColor"
     id="path122"
     style="stroke-width:0.004" />
  <path
     d="m 25.993646,7.1793198 0.4,-1.308 c -0.14,0.048 -0.28,0.092 -0.428,0.092 -0.184,0 -0.348,-0.132 -0.348,-0.316 0,-0.156 0.124,-0.288 0.284,-0.288 0.1,0 0.196,0.064 0.228,0.16 0.04,0.112 0.024,0.236 0.14,0.236 0.068,0 0.224,-0.208 0.244,-0.276 l 0.184,-0.608 c -0.136,0.048 -0.276,0.092 -0.42,0.092 -0.184,0 -0.348,-0.132 -0.348,-0.316 0,-0.156 0.124,-0.288 0.284,-0.288 0.1,0 0.196,0.064 0.228,0.16 0.04,0.112 0.024,0.236 0.14,0.236 0.064,0 0.204,-0.208 0.232,-0.268 0.02,-0.044 0.088,-0.044 0.104,0 l -0.72,2.692 c -0.028,0.024 -0.068,0.036 -0.104,0.036 -0.036,0 -0.072,-0.012 -0.1,-0.036 z"
     fill="currentColor"
     id="path124"
     style="stroke-width:0.004" />
  <text
     font-family="serif"
     font-style="italic"
     font-size="1.7465px"
     text-anchor="start"
     fill="currentColor"
     id="text128"
     x="47.372444"
     y="2.1910198"><tspan
       id="tspan126">5</tspan></text>
  <line
     stroke-linejoin="round"
     stroke-linecap="round"
     stroke-width="0.1504"
     stroke="currentColor"
     x1="52.126247"
     y1="1.6323198"
     x2="52.126247"
     y2="2.3323197"
     id="line130" />
  <line
     stroke-linejoin="round"
     stroke-linecap="round"
     stroke-width="0.1504"
     stroke="currentColor"
     x1="43.487846"
     y1="1.6323198"
     x2="43.487846"
     y2="2.3323197"
     id="line132" />
  <line
     stroke-linejoin="round"
     stroke-linecap="round"
     stroke-width="0.1504"
     stroke="currentColor"
     x1="52.126247"
     y1="1.6323198"
     x2="48.841644"
     y2="1.6323198"
     id="line134" />
  <line
     stroke-linejoin="round"
     stroke-linecap="round"
     stroke-width="0.1504"
     stroke="currentColor"
     x1="43.487846"
     y1="1.6323198"
     x2="46.972446"
     y2="1.6323198"
     id="line136" />
  <polygon
     transform="translate(49.810046,4.7156198)"
     stroke-linejoin="round"
     stroke-linecap="round"
     stroke-width="0.0611"
     fill="currentColor"
     stroke="currentColor"
     points="1.0126,0.3199 -0.0306,-0.0191 -0.0306,0.4667 1.0126,0.8056 "
     id="polygon138" />
  <rect
     x="49.687847"
     y="4.6793199"
     width="0.1222"
     height="3.3081"
     ry="0.036400001"
     fill="currentColor"
     id="rect140" />
  <path
     d="m 49.384846,7.6393198 c 0.216,0 0.424,0.108 0.424,0.348 0,0.284 -0.224,0.48 -0.412,0.592 -0.144,0.084 -0.304,0.14 -0.468,0.14 -0.216,0 -0.424,-0.108 -0.424,-0.348 0,-0.284 0.224,-0.48 0.412,-0.592 0.144,-0.084 0.304,-0.14 0.468,-0.14 z"
     fill="currentColor"
     id="path142"
     style="stroke-width:0.004" />
  <path
     d="m 46.380846,7.1793198 0.4,-1.308 c -0.14,0.048 -0.28,0.092 -0.428,0.092 -0.184,0 -0.348,-0.132 -0.348,-0.316 0,-0.156 0.124,-0.288 0.284,-0.288 0.1,0 0.196,0.064 0.228,0.16 0.04,0.112 0.024,0.236 0.14,0.236 0.068,0 0.224,-0.208 0.244,-0.276 l 0.184,-0.608 c -0.136,0.048 -0.276,0.092 -0.42,0.092 -0.184,0 -0.348,-0.132 -0.348,-0.316 0,-0.156 0.124,-0.288 0.284,-0.288 0.1,0 0.196,0.064 0.228,0.16 0.04,0.112 0.024,0.236 0.14,0.236 0.064,0 0.204,-0.208 0.232,-0.268 0.02,-0.044 0.088,-0.044 0.104,0 l -0.72,2.692 c -0.028,0.024 -0.068,0.036 -0.104,0.036 -0.036,0 -0.072,-0.012 -0.1,-0.036 z"
     fill="currentColor"
     id="path144"
     style="stroke-width:0.004" />
</svg>
