<?xml version="1.0" encoding="UTF-8" standalone="no"?>
<svg
   version="1.2"
   width="65.210442mm"
   height="18.007635mm"
   viewBox="0 0 30.923599 8.5394449"
   id="svg88"
   sodipodi:docname="README-17.svg"
   xmlns:inkscape="http://www.inkscape.org/namespaces/inkscape"
   xmlns:sodipodi="http://sodipodi.sourceforge.net/DTD/sodipodi-0.dtd"
   xmlns="http://www.w3.org/2000/svg"
   xmlns:svg="http://www.w3.org/2000/svg">
  <defs
     id="defs92" />
  <sodipodi:namedview
     id="namedview90"
     pagecolor="#ffffff"
     bordercolor="#666666"
     borderopacity="1.0"
     inkscape:pageshadow="2"
     inkscape:pageopacity="0.0"
     inkscape:pagecheckerboard="0"
     inkscape:document-units="mm" />
  <style
     text="style/css"
     id="style2"><![CDATA[
tspan { white-space: pre; }
]]></style>
  <!-- Page: 1/1 -->
  <g
     color="#7f7f7f"
     id="g14"
     transform="translate(-12.045,-3.3591)">
    <line
       transform="translate(12.045,9.1391)"
       stroke-linejoin="round"
       stroke-linecap="round"
       stroke-width="0.089"
       stroke="currentColor"
       x1="0.044500001"
       y1="0"
       x2="30.879"
       y2="0"
       id="line4" />
    <line
       transform="translate(12.045,8.1391)"
       stroke-linejoin="round"
       stroke-linecap="round"
       stroke-width="0.089"
       stroke="currentColor"
       x1="0.044500001"
       y1="0"
       x2="30.879"
       y2="0"
       id="line6" />
    <line
       transform="translate(12.045,7.1391)"
       stroke-linejoin="round"
       stroke-linecap="round"
       stroke-width="0.089"
       stroke="currentColor"
       x1="0.044500001"
       y1="0"
       x2="30.879"
       y2="0"
       id="line8" />
    <line
       transform="translate(12.045,6.1391)"
       stroke-linejoin="round"
       stroke-linecap="round"
       stroke-width="0.089"
       stroke="currentColor"
       x1="0.044500001"
       y1="0"
       x2="30.879"
       y2="0"
       id="line10" />
    <line
       transform="translate(12.045,5.1391)"
       stroke-linejoin="round"
       stroke-linecap="round"
       stroke-width="0.089"
       stroke="currentColor"
       x1="0.044500001"
       y1="0"
       x2="30.879"
       y2="0"
       id="line12" />
  </g>
  <rect
     x="11.7928"
     y="6.6855001"
     width="1.8073"
     height="0.189"
     ry="0.094499998"
     fill="currentColor"
     id="rect16" />
  <rect
     x="8.2384005"
     y="6.6855001"
     width="1.9586999"
     height="0.189"
     ry="0.094499998"
     fill="currentColor"
     id="rect18" />
  <rect
     x="30.7544"
     y="1.7354999"
     width="0.1692"
     height="4.0890002"
     ry="0.0000"
     fill="currentColor"
     id="rect20" />
  <path
     d="m 21.2087,5.24 c 0.212,0 0.416,0.108 0.416,0.344 0,0.284 -0.224,0.48 -0.412,0.592 -0.144,0.088 -0.304,0.144 -0.472,0.144 -0.212,0 -0.42,-0.108 -0.42,-0.344 0,-0.284 0.228,-0.48 0.416,-0.592 0.144,-0.088 0.304,-0.144 0.472,-0.144 z"
     fill="currentColor"
     id="path22"
     style="stroke-width:0.004" />
  <path
     d="m 16.2774,5.604 -0.004,0.276 c 0,0.016 -0.004,0.028 -0.004,0.044 0,0.088 0.008,0.176 0.016,0.264 0.184,-0.152 0.384,-0.32 0.384,-0.556 0,-0.136 -0.056,-0.276 -0.176,-0.276 -0.124,0 -0.212,0.116 -0.216,0.248 z m -0.2,-1.676 c 0.032,-0.016 0.064,-0.028 0.1,-0.028 0.036,0 0.068,0.012 0.1,0.028 l -0.024,1.396 c 0.104,-0.076 0.224,-0.12 0.352,-0.12 0.212,0 0.372,0.184 0.372,0.4 0,0.328 -0.36,0.472 -0.612,0.676 -0.056,0.044 -0.088,0.128 -0.16,0.128 -0.048,0 -0.084,-0.036 -0.084,-0.084 z"
     fill="currentColor"
     id="path24"
     style="stroke-width:0.004" />
  <rect
     x="18.517401"
     y="2.9893"
     width="0.1158"
     height="2.5940001"
     ry="0.033300001"
     fill="currentColor"
     id="rect26" />
  <path
     d="m 17.1323,6.6509 c -0.032,-0.008 -0.052,-0.036 -0.052,-0.068 0,-0.04 0.04,-0.076 0.084,-0.064 l 1.648,0.428 c 0.048,0 0.068,0.02 0.068,0.068 0,0.048 -0.02,0.068 -0.068,0.068 l -1.648,0.428 c -0.044,0.012 -0.084,-0.024 -0.084,-0.064 0,-0.032 0.02,-0.06 0.052,-0.068 l 1.024,-0.264 0.56,-0.1 -0.56,-0.1 z"
     fill="currentColor"
     id="path28"
     style="stroke-width:0.004" />
  <path
     d="m 18.2154,5.24 c 0.212,0 0.416,0.108 0.416,0.344 0,0.284 -0.224,0.48 -0.412,0.592 -0.144,0.088 -0.304,0.144 -0.472,0.144 -0.212,0 -0.42,-0.108 -0.42,-0.344 0,-0.284 0.228,-0.48 0.416,-0.592 0.144,-0.088 0.304,-0.144 0.472,-0.144 z"
     fill="currentColor"
     id="path30"
     style="stroke-width:0.004" />
  <rect
     x="15.5578"
     y="3.1856999"
     width="0.1158"
     height="2.8975999"
     ry="0.033300001"
     fill="currentColor"
     id="rect32" />
  <path
     d="m 14.1727,7.1509 c -0.032,-0.008 -0.052,-0.036 -0.052,-0.068 0,-0.04 0.04,-0.076 0.084,-0.064 l 1.648,0.428 c 0.048,0 0.068,0.02 0.068,0.068 0,0.048 -0.02,0.068 -0.068,0.068 l -1.648,0.428 c -0.044,0.012 -0.084,-0.024 -0.084,-0.064 0,-0.032 0.02,-0.06 0.052,-0.068 l 1.024,-0.264 0.56,-0.1 -0.56,-0.1 z"
     fill="currentColor"
     id="path34"
     style="stroke-width:0.004" />
  <path
     d="m 15.2558,5.74 c 0.212,0 0.416,0.108 0.416,0.344 0,0.284 -0.224,0.48 -0.412,0.592 -0.144,0.088 -0.304,0.144 -0.472,0.144 -0.212,0 -0.42,-0.108 -0.42,-0.344 0,-0.284 0.228,-0.48 0.416,-0.592 0.144,-0.088 0.304,-0.144 0.472,-0.144 z"
     fill="currentColor"
     id="path36"
     style="stroke-width:0.004" />
  <path
     d="m 11.3778,8.044 c 0,0.036 -0.032,0.068 -0.068,0.068 -0.036,0 -0.068,-0.032 -0.068,-0.068 V 7.44 l -0.348,0.124 v 0.648 c 0,0.036 -0.032,0.068 -0.068,0.068 -0.036,0 -0.068,-0.032 -0.068,-0.068 v -0.6 l -0.156,0.052 c -0.04,0.016 -0.084,-0.016 -0.084,-0.06 V 7.348 c 0,-0.028 0.02,-0.052 0.044,-0.06 l 0.196,-0.072 V 6.56 l -0.156,0.056 c -0.04,0.016 -0.084,-0.016 -0.084,-0.06 v -0.26 c 0,-0.028 0.02,-0.052 0.044,-0.06 l 0.196,-0.068 V 5.516 c 0,-0.036 0.032,-0.068 0.068,-0.068 0.036,0 0.068,0.032 0.068,0.068 V 6.12 l 0.348,-0.124 V 5.348 c 0,-0.036 0.032,-0.068 0.068,-0.068 0.036,0 0.068,0.032 0.068,0.068 v 0.6 l 0.156,-0.052 c 0.04,-0.016 0.084,0.016 0.084,0.06 v 0.256 c 0,0.028 -0.02,0.052 -0.044,0.06 l -0.196,0.072 V 7 l 0.156,-0.056 c 0.04,-0.016 0.084,0.016 0.084,0.06 v 0.26 c 0,0.028 -0.02,0.052 -0.044,0.06 l -0.196,0.068 z m -0.484,-1.532 v 0.656 l 0.348,-0.12 V 6.392 Z"
     fill="currentColor"
     id="path38"
     style="stroke-width:0.004" />
  <polygon
     transform="translate(9.7549,3.5745)"
     stroke-linejoin="round"
     stroke-linecap="round"
     stroke-width="0.0667"
     fill="currentColor"
     stroke="currentColor"
     points="0.0333,0.2167 0.0333,-0.2167 8.8449,-0.8057 8.8449,-0.3724 "
     id="polygon40" />
  <polygon
     transform="translate(21.5107,2.5745)"
     stroke-linejoin="round"
     stroke-linecap="round"
     stroke-width="0.0667"
     fill="currentColor"
     stroke="currentColor"
     points="0.0333,0.2167 0.0333,-0.2167 8.2853,-0.8057 8.2853,-0.3724 "
     id="polygon42" />
  <rect
     x="27.313601"
     y="2.1595001"
     width="0.1158"
     height="2.9238"
     ry="0.033300001"
     fill="currentColor"
     id="rect44" />
  <path
     d="m 25.9285,6.1771 c -0.032,-0.008 -0.052,-0.036 -0.052,-0.068 0,-0.04 0.04,-0.076 0.084,-0.064 l 1.648,0.428 c 0.048,0 0.068,0.02 0.068,0.068 0,0.048 -0.02,0.068 -0.068,0.068 l -1.648,0.428 c -0.044,0.012 -0.084,-0.024 -0.084,-0.064 0,-0.032 0.02,-0.06 0.052,-0.068 l 1.024,-0.264 0.56,-0.1 -0.56,-0.1 z"
     fill="currentColor"
     id="path46"
     style="stroke-width:0.004" />
  <path
     d="m 27.0115,4.74 c 0.212,0 0.416,0.108 0.416,0.344 0,0.284 -0.224,0.48 -0.412,0.592 -0.144,0.088 -0.304,0.144 -0.472,0.144 -0.212,0 -0.42,-0.108 -0.42,-0.344 0,-0.284 0.228,-0.48 0.416,-0.592 0.144,-0.088 0.304,-0.144 0.472,-0.144 z"
     fill="currentColor"
     id="path48"
     style="stroke-width:0.004" />
  <path
     d="m 20.1256,7.636 c -0.032,-0.008 -0.052,-0.036 -0.052,-0.068 0,-0.04 0.04,-0.076 0.084,-0.064 l 1.648,0.428 c 0.048,0 0.068,0.02 0.068,0.068 0,0.048 -0.02,0.068 -0.068,0.068 l -1.648,0.428 c -0.044,0.012 -0.084,-0.024 -0.084,-0.064 0,-0.032 0.02,-0.06 0.052,-0.068 l 1.024,-0.264 0.56,-0.1 -0.56,-0.1 z"
     fill="currentColor"
     id="path50"
     style="stroke-width:0.004" />
  <rect
     x="23.9107"
     y="2.4005001"
     width="0.1158"
     height="2.6828001"
     ry="0.033300001"
     fill="currentColor"
     id="rect52" />
  <path
     d="m 22.5256,6.1565 c -0.032,-0.008 -0.052,-0.036 -0.052,-0.068 0,-0.04 0.04,-0.076 0.084,-0.064 l 1.648,0.428 c 0.048,0 0.068,0.02 0.068,0.068 0,0.048 -0.02,0.068 -0.068,0.068 l -1.648,0.428 c -0.044,0.012 -0.084,-0.024 -0.084,-0.064 0,-0.032 0.02,-0.06 0.052,-0.068 l 1.024,-0.264 0.56,-0.1 -0.56,-0.1 z"
     fill="currentColor"
     id="path54"
     style="stroke-width:0.004" />
  <path
     d="m 23.6087,4.74 c 0.212,0 0.416,0.108 0.416,0.344 0,0.284 -0.224,0.48 -0.412,0.592 -0.144,0.088 -0.304,0.144 -0.472,0.144 -0.212,0 -0.42,-0.108 -0.42,-0.344 0,-0.284 0.228,-0.48 0.416,-0.592 0.144,-0.088 0.304,-0.144 0.472,-0.144 z"
     fill="currentColor"
     id="path56"
     style="stroke-width:0.004" />
  <path
     d="m 19.2523,4.28 c 0.028,-0.016 0.064,-0.024 0.096,-0.024 0.032,0 0.064,0.008 0.092,0.024 l -0.008,0.708 0.436,-0.072 c 0.004,0 0.008,-0.004 0.012,-0.004 0.036,0 0.068,0.032 0.068,0.068 l 0.028,2.3 c -0.028,0.016 -0.064,0.024 -0.096,0.024 -0.032,0 -0.068,-0.008 -0.096,-0.024 l 0.008,-0.708 -0.436,0.072 c -0.004,0 -0.004,0.004 -0.008,0.004 -0.036,0 -0.068,-0.032 -0.068,-0.068 z m 0.556,1.044 -0.38,0.06 -0.012,0.852 0.384,-0.06 z"
     fill="currentColor"
     id="path58"
     style="stroke-width:0.004" />
  <rect
     x="21.5107"
     y="2.5704"
     width="0.1158"
     height="3.0128"
     ry="0.033300001"
     fill="currentColor"
     id="rect60" />
  <path
     d="m 28.3285,6.1565 c -0.032,-0.008 -0.052,-0.036 -0.052,-0.068 0,-0.04 0.04,-0.076 0.084,-0.064 l 1.648,0.428 c 0.048,0 0.068,0.02 0.068,0.068 0,0.048 -0.02,0.068 -0.068,0.068 l -1.648,0.428 c -0.044,0.012 -0.084,-0.024 -0.084,-0.064 0,-0.032 0.02,-0.06 0.052,-0.068 l 1.024,-0.264 0.56,-0.1 -0.56,-0.1 z"
     fill="currentColor"
     id="path62"
     style="stroke-width:0.004" />
  <path
     d="m 25.5335,6.544 c 0,0.036 -0.032,0.068 -0.068,0.068 -0.036,0 -0.068,-0.032 -0.068,-0.068 V 5.94 l -0.348,0.124 v 0.648 c 0,0.036 -0.032,0.068 -0.068,0.068 -0.036,0 -0.068,-0.032 -0.068,-0.068 v -0.6 l -0.156,0.052 c -0.04,0.016 -0.084,-0.016 -0.084,-0.06 V 5.848 c 0,-0.028 0.02,-0.052 0.044,-0.06 l 0.196,-0.072 V 5.06 l -0.156,0.056 c -0.04,0.016 -0.084,-0.016 -0.084,-0.06 v -0.26 c 0,-0.028 0.02,-0.052 0.044,-0.06 l 0.196,-0.068 V 4.016 c 0,-0.036 0.032,-0.068 0.068,-0.068 0.036,0 0.068,0.032 0.068,0.068 V 4.62 l 0.348,-0.124 V 3.848 c 0,-0.036 0.032,-0.068 0.068,-0.068 0.036,0 0.068,0.032 0.068,0.068 v 0.6 l 0.156,-0.052 c 0.04,-0.016 0.084,0.016 0.084,0.06 v 0.256 c 0,0.028 -0.02,0.052 -0.044,0.06 l -0.196,0.072 V 5.5 l 0.156,-0.056 c 0.04,-0.016 0.084,0.016 0.084,0.06 v 0.26 c 0,0.028 -0.02,0.052 -0.044,0.06 l -0.196,0.068 z m -0.484,-1.532 v 0.656 l 0.348,-0.12 V 4.892 Z"
     fill="currentColor"
     id="path64"
     style="stroke-width:0.004" />
  <path
     d="m 29.4115,4.24 c 0.212,0 0.416,0.108 0.416,0.344 0,0.284 -0.224,0.48 -0.412,0.592 -0.144,0.088 -0.304,0.144 -0.472,0.144 -0.212,0 -0.42,-0.108 -0.42,-0.344 0,-0.284 0.228,-0.48 0.416,-0.592 0.144,-0.088 0.304,-0.144 0.472,-0.144 z"
     fill="currentColor"
     id="path66"
     style="stroke-width:0.004" />
  <rect
     x="9.7549"
     y="3.5706999"
     width="0.1158"
     height="3.0125999"
     ry="0.033300001"
     fill="currentColor"
     id="rect68" />
  <path
     d="M 5.832,2.504 C 5.916,2.452 6,2.396 6.06,2.316 6.104,2.256 6.132,2.188 6.16,2.12 6.176,2.084 6.24,2.092 6.24,2.148 v 1.024 h 0.272 c 0.036,0 0.052,0.028 0.052,0.056 0,0.028 -0.016,0.052 -0.052,0.052 H 6.24 v 0.064 c 0,0.18 0.104,0.352 0.272,0.352 0.028,0 0.04,0.02 0.04,0.04 0,0.02 -0.012,0.044 -0.04,0.044 C 6.348,3.78 6.184,3.728 6.02,3.728 5.856,3.728 5.692,3.78 5.528,3.78 5.5,3.78 5.488,3.756 5.488,3.736 5.488,3.716 5.5,3.696 5.528,3.696 5.696,3.696 5.8,3.524 5.8,3.344 V 3.28 H 5.108 C 5.024,3.28 4.992,3.228 4.992,3.196 4.992,3.188 4.996,3.176 5,3.172 5.324,2.788 5.584,2.34 5.584,1.84 5.584,1.8 5.612,1.768 5.644,1.78 5.732,1.808 5.82,1.832 5.912,1.832 6.004,1.832 6.092,1.808 6.18,1.78 6.228,1.764 6.264,1.812 6.24,1.84 L 5.108,3.172 H 5.8 V 2.584 C 5.8,2.552 5.808,2.52 5.832,2.504 Z"
     fill="currentColor"
     id="path70"
     style="stroke-width:0.004" />
  <path
     d="M 5.832,4.5241 C 5.916,4.4721 6,4.4161 6.06,4.3361 c 0.044,-0.06 0.072,-0.128 0.1,-0.196 0.016,-0.036 0.08,-0.028 0.08,0.028 v 1.024 h 0.272 c 0.036,0 0.052,0.028 0.052,0.056 0,0.028 -0.016,0.052 -0.052,0.052 H 6.24 v 0.064 c 0,0.18 0.104,0.352 0.272,0.352 0.028,0 0.04,0.02 0.04,0.04 0,0.02 -0.012,0.044 -0.04,0.044 -0.164,0 -0.328,-0.052 -0.492,-0.052 -0.164,0 -0.328,0.052 -0.492,0.052 -0.028,0 -0.04,-0.024 -0.04,-0.044 0,-0.02 0.012,-0.04 0.04,-0.04 0.168,0 0.272,-0.172 0.272,-0.352 V 5.3001 H 5.108 c -0.084,0 -0.116,-0.052 -0.116,-0.084 0,-0.008 0.004,-0.02 0.008,-0.024 0.324,-0.384 0.584,-0.832 0.584,-1.332 0,-0.04 0.028,-0.072 0.06,-0.06 0.088,0.028 0.176,0.052 0.268,0.052 0.092,0 0.18,-0.024 0.268,-0.052 0.048,-0.016 0.084,0.032 0.06,0.06 L 5.108,5.1921 H 5.8 v -0.588 c 0,-0.032 0.008,-0.064 0.032,-0.08 z"
     fill="currentColor"
     id="path72"
     style="stroke-width:0.004" />
  <path
     d="m 2.296,3.74 c 0.02,0 0.04,-0.004 0.06,-0.004 0.616,0 1.016,0.508 1.016,1.036 0,0.304 -0.132,0.612 -0.428,0.832 -0.088,0.068 -0.188,0.116 -0.292,0.148 0.012,0.144 0.02,0.288 0.02,0.432 0,0.076 0,0.148 -0.004,0.224 -0.028,0.48 -0.352,0.904 -0.824,0.904 -0.432,0 -0.78,-0.348 -0.78,-0.78 0,-0.232 0.212,-0.416 0.448,-0.416 0.216,0 0.38,0.192 0.38,0.416 0,0.208 -0.172,0.38 -0.38,0.38 -0.048,0 -0.096,-0.016 -0.14,-0.036 0.104,0.164 0.28,0.28 0.484,0.28 0.004,0 0.008,-0.004 0.012,-0.004 C 2.24,7.144 2.484,6.78 2.508,6.384 2.512,6.312 2.516,6.244 2.516,6.172 2.516,6.044 2.508,5.916 2.496,5.788 2.38,5.808 2.264,5.82 2.14,5.82 1.388,5.82 0.808,5.136 0.808,4.332 0.808,3.62 1.34,3.108 1.812,2.572 1.74,2.32 1.672,2.068 1.644,1.808 1.62,1.604 1.616,1.4 1.616,1.192 c 0,-0.464 0.22,-0.904 0.6,-1.18 0.02,-0.016 0.044,-0.016 0.064,0 0.28,0.336 0.528,0.984 0.528,1.436 0,0.576 -0.348,1.024 -0.732,1.46 0.08,0.276 0.156,0.552 0.22,0.832 z M 2.636,5.6 C 2.912,5.504 3.104,5.216 3.104,4.936 3.104,4.568 2.828,4.2 2.388,4.164 2.488,4.632 2.58,5.104 2.636,5.6 Z M 1.084,4.656 C 1.084,5.2 1.608,5.66 2.152,5.66 2.264,5.66 2.372,5.652 2.48,5.636 2.42,5.124 2.328,4.648 2.224,4.168 1.908,4.204 1.724,4.416 1.724,4.652 1.724,4.828 1.828,5.02 2.052,5.148 2.068,5.164 2.08,5.184 2.08,5.204 2.08,5.248 2.044,5.288 2,5.288 1.988,5.288 1.976,5.284 1.964,5.28 1.644,5.108 1.5,4.824 1.5,4.544 1.5,4.192 1.728,3.852 2.132,3.76 2.076,3.52 2.012,3.284 1.948,3.048 1.516,3.532 1.084,4.016 1.084,4.656 Z M 2.444,0.58 C 2.048,0.78 1.8,1.184 1.8,1.628 1.8,1.932 1.86,2.176 1.932,2.428 2.26,2.04 2.528,1.636 2.528,1.128 2.528,0.896 2.512,0.792 2.444,0.58 Z"
     fill="currentColor"
     id="path74"
     style="stroke-width:0.004" />
  <path
     d="m 8.3698,7.6509 c -0.032,-0.008 -0.052,-0.036 -0.052,-0.068 0,-0.04 0.04,-0.076 0.084,-0.064 l 1.648,0.428 c 0.048,0 0.068,0.02 0.068,0.068 0,0.048 -0.02,0.068 -0.068,0.068 l -1.648,0.428 c -0.044,0.012 -0.084,-0.024 -0.084,-0.064 0,-0.032 0.02,-0.06 0.052,-0.068 l 1.024,-0.264 0.56,-0.1 -0.56,-0.1 z"
     fill="currentColor"
     id="path76"
     style="stroke-width:0.004" />
  <path
     d="m 9.4529,6.24 c 0.212,0 0.416,0.108 0.416,0.344 0,0.284 -0.224,0.48 -0.412,0.592 -0.144,0.088 -0.304,0.144 -0.472,0.144 -0.212,0 -0.42,-0.108 -0.42,-0.344 0,-0.284 0.228,-0.48 0.416,-0.592 0.144,-0.088 0.304,-0.144 0.472,-0.144 z"
     fill="currentColor"
     id="path78"
     style="stroke-width:0.004" />
  <rect
     x="13.1578"
     y="3.3448999"
     width="0.1158"
     height="3.2384"
     ry="0.033300001"
     fill="currentColor"
     id="rect80" />
  <path
     d="m 11.7727,7.6771 c -0.032,-0.008 -0.052,-0.036 -0.052,-0.068 0,-0.04 0.04,-0.076 0.084,-0.064 l 1.648,0.428 c 0.048,0 0.068,0.02 0.068,0.068 0,0.048 -0.02,0.068 -0.068,0.068 l -1.648,0.428 c -0.044,0.012 -0.084,-0.024 -0.084,-0.064 0,-0.032 0.02,-0.06 0.052,-0.068 l 1.024,-0.264 0.56,-0.1 -0.56,-0.1 z"
     fill="currentColor"
     id="path82"
     style="stroke-width:0.004" />
  <path
     d="m 12.8558,6.24 c 0.212,0 0.416,0.108 0.416,0.344 0,0.284 -0.224,0.48 -0.412,0.592 -0.144,0.088 -0.304,0.144 -0.472,0.144 -0.212,0 -0.42,-0.108 -0.42,-0.344 0,-0.284 0.228,-0.48 0.416,-0.592 0.144,-0.088 0.304,-0.144 0.472,-0.144 z"
     fill="currentColor"
     id="path84"
     style="stroke-width:0.004" />
  <rect
     x="29.7136"
     y="1.9895999"
     width="0.1158"
     height="2.5936999"
     ry="0.033300001"
     fill="currentColor"
     id="rect86" />
</svg>
