<?xml version="1.0" encoding="UTF-8" standalone="no"?>
<svg
   version="1.2"
   width="85.721031mm"
   height="11.539845mm"
   viewBox="0 0 48.780002 6.5668093"
   id="svg154"
   sodipodi:docname="README-13.svg"
   xmlns:inkscape="http://www.inkscape.org/namespaces/inkscape"
   xmlns:sodipodi="http://sodipodi.sourceforge.net/DTD/sodipodi-0.dtd"
   xmlns="http://www.w3.org/2000/svg"
   xmlns:svg="http://www.w3.org/2000/svg">
  <defs
     id="defs158" />
  <sodipodi:namedview
     id="namedview156"
     pagecolor="#ffffff"
     bordercolor="#666666"
     borderopacity="1.0"
     inkscape:pageshadow="2"
     inkscape:pageopacity="0.0"
     inkscape:pagecheckerboard="0"
     inkscape:document-units="mm" />
  <style
     text="style/css"
     id="style2"><![CDATA[
tspan { white-space: pre; }
]]></style>
  <!-- Page: 1/1 -->
  <text
     font-family="serif"
     font-size="2.2001px"
     text-anchor="start"
     fill="currentColor"
     id="text6"
     y="-1.0046909"><tspan
       id="tspan4" /></text>
  <line
     stroke-linejoin="round"
     stroke-linecap="round"
     stroke-width="0.1"
     stroke="currentColor"
     x1="0.050000001"
     y1="6.022809"
     x2="48.450001"
     y2="6.022809"
     id="line8" />
  <path
     d="m 13.372,5.4788091 c 0.22,0 0.432,0.112 0.432,0.356 0,0.284 -0.22,0.484 -0.408,0.596 -0.14,0.084 -0.3,0.136 -0.464,0.136 -0.22,0 -0.432,-0.112 -0.432,-0.356 0,-0.284 0.22,-0.484 0.408,-0.596 0.14,-0.084 0.3,-0.136 0.464,-0.136 z"
     fill="currentColor"
     id="path10"
     style="stroke-width:0.004" />
  <path
     d="m 20.572,5.4788091 c 0.22,0 0.432,0.112 0.432,0.356 0,0.284 -0.22,0.484 -0.408,0.596 -0.14,0.084 -0.3,0.136 -0.464,0.136 -0.22,0 -0.432,-0.112 -0.432,-0.356 0,-0.284 0.22,-0.484 0.408,-0.596 0.14,-0.084 0.3,-0.136 0.464,-0.136 z"
     fill="currentColor"
     id="path12"
     style="stroke-width:0.004" />
  <rect
     x="13.6742"
     y="2.832809"
     width="0.13"
     height="3.0039001"
     ry="0.039999999"
     fill="currentColor"
     id="rect14" />
  <path
     d="m 15.772,5.4788091 c 0.22,0 0.432,0.112 0.432,0.356 0,0.284 -0.22,0.484 -0.408,0.596 -0.14,0.084 -0.3,0.136 -0.464,0.136 -0.22,0 -0.432,-0.112 -0.432,-0.356 0,-0.284 0.22,-0.484 0.408,-0.596 0.14,-0.084 0.3,-0.136 0.464,-0.136 z"
     fill="currentColor"
     id="path16"
     style="stroke-width:0.004" />
  <rect
     x="16.0742"
     y="2.832809"
     width="0.13"
     height="3.0039001"
     ry="0.039999999"
     fill="currentColor"
     id="rect18" />
  <path
     d="m 18.172,5.4788091 c 0.22,0 0.432,0.112 0.432,0.356 0,0.284 -0.22,0.484 -0.408,0.596 -0.14,0.084 -0.3,0.136 -0.464,0.136 -0.22,0 -0.432,-0.112 -0.432,-0.356 0,-0.284 0.22,-0.484 0.408,-0.596 0.14,-0.084 0.3,-0.136 0.464,-0.136 z"
     fill="currentColor"
     id="path20"
     style="stroke-width:0.004" />
  <rect
     x="18.474199"
     y="2.832809"
     width="0.13"
     height="3.0039001"
     ry="0.039999999"
     fill="currentColor"
     id="rect22" />
  <polygon
     transform="translate(1.6742,2.8328091)"
     stroke-linejoin="round"
     stroke-linecap="round"
     stroke-width="0.08"
     fill="currentColor"
     stroke="currentColor"
     points="0.04,0.2 0.04,-0.2 9.69,-0.2 9.69,0.2 "
     id="polygon24" />
  <polygon
     transform="translate(1.6742,3.6428091)"
     stroke-linejoin="round"
     stroke-linecap="round"
     stroke-width="0.08"
     fill="currentColor"
     stroke="currentColor"
     points="0.04,0.2 0.04,-0.2 9.69,-0.2 9.69,0.2 "
     id="polygon26" />
  <path
     d="m 6.172,5.4788091 c 0.22,0 0.432,0.112 0.432,0.356 0,0.284 -0.22,0.484 -0.408,0.596 -0.14,0.084 -0.3,0.136 -0.464,0.136 -0.22,0 -0.432,-0.112 -0.432,-0.356 0,-0.284 0.22,-0.484 0.408,-0.596 0.14,-0.084 0.3,-0.136 0.464,-0.136 z"
     fill="currentColor"
     id="path28"
     style="stroke-width:0.004" />
  <rect
     x="6.4741998"
     y="2.832809"
     width="0.13"
     height="3.0039001"
     ry="0.039999999"
     fill="currentColor"
     id="rect30" />
  <path
     d="m 8.572,5.4788091 c 0.22,0 0.432,0.112 0.432,0.356 0,0.284 -0.22,0.484 -0.408,0.596 -0.14,0.084 -0.3,0.136 -0.464,0.136 -0.22,0 -0.432,-0.112 -0.432,-0.356 0,-0.284 0.22,-0.484 0.408,-0.596 0.14,-0.084 0.3,-0.136 0.464,-0.136 z"
     fill="currentColor"
     id="path32"
     style="stroke-width:0.004" />
  <rect
     x="8.8741999"
     y="2.832809"
     width="0.13"
     height="3.0039001"
     ry="0.039999999"
     fill="currentColor"
     id="rect34" />
  <path
     d="m 10.972,5.4788091 c 0.22,0 0.432,0.112 0.432,0.356 0,0.284 -0.22,0.484 -0.408,0.596 -0.14,0.084 -0.3,0.136 -0.464,0.136 -0.22,0 -0.432,-0.112 -0.432,-0.356 0,-0.284 0.22,-0.484 0.408,-0.596 0.14,-0.084 0.3,-0.136 0.464,-0.136 z"
     fill="currentColor"
     id="path36"
     style="stroke-width:0.004" />
  <rect
     x="11.2742"
     y="2.832809"
     width="0.13"
     height="3.0039001"
     ry="0.039999999"
     fill="currentColor"
     id="rect38" />
  <path
     d="m 32.572,5.4788091 c 0.22,0 0.432,0.112 0.432,0.356 0,0.284 -0.22,0.484 -0.408,0.596 -0.14,0.084 -0.3,0.136 -0.464,0.136 -0.22,0 -0.432,-0.112 -0.432,-0.356 0,-0.284 0.22,-0.484 0.408,-0.596 0.14,-0.084 0.3,-0.136 0.464,-0.136 z"
     fill="currentColor"
     id="path40"
     style="stroke-width:0.004" />
  <path
     d="m 30.172,5.4788091 c 0.22,0 0.432,0.112 0.432,0.356 0,0.284 -0.22,0.484 -0.408,0.596 -0.14,0.084 -0.3,0.136 -0.464,0.136 -0.22,0 -0.432,-0.112 -0.432,-0.356 0,-0.284 0.22,-0.484 0.408,-0.596 0.14,-0.084 0.3,-0.136 0.464,-0.136 z"
     fill="currentColor"
     id="path42"
     style="stroke-width:0.004" />
  <rect
     x="30.474199"
     y="2.832809"
     width="0.13"
     height="3.0039001"
     ry="0.039999999"
     fill="currentColor"
     id="rect44" />
  <polygon
     transform="translate(37.6742,2.8328091)"
     stroke-linejoin="round"
     stroke-linecap="round"
     stroke-width="0.08"
     fill="currentColor"
     stroke="currentColor"
     points="0.04,0.2 0.04,-0.2 9.69,-0.2 9.69,0.2 "
     id="polygon46" />
  <polygon
     transform="translate(37.6742,3.6428091)"
     stroke-linejoin="round"
     stroke-linecap="round"
     stroke-width="0.08"
     fill="currentColor"
     stroke="currentColor"
     points="0.04,0.2 0.04,-0.2 9.69,-0.2 9.69,0.2 "
     id="polygon48" />
  <text
     font-family="serif"
     font-style="italic"
     font-size="1.7461px"
     text-anchor="start"
     fill="currentColor"
     id="text52"
     x="29.8932"
     y="1.1561091"><tspan
       id="tspan50">5</tspan></text>
  <line
     stroke-linejoin="round"
     stroke-linecap="round"
     stroke-width="0.16"
     stroke="currentColor"
     x1="35.200001"
     y1="0.59280914"
     x2="35.200001"
     y2="1.2928091"
     id="line54" />
  <line
     stroke-linejoin="round"
     stroke-linecap="round"
     stroke-width="0.16"
     stroke="currentColor"
     x1="25.474199"
     y1="0.59280914"
     x2="25.474199"
     y2="1.2928091"
     id="line56" />
  <line
     stroke-linejoin="round"
     stroke-linecap="round"
     stroke-width="0.16"
     stroke="currentColor"
     x1="35.200001"
     y1="0.59280914"
     x2="31.381001"
     y2="0.59280914"
     id="line58" />
  <line
     stroke-linejoin="round"
     stroke-linecap="round"
     stroke-width="0.16"
     stroke="currentColor"
     x1="25.474199"
     y1="0.59280914"
     x2="29.4932"
     y2="0.59280914"
     id="line60" />
  <polygon
     transform="translate(25.6742,2.8328091)"
     stroke-linejoin="round"
     stroke-linecap="round"
     stroke-width="0.08"
     fill="currentColor"
     stroke="currentColor"
     points="0.04,0.2 0.04,-0.2 9.69,-0.2 9.69,0.2 "
     id="polygon62" />
  <polygon
     transform="translate(25.6742,3.6428091)"
     stroke-linejoin="round"
     stroke-linecap="round"
     stroke-width="0.08"
     fill="currentColor"
     stroke="currentColor"
     points="0.04,0.2 0.04,-0.2 9.69,-0.2 9.69,0.2 "
     id="polygon64" />
  <text
     font-family="serif"
     font-style="italic"
     font-size="1.7461px"
     text-anchor="start"
     fill="currentColor"
     id="text68"
     x="17.8932"
     y="1.1561091"><tspan
       id="tspan66">5</tspan></text>
  <line
     stroke-linejoin="round"
     stroke-linecap="round"
     stroke-width="0.16"
     stroke="currentColor"
     x1="23.199999"
     y1="0.59280914"
     x2="23.199999"
     y2="1.2928091"
     id="line70" />
  <line
     stroke-linejoin="round"
     stroke-linecap="round"
     stroke-width="0.16"
     stroke="currentColor"
     x1="13.4742"
     y1="0.59280914"
     x2="13.4742"
     y2="1.2928091"
     id="line72" />
  <line
     stroke-linejoin="round"
     stroke-linecap="round"
     stroke-width="0.16"
     stroke="currentColor"
     x1="23.199999"
     y1="0.59280914"
     x2="19.381001"
     y2="0.59280914"
     id="line74" />
  <line
     stroke-linejoin="round"
     stroke-linecap="round"
     stroke-width="0.16"
     stroke="currentColor"
     x1="13.4742"
     y1="0.59280914"
     x2="17.4932"
     y2="0.59280914"
     id="line76" />
  <polygon
     transform="translate(13.6742,2.8328091)"
     stroke-linejoin="round"
     stroke-linecap="round"
     stroke-width="0.08"
     fill="currentColor"
     stroke="currentColor"
     points="0.04,0.2 0.04,-0.2 9.69,-0.2 9.69,0.2 "
     id="polygon78" />
  <polygon
     transform="translate(13.6742,3.6428091)"
     stroke-linejoin="round"
     stroke-linecap="round"
     stroke-width="0.08"
     fill="currentColor"
     stroke="currentColor"
     points="0.04,0.2 0.04,-0.2 9.69,-0.2 9.69,0.2 "
     id="polygon80" />
  <text
     font-family="serif"
     font-style="italic"
     font-size="1.7461px"
     text-anchor="start"
     fill="currentColor"
     id="text84"
     x="5.8931999"
     y="1.1561091"><tspan
       id="tspan82">5</tspan></text>
  <line
     stroke-linejoin="round"
     stroke-linecap="round"
     stroke-width="0.16"
     stroke="currentColor"
     x1="11.2"
     y1="0.59280914"
     x2="11.2"
     y2="1.2928091"
     id="line86" />
  <line
     stroke-linejoin="round"
     stroke-linecap="round"
     stroke-width="0.16"
     stroke="currentColor"
     x1="1.4742"
     y1="0.59280914"
     x2="1.4742"
     y2="1.2928091"
     id="line88" />
  <line
     stroke-linejoin="round"
     stroke-linecap="round"
     stroke-width="0.16"
     stroke="currentColor"
     x1="11.2"
     y1="0.59280914"
     x2="7.381"
     y2="0.59280914"
     id="line90" />
  <line
     stroke-linejoin="round"
     stroke-linecap="round"
     stroke-width="0.16"
     stroke="currentColor"
     x1="1.4742"
     y1="0.59280914"
     x2="5.4931998"
     y2="0.59280914"
     id="line92" />
  <path
     d="m 22.972,5.4788091 c 0.22,0 0.432,0.112 0.432,0.356 0,0.284 -0.22,0.484 -0.408,0.596 -0.14,0.084 -0.3,0.136 -0.464,0.136 -0.22,0 -0.432,-0.112 -0.432,-0.356 0,-0.284 0.22,-0.484 0.408,-0.596 0.14,-0.084 0.3,-0.136 0.464,-0.136 z"
     fill="currentColor"
     id="path94"
     style="stroke-width:0.004" />
  <rect
     x="23.2742"
     y="2.832809"
     width="0.13"
     height="3.0039001"
     ry="0.039999999"
     fill="currentColor"
     id="rect96" />
  <rect
     x="20.874201"
     y="2.832809"
     width="0.13"
     height="3.0039001"
     ry="0.039999999"
     fill="currentColor"
     id="rect98" />
  <path
     d="m 25.372,5.4788091 c 0.22,0 0.432,0.112 0.432,0.356 0,0.284 -0.22,0.484 -0.408,0.596 -0.14,0.084 -0.3,0.136 -0.464,0.136 -0.22,0 -0.432,-0.112 -0.432,-0.356 0,-0.284 0.22,-0.484 0.408,-0.596 0.14,-0.084 0.3,-0.136 0.464,-0.136 z"
     fill="currentColor"
     id="path100"
     style="stroke-width:0.004" />
  <rect
     x="25.6742"
     y="2.832809"
     width="0.13"
     height="3.0039001"
     ry="0.039999999"
     fill="currentColor"
     id="rect102" />
  <path
     d="m 27.772,5.4788091 c 0.22,0 0.432,0.112 0.432,0.356 0,0.284 -0.22,0.484 -0.408,0.596 -0.14,0.084 -0.3,0.136 -0.464,0.136 -0.22,0 -0.432,-0.112 -0.432,-0.356 0,-0.284 0.22,-0.484 0.408,-0.596 0.14,-0.084 0.3,-0.136 0.464,-0.136 z"
     fill="currentColor"
     id="path104"
     style="stroke-width:0.004" />
  <rect
     x="28.0742"
     y="2.832809"
     width="0.13"
     height="3.0039001"
     ry="0.039999999"
     fill="currentColor"
     id="rect106" />
  <path
     d="m 34.972,5.4788091 c 0.22,0 0.432,0.112 0.432,0.356 0,0.284 -0.22,0.484 -0.408,0.596 -0.14,0.084 -0.3,0.136 -0.464,0.136 -0.22,0 -0.432,-0.112 -0.432,-0.356 0,-0.284 0.22,-0.484 0.408,-0.596 0.14,-0.084 0.3,-0.136 0.464,-0.136 z"
     fill="currentColor"
     id="path108"
     style="stroke-width:0.004" />
  <rect
     x="35.2742"
     y="2.832809"
     width="0.13"
     height="3.0039001"
     ry="0.039999999"
     fill="currentColor"
     id="rect110" />
  <path
     d="m 37.372,5.4788091 c 0.22,0 0.432,0.112 0.432,0.356 0,0.284 -0.22,0.484 -0.408,0.596 -0.14,0.084 -0.3,0.136 -0.464,0.136 -0.22,0 -0.432,-0.112 -0.432,-0.356 0,-0.284 0.22,-0.484 0.408,-0.596 0.14,-0.084 0.3,-0.136 0.464,-0.136 z"
     fill="currentColor"
     id="path112"
     style="stroke-width:0.004" />
  <rect
     x="37.674198"
     y="2.832809"
     width="0.13"
     height="3.0039001"
     ry="0.039999999"
     fill="currentColor"
     id="rect114" />
  <path
     d="m 39.772,5.4788091 c 0.22,0 0.432,0.112 0.432,0.356 0,0.284 -0.22,0.484 -0.408,0.596 -0.14,0.084 -0.3,0.136 -0.464,0.136 -0.22,0 -0.432,-0.112 -0.432,-0.356 0,-0.284 0.22,-0.484 0.408,-0.596 0.14,-0.084 0.3,-0.136 0.464,-0.136 z"
     fill="currentColor"
     id="path116"
     style="stroke-width:0.004" />
  <rect
     x="40.0742"
     y="2.832809"
     width="0.13"
     height="3.0039001"
     ry="0.039999999"
     fill="currentColor"
     id="rect118" />
  <path
     d="m 1.372,5.4788091 c 0.22,0 0.432,0.112 0.432,0.356 0,0.284 -0.22,0.484 -0.408,0.596 -0.14,0.084 -0.3,0.136 -0.464,0.136 -0.22,0 -0.432,-0.112 -0.432,-0.356 0,-0.284 0.22,-0.484 0.408,-0.596 0.14,-0.084 0.3,-0.136 0.464,-0.136 z"
     fill="currentColor"
     id="path120"
     style="stroke-width:0.004" />
  <line
     stroke-linejoin="round"
     stroke-linecap="round"
     stroke-width="0.16"
     stroke="currentColor"
     x1="48.700001"
     y1="0.59280914"
     x2="48.700001"
     y2="1.2928091"
     id="line122" />
  <line
     stroke-linejoin="round"
     stroke-linecap="round"
     stroke-width="0.16"
     stroke="currentColor"
     x1="37.474201"
     y1="0.59280914"
     x2="37.474201"
     y2="1.2928091"
     id="line124" />
  <line
     stroke-linejoin="round"
     stroke-linecap="round"
     stroke-width="0.16"
     stroke="currentColor"
     x1="48.700001"
     y1="0.59280914"
     x2="44.131001"
     y2="0.59280914"
     id="line126" />
  <line
     stroke-linejoin="round"
     stroke-linecap="round"
     stroke-width="0.16"
     stroke="currentColor"
     x1="37.474201"
     y1="0.59280914"
     x2="42.243198"
     y2="0.59280914"
     id="line128" />
  <text
     font-family="serif"
     font-style="italic"
     font-size="1.7461px"
     text-anchor="start"
     fill="currentColor"
     id="text132"
     x="42.6432"
     y="1.1561091"><tspan
       id="tspan130">5</tspan></text>
  <rect
     x="1.6742001"
     y="2.832809"
     width="0.13"
     height="3.0039001"
     ry="0.039999999"
     fill="currentColor"
     id="rect134" />
  <rect
     x="32.874199"
     y="2.832809"
     width="0.13"
     height="3.0039001"
     ry="0.039999999"
     fill="currentColor"
     id="rect136" />
  <rect
     x="44.874199"
     y="2.832809"
     width="0.13"
     height="3.0039001"
     ry="0.039999999"
     fill="currentColor"
     id="rect138" />
  <path
     d="m 46.972,5.4788091 c 0.22,0 0.432,0.112 0.432,0.356 0,0.284 -0.22,0.484 -0.408,0.596 -0.14,0.084 -0.3,0.136 -0.464,0.136 -0.22,0 -0.432,-0.112 -0.432,-0.356 0,-0.284 0.22,-0.484 0.408,-0.596 0.14,-0.084 0.3,-0.136 0.464,-0.136 z"
     fill="currentColor"
     id="path140"
     style="stroke-width:0.004" />
  <path
     d="m 42.172,5.4788091 c 0.22,0 0.432,0.112 0.432,0.356 0,0.284 -0.22,0.484 -0.408,0.596 -0.14,0.084 -0.3,0.136 -0.464,0.136 -0.22,0 -0.432,-0.112 -0.432,-0.356 0,-0.284 0.22,-0.484 0.408,-0.596 0.14,-0.084 0.3,-0.136 0.464,-0.136 z"
     fill="currentColor"
     id="path142"
     style="stroke-width:0.004" />
  <rect
     x="47.2742"
     y="2.832809"
     width="0.13"
     height="3.0039001"
     ry="0.039999999"
     fill="currentColor"
     id="rect144" />
  <path
     d="m 44.572,5.4788091 c 0.22,0 0.432,0.112 0.432,0.356 0,0.284 -0.22,0.484 -0.408,0.596 -0.14,0.084 -0.3,0.136 -0.464,0.136 -0.22,0 -0.432,-0.112 -0.432,-0.356 0,-0.284 0.22,-0.484 0.408,-0.596 0.14,-0.084 0.3,-0.136 0.464,-0.136 z"
     fill="currentColor"
     id="path146"
     style="stroke-width:0.004" />
  <path
     d="m 3.772,5.4788091 c 0.22,0 0.432,0.112 0.432,0.356 0,0.284 -0.22,0.484 -0.408,0.596 -0.14,0.084 -0.3,0.136 -0.464,0.136 -0.22,0 -0.432,-0.112 -0.432,-0.356 0,-0.284 0.22,-0.484 0.408,-0.596 0.14,-0.084 0.3,-0.136 0.464,-0.136 z"
     fill="currentColor"
     id="path148"
     style="stroke-width:0.004" />
  <rect
     x="4.0742002"
     y="2.832809"
     width="0.13"
     height="3.0039001"
     ry="0.039999999"
     fill="currentColor"
     id="rect150" />
  <rect
     x="42.474201"
     y="2.832809"
     width="0.13"
     height="3.0039001"
     ry="0.039999999"
     fill="currentColor"
     id="rect152" />
</svg>
