<?xml version="1.0" encoding="UTF-8" standalone="no"?>
<svg
   version="1.2"
   width="85.721031mm"
   height="13.998833mm"
   viewBox="0 0 48.780002 7.9661088"
   id="svg94"
   sodipodi:docname="README-14.svg"
   xmlns:inkscape="http://www.inkscape.org/namespaces/inkscape"
   xmlns:sodipodi="http://sodipodi.sourceforge.net/DTD/sodipodi-0.dtd"
   xmlns="http://www.w3.org/2000/svg"
   xmlns:svg="http://www.w3.org/2000/svg">
  <defs
     id="defs98" />
  <sodipodi:namedview
     id="namedview96"
     pagecolor="#ffffff"
     bordercolor="#666666"
     borderopacity="1.0"
     inkscape:pageshadow="2"
     inkscape:pageopacity="0.0"
     inkscape:pagecheckerboard="0"
     inkscape:document-units="mm" />
  <style
     text="style/css"
     id="style2"><![CDATA[
tspan { white-space: pre; }
]]></style>
  <!-- Page: 1/1 -->
  <text
     font-family="serif"
     font-size="2.2001px"
     text-anchor="start"
     fill="currentColor"
     id="text6"
     y="-1.0046909"><tspan
       id="tspan4" /></text>
  <line
     stroke-linejoin="round"
     stroke-linecap="round"
     stroke-width="0.1"
     stroke="currentColor"
     x1="0.050000001"
     y1="5.9261093"
     x2="48.450001"
     y2="5.9261093"
     id="line8" />
  <path
     d="m 3.772,5.3821091 c 0.22,0 0.432,0.112 0.432,0.356 0,0.284 -0.22,0.484 -0.408,0.596 -0.14,0.084 -0.3,0.136 -0.464,0.136 -0.22,0 -0.432,-0.112 -0.432,-0.356 0,-0.284 0.22,-0.484 0.408,-0.596 0.14,-0.084 0.3,-0.136 0.464,-0.136 z"
     fill="currentColor"
     id="path10"
     style="stroke-width:0.004" />
  <path
     d="m 22.364,7.9261091 0.404,-1.308 c -0.136,0.048 -0.28,0.092 -0.424,0.092 -0.184,0 -0.348,-0.132 -0.348,-0.316 0,-0.16 0.128,-0.288 0.288,-0.288 0.1,0 0.196,0.06 0.228,0.156 0.04,0.112 0.02,0.236 0.136,0.236 0.064,0 0.22,-0.204 0.24,-0.272 l 0.184,-0.604 c -0.136,0.048 -0.272,0.088 -0.416,0.088 -0.184,0 -0.348,-0.132 -0.348,-0.316 0,-0.16 0.132,-0.288 0.292,-0.288 0.1,0 0.192,0.06 0.224,0.156 0.04,0.112 0.02,0.236 0.136,0.236 0.06,0 0.2,-0.196 0.228,-0.252 0.024,-0.048 0.092,-0.048 0.112,0 l -0.716,2.68 c -0.032,0.028 -0.068,0.04 -0.108,0.04 -0.04,0 -0.08,-0.012 -0.112,-0.04 z"
     fill="currentColor"
     id="path12"
     style="stroke-width:0.004" />
  <rect
     x="13.6742"
     y="2.592809"
     width="0.13"
     height="3.1472001"
     ry="0.039999999"
     fill="currentColor"
     id="rect14" />
  <path
     d="m 13.372,5.3821091 c 0.22,0 0.432,0.112 0.432,0.356 0,0.284 -0.22,0.484 -0.408,0.596 -0.14,0.084 -0.3,0.136 -0.464,0.136 -0.22,0 -0.432,-0.112 -0.432,-0.356 0,-0.284 0.22,-0.484 0.408,-0.596 0.14,-0.084 0.3,-0.136 0.464,-0.136 z"
     fill="currentColor"
     id="path16"
     style="stroke-width:0.004" />
  <rect
     x="8.8741999"
     y="2.9261091"
     width="0.13"
     height="2.8139"
     ry="0.039999999"
     fill="currentColor"
     id="rect18" />
  <path
     d="m 8.572,5.3821091 c 0.22,0 0.432,0.112 0.432,0.356 0,0.284 -0.22,0.484 -0.408,0.596 -0.14,0.084 -0.3,0.136 -0.464,0.136 -0.22,0 -0.432,-0.112 -0.432,-0.356 0,-0.284 0.22,-0.484 0.408,-0.596 0.14,-0.084 0.3,-0.136 0.464,-0.136 z"
     fill="currentColor"
     id="path20"
     style="stroke-width:0.004" />
  <rect
     x="4.0742002"
     y="2.9261091"
     width="0.13"
     height="2.8139"
     ry="0.039999999"
     fill="currentColor"
     id="rect22" />
  <line
     stroke-linejoin="round"
     stroke-linecap="round"
     stroke-width="0.16"
     stroke="currentColor"
     x1="11.200001"
     y1="0.68610913"
     x2="11.200001"
     y2="1.3861091"
     id="line24" />
  <line
     stroke-linejoin="round"
     stroke-linecap="round"
     stroke-width="0.16"
     stroke="currentColor"
     x1="0.89999998"
     y1="0.68610913"
     x2="0.89999998"
     y2="1.3861091"
     id="line26" />
  <line
     stroke-linejoin="round"
     stroke-linecap="round"
     stroke-width="0.16"
     stroke="currentColor"
     x1="11.200001"
     y1="0.68610913"
     x2="7.0938997"
     y2="0.68610913"
     id="line28" />
  <line
     stroke-linejoin="round"
     stroke-linecap="round"
     stroke-width="0.16"
     stroke="currentColor"
     x1="0.89999998"
     y1="0.68610913"
     x2="5.2061"
     y2="0.68610913"
     id="line30" />
  <text
     font-family="serif"
     font-style="italic"
     font-size="1.7461px"
     text-anchor="start"
     fill="currentColor"
     id="text34"
     x="5.6061001"
     y="1.2495091"><tspan
       id="tspan32">5</tspan></text>
  <polygon
     transform="translate(4.0742,2.9261091)"
     stroke-linejoin="round"
     stroke-linecap="round"
     stroke-width="0.08"
     fill="currentColor"
     stroke="currentColor"
     points="0.04,0.2 0.04,-0.2 4.89,-0.2 4.89,0.2 "
     id="polygon36" />
  <line
     stroke-linejoin="round"
     stroke-linecap="round"
     stroke-width="0.16"
     stroke="currentColor"
     x1="23.199999"
     y1="0.59280914"
     x2="23.199999"
     y2="1.2928091"
     id="line38" />
  <line
     stroke-linejoin="round"
     stroke-linecap="round"
     stroke-width="0.16"
     stroke="currentColor"
     x1="13.4742"
     y1="0.59280914"
     x2="13.4742"
     y2="1.2928091"
     id="line40" />
  <line
     stroke-linejoin="round"
     stroke-linecap="round"
     stroke-width="0.16"
     stroke="currentColor"
     x1="23.199999"
     y1="0.59280914"
     x2="19.381001"
     y2="0.59280914"
     id="line42" />
  <line
     stroke-linejoin="round"
     stroke-linecap="round"
     stroke-width="0.16"
     stroke="currentColor"
     x1="13.4742"
     y1="0.59280914"
     x2="17.4932"
     y2="0.59280914"
     id="line44" />
  <text
     font-family="serif"
     font-style="italic"
     font-size="1.7461px"
     text-anchor="start"
     fill="currentColor"
     id="text48"
     x="17.8932"
     y="1.1561091"><tspan
       id="tspan46">5</tspan></text>
  <line
     stroke-linejoin="round"
     stroke-linecap="round"
     stroke-width="0.16"
     stroke="currentColor"
     x1="35.200001"
     y1="0.68610913"
     x2="35.200001"
     y2="1.3861091"
     id="line50" />
  <line
     stroke-linejoin="round"
     stroke-linecap="round"
     stroke-width="0.16"
     stroke="currentColor"
     x1="24.9"
     y1="0.68610913"
     x2="24.9"
     y2="1.3861091"
     id="line52" />
  <line
     stroke-linejoin="round"
     stroke-linecap="round"
     stroke-width="0.16"
     stroke="currentColor"
     x1="35.200001"
     y1="0.68610913"
     x2="31.093901"
     y2="0.68610913"
     id="line54" />
  <line
     stroke-linejoin="round"
     stroke-linecap="round"
     stroke-width="0.16"
     stroke="currentColor"
     x1="24.9"
     y1="0.68610913"
     x2="29.2061"
     y2="0.68610913"
     id="line56" />
  <text
     font-family="serif"
     font-style="italic"
     font-size="1.7461px"
     text-anchor="start"
     fill="currentColor"
     id="text60"
     x="29.6061"
     y="1.2495091"><tspan
       id="tspan58">5</tspan></text>
  <polygon
     transform="translate(28.0742,2.9261091)"
     stroke-linejoin="round"
     stroke-linecap="round"
     stroke-width="0.08"
     fill="currentColor"
     stroke="currentColor"
     points="0.04,0.2 0.04,-0.2 4.89,-0.2 4.89,0.2 "
     id="polygon62" />
  <path
     d="m 32.572,5.3821091 c 0.22,0 0.432,0.112 0.432,0.356 0,0.284 -0.22,0.484 -0.408,0.596 -0.14,0.084 -0.3,0.136 -0.464,0.136 -0.22,0 -0.432,-0.112 -0.432,-0.356 0,-0.284 0.22,-0.484 0.408,-0.596 0.14,-0.084 0.3,-0.136 0.464,-0.136 z"
     fill="currentColor"
     id="path64"
     style="stroke-width:0.004" />
  <rect
     x="28.0742"
     y="2.9261091"
     width="0.13"
     height="2.8139"
     ry="0.039999999"
     fill="currentColor"
     id="rect66" />
  <path
     d="m 27.772,5.3821091 c 0.22,0 0.432,0.112 0.432,0.356 0,0.284 -0.22,0.484 -0.408,0.596 -0.14,0.084 -0.3,0.136 -0.464,0.136 -0.22,0 -0.432,-0.112 -0.432,-0.356 0,-0.284 0.22,-0.484 0.408,-0.596 0.14,-0.084 0.3,-0.136 0.464,-0.136 z"
     fill="currentColor"
     id="path68"
     style="stroke-width:0.004" />
  <path
     d="m 24.764,7.9261091 0.404,-1.308 c -0.136,0.048 -0.28,0.092 -0.424,0.092 -0.184,0 -0.348,-0.132 -0.348,-0.316 0,-0.16 0.128,-0.288 0.288,-0.288 0.1,0 0.196,0.06 0.228,0.156 0.04,0.112 0.02,0.236 0.136,0.236 0.064,0 0.22,-0.204 0.24,-0.272 l 0.184,-0.604 c -0.136,0.048 -0.272,0.088 -0.416,0.088 -0.184,0 -0.348,-0.132 -0.348,-0.316 0,-0.16 0.132,-0.288 0.292,-0.288 0.1,0 0.192,0.06 0.224,0.156 0.04,0.112 0.02,0.236 0.136,0.236 0.06,0 0.2,-0.196 0.228,-0.252 0.024,-0.048 0.092,-0.048 0.112,0 l -0.716,2.68 c -0.032,0.028 -0.068,0.04 -0.108,0.04 -0.04,0 -0.08,-0.012 -0.112,-0.04 z"
     fill="currentColor"
     id="path70"
     style="stroke-width:0.004" />
  <line
     stroke-linejoin="round"
     stroke-linecap="round"
     stroke-width="0.16"
     stroke="currentColor"
     x1="48.700001"
     y1="0.59280914"
     x2="48.700001"
     y2="1.2928091"
     id="line72" />
  <line
     stroke-linejoin="round"
     stroke-linecap="round"
     stroke-width="0.16"
     stroke="currentColor"
     x1="37.474201"
     y1="0.59280914"
     x2="37.474201"
     y2="1.2928091"
     id="line74" />
  <line
     stroke-linejoin="round"
     stroke-linecap="round"
     stroke-width="0.16"
     stroke="currentColor"
     x1="48.700001"
     y1="0.59280914"
     x2="44.131001"
     y2="0.59280914"
     id="line76" />
  <line
     stroke-linejoin="round"
     stroke-linecap="round"
     stroke-width="0.16"
     stroke="currentColor"
     x1="37.474201"
     y1="0.59280914"
     x2="42.243198"
     y2="0.59280914"
     id="line78" />
  <rect
     x="37.674198"
     y="2.592809"
     width="0.13"
     height="3.1472001"
     ry="0.039999999"
     fill="currentColor"
     id="rect80" />
  <path
     d="m 37.372,5.3821091 c 0.22,0 0.432,0.112 0.432,0.356 0,0.284 -0.22,0.484 -0.408,0.596 -0.14,0.084 -0.3,0.136 -0.464,0.136 -0.22,0 -0.432,-0.112 -0.432,-0.356 0,-0.284 0.22,-0.484 0.408,-0.596 0.14,-0.084 0.3,-0.136 0.464,-0.136 z"
     fill="currentColor"
     id="path82"
     style="stroke-width:0.004" />
  <text
     font-family="serif"
     font-style="italic"
     font-size="1.7461px"
     text-anchor="start"
     fill="currentColor"
     id="text86"
     x="42.6432"
     y="1.1561091"><tspan
       id="tspan84">5</tspan></text>
  <rect
     x="32.874199"
     y="2.9261091"
     width="0.13"
     height="2.8139"
     ry="0.039999999"
     fill="currentColor"
     id="rect88" />
  <path
     d="m 0.764,7.9261091 0.404,-1.308 c -0.136,0.048 -0.28,0.092 -0.424,0.092 -0.184,0 -0.348,-0.132 -0.348,-0.316 0,-0.16 0.128,-0.288 0.288,-0.288 0.1,0 0.196,0.06 0.228,0.156 0.04,0.112 0.02,0.236 0.136,0.236 0.064,0 0.22,-0.204 0.24,-0.272 l 0.184,-0.604 c -0.136,0.048 -0.272,0.088 -0.416,0.088 -0.184,0 -0.348,-0.132 -0.348,-0.316 0,-0.16 0.132,-0.288 0.292,-0.288 0.1,0 0.192,0.06 0.224,0.156 0.04,0.112 0.02,0.236 0.136,0.236 0.06,0 0.2,-0.196 0.228,-0.252 0.024,-0.048 0.092,-0.048 0.112,0 l -0.716,2.68 c -0.032,0.028 -0.068,0.04 -0.108,0.04 -0.04,0 -0.08,-0.012 -0.112,-0.04 z"
     fill="currentColor"
     id="path90"
     style="stroke-width:0.004" />
  <path
     d="m 46.364,7.9261091 0.404,-1.308 c -0.136,0.048 -0.28,0.092 -0.424,0.092 -0.184,0 -0.348,-0.132 -0.348,-0.316 0,-0.16 0.128,-0.288 0.288,-0.288 0.1,0 0.196,0.06 0.228,0.156 0.04,0.112 0.02,0.236 0.136,0.236 0.064,0 0.22,-0.204 0.24,-0.272 l 0.184,-0.604 c -0.136,0.048 -0.272,0.088 -0.416,0.088 -0.184,0 -0.348,-0.132 -0.348,-0.316 0,-0.16 0.132,-0.288 0.292,-0.288 0.1,0 0.192,0.06 0.224,0.156 0.04,0.112 0.02,0.236 0.136,0.236 0.06,0 0.2,-0.196 0.228,-0.252 0.024,-0.048 0.092,-0.048 0.112,0 l -0.716,2.68 c -0.032,0.028 -0.068,0.04 -0.108,0.04 -0.04,0 -0.08,-0.012 -0.112,-0.04 z"
     fill="currentColor"
     id="path92"
     style="stroke-width:0.004" />
</svg>
