<?xml version="1.0" encoding="UTF-8" standalone="no"?>
<svg
   version="1.2"
   width="65.112274mm"
   height="16.838322mm"
   viewBox="0 0 30.877047 7.9849419"
   id="svg68"
   sodipodi:docname="README-12.svg"
   xmlns:inkscape="http://www.inkscape.org/namespaces/inkscape"
   xmlns:sodipodi="http://sodipodi.sourceforge.net/DTD/sodipodi-0.dtd"
   xmlns="http://www.w3.org/2000/svg"
   xmlns:svg="http://www.w3.org/2000/svg">
  <defs
     id="defs72" />
  <sodipodi:namedview
     id="namedview70"
     pagecolor="#ffffff"
     bordercolor="#666666"
     borderopacity="1.0"
     inkscape:pageshadow="2"
     inkscape:pageopacity="0.0"
     inkscape:pagecheckerboard="0"
     inkscape:document-units="mm" />
  <style
     text="style/css"
     id="style2"><![CDATA[
tspan { white-space: pre; }
]]></style>
  <!-- Page: 1/1 -->
  <text
     font-family="serif"
     font-size="2.2002px"
     text-anchor="start"
     fill="currentColor"
     id="text6"
     y="-0.98185843"><tspan
       id="tspan4" /></text>
  <line
     stroke-linejoin="round"
     stroke-linecap="round"
     stroke-width="0.089"
     stroke="currentColor"
     x1="0.044500001"
     y1="5.9489417"
     x2="30.5613"
     y2="5.9489417"
     id="line8" />
  <polygon
     transform="translate(7.7958,2.9489416)"
     stroke-linejoin="round"
     stroke-linecap="round"
     stroke-width="0.0667"
     fill="currentColor"
     stroke="currentColor"
     points="0.0333,0.2067 0.0333,-0.2067 5.4824,-0.2067 5.4824,0.2067 "
     id="polygon10" />
  <path
     d="m 5.888,5.4089416 c 0.212,0 0.416,0.108 0.416,0.344 0,0.284 -0.224,0.48 -0.412,0.592 -0.144,0.088 -0.304,0.144 -0.472,0.144 -0.212,0 -0.42,-0.108 -0.42,-0.344 0,-0.284 0.228,-0.48 0.416,-0.592 0.144,-0.088 0.304,-0.144 0.472,-0.144 z"
     fill="currentColor"
     id="path12"
     style="stroke-width:0.004" />
  <rect
     x="6.1900001"
     y="1.8239416"
     width="0.1158"
     height="3.9282999"
     ry="0.033300001"
     fill="currentColor"
     id="rect14" />
  <polygon
     transform="translate(6.3058,1.8572416)"
     stroke-linejoin="round"
     stroke-linecap="round"
     stroke-width="0.0579"
     fill="currentColor"
     stroke="currentColor"
     points="1.0144,0.321 -0.0289,-0.018 -0.0289,0.4711 1.0144,0.8101 "
     id="polygon16" />
  <polygon
     transform="translate(6.3058,2.8572416)"
     stroke-linejoin="round"
     stroke-linecap="round"
     stroke-width="0.0579"
     fill="currentColor"
     stroke="currentColor"
     points="1.0144,0.321 -0.0289,-0.018 -0.0289,0.4711 1.0144,0.8101 "
     id="polygon18" />
  <polygon
     transform="translate(6.3058,3.8572416)"
     stroke-linejoin="round"
     stroke-linecap="round"
     stroke-width="0.0579"
     fill="currentColor"
     stroke="currentColor"
     points="1.0144,0.321 -0.0289,-0.018 -0.0289,0.4711 1.0144,0.8101 "
     id="polygon20" />
  <path
     d="m 7.4938,5.4089416 c 0.212,0 0.416,0.108 0.416,0.344 0,0.284 -0.224,0.48 -0.412,0.592 -0.144,0.088 -0.304,0.144 -0.472,0.144 -0.212,0 -0.42,-0.108 -0.42,-0.344 0,-0.284 0.228,-0.48 0.416,-0.592 0.144,-0.088 0.304,-0.144 0.472,-0.144 z"
     fill="currentColor"
     id="path22"
     style="stroke-width:0.004" />
  <path
     d="m 8.3683,5.4489416 c 0,-0.128 0.1,-0.228 0.228,-0.228 0.128,0 0.228,0.1 0.228,0.228 0,0.128 -0.1,0.228 -0.228,0.228 -0.128,0 -0.228,-0.1 -0.228,-0.228 z"
     fill="currentColor"
     id="path24"
     style="stroke-width:0.004" />
  <rect
     x="7.7958002"
     y="2.9489417"
     width="0.1158"
     height="2.8032999"
     ry="0.033300001"
     fill="currentColor"
     id="rect26" />
  <path
     d="m 12.8938,5.4089416 c 0.212,0 0.416,0.108 0.416,0.344 0,0.284 -0.224,0.48 -0.412,0.592 -0.144,0.088 -0.304,0.144 -0.472,0.144 -0.212,0 -0.42,-0.108 -0.42,-0.344 0,-0.284 0.228,-0.48 0.416,-0.592 0.144,-0.088 0.304,-0.144 0.472,-0.144 z"
     fill="currentColor"
     id="path28"
     style="stroke-width:0.004" />
  <rect
     x="13.1958"
     y="2.9489417"
     width="0.1158"
     height="2.8032999"
     ry="0.033300001"
     fill="currentColor"
     id="rect30" />
  <text
     font-family="serif"
     font-style="italic"
     font-size="1.7463px"
     text-anchor="start"
     fill="currentColor"
     id="text34"
     x="9.7841997"
     y="1.2922416"><tspan
       id="tspan32">5:3</tspan></text>
  <line
     stroke-linejoin="round"
     stroke-linecap="round"
     stroke-width="0.1425"
     stroke="currentColor"
     x1="14.3058"
     y1="0.70894158"
     x2="14.3058"
     y2="1.4089416"
     id="line36" />
  <line
     stroke-linejoin="round"
     stroke-linecap="round"
     stroke-width="0.1425"
     stroke="currentColor"
     x1="7.5957999"
     y1="0.70894158"
     x2="7.5957999"
     y2="1.4089416"
     id="line38" />
  <line
     stroke-linejoin="round"
     stroke-linecap="round"
     stroke-width="0.1425"
     stroke="currentColor"
     x1="14.3058"
     y1="0.70894158"
     x2="12.7173"
     y2="0.70894158"
     id="line40" />
  <line
     stroke-linejoin="round"
     stroke-linecap="round"
     stroke-width="0.1425"
     stroke="currentColor"
     x1="7.5957999"
     y1="0.70894158"
     x2="9.3842001"
     y2="0.70894158"
     id="line42" />
  <line
     stroke-linejoin="round"
     stroke-linecap="round"
     stroke-width="0.1425"
     stroke="currentColor"
     x1="30.805799"
     y1="0.61564159"
     x2="30.805799"
     y2="1.3156415"
     id="line44" />
  <line
     stroke-linejoin="round"
     stroke-linecap="round"
     stroke-width="0.1425"
     stroke="currentColor"
     x1="16.5958"
     y1="0.61564159"
     x2="16.5958"
     y2="1.3156415"
     id="line46" />
  <line
     stroke-linejoin="round"
     stroke-linecap="round"
     stroke-width="0.1425"
     stroke="currentColor"
     x1="30.805799"
     y1="0.61564159"
     x2="25.4673"
     y2="0.61564159"
     id="line48" />
  <line
     stroke-linejoin="round"
     stroke-linecap="round"
     stroke-width="0.1425"
     stroke="currentColor"
     x1="16.5958"
     y1="0.61564159"
     x2="22.134199"
     y2="0.61564159"
     id="line50" />
  <text
     font-family="serif"
     font-style="italic"
     font-size="1.7463px"
     text-anchor="start"
     fill="currentColor"
     id="text54"
     x="22.534201"
     y="1.1562415"><tspan
       id="tspan52">7:5</tspan></text>
  <path
     d="m 0.784,7.9489416 0.4,-1.308 c -0.14,0.052 -0.288,0.092 -0.436,0.092 -0.184,0 -0.348,-0.136 -0.348,-0.32 0,-0.156 0.124,-0.284 0.284,-0.284 0.104,0 0.196,0.064 0.228,0.16 0.04,0.112 0.024,0.24 0.14,0.24 0.068,0 0.228,-0.212 0.248,-0.28 l 0.188,-0.608 c -0.136,0.048 -0.28,0.092 -0.428,0.092 -0.184,0 -0.348,-0.136 -0.348,-0.32 0,-0.156 0.124,-0.284 0.284,-0.284 0.104,0 0.196,0.064 0.228,0.16 0.04,0.112 0.024,0.24 0.14,0.24 0.068,0 0.212,-0.216 0.24,-0.28 0.016,-0.044 0.08,-0.044 0.096,0 l -0.728,2.7 c -0.028,0.024 -0.06,0.036 -0.092,0.036 -0.032,0 -0.068,-0.012 -0.096,-0.036 z"
     fill="currentColor"
     id="path56"
     style="stroke-width:0.004" />
  <path
     d="m 2.1567,5.4489416 c 0,-0.128 0.1,-0.228 0.228,-0.228 0.128,0 0.228,0.1 0.228,0.228 0,0.128 -0.1,0.228 -0.228,0.228 -0.128,0 -0.228,-0.1 -0.228,-0.228 z"
     fill="currentColor"
     id="path58"
     style="stroke-width:0.004" />
  <path
     d="m 25.634,5.4489416 c 0,-0.128 0.1,-0.228 0.228,-0.228 0.128,0 0.228,0.1 0.228,0.228 0,0.128 -0.1,0.228 -0.228,0.228 -0.128,0 -0.228,-0.1 -0.228,-0.228 z"
     fill="currentColor"
     id="path60"
     style="stroke-width:0.004" />
  <path
     d="m 24.4812,6.9489416 0.464,-1.308 c -0.14,0.048 -0.28,0.092 -0.428,0.092 -0.184,0 -0.348,-0.136 -0.348,-0.32 0,-0.156 0.124,-0.284 0.284,-0.284 0.104,0 0.196,0.064 0.228,0.16 0.04,0.112 0.024,0.24 0.14,0.24 0.068,0 0.232,-0.216 0.26,-0.28 0.02,-0.044 0.08,-0.04 0.096,0 l -0.504,1.7 c -0.028,0.024 -0.064,0.036 -0.096,0.036 -0.032,0 -0.068,-0.012 -0.096,-0.036 z"
     fill="currentColor"
     id="path62"
     style="stroke-width:0.004" />
  <rect
     x="16.795799"
     y="2.6156416"
     width="0.1158"
     height="3.1366"
     ry="0.033300001"
     fill="currentColor"
     id="rect64" />
  <path
     d="m 16.4938,5.4089416 c 0.212,0 0.416,0.108 0.416,0.344 0,0.284 -0.224,0.48 -0.412,0.592 -0.144,0.088 -0.304,0.144 -0.472,0.144 -0.212,0 -0.42,-0.108 -0.42,-0.344 0,-0.284 0.228,-0.48 0.416,-0.592 0.144,-0.088 0.304,-0.144 0.472,-0.144 z"
     fill="currentColor"
     id="path66"
     style="stroke-width:0.004" />
</svg>
