<?xml version="1.0" encoding="UTF-8" standalone="no"?>
<svg
   version="1.2"
   width="62.949921mm"
   height="9.4609852mm"
   viewBox="0 0 51.174239 7.6911757"
   id="svg146"
   sodipodi:docname="README-16.svg"
   xmlns:inkscape="http://www.inkscape.org/namespaces/inkscape"
   xmlns:sodipodi="http://sodipodi.sourceforge.net/DTD/sodipodi-0.dtd"
   xmlns="http://www.w3.org/2000/svg"
   xmlns:svg="http://www.w3.org/2000/svg">
  <defs
     id="defs150" />
  <sodipodi:namedview
     id="namedview148"
     pagecolor="#ffffff"
     bordercolor="#666666"
     borderopacity="1.0"
     inkscape:pageshadow="2"
     inkscape:pageopacity="0.0"
     inkscape:pagecheckerboard="0"
     inkscape:document-units="mm" />
  <style
     text="style/css"
     id="style2"><![CDATA[
tspan { white-space: pre; }
]]></style>
  <!-- Page: 1/1 -->
  <g
     color="#7f7f7f"
     id="g14"
     transform="translate(-20.6486,-5.078926)">
    <line
       transform="translate(20.6486,11.2141)"
       stroke-linejoin="round"
       stroke-linecap="round"
       stroke-width="0.1282"
       stroke="currentColor"
       x1="0.064099997"
       y1="0"
       x2="51.051201"
       y2="0"
       id="line4" />
    <line
       transform="translate(20.6486,10.2141)"
       stroke-linejoin="round"
       stroke-linecap="round"
       stroke-width="0.1282"
       stroke="currentColor"
       x1="0.064099997"
       y1="0"
       x2="51.051201"
       y2="0"
       id="line6" />
    <line
       transform="translate(20.6486,9.2141)"
       stroke-linejoin="round"
       stroke-linecap="round"
       stroke-width="0.1282"
       stroke="currentColor"
       x1="0.064099997"
       y1="0"
       x2="51.051201"
       y2="0"
       id="line8" />
    <line
       transform="translate(20.6486,8.2141)"
       stroke-linejoin="round"
       stroke-linecap="round"
       stroke-width="0.1282"
       stroke="currentColor"
       x1="0.064099997"
       y1="0"
       x2="51.051201"
       y2="0"
       id="line10" />
    <line
       transform="translate(20.6486,7.2141)"
       stroke-linejoin="round"
       stroke-linecap="round"
       stroke-width="0.1282"
       stroke="currentColor"
       x1="0.064099997"
       y1="0"
       x2="51.051201"
       y2="0"
       id="line12" />
  </g>
  <rect
     x="47.190701"
     y="7.0210738"
     width="1.9471"
     height="0.2282"
     ry="0.1141"
     fill="currentColor"
     id="rect16" />
  <rect
     x="34.690701"
     y="7.0210738"
     width="1.9471"
     height="0.2282"
     ry="0.1141"
     fill="currentColor"
     id="rect18" />
  <rect
     x="20.8339"
     y="7.0210738"
     width="1.9471"
     height="0.2282"
     ry="0.1141"
     fill="currentColor"
     id="rect20" />
  <rect
     x="8.3339005"
     y="7.0210738"
     width="1.9471"
     height="0.2282"
     ry="0.1141"
     fill="currentColor"
     id="rect22" />
  <rect
     x="50.8717"
     y="2.071074"
     width="0.24349999"
     height="4.1282001"
     ry="0.0000"
     fill="currentColor"
     id="rect24" />
  <path
     d="m 27.9904,6.079174 c 0.244,0 0.468,0.132 0.468,0.396 0,0.284 -0.208,0.476 -0.396,0.588 -0.136,0.08 -0.284,0.128 -0.44,0.128 -0.244,0 -0.464,-0.132 -0.464,-0.396 0,-0.284 0.204,-0.476 0.392,-0.588 0.136,-0.08 0.284,-0.128 0.44,-0.128 z"
     fill="currentColor"
     id="path26"
     style="stroke-width:0.004" />
  <path
     d="m 21.9904,6.579174 c 0.244,0 0.468,0.132 0.468,0.396 0,0.284 -0.208,0.476 -0.396,0.588 -0.136,0.08 -0.284,0.128 -0.44,0.128 -0.244,0 -0.464,-0.132 -0.464,-0.396 0,-0.284 0.204,-0.476 0.392,-0.588 0.136,-0.08 0.284,-0.128 0.44,-0.128 z"
     fill="currentColor"
     id="path28"
     style="stroke-width:0.004" />
  <rect
     x="22.289801"
     y="3.635174"
     width="0.1666"
     height="3.3382001"
     ry="0.057100002"
     fill="currentColor"
     id="rect30" />
  <polygon
     transform="translate(22.4565,3.692274)"
     stroke-linejoin="round"
     stroke-linecap="round"
     stroke-width="0.0833"
     fill="currentColor"
     stroke="currentColor"
     points="1.0004,0.3126 -0.0417,-0.026 -0.0417,0.4364 1.0004,0.775 "
     id="polygon32" />
  <path
     d="m 12.4864,6.135174 0.408,-1.3 c -0.128,0.044 -0.264,0.084 -0.4,0.084 -0.188,0 -0.348,-0.136 -0.348,-0.316 0,-0.16 0.136,-0.288 0.3,-0.288 0.1,0 0.196,0.052 0.228,0.144 0.04,0.104 0.016,0.232 0.128,0.232 0.06,0 0.196,-0.196 0.216,-0.256 l 0.188,-0.6 c -0.128,0.044 -0.264,0.084 -0.4,0.084 -0.188,0 -0.348,-0.136 -0.348,-0.316 0,-0.16 0.136,-0.288 0.3,-0.288 0.1,0 0.196,0.052 0.228,0.144 0.04,0.104 0.016,0.232 0.128,0.232 0.052,0 0.172,-0.152 0.196,-0.2 0.032,-0.06 0.12,-0.06 0.148,0 l -0.692,2.644 c -0.04,0.032 -0.092,0.052 -0.14,0.052 -0.048,0 -0.1,-0.02 -0.14,-0.052 z"
     fill="currentColor"
     id="path34"
     style="stroke-width:0.004" />
  <path
     d="m 18.9864,6.135174 0.408,-1.3 c -0.128,0.044 -0.264,0.084 -0.4,0.084 -0.188,0 -0.348,-0.136 -0.348,-0.316 0,-0.16 0.136,-0.288 0.3,-0.288 0.1,0 0.196,0.052 0.228,0.144 0.04,0.104 0.016,0.232 0.128,0.232 0.06,0 0.196,-0.196 0.216,-0.256 l 0.188,-0.6 c -0.128,0.044 -0.264,0.084 -0.4,0.084 -0.188,0 -0.348,-0.136 -0.348,-0.316 0,-0.16 0.136,-0.288 0.3,-0.288 0.1,0 0.196,0.052 0.228,0.144 0.04,0.104 0.016,0.232 0.128,0.232 0.052,0 0.172,-0.152 0.196,-0.2 0.032,-0.06 0.12,-0.06 0.148,0 l -0.692,2.644 c -0.04,0.032 -0.092,0.052 -0.14,0.052 -0.048,0 -0.1,-0.02 -0.14,-0.052 z"
     fill="currentColor"
     id="path36"
     style="stroke-width:0.004" />
  <polygon
     transform="translate(15.9565,3.192274)"
     stroke-linejoin="round"
     stroke-linecap="round"
     stroke-width="0.0833"
     fill="currentColor"
     stroke="currentColor"
     points="1.0004,0.3126 -0.0417,-0.026 -0.0417,0.4364 1.0004,0.775 "
     id="polygon38" />
  <rect
     x="15.7898"
     y="3.135174"
     width="0.1666"
     height="3.3382001"
     ry="0.057100002"
     fill="currentColor"
     id="rect40" />
  <path
     d="m 15.4904,6.079174 c 0.244,0 0.468,0.132 0.468,0.396 0,0.284 -0.208,0.476 -0.396,0.588 -0.136,0.08 -0.284,0.128 -0.44,0.128 -0.244,0 -0.464,-0.132 -0.464,-0.396 0,-0.284 0.204,-0.476 0.392,-0.588 0.136,-0.08 0.284,-0.128 0.44,-0.128 z"
     fill="currentColor"
     id="path42"
     style="stroke-width:0.004" />
  <line
     stroke-linejoin="round"
     stroke-linecap="round"
     stroke-width="0.2051"
     stroke="currentColor"
     x1="17.4583"
     y1="0.57107401"
     x2="17.4583"
     y2="1.2710741"
     id="line44" />
  <line
     stroke-linejoin="round"
     stroke-linecap="round"
     stroke-width="0.2051"
     stroke="currentColor"
     x1="9.5897999"
     y1="0.57107401"
     x2="9.5897999"
     y2="1.2710741"
     id="line46" />
  <line
     stroke-linejoin="round"
     stroke-linecap="round"
     stroke-width="0.2051"
     stroke="currentColor"
     x1="17.4583"
     y1="0.57107401"
     x2="14.563"
     y2="0.57107401"
     id="line48" />
  <line
     stroke-linejoin="round"
     stroke-linecap="round"
     stroke-width="0.2051"
     stroke="currentColor"
     x1="9.5897999"
     y1="0.57107401"
     x2="12.6851"
     y2="0.57107401"
     id="line50" />
  <text
     font-family="serif"
     font-style="italic"
     font-size="1.7465px"
     text-anchor="start"
     fill="currentColor"
     id="text54"
     x="13.0851"
     y="1.156374"><tspan
       id="tspan52">5</tspan></text>
  <line
     stroke-linejoin="round"
     stroke-linecap="round"
     stroke-width="0.2051"
     stroke="currentColor"
     x1="28.7584"
     y1="0.57107401"
     x2="28.7584"
     y2="1.2710741"
     id="line56" />
  <line
     stroke-linejoin="round"
     stroke-linecap="round"
     stroke-width="0.2051"
     stroke="currentColor"
     x1="18.558399"
     y1="0.57107401"
     x2="18.558399"
     y2="1.2710741"
     id="line58" />
  <line
     stroke-linejoin="round"
     stroke-linecap="round"
     stroke-width="0.2051"
     stroke="currentColor"
     x1="28.7584"
     y1="0.57107401"
     x2="24.697401"
     y2="0.57107401"
     id="line60" />
  <line
     stroke-linejoin="round"
     stroke-linecap="round"
     stroke-width="0.2051"
     stroke="currentColor"
     x1="18.558399"
     y1="0.57107401"
     x2="22.819401"
     y2="0.57107401"
     id="line62" />
  <text
     font-family="serif"
     font-style="italic"
     font-size="1.7465px"
     text-anchor="start"
     fill="currentColor"
     id="text66"
     x="23.2194"
     y="1.156374"><tspan
       id="tspan64">5</tspan></text>
  <path
     stroke-width="0.1025"
     stroke-linejoin="round"
     stroke-linecap="round"
     stroke="currentColor"
     fill="currentColor"
     d="m 28.6565,7.135174 c 0.3247,0.4342 0.8771,0.4342 1.2019,0 v 0 c -0.3248,0.2804 -0.8772,0.2804 -1.2019,0 z"
     id="path68" />
  <line
     stroke-linejoin="round"
     stroke-linecap="round"
     stroke-width="0.2051"
     stroke="currentColor"
     x1="40.215199"
     y1="0.57107401"
     x2="40.215199"
     y2="1.2710741"
     id="line70" />
  <line
     stroke-linejoin="round"
     stroke-linecap="round"
     stroke-width="0.2051"
     stroke="currentColor"
     x1="30.989799"
     y1="0.57107401"
     x2="30.989799"
     y2="1.2710741"
     id="line72" />
  <line
     stroke-linejoin="round"
     stroke-linecap="round"
     stroke-width="0.2051"
     stroke="currentColor"
     x1="40.215199"
     y1="0.57107401"
     x2="36.641499"
     y2="0.57107401"
     id="line74" />
  <line
     stroke-linejoin="round"
     stroke-linecap="round"
     stroke-width="0.2051"
     stroke="currentColor"
     x1="30.989799"
     y1="0.57107401"
     x2="34.7635"
     y2="0.57107401"
     id="line76" />
  <text
     font-family="serif"
     font-style="italic"
     font-size="1.7465px"
     text-anchor="start"
     fill="currentColor"
     id="text80"
     x="35.163502"
     y="1.156374"><tspan
       id="tspan78">5</tspan></text>
  <polygon
     transform="translate(36.3133,3.692274)"
     stroke-linejoin="round"
     stroke-linecap="round"
     stroke-width="0.0833"
     fill="currentColor"
     stroke="currentColor"
     points="1.0004,0.3126 -0.0417,-0.026 -0.0417,0.4364 1.0004,0.775 "
     id="polygon82" />
  <rect
     x="36.146702"
     y="3.635174"
     width="0.1666"
     height="3.3382001"
     ry="0.057100002"
     fill="currentColor"
     id="rect84" />
  <path
     d="m 35.8472,6.579174 c 0.244,0 0.468,0.132 0.468,0.396 0,0.284 -0.208,0.476 -0.396,0.588 -0.136,0.08 -0.284,0.128 -0.44,0.128 -0.244,0 -0.464,-0.132 -0.464,-0.396 0,-0.284 0.204,-0.476 0.392,-0.588 0.136,-0.08 0.284,-0.128 0.44,-0.128 z"
     fill="currentColor"
     id="path86"
     style="stroke-width:0.004" />
  <rect
     x="28.289801"
     y="3.135174"
     width="0.1666"
     height="3.3382001"
     ry="0.057100002"
     fill="currentColor"
     id="rect88" />
  <path
     d="m 32.8432,6.135174 0.408,-1.3 c -0.128,0.044 -0.264,0.084 -0.4,0.084 -0.188,0 -0.348,-0.136 -0.348,-0.316 0,-0.16 0.136,-0.288 0.3,-0.288 0.1,0 0.196,0.052 0.228,0.144 0.04,0.104 0.016,0.232 0.128,0.232 0.06,0 0.196,-0.196 0.216,-0.256 l 0.188,-0.6 c -0.128,0.044 -0.264,0.084 -0.4,0.084 -0.188,0 -0.348,-0.136 -0.348,-0.316 0,-0.16 0.136,-0.288 0.3,-0.288 0.1,0 0.196,0.052 0.228,0.144 0.04,0.104 0.016,0.232 0.128,0.232 0.052,0 0.172,-0.152 0.196,-0.2 0.032,-0.06 0.12,-0.06 0.148,0 l -0.692,2.644 c -0.04,0.032 -0.092,0.052 -0.14,0.052 -0.048,0 -0.1,-0.02 -0.14,-0.052 z"
     fill="currentColor"
     id="path90"
     style="stroke-width:0.004" />
  <polygon
     transform="translate(31.3565,3.192274)"
     stroke-linejoin="round"
     stroke-linecap="round"
     stroke-width="0.0833"
     fill="currentColor"
     stroke="currentColor"
     points="1.0004,0.3126 -0.0417,-0.026 -0.0417,0.4364 1.0004,0.775 "
     id="polygon92" />
  <polygon
     transform="translate(31.3565,4.192274)"
     stroke-linejoin="round"
     stroke-linecap="round"
     stroke-width="0.0833"
     fill="currentColor"
     stroke="currentColor"
     points="1.0004,0.3126 -0.0417,-0.026 -0.0417,0.4364 1.0004,0.775 "
     id="polygon94" />
  <rect
     x="31.1898"
     y="3.135174"
     width="0.1666"
     height="3.3382001"
     ry="0.057100002"
     fill="currentColor"
     id="rect96" />
  <path
     d="m 30.8904,6.079174 c 0.244,0 0.468,0.132 0.468,0.396 0,0.284 -0.208,0.476 -0.396,0.588 -0.136,0.08 -0.284,0.128 -0.44,0.128 -0.244,0 -0.464,-0.132 -0.464,-0.396 0,-0.284 0.204,-0.476 0.392,-0.588 0.136,-0.08 0.284,-0.128 0.44,-0.128 z"
     fill="currentColor"
     id="path98"
     style="stroke-width:0.004" />
  <polygon
     transform="translate(28.4565,3.192274)"
     stroke-linejoin="round"
     stroke-linecap="round"
     stroke-width="0.0833"
     fill="currentColor"
     stroke="currentColor"
     points="1.0004,0.3126 -0.0417,-0.026 -0.0417,0.4364 1.0004,0.775 "
     id="polygon100" />
  <polygon
     transform="translate(28.4565,4.192274)"
     stroke-linejoin="round"
     stroke-linecap="round"
     stroke-width="0.0833"
     fill="currentColor"
     stroke="currentColor"
     points="1.0004,0.3126 -0.0417,-0.026 -0.0417,0.4364 1.0004,0.775 "
     id="polygon102" />
  <polygon
     transform="translate(42.8133,3.192274)"
     stroke-linejoin="round"
     stroke-linecap="round"
     stroke-width="0.0833"
     fill="currentColor"
     stroke="currentColor"
     points="1.0004,0.3126 -0.0417,-0.026 -0.0417,0.4364 1.0004,0.775 "
     id="polygon104" />
  <path
     d="m 42.3472,6.079174 c 0.244,0 0.468,0.132 0.468,0.396 0,0.284 -0.208,0.476 -0.396,0.588 -0.136,0.08 -0.284,0.128 -0.44,0.128 -0.244,0 -0.464,-0.132 -0.464,-0.396 0,-0.284 0.204,-0.476 0.392,-0.588 0.136,-0.08 0.284,-0.128 0.44,-0.128 z"
     fill="currentColor"
     id="path106"
     style="stroke-width:0.004" />
  <path
     d="m 38.8432,6.135174 0.408,-1.3 c -0.128,0.044 -0.264,0.084 -0.4,0.084 -0.188,0 -0.348,-0.136 -0.348,-0.316 0,-0.16 0.136,-0.288 0.3,-0.288 0.1,0 0.196,0.052 0.228,0.144 0.04,0.104 0.016,0.232 0.128,0.232 0.06,0 0.196,-0.196 0.216,-0.256 l 0.188,-0.6 c -0.128,0.044 -0.264,0.084 -0.4,0.084 -0.188,0 -0.348,-0.136 -0.348,-0.316 0,-0.16 0.136,-0.288 0.3,-0.288 0.1,0 0.196,0.052 0.228,0.144 0.04,0.104 0.016,0.232 0.128,0.232 0.052,0 0.172,-0.152 0.196,-0.2 0.032,-0.06 0.12,-0.06 0.148,0 l -0.692,2.644 c -0.04,0.032 -0.092,0.052 -0.14,0.052 -0.048,0 -0.1,-0.02 -0.14,-0.052 z"
     fill="currentColor"
     id="path108"
     style="stroke-width:0.004" />
  <rect
     x="42.646702"
     y="3.135174"
     width="0.1666"
     height="3.3382001"
     ry="0.057100002"
     fill="currentColor"
     id="rect110" />
  <polygon
     transform="translate(9.9565,3.692274)"
     stroke-linejoin="round"
     stroke-linecap="round"
     stroke-width="0.0833"
     fill="currentColor"
     stroke="currentColor"
     points="1.0004,0.3126 -0.0417,-0.026 -0.0417,0.4364 1.0004,0.775 "
     id="polygon112" />
  <rect
     x="9.7897997"
     y="3.635174"
     width="0.1666"
     height="3.3382001"
     ry="0.057100002"
     fill="currentColor"
     id="rect114" />
  <path
     d="m 5.8,2.971174 c 0.092,-0.06 0.184,-0.12 0.252,-0.208 0.048,-0.064 0.076,-0.136 0.112,-0.208 0.008,-0.016 0.024,-0.024 0.04,-0.024 0.028,0 0.06,0.024 0.06,0.064 v 0.904 h 0.308 c 0.044,0 0.068,0.036 0.068,0.068 0,0.032 -0.024,0.068 -0.068,0.068 H 6.264 c 0,0.204 0.124,0.392 0.312,0.392 0.036,0 0.056,0.028 0.056,0.056 0,0.028 -0.02,0.052 -0.056,0.052 -0.188,0 -0.376,-0.052 -0.564,-0.052 -0.188,0 -0.376,0.052 -0.564,0.052 -0.036,0 -0.052,-0.024 -0.052,-0.052 0,-0.028 0.016,-0.056 0.052,-0.056 0.188,0 0.316,-0.188 0.316,-0.392 H 5.136 c -0.108,0 -0.144,-0.068 -0.144,-0.108 0,-0.012 0.004,-0.024 0.008,-0.028 0.316,-0.36 0.512,-0.812 0.512,-1.288 0,-0.048 0.036,-0.088 0.076,-0.076 0.1,0.028 0.2,0.052 0.3,0.052 0.1,0 0.2,-0.024 0.3,-0.052 0.008,-0.004 0.016,-0.004 0.024,-0.004 0.036,0 0.06,0.028 0.06,0.056 0,0.008 0,0.016 -0.008,0.024 l -1.128,1.288 h 0.628 v -0.428 c 0,-0.04 0.004,-0.08 0.036,-0.1 z"
     fill="currentColor"
     id="path116"
     style="stroke-width:0.004" />
  <path
     d="m 5.8,5.019774 c 0.092,-0.06 0.184,-0.12 0.252,-0.208 0.048,-0.064 0.076,-0.136 0.112,-0.208 0.008,-0.016 0.024,-0.024 0.04,-0.024 0.028,0 0.06,0.024 0.06,0.064 v 0.904 h 0.308 c 0.044,0 0.068,0.036 0.068,0.068 0,0.032 -0.024,0.068 -0.068,0.068 H 6.264 c 0,0.204 0.124,0.392 0.312,0.392 0.036,0 0.056,0.028 0.056,0.056 0,0.028 -0.02,0.052 -0.056,0.052 -0.188,0 -0.376,-0.052 -0.564,-0.052 -0.188,0 -0.376,0.052 -0.564,0.052 -0.036,0 -0.052,-0.024 -0.052,-0.052 0,-0.028 0.016,-0.056 0.052,-0.056 0.188,0 0.316,-0.188 0.316,-0.392 H 5.136 c -0.108,0 -0.144,-0.068 -0.144,-0.108 0,-0.012 0.004,-0.024 0.008,-0.028 0.316,-0.36 0.512,-0.812 0.512,-1.288 0,-0.048 0.036,-0.088 0.076,-0.076 0.1,0.028 0.2,0.052 0.3,0.052 0.1,0 0.2,-0.024 0.3,-0.052 0.008,-0.004 0.016,-0.004 0.024,-0.004 0.036,0 0.06,0.028 0.06,0.056 0,0.008 0,0.016 -0.008,0.024 l -1.128,1.288 h 0.628 v -0.428 c 0,-0.04 0.004,-0.08 0.036,-0.1 z"
     fill="currentColor"
     id="path118"
     style="stroke-width:0.004" />
  <path
     d="M 2.324,4.071174 H 2.36 c 0.628,0 1.032,0.52 1.032,1.056 0,0.308 -0.132,0.624 -0.432,0.848 -0.088,0.064 -0.184,0.112 -0.284,0.144 0.008,0.128 0.012,0.26 0.012,0.388 0,0.084 -0.004,0.172 -0.008,0.256 -0.028,0.488 -0.364,0.92 -0.844,0.92 -0.432,0 -0.788,-0.352 -0.788,-0.788 0,-0.232 0.216,-0.416 0.452,-0.416 0.216,0 0.38,0.192 0.38,0.416 0,0.208 -0.172,0.38 -0.38,0.38 -0.032,0 -0.064,-0.008 -0.096,-0.016 0.1,0.14 0.26,0.236 0.444,0.236 0.38,0 0.62,-0.368 0.644,-0.76 0.004,-0.08 0.008,-0.156 0.008,-0.236 0,-0.112 -0.004,-0.22 -0.012,-0.332 -0.116,0.02 -0.228,0.028 -0.348,0.028 -0.756,0 -1.332,-0.696 -1.332,-1.508 0,-0.704 0.512,-1.228 0.968,-1.772 -0.084,-0.248 -0.164,-0.496 -0.2,-0.756 -0.028,-0.208 -0.032,-0.424 -0.032,-0.636 0,-0.452 0.216,-0.87599997 0.584,-1.14399997 0.032,-0.024 0.084,-0.028 0.116,0 0.288,0.328 0.544,0.97599997 0.544,1.42799997 0,0.564 -0.332,1.012 -0.696,1.448 0.088,0.268 0.164,0.54 0.232,0.816 z m 0.332,1.864 c 0.256,-0.1 0.432,-0.372 0.432,-0.636 0,-0.348 -0.248,-0.692 -0.652,-0.748 0.096,0.452 0.172,0.9 0.22,1.384 z m -0.504,0.072 c 0.108,0 0.216,-0.008 0.32,-0.024 -0.052,-0.5 -0.132,-0.968 -0.232,-1.436 -0.316,0.028 -0.492,0.236 -0.492,0.464 0,0.172 0.096,0.356 0.312,0.48 0.02,0.02 0.032,0.044 0.032,0.068 0,0.052 -0.044,0.096 -0.096,0.096 -0.012,0 -0.028,0 -0.04,-0.008 -0.324,-0.176 -0.476,-0.464 -0.476,-0.748 0,-0.36 0.24,-0.712 0.656,-0.804 -0.056,-0.224 -0.12,-0.448 -0.188,-0.668 -0.416,0.488 -0.832,0.98 -0.832,1.616 0,0.528 0.508,0.964 1.036,0.964 z m 0.328,-4.56 c 0,-0.196 -0.012,-0.276 -0.076,-0.45199997 C 2.008,1.175174 1.756,1.575174 1.756,2.007174 c 0,0.276 0.088,0.508 0.164,0.732 0.308,-0.388 0.56,-0.796 0.56,-1.292 z"
     fill="currentColor"
     id="path120"
     style="stroke-width:0.004" />
  <path
     d="m 9.4904,6.579174 c 0.244,0 0.468,0.132 0.468,0.396 0,0.284 -0.208,0.476 -0.396,0.588 -0.136,0.08 -0.284,0.128 -0.44,0.128 -0.244,0 -0.464,-0.132 -0.464,-0.396 0,-0.284 0.204,-0.476 0.392,-0.588 0.136,-0.08 0.284,-0.128 0.44,-0.128 z"
     fill="currentColor"
     id="path122"
     style="stroke-width:0.004" />
  <path
     d="m 24.9864,6.135174 0.408,-1.3 c -0.128,0.044 -0.264,0.084 -0.4,0.084 -0.188,0 -0.348,-0.136 -0.348,-0.316 0,-0.16 0.136,-0.288 0.3,-0.288 0.1,0 0.196,0.052 0.228,0.144 0.04,0.104 0.016,0.232 0.128,0.232 0.06,0 0.196,-0.196 0.216,-0.256 l 0.188,-0.6 c -0.128,0.044 -0.264,0.084 -0.4,0.084 -0.188,0 -0.348,-0.136 -0.348,-0.316 0,-0.16 0.136,-0.288 0.3,-0.288 0.1,0 0.196,0.052 0.228,0.144 0.04,0.104 0.016,0.232 0.128,0.232 0.052,0 0.172,-0.152 0.196,-0.2 0.032,-0.06 0.12,-0.06 0.148,0 l -0.692,2.644 c -0.04,0.032 -0.092,0.052 -0.14,0.052 -0.048,0 -0.1,-0.02 -0.14,-0.052 z"
     fill="currentColor"
     id="path124"
     style="stroke-width:0.004" />
  <text
     font-family="serif"
     font-style="italic"
     font-size="1.7465px"
     text-anchor="start"
     fill="currentColor"
     id="text128"
     x="46.320202"
     y="1.156374"><tspan
       id="tspan126">5</tspan></text>
  <line
     stroke-linejoin="round"
     stroke-linecap="round"
     stroke-width="0.2051"
     stroke="currentColor"
     x1="51.071701"
     y1="0.57107401"
     x2="51.071701"
     y2="1.2710741"
     id="line130" />
  <line
     stroke-linejoin="round"
     stroke-linecap="round"
     stroke-width="0.2051"
     stroke="currentColor"
     x1="42.446701"
     y1="0.57107401"
     x2="42.446701"
     y2="1.2710741"
     id="line132" />
  <line
     stroke-linejoin="round"
     stroke-linecap="round"
     stroke-width="0.2051"
     stroke="currentColor"
     x1="51.071701"
     y1="0.57107401"
     x2="47.798199"
     y2="0.57107401"
     id="line134" />
  <line
     stroke-linejoin="round"
     stroke-linecap="round"
     stroke-width="0.2051"
     stroke="currentColor"
     x1="42.446701"
     y1="0.57107401"
     x2="45.9202"
     y2="0.57107401"
     id="line136" />
  <polygon
     transform="translate(48.8133,3.692274)"
     stroke-linejoin="round"
     stroke-linecap="round"
     stroke-width="0.0833"
     fill="currentColor"
     stroke="currentColor"
     points="1.0004,0.3126 -0.0417,-0.026 -0.0417,0.4364 1.0004,0.775 "
     id="polygon138" />
  <rect
     x="48.646702"
     y="3.635174"
     width="0.1666"
     height="3.3382001"
     ry="0.057100002"
     fill="currentColor"
     id="rect140" />
  <path
     d="m 48.3472,6.579174 c 0.244,0 0.468,0.132 0.468,0.396 0,0.284 -0.208,0.476 -0.396,0.588 -0.136,0.08 -0.284,0.128 -0.44,0.128 -0.244,0 -0.464,-0.132 -0.464,-0.396 0,-0.284 0.204,-0.476 0.392,-0.588 0.136,-0.08 0.284,-0.128 0.44,-0.128 z"
     fill="currentColor"
     id="path142"
     style="stroke-width:0.004" />
  <path
     d="m 45.3432,6.135174 0.408,-1.3 c -0.128,0.044 -0.264,0.084 -0.4,0.084 -0.188,0 -0.348,-0.136 -0.348,-0.316 0,-0.16 0.136,-0.288 0.3,-0.288 0.1,0 0.196,0.052 0.228,0.144 0.04,0.104 0.016,0.232 0.128,0.232 0.06,0 0.196,-0.196 0.216,-0.256 l 0.188,-0.6 c -0.128,0.044 -0.264,0.084 -0.4,0.084 -0.188,0 -0.348,-0.136 -0.348,-0.316 0,-0.16 0.136,-0.288 0.3,-0.288 0.1,0 0.196,0.052 0.228,0.144 0.04,0.104 0.016,0.232 0.128,0.232 0.052,0 0.172,-0.152 0.196,-0.2 0.032,-0.06 0.12,-0.06 0.148,0 l -0.692,2.644 c -0.04,0.032 -0.092,0.052 -0.14,0.052 -0.048,0 -0.1,-0.02 -0.14,-0.052 z"
     fill="currentColor"
     id="path144"
     style="stroke-width:0.004" />
</svg>
