<?xml version="1.0" encoding="UTF-8" standalone="no"?>
<svg
   version="1.2"
   width="28.773964mm"
   height="16.456148mm"
   viewBox="0 0 18.193298 10.404951"
   id="svg52"
   sodipodi:docname="README-5.svg"
   xmlns:inkscape="http://www.inkscape.org/namespaces/inkscape"
   xmlns:sodipodi="http://sodipodi.sourceforge.net/DTD/sodipodi-0.dtd"
   xmlns="http://www.w3.org/2000/svg"
   xmlns:svg="http://www.w3.org/2000/svg">
  <defs
     id="defs56" />
  <sodipodi:namedview
     id="namedview54"
     pagecolor="#ffffff"
     bordercolor="#666666"
     borderopacity="1.0"
     inkscape:pageshadow="2"
     inkscape:pageopacity="0.0"
     inkscape:pagecheckerboard="0"
     inkscape:document-units="mm" />
  <style
     text="style/css"
     id="style2"><![CDATA[
tspan { white-space: pre; }
]]></style>
  <!-- Page: 1/1 -->
  <g
     color="#7f7f7f"
     id="g14"
     transform="translate(-16.06005,-4.148251)">
    <line
       transform="translate(16.06,9.9254)"
       stroke-linejoin="round"
       stroke-linecap="round"
       stroke-width="0.1073"
       stroke="currentColor"
       x1="0.0537"
       y1="0"
       x2="18.1397"
       y2="0"
       id="line4" />
    <line
       transform="translate(16.06,8.9254)"
       stroke-linejoin="round"
       stroke-linecap="round"
       stroke-width="0.1073"
       stroke="currentColor"
       x1="0.0537"
       y1="0"
       x2="18.1397"
       y2="0"
       id="line6" />
    <line
       transform="translate(16.06,7.9254)"
       stroke-linejoin="round"
       stroke-linecap="round"
       stroke-width="0.1073"
       stroke="currentColor"
       x1="0.0537"
       y1="0"
       x2="18.1397"
       y2="0"
       id="line8" />
    <line
       transform="translate(16.06,6.9254)"
       stroke-linejoin="round"
       stroke-linecap="round"
       stroke-width="0.1073"
       stroke="currentColor"
       x1="0.0537"
       y1="0"
       x2="18.1397"
       y2="0"
       id="line10" />
    <line
       transform="translate(16.06,5.9254)"
       stroke-linejoin="round"
       stroke-linecap="round"
       stroke-width="0.1073"
       stroke="currentColor"
       x1="0.0537"
       y1="0"
       x2="18.1397"
       y2="0"
       id="line12" />
  </g>
  <rect
     x="8.2676506"
     y="6.673449"
     width="1.9542"
     height="0.20730001"
     ry="0.1037"
     fill="currentColor"
     id="rect16" />
  <path
     d="m 16.65335,4.729149 c 0.228,0 0.444,0.116 0.444,0.368 0,0.284 -0.216,0.48 -0.404,0.592 -0.14,0.084 -0.296,0.136 -0.456,0.136 -0.228,0 -0.444,-0.116 -0.444,-0.368 0,-0.284 0.216,-0.48 0.404,-0.592 0.14,-0.084 0.296,-0.136 0.456,-0.136 z"
     fill="currentColor"
     id="path18"
     style="stroke-width:0.004" />
  <line
     stroke-linejoin="round"
     stroke-linecap="round"
     stroke-width="0.1073"
     stroke="currentColor"
     x1="10.96555"
     y1="9.1009493"
     x2="14.79985"
     y2="9.7675486"
     id="line20" />
  <line
     stroke-linejoin="round"
     stroke-linecap="round"
     stroke-width="0.1073"
     stroke="currentColor"
     x1="10.96555"
     y1="9.1009493"
     x2="14.79985"
     y2="8.4343491"
     id="line22" />
  <path
     d="m 16.80775,8.736949 -0.196,0.644 c -0.12,0.396 -0.484,1.024 -0.872,1.024 -0.184,0 -0.348,-0.12 -0.348,-0.292 0,-0.156 0.068,-0.308 0.208,-0.308 0.096,0 0.176,0.08 0.176,0.176 0,0.12 -0.152,0.096 -0.152,0.216 0,0.04 0.044,0.044 0.092,0.044 h 0.024 c 0.188,0 0.244,-0.224 0.292,-0.42 l 0.272,-1.084 h -0.188 c -0.044,0 -0.084,-0.04 -0.084,-0.084 0,-0.044 0.04,-0.084 0.084,-0.084 h 0.232 c 0.128,-0.38 0.476,-0.756 0.852,-0.756 0.184,0 0.348,0.116 0.348,0.288 0,0.156 -0.068,0.312 -0.208,0.312 -0.096,0 -0.176,-0.08 -0.176,-0.176 0,-0.12 0.152,-0.1 0.152,-0.22 0,-0.04 -0.04,-0.04 -0.088,-0.04 h -0.028 c -0.24,0 -0.28,0.336 -0.344,0.592 h 0.212 c 0.044,0 0.084,0.04 0.084,0.084 0,0.044 -0.04,0.084 -0.084,0.084 z"
     fill="currentColor"
     id="path24"
     style="stroke-width:0.004" />
  <rect
     x="16.95665"
     y="2.590349"
     width="0.13950001"
     height="2.5074999"
     ry="0.044399999"
     fill="currentColor"
     id="rect26" />
  <path
     d="m 11.85335,5.729149 c 0.228,0 0.444,0.116 0.444,0.368 0,0.284 -0.216,0.48 -0.404,0.592 -0.14,0.084 -0.296,0.136 -0.456,0.136 -0.228,0 -0.444,-0.116 -0.444,-0.368 0,-0.284 0.216,-0.48 0.404,-0.592 0.14,-0.084 0.296,-0.136 0.456,-0.136 z"
     fill="currentColor"
     id="path28"
     style="stroke-width:0.004" />
  <rect
     x="12.15665"
     y="3.2442491"
     width="0.13950001"
     height="2.8534999"
     ry="0.044399999"
     fill="currentColor"
     id="rect30" />
  <path
     d="m 14.25335,5.229149 c 0.228,0 0.444,0.116 0.444,0.368 0,0.284 -0.216,0.48 -0.404,0.592 -0.14,0.084 -0.296,0.136 -0.456,0.136 -0.228,0 -0.444,-0.116 -0.444,-0.368 0,-0.284 0.216,-0.48 0.404,-0.592 0.14,-0.084 0.296,-0.136 0.456,-0.136 z"
     fill="currentColor"
     id="path32"
     style="stroke-width:0.004" />
  <rect
     x="14.55665"
     y="2.9173491"
     width="0.13950001"
     height="2.6805"
     ry="0.044399999"
     fill="currentColor"
     id="rect34" />
  <polygon
     transform="translate(9.75665,3.580849)"
     stroke-linejoin="round"
     stroke-linecap="round"
     stroke-width="0.0889"
     fill="currentColor"
     stroke="currentColor"
     points="0.0444,0.2056 0.0444,-0.2056 7.295,-1.2056 7.295,-0.7944 "
     id="polygon36" />
  <path
     stroke-width="0.0858"
     stroke-linejoin="round"
     stroke-linecap="round"
     stroke="currentColor"
     fill="currentColor"
     d="m 9.33335,7.825749 c 1.7216,0.9623 6.0058,0.0698 7.2,-1.5 v 0 c -1.2204,1.4437 -5.5046,2.3363 -7.2,1.5 z"
     id="path38" />
  <path
     d="m 9.45335,6.229149 c 0.228,0 0.444,0.116 0.444,0.368 0,0.284 -0.216,0.48 -0.404,0.592 -0.14,0.084 -0.296,0.136 -0.456,0.136 -0.228,0 -0.444,-0.116 -0.444,-0.368 0,-0.284 0.216,-0.48 0.404,-0.592 0.14,-0.084 0.296,-0.136 0.456,-0.136 z"
     fill="currentColor"
     id="path40"
     style="stroke-width:0.004" />
  <path
     d="m 9.45595,8.728949 c -0.224,0 -0.408,0.432 -0.408,0.696 0,0.088 0.032,0.152 0.12,0.152 0.252,0 0.388,-0.508 0.388,-0.716 0,-0.072 -0.028,-0.132 -0.1,-0.132 z m -0.488,1.556 c -0.148,0 -0.304,-0.02 -0.456,-0.02 -0.152,0 -0.316,0.02 -0.46,0.02 -0.036,0 -0.056,-0.032 -0.056,-0.06 0,-0.076 0.12,-0.064 0.192,-0.068 0.092,-0.004 0.188,-0.028 0.216,-0.108 l 0.404,-1.184 c 0.008,-0.028 0.02,-0.056 0.02,-0.08 0,-0.032 -0.012,-0.056 -0.044,-0.056 -0.132,0 -0.244,0.24 -0.308,0.388 -0.02,0.052 -0.068,0.076 -0.104,0.076 -0.032,0 -0.06,-0.02 -0.06,-0.052 0,-0.012 0.004,-0.028 0.008,-0.04 0.12,-0.272 0.292,-0.568 0.532,-0.568 0.14,0 0.232,0.088 0.26,0.208 0.116,-0.124 0.268,-0.208 0.412,-0.208 0.276,0 0.428,0.196 0.428,0.456 0,0.084 -0.016,0.176 -0.048,0.268 -0.08,0.232 -0.364,0.48 -0.588,0.48 -0.108,0 -0.208,-0.024 -0.292,-0.072 -0.04,-0.024 -0.096,-0.012 -0.108,0.024 l -0.108,0.32 c -0.004,0.012 -0.008,0.024 -0.008,0.036 0,0.084 0.08,0.112 0.172,0.12 0.036,0.004 0.052,0.032 0.052,0.06 0,0.028 -0.02,0.06 -0.056,0.06 z"
     fill="currentColor"
     id="path42"
     style="stroke-width:0.004" />
  <path
     d="m 2.31195,3.725149 c 0.016,0 0.028,-0.004 0.044,-0.004 0.624,0 1.028,0.516 1.028,1.048 0,0.304 -0.136,0.616 -0.432,0.84 -0.088,0.068 -0.184,0.116 -0.288,0.148 0.012,0.136 0.016,0.272 0.016,0.408 0,0.08 0,0.16 -0.004,0.24 -0.028,0.484 -0.36,0.912 -0.836,0.912 -0.432,0 -0.784,-0.348 -0.784,-0.784 0,-0.232 0.212,-0.416 0.448,-0.416 0.216,0 0.38,0.192 0.38,0.416 0,0.208 -0.172,0.38 -0.38,0.38 -0.04,0 -0.08,-0.008 -0.116,-0.024 0.104,0.152 0.272,0.252 0.464,0.252 h 0.012 c 0.372,-0.008 0.612,-0.368 0.636,-0.76 0.004,-0.076 0.008,-0.148 0.008,-0.224 0,-0.12 -0.008,-0.24 -0.016,-0.36 -0.116,0.02 -0.232,0.032 -0.352,0.032 -0.752,0 -1.332,-0.692 -1.332,-1.5 0,-0.708 0.52,-1.228 0.984,-1.768 -0.08,-0.248 -0.152,-0.5 -0.184,-0.76 -0.024,-0.208 -0.028,-0.416 -0.028,-0.628 0,-0.45999999 0.22,-0.89199999 0.592,-1.15999999 0.028,-0.02 0.064,-0.016 0.088,0.004 0.284,0.332 0.536,0.976 0.536,1.42799999 0,0.572 -0.34,1.02 -0.712,1.456 0.084,0.272 0.16,0.548 0.228,0.824 z m 0.336,1.86 c 0.268,-0.096 0.444,-0.376 0.444,-0.648 0,-0.356 -0.26,-0.712 -0.68,-0.76 0.096,0.46 0.184,0.92 0.236,1.408 z m -1.548,-0.912 c 0,0.536 0.516,0.98 1.052,0.98 0.112,0 0.22,-0.008 0.324,-0.024 -0.056,-0.504 -0.144,-0.976 -0.244,-1.452 -0.316,0.032 -0.496,0.244 -0.496,0.476 0,0.172 0.1,0.356 0.32,0.484 0.02,0.02 0.028,0.044 0.028,0.064 0,0.048 -0.04,0.092 -0.088,0.092 -0.012,0 -0.024,-0.004 -0.036,-0.008 -0.324,-0.172 -0.472,-0.464 -0.472,-0.744 0,-0.356 0.232,-0.7 0.644,-0.792 -0.056,-0.232 -0.116,-0.464 -0.184,-0.692 -0.424,0.488 -0.848,0.976 -0.848,1.616 z m 0.676,-3.036 c 0,0.292 0.08,0.528 0.152,0.764 0.316,-0.388 0.576,-0.796 0.576,-1.296 0,-0.21199999 -0.016,-0.30399999 -0.08,-0.49599999 -0.396,0.188 -0.648,0.59199999 -0.648,1.02799999 z"
     fill="currentColor"
     id="path44"
     style="stroke-width:0.004" />
  <path
     d="m 5.77595,3.297149 h 0.48 c 0,0.196 0.116,0.38 0.3,0.38 0.032,0 0.048,0.028 0.048,0.052 0,0.024 -0.016,0.048 -0.048,0.048 -0.18,0 -0.36,-0.052 -0.54,-0.052 -0.18,0 -0.36,0.052 -0.54,0.052 -0.032,0 -0.048,-0.024 -0.048,-0.048 0,-0.024 0.016,-0.052 0.048,-0.052 0.184,0 0.3,-0.184 0.3,-0.38 z m 0.036,-0.724 c 0.088,-0.06 0.18,-0.12 0.244,-0.204 0.048,-0.06 0.076,-0.136 0.108,-0.204 0.008,-0.016 0.02,-0.024 0.036,-0.024 0.024,0 0.056,0.024 0.056,0.06 v 0.952 h 0.296 c 0.04,0 0.064,0.032 0.064,0.064 0,0.032 -0.024,0.06 -0.064,0.06 h -0.296 v 0.02 h -0.48 v -0.02 h -0.652 c -0.096,0 -0.132,-0.06 -0.132,-0.096 0,-0.012 0.004,-0.024 0.008,-0.028 0.32,-0.368 0.536,-0.82 0.536,-1.308 0,-0.044 0.032,-0.08 0.068,-0.068 0.096,0.028 0.192,0.052 0.292,0.052 0.1,0 0.192,-0.024 0.288,-0.052 0.008,-0.004 0.016,-0.004 0.024,-0.004 0.036,0 0.056,0.028 0.056,0.052 0,0.008 0,0.012 -0.008,0.02 l -1.132,1.308 h 0.652 v -0.488 c 0,-0.036 0.008,-0.072 0.036,-0.092 z"
     fill="currentColor"
     id="path46"
     style="stroke-width:0.004" />
  <path
     d="m 5.77595,5.383749 h 0.48 c 0,0.196 0.116,0.38 0.3,0.38 0.032,0 0.048,0.028 0.048,0.052 0,0.024 -0.016,0.048 -0.048,0.048 -0.18,0 -0.36,-0.052 -0.54,-0.052 -0.18,0 -0.36,0.052 -0.54,0.052 -0.032,0 -0.048,-0.024 -0.048,-0.048 0,-0.024 0.016,-0.052 0.048,-0.052 0.184,0 0.3,-0.184 0.3,-0.38 z m 0.036,-0.724 c 0.088,-0.06 0.18,-0.12 0.244,-0.204 0.048,-0.06 0.076,-0.136 0.108,-0.204 0.008,-0.016 0.02,-0.024 0.036,-0.024 0.024,0 0.056,0.024 0.056,0.06 v 0.952 h 0.296 c 0.04,0 0.064,0.032 0.064,0.064 0,0.032 -0.024,0.06 -0.064,0.06 h -0.296 v 0.02 h -0.48 v -0.02 h -0.652 c -0.096,0 -0.132,-0.06 -0.132,-0.096 0,-0.012 0.004,-0.024 0.008,-0.028 0.32,-0.368 0.536,-0.82 0.536,-1.308 0,-0.044 0.032,-0.08 0.068,-0.068 0.096,0.028 0.192,0.052 0.292,0.052 0.1,0 0.192,-0.024 0.288,-0.052 0.008,-0.004 0.016,-0.004 0.024,-0.004 0.036,0 0.056,0.028 0.056,0.052 0,0.008 0,0.012 -0.008,0.02 l -1.132,1.308 h 0.652 v -0.488 c 0,-0.036 0.008,-0.072 0.036,-0.092 z"
     fill="currentColor"
     id="path48"
     style="stroke-width:0.004" />
  <rect
     x="9.75665"
     y="3.571249"
     width="0.13950001"
     height="3.0265"
     ry="0.044399999"
     fill="currentColor"
     id="rect50" />
</svg>
