<?xml version="1.0" encoding="UTF-8" standalone="no"?>
<svg
   version="1.2"
   width="98.283669mm"
   height="16.701109mm"
   viewBox="0 0 50.844388 8.639866"
   id="svg154"
   sodipodi:docname="README-13.svg"
   xmlns:inkscape="http://www.inkscape.org/namespaces/inkscape"
   xmlns:sodipodi="http://sodipodi.sourceforge.net/DTD/sodipodi-0.dtd"
   xmlns="http://www.w3.org/2000/svg"
   xmlns:svg="http://www.w3.org/2000/svg">
  <defs
     id="defs158" />
  <sodipodi:namedview
     id="namedview156"
     pagecolor="#ffffff"
     bordercolor="#666666"
     borderopacity="1.0"
     inkscape:pageshadow="2"
     inkscape:pageopacity="0.0"
     inkscape:pagecheckerboard="0"
     inkscape:document-units="mm"
     fit-margin-top="2"
     fit-margin-left="2"
     fit-margin-right="2"
     fit-margin-bottom="2" />
  <style
     text="style/css"
     id="style2"><![CDATA[
tspan { white-space: pre; }
]]></style>
  <!-- Page: 1/1 -->
  <text
     font-family="serif"
     font-size="2.2001px"
     text-anchor="start"
     fill="currentColor"
     id="text6"
     x="1.0346458"
     y="0.042519789"><tspan
       id="tspan4" /></text>
  <line
     stroke-linejoin="round"
     stroke-linecap="round"
     stroke-width="0.094"
     stroke="currentColor"
     x1="1.0816457"
     y1="7.0652199"
     x2="49.487644"
     y2="7.0652199"
     id="line8" />
  <path
     d="m 14.414646,6.5252198 c 0.216,0 0.424,0.108 0.424,0.348 0,0.284 -0.224,0.48 -0.412,0.592 -0.144,0.084 -0.304,0.14 -0.468,0.14 -0.216,0 -0.424,-0.108 -0.424,-0.348 0,-0.284 0.224,-0.48 0.412,-0.592 0.144,-0.084 0.304,-0.14 0.468,-0.14 z"
     fill="currentColor"
     id="path10"
     style="stroke-width:0.004" />
  <path
     d="m 21.614646,6.5252198 c 0.216,0 0.424,0.108 0.424,0.348 0,0.284 -0.224,0.48 -0.412,0.592 -0.144,0.084 -0.304,0.14 -0.468,0.14 -0.216,0 -0.424,-0.108 -0.424,-0.348 0,-0.284 0.224,-0.48 0.412,-0.592 0.144,-0.084 0.304,-0.14 0.468,-0.14 z"
     fill="currentColor"
     id="path12"
     style="stroke-width:0.004" />
  <rect
     x="14.717546"
     y="3.8722198"
     width="0.1222"
     height="3.0011001"
     ry="0.036400001"
     fill="currentColor"
     id="rect14" />
  <path
     d="m 16.814646,6.5252198 c 0.216,0 0.424,0.108 0.424,0.348 0,0.284 -0.224,0.48 -0.412,0.592 -0.144,0.084 -0.304,0.14 -0.468,0.14 -0.216,0 -0.424,-0.108 -0.424,-0.348 0,-0.284 0.224,-0.48 0.412,-0.592 0.144,-0.084 0.304,-0.14 0.468,-0.14 z"
     fill="currentColor"
     id="path16"
     style="stroke-width:0.004" />
  <rect
     x="17.117546"
     y="3.8722198"
     width="0.1222"
     height="3.0011001"
     ry="0.036400001"
     fill="currentColor"
     id="rect18" />
  <path
     d="m 19.214646,6.5252198 c 0.216,0 0.424,0.108 0.424,0.348 0,0.284 -0.224,0.48 -0.412,0.592 -0.144,0.084 -0.304,0.14 -0.468,0.14 -0.216,0 -0.424,-0.108 -0.424,-0.348 0,-0.284 0.224,-0.48 0.412,-0.592 0.144,-0.084 0.304,-0.14 0.468,-0.14 z"
     fill="currentColor"
     id="path20"
     style="stroke-width:0.004" />
  <rect
     x="19.517546"
     y="3.8722198"
     width="0.1222"
     height="3.0011001"
     ry="0.036400001"
     fill="currentColor"
     id="rect22" />
  <polygon
     transform="translate(2.7175458,3.8723198)"
     stroke-linejoin="round"
     stroke-linecap="round"
     stroke-width="0.0727"
     fill="currentColor"
     stroke="currentColor"
     points="0.0364,0.2036 0.0364,-0.2036 9.6859,-0.2036 9.6859,0.2036 "
     id="polygon24" />
  <polygon
     transform="translate(2.7175458,4.6793198)"
     stroke-linejoin="round"
     stroke-linecap="round"
     stroke-width="0.0727"
     fill="currentColor"
     stroke="currentColor"
     points="0.0364,0.2036 0.0364,-0.2036 9.6859,-0.2036 9.6859,0.2036 "
     id="polygon26" />
  <path
     d="m 7.2146458,6.5252198 c 0.216,0 0.424,0.108 0.424,0.348 0,0.284 -0.224,0.48 -0.412,0.592 -0.144,0.084 -0.304,0.14 -0.468,0.14 -0.216,0 -0.424,-0.108 -0.424,-0.348 0,-0.284 0.224,-0.48 0.412,-0.592 0.144,-0.084 0.304,-0.14 0.468,-0.14 z"
     fill="currentColor"
     id="path28"
     style="stroke-width:0.004" />
  <rect
     x="7.5175457"
     y="3.8722198"
     width="0.1222"
     height="3.0011001"
     ry="0.036400001"
     fill="currentColor"
     id="rect30" />
  <path
     d="m 9.6146458,6.5252198 c 0.216,0 0.4240002,0.108 0.4240002,0.348 0,0.284 -0.2240002,0.48 -0.4120002,0.592 -0.144,0.084 -0.304,0.14 -0.468,0.14 -0.216,0 -0.424,-0.108 -0.424,-0.348 0,-0.284 0.224,-0.48 0.412,-0.592 0.144,-0.084 0.304,-0.14 0.468,-0.14 z"
     fill="currentColor"
     id="path32"
     style="stroke-width:0.004" />
  <rect
     x="9.9175453"
     y="3.8722198"
     width="0.1222"
     height="3.0011001"
     ry="0.036400001"
     fill="currentColor"
     id="rect34" />
  <path
     d="m 12.014646,6.5252198 c 0.216,0 0.424,0.108 0.424,0.348 0,0.284 -0.224,0.48 -0.412,0.592 -0.144,0.084 -0.304,0.14 -0.468,0.14 -0.216,0 -0.424,-0.108 -0.424,-0.348 0,-0.284 0.224,-0.48 0.412,-0.592 0.144,-0.084 0.304,-0.14 0.468,-0.14 z"
     fill="currentColor"
     id="path36"
     style="stroke-width:0.004" />
  <rect
     x="12.317546"
     y="3.8722198"
     width="0.1222"
     height="3.0011001"
     ry="0.036400001"
     fill="currentColor"
     id="rect38" />
  <path
     d="m 33.614646,6.5252198 c 0.216,0 0.424,0.108 0.424,0.348 0,0.284 -0.224,0.48 -0.412,0.592 -0.144,0.084 -0.304,0.14 -0.468,0.14 -0.216,0 -0.424,-0.108 -0.424,-0.348 0,-0.284 0.224,-0.48 0.412,-0.592 0.144,-0.084 0.304,-0.14 0.468,-0.14 z"
     fill="currentColor"
     id="path40"
     style="stroke-width:0.004" />
  <path
     d="m 31.214646,6.5252198 c 0.216,0 0.424,0.108 0.424,0.348 0,0.284 -0.224,0.48 -0.412,0.592 -0.144,0.084 -0.304,0.14 -0.468,0.14 -0.216,0 -0.424,-0.108 -0.424,-0.348 0,-0.284 0.224,-0.48 0.412,-0.592 0.144,-0.084 0.304,-0.14 0.468,-0.14 z"
     fill="currentColor"
     id="path42"
     style="stroke-width:0.004" />
  <rect
     x="31.517546"
     y="3.8722198"
     width="0.1222"
     height="3.0011001"
     ry="0.036400001"
     fill="currentColor"
     id="rect44" />
  <polygon
     transform="translate(38.717546,3.8723198)"
     stroke-linejoin="round"
     stroke-linecap="round"
     stroke-width="0.0727"
     fill="currentColor"
     stroke="currentColor"
     points="0.0364,0.2036 0.0364,-0.2036 9.6859,-0.2036 9.6859,0.2036 "
     id="polygon46" />
  <polygon
     transform="translate(38.717546,4.6793198)"
     stroke-linejoin="round"
     stroke-linecap="round"
     stroke-width="0.0727"
     fill="currentColor"
     stroke="currentColor"
     points="0.0364,0.2036 0.0364,-0.2036 9.6859,-0.2036 9.6859,0.2036 "
     id="polygon48" />
  <text
     font-family="serif"
     font-style="italic"
     font-size="1.7465px"
     text-anchor="start"
     fill="currentColor"
     id="text52"
     x="30.941545"
     y="2.1910198"><tspan
       id="tspan50">5</tspan></text>
  <line
     stroke-linejoin="round"
     stroke-linecap="round"
     stroke-width="0.1504"
     stroke="currentColor"
     x1="36.234547"
     y1="1.6323198"
     x2="36.234547"
     y2="2.3323197"
     id="line54" />
  <line
     stroke-linejoin="round"
     stroke-linecap="round"
     stroke-width="0.1504"
     stroke="currentColor"
     x1="26.517546"
     y1="1.6323198"
     x2="26.517546"
     y2="2.3323197"
     id="line56" />
  <line
     stroke-linejoin="round"
     stroke-linecap="round"
     stroke-width="0.1504"
     stroke="currentColor"
     x1="36.234547"
     y1="1.6323198"
     x2="32.410645"
     y2="1.6323198"
     id="line58" />
  <line
     stroke-linejoin="round"
     stroke-linecap="round"
     stroke-width="0.1504"
     stroke="currentColor"
     x1="26.517546"
     y1="1.6323198"
     x2="30.541546"
     y2="1.6323198"
     id="line60" />
  <polygon
     transform="translate(26.717546,3.8723198)"
     stroke-linejoin="round"
     stroke-linecap="round"
     stroke-width="0.0727"
     fill="currentColor"
     stroke="currentColor"
     points="0.0364,0.2036 0.0364,-0.2036 9.6859,-0.2036 9.6859,0.2036 "
     id="polygon62" />
  <polygon
     transform="translate(26.717546,4.6793198)"
     stroke-linejoin="round"
     stroke-linecap="round"
     stroke-width="0.0727"
     fill="currentColor"
     stroke="currentColor"
     points="0.0364,0.2036 0.0364,-0.2036 9.6859,-0.2036 9.6859,0.2036 "
     id="polygon64" />
  <text
     font-family="serif"
     font-style="italic"
     font-size="1.7465px"
     text-anchor="start"
     fill="currentColor"
     id="text68"
     x="18.941545"
     y="2.1910198"><tspan
       id="tspan66">5</tspan></text>
  <line
     stroke-linejoin="round"
     stroke-linecap="round"
     stroke-width="0.1504"
     stroke="currentColor"
     x1="24.234547"
     y1="1.6323198"
     x2="24.234547"
     y2="2.3323197"
     id="line70" />
  <line
     stroke-linejoin="round"
     stroke-linecap="round"
     stroke-width="0.1504"
     stroke="currentColor"
     x1="14.517546"
     y1="1.6323198"
     x2="14.517546"
     y2="2.3323197"
     id="line72" />
  <line
     stroke-linejoin="round"
     stroke-linecap="round"
     stroke-width="0.1504"
     stroke="currentColor"
     x1="24.234547"
     y1="1.6323198"
     x2="20.410646"
     y2="1.6323198"
     id="line74" />
  <line
     stroke-linejoin="round"
     stroke-linecap="round"
     stroke-width="0.1504"
     stroke="currentColor"
     x1="14.517546"
     y1="1.6323198"
     x2="18.541546"
     y2="1.6323198"
     id="line76" />
  <polygon
     transform="translate(14.717546,3.8723198)"
     stroke-linejoin="round"
     stroke-linecap="round"
     stroke-width="0.0727"
     fill="currentColor"
     stroke="currentColor"
     points="0.0364,0.2036 0.0364,-0.2036 9.6859,-0.2036 9.6859,0.2036 "
     id="polygon78" />
  <polygon
     transform="translate(14.717546,4.6793198)"
     stroke-linejoin="round"
     stroke-linecap="round"
     stroke-width="0.0727"
     fill="currentColor"
     stroke="currentColor"
     points="0.0364,0.2036 0.0364,-0.2036 9.6859,-0.2036 9.6859,0.2036 "
     id="polygon80" />
  <text
     font-family="serif"
     font-style="italic"
     font-size="1.7465px"
     text-anchor="start"
     fill="currentColor"
     id="text84"
     x="6.941546"
     y="2.1910198"><tspan
       id="tspan82">5</tspan></text>
  <line
     stroke-linejoin="round"
     stroke-linecap="round"
     stroke-width="0.1504"
     stroke="currentColor"
     x1="12.234546"
     y1="1.6323198"
     x2="12.234546"
     y2="2.3323197"
     id="line86" />
  <line
     stroke-linejoin="round"
     stroke-linecap="round"
     stroke-width="0.1504"
     stroke="currentColor"
     x1="2.5175457"
     y1="1.6323198"
     x2="2.5175457"
     y2="2.3323197"
     id="line88" />
  <line
     stroke-linejoin="round"
     stroke-linecap="round"
     stroke-width="0.1504"
     stroke="currentColor"
     x1="12.234546"
     y1="1.6323198"
     x2="8.4106455"
     y2="1.6323198"
     id="line90" />
  <line
     stroke-linejoin="round"
     stroke-linecap="round"
     stroke-width="0.1504"
     stroke="currentColor"
     x1="2.5175457"
     y1="1.6323198"
     x2="6.5415459"
     y2="1.6323198"
     id="line92" />
  <path
     d="m 24.014646,6.5252198 c 0.216,0 0.424,0.108 0.424,0.348 0,0.284 -0.224,0.48 -0.412,0.592 -0.144,0.084 -0.304,0.14 -0.468,0.14 -0.216,0 -0.424,-0.108 -0.424,-0.348 0,-0.284 0.224,-0.48 0.412,-0.592 0.144,-0.084 0.304,-0.14 0.468,-0.14 z"
     fill="currentColor"
     id="path94"
     style="stroke-width:0.004" />
  <rect
     x="24.317545"
     y="3.8722198"
     width="0.1222"
     height="3.0011001"
     ry="0.036400001"
     fill="currentColor"
     id="rect96" />
  <rect
     x="21.917545"
     y="3.8722198"
     width="0.1222"
     height="3.0011001"
     ry="0.036400001"
     fill="currentColor"
     id="rect98" />
  <path
     d="m 26.414646,6.5252198 c 0.216,0 0.424,0.108 0.424,0.348 0,0.284 -0.224,0.48 -0.412,0.592 -0.144,0.084 -0.304,0.14 -0.468,0.14 -0.216,0 -0.424,-0.108 -0.424,-0.348 0,-0.284 0.224,-0.48 0.412,-0.592 0.144,-0.084 0.304,-0.14 0.468,-0.14 z"
     fill="currentColor"
     id="path100"
     style="stroke-width:0.004" />
  <rect
     x="26.717546"
     y="3.8722198"
     width="0.1222"
     height="3.0011001"
     ry="0.036400001"
     fill="currentColor"
     id="rect102" />
  <path
     d="m 28.814646,6.5252198 c 0.216,0 0.424,0.108 0.424,0.348 0,0.284 -0.224,0.48 -0.412,0.592 -0.144,0.084 -0.304,0.14 -0.468,0.14 -0.216,0 -0.424,-0.108 -0.424,-0.348 0,-0.284 0.224,-0.48 0.412,-0.592 0.144,-0.084 0.304,-0.14 0.468,-0.14 z"
     fill="currentColor"
     id="path104"
     style="stroke-width:0.004" />
  <rect
     x="29.117546"
     y="3.8722198"
     width="0.1222"
     height="3.0011001"
     ry="0.036400001"
     fill="currentColor"
     id="rect106" />
  <path
     d="m 36.014646,6.5252198 c 0.216,0 0.424,0.108 0.424,0.348 0,0.284 -0.224,0.48 -0.412,0.592 -0.144,0.084 -0.304,0.14 -0.468,0.14 -0.216,0 -0.424,-0.108 -0.424,-0.348 0,-0.284 0.224,-0.48 0.412,-0.592 0.144,-0.084 0.304,-0.14 0.468,-0.14 z"
     fill="currentColor"
     id="path108"
     style="stroke-width:0.004" />
  <rect
     x="36.317547"
     y="3.8722198"
     width="0.1222"
     height="3.0011001"
     ry="0.036400001"
     fill="currentColor"
     id="rect110" />
  <path
     d="m 38.414646,6.5252198 c 0.216,0 0.424,0.108 0.424,0.348 0,0.284 -0.224,0.48 -0.412,0.592 -0.144,0.084 -0.304,0.14 -0.468,0.14 -0.216,0 -0.424,-0.108 -0.424,-0.348 0,-0.284 0.224,-0.48 0.412,-0.592 0.144,-0.084 0.304,-0.14 0.468,-0.14 z"
     fill="currentColor"
     id="path112"
     style="stroke-width:0.004" />
  <rect
     x="38.717545"
     y="3.8722198"
     width="0.1222"
     height="3.0011001"
     ry="0.036400001"
     fill="currentColor"
     id="rect114" />
  <path
     d="m 40.814646,6.5252198 c 0.216,0 0.424,0.108 0.424,0.348 0,0.284 -0.224,0.48 -0.412,0.592 -0.144,0.084 -0.304,0.14 -0.468,0.14 -0.216,0 -0.424,-0.108 -0.424,-0.348 0,-0.284 0.224,-0.48 0.412,-0.592 0.144,-0.084 0.304,-0.14 0.468,-0.14 z"
     fill="currentColor"
     id="path116"
     style="stroke-width:0.004" />
  <rect
     x="41.117546"
     y="3.8722198"
     width="0.1222"
     height="3.0011001"
     ry="0.036400001"
     fill="currentColor"
     id="rect118" />
  <path
     d="m 2.4146458,6.5252198 c 0.216,0 0.424,0.108 0.424,0.348 0,0.284 -0.224,0.48 -0.412,0.592 -0.144,0.084 -0.304,0.14 -0.468,0.14 -0.216,0 -0.424,-0.108 -0.424,-0.348 0,-0.284 0.224,-0.48 0.412,-0.592 0.144,-0.084 0.304,-0.14 0.468,-0.14 z"
     fill="currentColor"
     id="path120"
     style="stroke-width:0.004" />
  <line
     stroke-linejoin="round"
     stroke-linecap="round"
     stroke-width="0.1504"
     stroke="currentColor"
     x1="49.734547"
     y1="1.6323198"
     x2="49.734547"
     y2="2.3323197"
     id="line122" />
  <line
     stroke-linejoin="round"
     stroke-linecap="round"
     stroke-width="0.1504"
     stroke="currentColor"
     x1="38.517548"
     y1="1.6323198"
     x2="38.517548"
     y2="2.3323197"
     id="line124" />
  <line
     stroke-linejoin="round"
     stroke-linecap="round"
     stroke-width="0.1504"
     stroke="currentColor"
     x1="49.734547"
     y1="1.6323198"
     x2="45.160645"
     y2="1.6323198"
     id="line126" />
  <line
     stroke-linejoin="round"
     stroke-linecap="round"
     stroke-width="0.1504"
     stroke="currentColor"
     x1="38.517548"
     y1="1.6323198"
     x2="43.291546"
     y2="1.6323198"
     id="line128" />
  <text
     font-family="serif"
     font-style="italic"
     font-size="1.7465px"
     text-anchor="start"
     fill="currentColor"
     id="text132"
     x="43.691547"
     y="2.1910198"><tspan
       id="tspan130">5</tspan></text>
  <rect
     x="2.7175457"
     y="3.8722198"
     width="0.1222"
     height="3.0011001"
     ry="0.036400001"
     fill="currentColor"
     id="rect134" />
  <rect
     x="33.917545"
     y="3.8722198"
     width="0.1222"
     height="3.0011001"
     ry="0.036400001"
     fill="currentColor"
     id="rect136" />
  <rect
     x="45.917545"
     y="3.8722198"
     width="0.1222"
     height="3.0011001"
     ry="0.036400001"
     fill="currentColor"
     id="rect138" />
  <path
     d="m 48.014646,6.5252198 c 0.216,0 0.424,0.108 0.424,0.348 0,0.284 -0.224,0.48 -0.412,0.592 -0.144,0.084 -0.304,0.14 -0.468,0.14 -0.216,0 -0.424,-0.108 -0.424,-0.348 0,-0.284 0.224,-0.48 0.412,-0.592 0.144,-0.084 0.304,-0.14 0.468,-0.14 z"
     fill="currentColor"
     id="path140"
     style="stroke-width:0.004" />
  <path
     d="m 43.214646,6.5252198 c 0.216,0 0.424,0.108 0.424,0.348 0,0.284 -0.224,0.48 -0.412,0.592 -0.144,0.084 -0.304,0.14 -0.468,0.14 -0.216,0 -0.424,-0.108 -0.424,-0.348 0,-0.284 0.224,-0.48 0.412,-0.592 0.144,-0.084 0.304,-0.14 0.468,-0.14 z"
     fill="currentColor"
     id="path142"
     style="stroke-width:0.004" />
  <rect
     x="48.317547"
     y="3.8722198"
     width="0.1222"
     height="3.0011001"
     ry="0.036400001"
     fill="currentColor"
     id="rect144" />
  <path
     d="m 45.614646,6.5252198 c 0.216,0 0.424,0.108 0.424,0.348 0,0.284 -0.224,0.48 -0.412,0.592 -0.144,0.084 -0.304,0.14 -0.468,0.14 -0.216,0 -0.424,-0.108 -0.424,-0.348 0,-0.284 0.224,-0.48 0.412,-0.592 0.144,-0.084 0.304,-0.14 0.468,-0.14 z"
     fill="currentColor"
     id="path146"
     style="stroke-width:0.004" />
  <path
     d="m 4.8146458,6.5252198 c 0.216,0 0.424,0.108 0.424,0.348 0,0.284 -0.224,0.48 -0.412,0.592 -0.144,0.084 -0.304,0.14 -0.468,0.14 -0.216,0 -0.424,-0.108 -0.424,-0.348 0,-0.284 0.224,-0.48 0.412,-0.592 0.144,-0.084 0.304,-0.14 0.468,-0.14 z"
     fill="currentColor"
     id="path148"
     style="stroke-width:0.004" />
  <rect
     x="5.1175456"
     y="3.8722198"
     width="0.1222"
     height="3.0011001"
     ry="0.036400001"
     fill="currentColor"
     id="rect150" />
  <rect
     x="43.517548"
     y="3.8722198"
     width="0.1222"
     height="3.0011001"
     ry="0.036400001"
     fill="currentColor"
     id="rect152" />
</svg>
