<?xml version="1.0" encoding="UTF-8" standalone="no"?>
<svg
   version="1.2"
   width="38.194771mm"
   height="10.493642mm"
   viewBox="0 0 31.049893 8.5306595"
   id="svg88"
   sodipodi:docname="README-17.svg"
   xmlns:inkscape="http://www.inkscape.org/namespaces/inkscape"
   xmlns:sodipodi="http://sodipodi.sourceforge.net/DTD/sodipodi-0.dtd"
   xmlns="http://www.w3.org/2000/svg"
   xmlns:svg="http://www.w3.org/2000/svg">
  <defs
     id="defs92" />
  <sodipodi:namedview
     id="namedview90"
     pagecolor="#ffffff"
     bordercolor="#666666"
     borderopacity="1.0"
     inkscape:pageshadow="2"
     inkscape:pageopacity="0.0"
     inkscape:pagecheckerboard="0"
     inkscape:document-units="mm" />
  <style
     text="style/css"
     id="style2"><![CDATA[
tspan { white-space: pre; }
]]></style>
  <!-- Page: 1/1 -->
  <g
     color="#7f7f7f"
     id="g14"
     transform="translate(-20.6486,-5.0451712)">
    <line
       transform="translate(20.6486,10.8207)"
       stroke-linejoin="round"
       stroke-linecap="round"
       stroke-width="0.1282"
       stroke="currentColor"
       x1="0.064099997"
       y1="0"
       x2="30.9858"
       y2="0"
       id="line4" />
    <line
       transform="translate(20.6486,9.8207)"
       stroke-linejoin="round"
       stroke-linecap="round"
       stroke-width="0.1282"
       stroke="currentColor"
       x1="0.064099997"
       y1="0"
       x2="30.9858"
       y2="0"
       id="line6" />
    <line
       transform="translate(20.6486,8.8207)"
       stroke-linejoin="round"
       stroke-linecap="round"
       stroke-width="0.1282"
       stroke="currentColor"
       x1="0.064099997"
       y1="0"
       x2="30.9858"
       y2="0"
       id="line8" />
    <line
       transform="translate(20.6486,7.8207)"
       stroke-linejoin="round"
       stroke-linecap="round"
       stroke-width="0.1282"
       stroke="currentColor"
       x1="0.064099997"
       y1="0"
       x2="30.9858"
       y2="0"
       id="line10" />
    <line
       transform="translate(20.6486,6.8207)"
       stroke-linejoin="round"
       stroke-linecap="round"
       stroke-width="0.1282"
       stroke="currentColor"
       x1="0.064099997"
       y1="0"
       x2="30.9858"
       y2="0"
       id="line12" />
  </g>
  <rect
     x="11.8824"
     y="6.6614289"
     width="1.7976"
     height="0.2282"
     ry="0.1141"
     fill="currentColor"
     id="rect16" />
  <rect
     x="8.3339005"
     y="6.6614289"
     width="1.9471"
     height="0.2282"
     ry="0.1141"
     fill="currentColor"
     id="rect18" />
  <rect
     x="30.806299"
     y="1.7114288"
     width="0.24349999"
     height="4.1282001"
     ry="0.0000"
     fill="currentColor"
     id="rect20" />
  <path
     d="m 21.2828,5.2195288 c 0.244,0 0.468,0.132 0.468,0.396 0,0.284 -0.208,0.476 -0.396,0.588 -0.136,0.08 -0.284,0.128 -0.44,0.128 -0.244,0 -0.464,-0.132 -0.464,-0.396 0,-0.284 0.204,-0.476 0.392,-0.588 0.136,-0.08 0.284,-0.128 0.44,-0.128 z"
     fill="currentColor"
     id="path22"
     style="stroke-width:0.004" />
  <path
     d="m 16.4402,5.6355288 -0.008,0.24 v 0.044 c 0,0.084 0.008,0.172 0.02,0.256 0.168,-0.152 0.348,-0.324 0.348,-0.552 0,-0.128 -0.052,-0.252 -0.164,-0.252 -0.124,0 -0.192,0.128 -0.196,0.264 z m -0.004,-1.644 -0.036,1.348 c 0.1,-0.104 0.236,-0.16 0.38,-0.16 0.2,0 0.328,0.204 0.328,0.42 0,0.308 -0.32,0.468 -0.548,0.676 -0.072,0.068 -0.104,0.192 -0.208,0.192 -0.064,0 -0.112,-0.06 -0.112,-0.128 l -0.06,-2.348 c 0.04,-0.024 0.084,-0.032 0.128,-0.032 0.044,0 0.088,0.008 0.128,0.032 z"
     fill="currentColor"
     id="path24"
     style="stroke-width:0.004" />
  <rect
     x="18.589701"
     y="2.9673288"
     width="0.1666"
     height="2.6464"
     ry="0.057100002"
     fill="currentColor"
     id="rect26" />
  <path
     d="m 17.2752,6.7047288 c -0.04,-0.008 -0.068,-0.048 -0.068,-0.088 0,-0.052 0.052,-0.1 0.112,-0.084 l 1.6,0.408 c 0.06,0 0.088,0.028 0.088,0.088 0,0.06 -0.028,0.088 -0.088,0.088 l -1.6,0.408 c -0.06,0.016 -0.112,-0.032 -0.112,-0.084 0,-0.04 0.028,-0.08 0.068,-0.088 l 0.964,-0.244 0.556,-0.08 -0.556,-0.08 z"
     fill="currentColor"
     id="path28"
     style="stroke-width:0.004" />
  <path
     d="m 18.2902,5.2195288 c 0.244,0 0.468,0.132 0.468,0.396 0,0.284 -0.208,0.476 -0.396,0.588 -0.136,0.08 -0.284,0.128 -0.44,0.128 -0.244,0 -0.464,-0.132 -0.464,-0.396 0,-0.284 0.204,-0.476 0.392,-0.588 0.136,-0.08 0.284,-0.128 0.44,-0.128 z"
     fill="currentColor"
     id="path30"
     style="stroke-width:0.004" />
  <rect
     x="15.5889"
     y="3.1775289"
     width="0.1666"
     height="2.9361999"
     ry="0.057100002"
     fill="currentColor"
     id="rect32" />
  <path
     d="m 14.2744,7.2047288 c -0.04,-0.008 -0.068,-0.048 -0.068,-0.088 0,-0.052 0.052,-0.1 0.112,-0.084 l 1.6,0.408 c 0.06,0 0.088,0.028 0.088,0.088 0,0.06 -0.028,0.088 -0.088,0.088 l -1.6,0.408 c -0.06,0.016 -0.112,-0.032 -0.112,-0.084 0,-0.04 0.028,-0.08 0.068,-0.088 l 0.964,-0.244 0.556,-0.08 -0.556,-0.08 z"
     fill="currentColor"
     id="path34"
     style="stroke-width:0.004" />
  <path
     d="m 15.2894,5.7195288 c 0.244,0 0.468,0.132 0.468,0.396 0,0.284 -0.208,0.476 -0.396,0.588 -0.136,0.08 -0.284,0.128 -0.44,0.128 -0.244,0 -0.464,-0.132 -0.464,-0.396 0,-0.284 0.204,-0.476 0.392,-0.588 0.136,-0.08 0.284,-0.128 0.44,-0.128 z"
     fill="currentColor"
     id="path36"
     style="stroke-width:0.004" />
  <path
     d="m 11.3994,8.0875288 c -0.048,0 -0.088,-0.04 -0.088,-0.088 v -0.536 l -0.308,0.116 v 0.608 c 0,0.048 -0.04,0.088 -0.088,0.088 -0.048,0 -0.088,-0.04 -0.088,-0.088 v -0.536 l -0.064,0.024 c -0.012,0.004 -0.032,0.008 -0.044,0.008 -0.06,0 -0.112,-0.048 -0.112,-0.112 v -0.2 c 0,-0.048 0.028,-0.092 0.072,-0.108 l 0.148,-0.056 v -0.608 l -0.064,0.028 c -0.012,0.004 -0.032,0.008 -0.044,0.008 -0.06,0 -0.112,-0.052 -0.112,-0.116 v -0.2 c 0,-0.048 0.028,-0.088 0.072,-0.104 l 0.148,-0.06 v -0.604 c 0,-0.048 0.04,-0.088 0.088,-0.088 0.048,0 0.088,0.04 0.088,0.088 v 0.536 l 0.308,-0.116 v -0.608 c 0,-0.048 0.04,-0.088 0.088,-0.088 0.048,0 0.088,0.04 0.088,0.088 v 0.536 l 0.064,-0.024 c 0.012,-0.004 0.032,-0.008 0.044,-0.008 0.06,0 0.112,0.048 0.112,0.112 v 0.2 c 0,0.048 -0.028,0.092 -0.072,0.108 l -0.148,0.056 v 0.608 l 0.064,-0.028 c 0.012,-0.004 0.032,-0.008 0.044,-0.008 0.06,0 0.112,0.052 0.112,0.116 v 0.2 c 0,0.048 -0.028,0.088 -0.072,0.104 l -0.148,0.06 v 0.604 c 0,0.048 -0.04,0.088 -0.088,0.088 z m -0.396,-1.556 v 0.608 l 0.308,-0.12 v -0.608 z"
     fill="currentColor"
     id="path38"
     style="stroke-width:0.004" />
  <polygon
     transform="translate(9.7898,3.5896288)"
     stroke-linejoin="round"
     stroke-linecap="round"
     stroke-width="0.1143"
     fill="currentColor"
     stroke="currentColor"
     points="0.0571,0.1929 0.0571,-0.1929 8.9093,-0.821 8.9093,-0.4353 "
     id="polygon40" />
  <polygon
     transform="translate(21.5823,2.5896288)"
     stroke-linejoin="round"
     stroke-linecap="round"
     stroke-width="0.1143"
     fill="currentColor"
     stroke="currentColor"
     points="0.0571,0.1929 0.0571,-0.1929 8.3085,-0.821 8.3085,-0.4353 "
     id="polygon42" />
  <rect
     x="27.3813"
     y="2.1479287"
     width="0.1666"
     height="2.9658"
     ry="0.057100002"
     fill="currentColor"
     id="rect44" />
  <path
     d="m 26.0669,6.2116288 c -0.04,-0.008 -0.068,-0.048 -0.068,-0.088 0,-0.052 0.052,-0.1 0.112,-0.084 l 1.6,0.408 c 0.06,0 0.088,0.028 0.088,0.088 0,0.06 -0.028,0.088 -0.088,0.088 l -1.6,0.408 c -0.06,0.016 -0.112,-0.032 -0.112,-0.084 0,-0.04 0.028,-0.08 0.068,-0.088 l 0.964,-0.244 0.556,-0.08 -0.556,-0.08 z"
     fill="currentColor"
     id="path46"
     style="stroke-width:0.004" />
  <path
     d="m 27.0819,4.7195288 c 0.244,0 0.468,0.132 0.468,0.396 0,0.284 -0.208,0.476 -0.396,0.588 -0.136,0.08 -0.284,0.128 -0.44,0.128 -0.244,0 -0.464,-0.132 -0.464,-0.396 0,-0.284 0.204,-0.476 0.392,-0.588 0.136,-0.08 0.284,-0.128 0.44,-0.128 z"
     fill="currentColor"
     id="path48"
     style="stroke-width:0.004" />
  <path
     d="m 20.2679,7.6755288 c -0.04,-0.008 -0.068,-0.048 -0.068,-0.088 0,-0.052 0.052,-0.1 0.112,-0.084 l 1.6,0.408 c 0.06,0 0.088,0.028 0.088,0.088 0,0.06 -0.028,0.088 -0.088,0.088 l -1.6,0.408 c -0.06,0.016 -0.112,-0.032 -0.112,-0.084 0,-0.04 0.028,-0.08 0.068,-0.088 l 0.964,-0.244 0.556,-0.08 -0.556,-0.08 z"
     fill="currentColor"
     id="path50"
     style="stroke-width:0.004" />
  <rect
     x="23.9823"
     y="2.4031286"
     width="0.1666"
     height="2.7105999"
     ry="0.057100002"
     fill="currentColor"
     id="rect52" />
  <path
     d="m 22.6679,6.2116288 c -0.04,-0.008 -0.068,-0.048 -0.068,-0.088 0,-0.052 0.052,-0.1 0.112,-0.084 l 1.6,0.408 c 0.06,0 0.088,0.028 0.088,0.088 0,0.06 -0.028,0.088 -0.088,0.088 l -1.6,0.408 c -0.06,0.016 -0.112,-0.032 -0.112,-0.084 0,-0.04 0.028,-0.08 0.068,-0.088 l 0.964,-0.244 0.556,-0.08 -0.556,-0.08 z"
     fill="currentColor"
     id="path54"
     style="stroke-width:0.004" />
  <path
     d="m 23.6828,4.7195288 c 0.244,0 0.468,0.132 0.468,0.396 0,0.284 -0.208,0.476 -0.396,0.588 -0.136,0.08 -0.284,0.128 -0.44,0.128 -0.244,0 -0.464,-0.132 -0.464,-0.396 0,-0.284 0.204,-0.476 0.392,-0.588 0.136,-0.08 0.284,-0.128 0.44,-0.128 z"
     fill="currentColor"
     id="path56"
     style="stroke-width:0.004" />
  <path
     d="m 19.3752,4.2755288 c 0.032,-0.02 0.072,-0.028 0.108,-0.028 0.036,0 0.08,0.008 0.112,0.028 l -0.012,0.784 0.396,-0.096 h 0.016 c 0.044,0 0.08,0.032 0.08,0.076 l 0.032,2.236 c -0.032,0.02 -0.076,0.028 -0.112,0.028 -0.036,0 -0.076,-0.008 -0.108,-0.028 l 0.012,-0.784 -0.396,0.096 h -0.02 c -0.044,0 -0.076,-0.032 -0.076,-0.076 z m 0.54,1.064 -0.34,0.08 -0.008,0.792 0.336,-0.08 z"
     fill="currentColor"
     id="path58"
     style="stroke-width:0.004" />
  <rect
     x="21.5823"
     y="2.5833287"
     width="0.1666"
     height="3.0304"
     ry="0.057100002"
     fill="currentColor"
     id="rect60" />
  <path
     d="m 28.4669,6.2116288 c -0.04,-0.008 -0.068,-0.048 -0.068,-0.088 0,-0.052 0.052,-0.1 0.112,-0.084 l 1.6,0.408 c 0.06,0 0.088,0.028 0.088,0.088 0,0.06 -0.028,0.088 -0.088,0.088 l -1.6,0.408 c -0.06,0.016 -0.112,-0.032 -0.112,-0.084 0,-0.04 0.028,-0.08 0.068,-0.088 l 0.964,-0.244 0.556,-0.08 -0.556,-0.08 z"
     fill="currentColor"
     id="path62"
     style="stroke-width:0.004" />
  <path
     d="m 25.5919,6.5875288 c -0.048,0 -0.088,-0.04 -0.088,-0.088 v -0.536 l -0.308,0.116 v 0.608 c 0,0.048 -0.04,0.088 -0.088,0.088 -0.048,0 -0.088,-0.04 -0.088,-0.088 v -0.536 l -0.064,0.024 c -0.012,0.004 -0.032,0.008 -0.044,0.008 -0.06,0 -0.112,-0.048 -0.112,-0.112 v -0.2 c 0,-0.048 0.028,-0.092 0.072,-0.108 l 0.148,-0.056 v -0.608 l -0.064,0.028 c -0.012,0.004 -0.032,0.008 -0.044,0.008 -0.06,0 -0.112,-0.052 -0.112,-0.116 v -0.2 c 0,-0.048 0.028,-0.088 0.072,-0.104 l 0.148,-0.06 v -0.604 c 0,-0.048 0.04,-0.088 0.088,-0.088 0.048,0 0.088,0.04 0.088,0.088 v 0.536 l 0.308,-0.116 v -0.608 c 0,-0.048 0.04,-0.088 0.088,-0.088 0.048,0 0.088,0.04 0.088,0.088 v 0.536 l 0.064,-0.024 c 0.012,-0.004 0.032,-0.008 0.044,-0.008 0.06,0 0.112,0.048 0.112,0.112 v 0.2 c 0,0.048 -0.028,0.092 -0.072,0.108 l -0.148,0.056 v 0.608 l 0.064,-0.028 c 0.012,-0.004 0.032,-0.008 0.044,-0.008 0.06,0 0.112,0.052 0.112,0.116 v 0.2 c 0,0.048 -0.028,0.088 -0.072,0.104 l -0.148,0.06 v 0.604 c 0,0.048 -0.04,0.088 -0.088,0.088 z m -0.396,-1.556 v 0.608 l 0.308,-0.12 v -0.608 z"
     fill="currentColor"
     id="path64"
     style="stroke-width:0.004" />
  <path
     d="m 29.4819,4.2195288 c 0.244,0 0.468,0.132 0.468,0.396 0,0.284 -0.208,0.476 -0.396,0.588 -0.136,0.08 -0.284,0.128 -0.44,0.128 -0.244,0 -0.464,-0.132 -0.464,-0.396 0,-0.284 0.204,-0.476 0.392,-0.588 0.136,-0.08 0.284,-0.128 0.44,-0.128 z"
     fill="currentColor"
     id="path66"
     style="stroke-width:0.004" />
  <rect
     x="9.7897997"
     y="3.5837288"
     width="0.1666"
     height="3.0299001"
     ry="0.057100002"
     fill="currentColor"
     id="rect68" />
  <path
     d="m 5.8,2.6115288 c 0.092,-0.06 0.184,-0.12 0.252,-0.208 0.048,-0.064 0.076,-0.136 0.112,-0.208 0.008,-0.016 0.024,-0.024 0.04,-0.024 0.028,0 0.06,0.024 0.06,0.064 v 0.904 h 0.308 c 0.044,0 0.068,0.036 0.068,0.068 0,0.032 -0.024,0.068 -0.068,0.068 H 6.264 c 0,0.204 0.124,0.392 0.312,0.392 0.036,0 0.056,0.028 0.056,0.056 0,0.028 -0.02,0.052 -0.056,0.052 -0.188,0 -0.376,-0.052 -0.564,-0.052 -0.188,0 -0.376,0.052 -0.564,0.052 -0.036,0 -0.052,-0.024 -0.052,-0.052 0,-0.028 0.016,-0.056 0.052,-0.056 0.188,0 0.316,-0.188 0.316,-0.392 H 5.136 c -0.108,0 -0.144,-0.068 -0.144,-0.108 0,-0.012 0.004,-0.024 0.008,-0.028 0.316,-0.36 0.512,-0.812 0.512,-1.288 0,-0.048 0.036,-0.088 0.076,-0.076 0.1,0.028 0.2,0.052 0.3,0.052 0.1,0 0.2,-0.024 0.3,-0.052 0.008,-0.004 0.016,-0.004 0.024,-0.004 0.036,0 0.06,0.028 0.06,0.056 0,0.008 0,0.016 -0.008,0.024 l -1.128,1.288 h 0.628 v -0.428 c 0,-0.04 0.004,-0.08 0.036,-0.1 z"
     fill="currentColor"
     id="path70"
     style="stroke-width:0.004" />
  <path
     d="m 5.8,4.6601288 c 0.092,-0.06 0.184,-0.12 0.252,-0.208 0.048,-0.064 0.076,-0.136 0.112,-0.208 0.008,-0.016 0.024,-0.024 0.04,-0.024 0.028,0 0.06,0.024 0.06,0.064 v 0.904 h 0.308 c 0.044,0 0.068,0.036 0.068,0.068 0,0.032 -0.024,0.068 -0.068,0.068 H 6.264 c 0,0.204 0.124,0.392 0.312,0.392 0.036,0 0.056,0.028 0.056,0.056 0,0.028 -0.02,0.052 -0.056,0.052 -0.188,0 -0.376,-0.052 -0.564,-0.052 -0.188,0 -0.376,0.052 -0.564,0.052 -0.036,0 -0.052,-0.024 -0.052,-0.052 0,-0.028 0.016,-0.056 0.052,-0.056 0.188,0 0.316,-0.188 0.316,-0.392 H 5.136 c -0.108,0 -0.144,-0.068 -0.144,-0.108 0,-0.012 0.004,-0.024 0.008,-0.028 0.316,-0.36 0.512,-0.812 0.512,-1.288 0,-0.048 0.036,-0.088 0.076,-0.076 0.1,0.028 0.2,0.052 0.3,0.052 0.1,0 0.2,-0.024 0.3,-0.052 0.008,-0.004 0.016,-0.004 0.024,-0.004 0.036,0 0.06,0.028 0.06,0.056 0,0.008 0,0.016 -0.008,0.024 l -1.128,1.288 h 0.628 v -0.428 c 0,-0.04 0.004,-0.08 0.036,-0.1 z"
     fill="currentColor"
     id="path72"
     style="stroke-width:0.004" />
  <path
     d="M 2.324,3.7115288 H 2.36 c 0.628,0 1.032,0.52 1.032,1.056 0,0.308 -0.132,0.624 -0.432,0.848 -0.088,0.064 -0.184,0.112 -0.284,0.144 0.008,0.128 0.012,0.26 0.012,0.388 0,0.084 -0.004,0.172 -0.008,0.256 -0.028,0.488 -0.364,0.92 -0.844,0.92 -0.432,0 -0.788,-0.352 -0.788,-0.788 0,-0.232 0.216,-0.416 0.452,-0.416 0.216,0 0.38,0.192 0.38,0.416 0,0.208 -0.172,0.38 -0.38,0.38 -0.032,0 -0.064,-0.008 -0.096,-0.016 0.1,0.14 0.26,0.236 0.444,0.236 0.38,0 0.62,-0.368 0.644,-0.76 0.004,-0.08 0.008,-0.156 0.008,-0.236 0,-0.112 -0.004,-0.22 -0.012,-0.332 -0.116,0.02 -0.228,0.028 -0.348,0.028 -0.756,0 -1.332,-0.696 -1.332,-1.508 0,-0.704 0.512,-1.228 0.968,-1.772 -0.084,-0.248 -0.164,-0.496 -0.2,-0.756 -0.028,-0.208 -0.032,-0.424 -0.032,-0.636 0,-0.45200004 0.216,-0.87600004 0.584,-1.14400004 0.032,-0.024 0.084,-0.028 0.116,0 0.288,0.328 0.544,0.976 0.544,1.42800004 0,0.564 -0.332,1.012 -0.696,1.448 0.088,0.268 0.164,0.54 0.232,0.816 z m 0.332,1.864 c 0.256,-0.1 0.432,-0.372 0.432,-0.636 0,-0.348 -0.248,-0.692 -0.652,-0.748 0.096,0.452 0.172,0.9 0.22,1.384 z m -0.504,0.072 c 0.108,0 0.216,-0.008 0.32,-0.024 -0.052,-0.5 -0.132,-0.968 -0.232,-1.436 -0.316,0.028 -0.492,0.236 -0.492,0.464 0,0.172 0.096,0.356 0.312,0.48 0.02,0.02 0.032,0.044 0.032,0.068 0,0.052 -0.044,0.096 -0.096,0.096 -0.012,0 -0.028,0 -0.04,-0.008 -0.324,-0.176 -0.476,-0.464 -0.476,-0.748 0,-0.36 0.24,-0.712 0.656,-0.804 -0.056,-0.224 -0.12,-0.448 -0.188,-0.668 -0.416,0.488 -0.832,0.98 -0.832,1.616 0,0.528 0.508,0.964 1.036,0.964 z m 0.328,-4.56 c 0,-0.19600004 -0.012,-0.27600004 -0.076,-0.45200004 -0.396,0.18 -0.648,0.58000004 -0.648,1.01200004 0,0.276 0.088,0.508 0.164,0.732 0.308,-0.388 0.56,-0.796 0.56,-1.292 z"
     fill="currentColor"
     id="path74"
     style="stroke-width:0.004" />
  <path
     d="m 8.4754,7.7047288 c -0.04,-0.008 -0.068,-0.048 -0.068,-0.088 0,-0.052 0.052,-0.1 0.112,-0.084 l 1.6,0.408 c 0.06,0 0.088,0.028 0.088,0.088 0,0.06 -0.028,0.088 -0.088,0.088 l -1.6,0.408 c -0.06,0.016 -0.112,-0.032 -0.112,-0.084 0,-0.04 0.028,-0.08 0.068,-0.088 l 0.964,-0.244 0.556,-0.08 -0.556,-0.08 z"
     fill="currentColor"
     id="path76"
     style="stroke-width:0.004" />
  <path
     d="m 9.4904,6.2195288 c 0.244,0 0.468,0.132 0.468,0.396 0,0.284 -0.208,0.476 -0.396,0.588 -0.136,0.08 -0.284,0.128 -0.44,0.128 -0.244,0 -0.464,-0.132 -0.464,-0.396 0,-0.284 0.204,-0.476 0.392,-0.588 0.136,-0.08 0.284,-0.128 0.44,-0.128 z"
     fill="currentColor"
     id="path78"
     style="stroke-width:0.004" />
  <rect
     x="13.1889"
     y="3.3456287"
     width="0.1666"
     height="3.2681"
     ry="0.057100002"
     fill="currentColor"
     id="rect80" />
  <path
     d="m 11.8744,7.7075288 c -0.04,-0.008 -0.068,-0.048 -0.068,-0.088 0,-0.052 0.052,-0.1 0.112,-0.084 l 1.6,0.408 c 0.06,0 0.088,0.028 0.088,0.088 0,0.06 -0.028,0.088 -0.088,0.088 l -1.6,0.408 c -0.06,0.016 -0.112,-0.032 -0.112,-0.084 0,-0.04 0.028,-0.08 0.068,-0.088 l 0.964,-0.244 0.556,-0.08 -0.556,-0.08 z"
     fill="currentColor"
     id="path82"
     style="stroke-width:0.004" />
  <path
     d="m 12.8894,6.2195288 c 0.244,0 0.468,0.132 0.468,0.396 0,0.284 -0.208,0.476 -0.396,0.588 -0.136,0.08 -0.284,0.128 -0.44,0.128 -0.244,0 -0.464,-0.132 -0.464,-0.396 0,-0.284 0.204,-0.476 0.392,-0.588 0.136,-0.08 0.284,-0.128 0.44,-0.128 z"
     fill="currentColor"
     id="path84"
     style="stroke-width:0.004" />
  <rect
     x="29.7813"
     y="1.9677287"
     width="0.1666"
     height="2.6459999"
     ry="0.057100002"
     fill="currentColor"
     id="rect86" />
</svg>
