<?xml version="1.0" encoding="UTF-8" standalone="no"?>
<svg
   version="1.2"
   width="60.032471mm"
   height="9.7872095mm"
   viewBox="0 0 48.802539 7.9563752"
   id="svg94"
   sodipodi:docname="README-14.svg"
   xmlns:inkscape="http://www.inkscape.org/namespaces/inkscape"
   xmlns:sodipodi="http://sodipodi.sourceforge.net/DTD/sodipodi-0.dtd"
   xmlns="http://www.w3.org/2000/svg"
   xmlns:svg="http://www.w3.org/2000/svg">
  <defs
     id="defs98" />
  <sodipodi:namedview
     id="namedview96"
     pagecolor="#ffffff"
     bordercolor="#666666"
     borderopacity="1.0"
     inkscape:pageshadow="2"
     inkscape:pageopacity="0.0"
     inkscape:pagecheckerboard="0"
     inkscape:document-units="mm" />
  <style
     text="style/css"
     id="style2"><![CDATA[
tspan { white-space: pre; }
]]></style>
  <!-- Page: 1/1 -->
  <text
     font-family="serif"
     font-size="2.1998px"
     text-anchor="start"
     fill="currentColor"
     id="text6"
     y="-1.014226"><tspan
       id="tspan4" /></text>
  <line
     stroke-linejoin="round"
     stroke-linecap="round"
     stroke-width="0.1282"
     stroke="currentColor"
     x1="0.064099997"
     y1="5.9043741"
     x2="48.435902"
     y2="5.9043741"
     id="line8" />
  <path
     d="m 3.732,5.348374 c 0.244,0 0.468,0.132 0.468,0.396 0,0.284 -0.208,0.476 -0.396,0.588 -0.136,0.08 -0.284,0.128 -0.44,0.128 -0.244,0 -0.464,-0.132 -0.464,-0.396 0,-0.284 0.204,-0.476 0.392,-0.588 0.136,-0.08 0.284,-0.128 0.44,-0.128 z"
     fill="currentColor"
     id="path10"
     style="stroke-width:0.004" />
  <path
     d="m 22.328,7.904374 0.408,-1.3 c -0.128,0.044 -0.264,0.084 -0.4,0.084 -0.188,0 -0.348,-0.136 -0.348,-0.316 0,-0.16 0.136,-0.288 0.3,-0.288 0.1,0 0.196,0.052 0.228,0.144 0.04,0.104 0.016,0.232 0.128,0.232 0.06,0 0.196,-0.196 0.216,-0.256 l 0.188,-0.6 c -0.128,0.044 -0.264,0.084 -0.4,0.084 -0.188,0 -0.348,-0.136 -0.348,-0.316 0,-0.16 0.136,-0.288 0.3,-0.288 0.1,0 0.196,0.052 0.228,0.144 0.04,0.104 0.016,0.232 0.128,0.232 0.052,0 0.172,-0.152 0.196,-0.2 0.032,-0.06 0.12,-0.06 0.148,0 l -0.692,2.644 c -0.04,0.032 -0.092,0.052 -0.14,0.052 -0.048,0 -0.1,-0.02 -0.14,-0.052 z"
     fill="currentColor"
     id="path12"
     style="stroke-width:0.004" />
  <rect
     x="13.6315"
     y="2.571074"
     width="0.1666"
     height="3.1715"
     ry="0.057100002"
     fill="currentColor"
     id="rect14" />
  <path
     d="m 13.332,5.348374 c 0.244,0 0.468,0.132 0.468,0.396 0,0.284 -0.208,0.476 -0.396,0.588 -0.136,0.08 -0.284,0.128 -0.44,0.128 -0.244,0 -0.464,-0.132 -0.464,-0.396 0,-0.284 0.204,-0.476 0.392,-0.588 0.136,-0.08 0.284,-0.128 0.44,-0.128 z"
     fill="currentColor"
     id="path16"
     style="stroke-width:0.004" />
  <rect
     x="8.8315001"
     y="2.9043741"
     width="0.1666"
     height="2.8382001"
     ry="0.057100002"
     fill="currentColor"
     id="rect18" />
  <path
     d="m 8.532,5.348374 c 0.244,0 0.468,0.132 0.468,0.396 0,0.284 -0.208,0.476 -0.396,0.588 -0.136,0.08 -0.284,0.128 -0.44,0.128 -0.244,0 -0.464,-0.132 -0.464,-0.396 0,-0.284 0.204,-0.476 0.392,-0.588 0.136,-0.08 0.284,-0.128 0.44,-0.128 z"
     fill="currentColor"
     id="path20"
     style="stroke-width:0.004" />
  <rect
     x="4.0314999"
     y="2.9043741"
     width="0.1666"
     height="2.8382001"
     ry="0.057100002"
     fill="currentColor"
     id="rect22" />
  <line
     stroke-linejoin="round"
     stroke-linecap="round"
     stroke-width="0.2051"
     stroke="currentColor"
     x1="11.200001"
     y1="0.66437405"
     x2="11.200001"
     y2="1.364374"
     id="line24" />
  <line
     stroke-linejoin="round"
     stroke-linecap="round"
     stroke-width="0.2051"
     stroke="currentColor"
     x1="0.89999998"
     y1="0.66437405"
     x2="0.89999998"
     y2="1.364374"
     id="line26" />
  <line
     stroke-linejoin="round"
     stroke-linecap="round"
     stroke-width="0.2051"
     stroke="currentColor"
     x1="11.200001"
     y1="0.66437405"
     x2="7.0889997"
     y2="0.66437405"
     id="line28" />
  <line
     stroke-linejoin="round"
     stroke-linecap="round"
     stroke-width="0.2051"
     stroke="currentColor"
     x1="0.89999998"
     y1="0.66437405"
     x2="5.211"
     y2="0.66437405"
     id="line30" />
  <text
     font-family="serif"
     font-style="italic"
     font-size="1.7465px"
     text-anchor="start"
     fill="currentColor"
     id="text34"
     x="5.6110001"
     y="1.2496741"><tspan
       id="tspan32">5</tspan></text>
  <polygon
     transform="translate(4.0315,2.904374)"
     stroke-linejoin="round"
     stroke-linecap="round"
     stroke-width="0.1143"
     fill="currentColor"
     stroke="currentColor"
     points="0.0571,0.1829 0.0571,-0.1829 4.9095,-0.1829 4.9095,0.1829 "
     id="polygon36" />
  <line
     stroke-linejoin="round"
     stroke-linecap="round"
     stroke-width="0.2051"
     stroke="currentColor"
     x1="23.199999"
     y1="0.57107401"
     x2="23.199999"
     y2="1.2710741"
     id="line38" />
  <line
     stroke-linejoin="round"
     stroke-linecap="round"
     stroke-width="0.2051"
     stroke="currentColor"
     x1="13.4315"
     y1="0.57107401"
     x2="13.4315"
     y2="1.2710741"
     id="line40" />
  <line
     stroke-linejoin="round"
     stroke-linecap="round"
     stroke-width="0.2051"
     stroke="currentColor"
     x1="23.199999"
     y1="0.57107401"
     x2="19.3547"
     y2="0.57107401"
     id="line42" />
  <line
     stroke-linejoin="round"
     stroke-linecap="round"
     stroke-width="0.2051"
     stroke="currentColor"
     x1="13.4315"
     y1="0.57107401"
     x2="17.476799"
     y2="0.57107401"
     id="line44" />
  <text
     font-family="serif"
     font-style="italic"
     font-size="1.7465px"
     text-anchor="start"
     fill="currentColor"
     id="text48"
     x="17.876801"
     y="1.156374"><tspan
       id="tspan46">5</tspan></text>
  <line
     stroke-linejoin="round"
     stroke-linecap="round"
     stroke-width="0.2051"
     stroke="currentColor"
     x1="35.200001"
     y1="0.66437405"
     x2="35.200001"
     y2="1.364374"
     id="line50" />
  <line
     stroke-linejoin="round"
     stroke-linecap="round"
     stroke-width="0.2051"
     stroke="currentColor"
     x1="24.9"
     y1="0.66437405"
     x2="24.9"
     y2="1.364374"
     id="line52" />
  <line
     stroke-linejoin="round"
     stroke-linecap="round"
     stroke-width="0.2051"
     stroke="currentColor"
     x1="35.200001"
     y1="0.66437405"
     x2="31.089001"
     y2="0.66437405"
     id="line54" />
  <line
     stroke-linejoin="round"
     stroke-linecap="round"
     stroke-width="0.2051"
     stroke="currentColor"
     x1="24.9"
     y1="0.66437405"
     x2="29.211"
     y2="0.66437405"
     id="line56" />
  <text
     font-family="serif"
     font-style="italic"
     font-size="1.7465px"
     text-anchor="start"
     fill="currentColor"
     id="text60"
     x="29.611"
     y="1.2496741"><tspan
       id="tspan58">5</tspan></text>
  <polygon
     transform="translate(28.0315,2.904374)"
     stroke-linejoin="round"
     stroke-linecap="round"
     stroke-width="0.1143"
     fill="currentColor"
     stroke="currentColor"
     points="0.0571,0.1829 0.0571,-0.1829 4.9095,-0.1829 4.9095,0.1829 "
     id="polygon62" />
  <path
     d="m 32.532,5.348374 c 0.244,0 0.468,0.132 0.468,0.396 0,0.284 -0.208,0.476 -0.396,0.588 -0.136,0.08 -0.284,0.128 -0.44,0.128 -0.244,0 -0.464,-0.132 -0.464,-0.396 0,-0.284 0.204,-0.476 0.392,-0.588 0.136,-0.08 0.284,-0.128 0.44,-0.128 z"
     fill="currentColor"
     id="path64"
     style="stroke-width:0.004" />
  <rect
     x="28.0315"
     y="2.9043741"
     width="0.1666"
     height="2.8382001"
     ry="0.057100002"
     fill="currentColor"
     id="rect66" />
  <path
     d="m 27.732,5.348374 c 0.244,0 0.468,0.132 0.468,0.396 0,0.284 -0.208,0.476 -0.396,0.588 -0.136,0.08 -0.284,0.128 -0.44,0.128 -0.244,0 -0.464,-0.132 -0.464,-0.396 0,-0.284 0.204,-0.476 0.392,-0.588 0.136,-0.08 0.284,-0.128 0.44,-0.128 z"
     fill="currentColor"
     id="path68"
     style="stroke-width:0.004" />
  <path
     d="m 24.728,7.904374 0.408,-1.3 c -0.128,0.044 -0.264,0.084 -0.4,0.084 -0.188,0 -0.348,-0.136 -0.348,-0.316 0,-0.16 0.136,-0.288 0.3,-0.288 0.1,0 0.196,0.052 0.228,0.144 0.04,0.104 0.016,0.232 0.128,0.232 0.06,0 0.196,-0.196 0.216,-0.256 l 0.188,-0.6 c -0.128,0.044 -0.264,0.084 -0.4,0.084 -0.188,0 -0.348,-0.136 -0.348,-0.316 0,-0.16 0.136,-0.288 0.3,-0.288 0.1,0 0.196,0.052 0.228,0.144 0.04,0.104 0.016,0.232 0.128,0.232 0.052,0 0.172,-0.152 0.196,-0.2 0.032,-0.06 0.12,-0.06 0.148,0 l -0.692,2.644 c -0.04,0.032 -0.092,0.052 -0.14,0.052 -0.048,0 -0.1,-0.02 -0.14,-0.052 z"
     fill="currentColor"
     id="path70"
     style="stroke-width:0.004" />
  <line
     stroke-linejoin="round"
     stroke-linecap="round"
     stroke-width="0.2051"
     stroke="currentColor"
     x1="48.700001"
     y1="0.57107401"
     x2="48.700001"
     y2="1.2710741"
     id="line72" />
  <line
     stroke-linejoin="round"
     stroke-linecap="round"
     stroke-width="0.2051"
     stroke="currentColor"
     x1="37.431499"
     y1="0.57107401"
     x2="37.431499"
     y2="1.2710741"
     id="line74" />
  <line
     stroke-linejoin="round"
     stroke-linecap="round"
     stroke-width="0.2051"
     stroke="currentColor"
     x1="48.700001"
     y1="0.57107401"
     x2="44.104698"
     y2="0.57107401"
     id="line76" />
  <line
     stroke-linejoin="round"
     stroke-linecap="round"
     stroke-width="0.2051"
     stroke="currentColor"
     x1="37.431499"
     y1="0.57107401"
     x2="42.226799"
     y2="0.57107401"
     id="line78" />
  <rect
     x="37.6315"
     y="2.571074"
     width="0.1666"
     height="3.1715"
     ry="0.057100002"
     fill="currentColor"
     id="rect80" />
  <path
     d="m 37.332,5.348374 c 0.244,0 0.468,0.132 0.468,0.396 0,0.284 -0.208,0.476 -0.396,0.588 -0.136,0.08 -0.284,0.128 -0.44,0.128 -0.244,0 -0.464,-0.132 -0.464,-0.396 0,-0.284 0.204,-0.476 0.392,-0.588 0.136,-0.08 0.284,-0.128 0.44,-0.128 z"
     fill="currentColor"
     id="path82"
     style="stroke-width:0.004" />
  <text
     font-family="serif"
     font-style="italic"
     font-size="1.7465px"
     text-anchor="start"
     fill="currentColor"
     id="text86"
     x="42.626801"
     y="1.156374"><tspan
       id="tspan84">5</tspan></text>
  <rect
     x="32.831501"
     y="2.9043741"
     width="0.1666"
     height="2.8382001"
     ry="0.057100002"
     fill="currentColor"
     id="rect88" />
  <path
     d="m 0.728,7.904374 0.408,-1.3 c -0.128,0.044 -0.264,0.084 -0.4,0.084 -0.188,0 -0.348,-0.136 -0.348,-0.316 0,-0.16 0.136,-0.288 0.3,-0.288 0.1,0 0.196,0.052 0.228,0.144 0.04,0.104 0.016,0.232 0.128,0.232 0.06,0 0.196,-0.196 0.216,-0.256 l 0.188,-0.6 c -0.128,0.044 -0.264,0.084 -0.4,0.084 -0.188,0 -0.348,-0.136 -0.348,-0.316 0,-0.16 0.136,-0.288 0.3,-0.288 0.1,0 0.196,0.052 0.228,0.144 0.04,0.104 0.016,0.232 0.128,0.232 0.052,0 0.172,-0.152 0.196,-0.2 0.032,-0.06 0.12,-0.06 0.148,0 l -0.692,2.644 c -0.04,0.032 -0.092,0.052 -0.14,0.052 -0.048,0 -0.1,-0.02 -0.14,-0.052 z"
     fill="currentColor"
     id="path90"
     style="stroke-width:0.004" />
  <path
     d="m 46.328,7.904374 0.408,-1.3 c -0.128,0.044 -0.264,0.084 -0.4,0.084 -0.188,0 -0.348,-0.136 -0.348,-0.316 0,-0.16 0.136,-0.288 0.3,-0.288 0.1,0 0.196,0.052 0.228,0.144 0.04,0.104 0.016,0.232 0.128,0.232 0.06,0 0.196,-0.196 0.216,-0.256 l 0.188,-0.6 c -0.128,0.044 -0.264,0.084 -0.4,0.084 -0.188,0 -0.348,-0.136 -0.348,-0.316 0,-0.16 0.136,-0.288 0.3,-0.288 0.1,0 0.196,0.052 0.228,0.144 0.04,0.104 0.016,0.232 0.128,0.232 0.052,0 0.172,-0.152 0.196,-0.2 0.032,-0.06 0.12,-0.06 0.148,0 l -0.692,2.644 c -0.04,0.032 -0.092,0.052 -0.14,0.052 -0.048,0 -0.1,-0.02 -0.14,-0.052 z"
     fill="currentColor"
     id="path92"
     style="stroke-width:0.004" />
</svg>
