<?xml version="1.0" encoding="UTF-8" standalone="no"?>
<svg
   version="1.2"
   width="20.379221mm"
   height="27.637516mm"
   viewBox="0 0 16.566997 22.467532"
   id="svg74"
   sodipodi:docname="README-3.svg"
   xmlns:inkscape="http://www.inkscape.org/namespaces/inkscape"
   xmlns:sodipodi="http://sodipodi.sourceforge.net/DTD/sodipodi-0.dtd"
   xmlns="http://www.w3.org/2000/svg"
   xmlns:svg="http://www.w3.org/2000/svg">
  <defs
     id="defs78" />
  <sodipodi:namedview
     id="namedview76"
     pagecolor="#ffffff"
     bordercolor="#666666"
     borderopacity="1.0"
     inkscape:pageshadow="2"
     inkscape:pageopacity="0.0"
     inkscape:pagecheckerboard="0"
     inkscape:document-units="mm" />
  <style
     text="style/css"
     id="style2"><![CDATA[
tspan { white-space: pre; }
]]></style>
  <!-- Page: 1/1 -->
  <g
     color="#7f7f7f"
     id="g14"
     transform="translate(-20.5435,-5.0451712)">
    <line
       transform="translate(20.6486,10.8207)"
       stroke-linejoin="round"
       stroke-linecap="round"
       stroke-width="0.1282"
       stroke="currentColor"
       x1="0.064099997"
       y1="0"
       x2="16.3978"
       y2="0"
       id="line4" />
    <line
       transform="translate(20.6486,9.8207)"
       stroke-linejoin="round"
       stroke-linecap="round"
       stroke-width="0.1282"
       stroke="currentColor"
       x1="0.064099997"
       y1="0"
       x2="16.3978"
       y2="0"
       id="line6" />
    <line
       transform="translate(20.6486,8.8207)"
       stroke-linejoin="round"
       stroke-linecap="round"
       stroke-width="0.1282"
       stroke="currentColor"
       x1="0.064099997"
       y1="0"
       x2="16.3978"
       y2="0"
       id="line8" />
    <line
       transform="translate(20.6486,7.8207)"
       stroke-linejoin="round"
       stroke-linecap="round"
       stroke-width="0.1282"
       stroke="currentColor"
       x1="0.064099997"
       y1="0"
       x2="16.3978"
       y2="0"
       id="line10" />
    <line
       transform="translate(20.6486,6.8207)"
       stroke-linejoin="round"
       stroke-linecap="round"
       stroke-width="0.1282"
       stroke="currentColor"
       x1="0.064099997"
       y1="0"
       x2="16.3978"
       y2="0"
       id="line12" />
  </g>
  <g
     color="#7f7f7f"
     id="g26"
     transform="translate(-20.5435,-5.0451712)">
    <line
       transform="translate(20.6486,24.8207)"
       stroke-linejoin="round"
       stroke-linecap="round"
       stroke-width="0.1282"
       stroke="currentColor"
       x1="0.064099997"
       y1="0"
       x2="16.3978"
       y2="0"
       id="line16" />
    <line
       transform="translate(20.6486,23.8207)"
       stroke-linejoin="round"
       stroke-linecap="round"
       stroke-width="0.1282"
       stroke="currentColor"
       x1="0.064099997"
       y1="0"
       x2="16.3978"
       y2="0"
       id="line18" />
    <line
       transform="translate(20.6486,22.8207)"
       stroke-linejoin="round"
       stroke-linecap="round"
       stroke-width="0.1282"
       stroke="currentColor"
       x1="0.064099997"
       y1="0"
       x2="16.3978"
       y2="0"
       id="line20" />
    <line
       transform="translate(20.6486,21.8207)"
       stroke-linejoin="round"
       stroke-linecap="round"
       stroke-width="0.1282"
       stroke="currentColor"
       x1="0.064099997"
       y1="0"
       x2="16.3978"
       y2="0"
       id="line22" />
    <line
       transform="translate(20.6486,20.8207)"
       stroke-linejoin="round"
       stroke-linecap="round"
       stroke-width="0.1282"
       stroke="currentColor"
       x1="0.064099997"
       y1="0"
       x2="16.3978"
       y2="0"
       id="line24" />
  </g>
  <rect
     x="9.0415993"
     y="6.6614289"
     width="1.9471"
     height="0.2282"
     ry="0.1141"
     fill="currentColor"
     id="rect28" />
  <rect
     x="12.042399"
     y="20.661428"
     width="1.9471"
     height="0.2282"
     ry="0.1141"
     fill="currentColor"
     id="rect30" />
  <rect
     x="12.191899"
     y="21.661428"
     width="1.7976"
     height="0.2282"
     ry="0.1141"
     fill="currentColor"
     id="rect32" />
  <rect
     x="9.1911993"
     y="20.661428"
     width="1.7976"
     height="0.2282"
     ry="0.1141"
     fill="currentColor"
     id="rect34" />
  <path
     d="m 8.3481,21.135529 -0.008,0.24 v 0.044 c 0,0.084 0.008,0.172 0.02,0.256 0.168,-0.152 0.348,-0.324 0.348,-0.552 0,-0.128 -0.052,-0.252 -0.164,-0.252 -0.124,0 -0.192,0.128 -0.196,0.264 z m -0.004,-1.644 -0.036,1.348 c 0.1,-0.104 0.236,-0.16 0.38,-0.16 0.2,0 0.328,0.204 0.328,0.42 0,0.308 -0.32,0.468 -0.548,0.676 -0.072,0.068 -0.104,0.192 -0.208,0.192 -0.064,0 -0.112,-0.06 -0.112,-0.128 l -0.06,-2.348 c 0.04,-0.024 0.084,-0.032 0.128,-0.032 0.044,0 0.088,0.008 0.128,0.032 z"
     fill="currentColor"
     id="path36"
     style="stroke-width:0.004" />
  <path
     d="m 14.9989,5.7195288 c 0.244,0 0.468,0.132 0.468,0.396 0,0.284 -0.208,0.476 -0.396,0.588 -0.136,0.08 -0.284,0.128 -0.44,0.128 -0.244,0 -0.464,-0.132 -0.464,-0.396 0,-0.284 0.204,-0.476 0.392,-0.588 0.136,-0.08 0.284,-0.128 0.44,-0.128 z"
     fill="currentColor"
     id="path38"
     style="stroke-width:0.004" />
  <rect
     x="15.2984"
     y="2.7755287"
     width="0.1666"
     height="3.3382001"
     ry="0.057100002"
     fill="currentColor"
     id="rect40" />
  <polygon
     transform="translate(15.465,2.8326288)"
     stroke-linejoin="round"
     stroke-linecap="round"
     stroke-width="0.0833"
     fill="currentColor"
     stroke="currentColor"
     points="1.0004,0.3126 -0.0417,-0.026 -0.0417,0.4364 1.0004,0.775 "
     id="polygon42" />
  <path
     d="m 13.1989,21.219529 c 0.244,0 0.468,0.132 0.468,0.396 0,0.284 -0.208,0.476 -0.396,0.588 -0.136,0.08 -0.284,0.128 -0.44,0.128 -0.244,0 -0.464,-0.132 -0.464,-0.396 0,-0.284 0.204,-0.476 0.392,-0.588 0.136,-0.08 0.284,-0.128 0.44,-0.128 z"
     fill="currentColor"
     id="path44"
     style="stroke-width:0.004" />
  <rect
     x="13.4984"
     y="17.775528"
     width="0.1666"
     height="3.8382001"
     ry="0.057100002"
     fill="currentColor"
     id="rect46" />
  <path
     d="m 11.3489,21.635529 -0.008,0.24 v 0.044 c 0,0.084 0.008,0.172 0.02,0.256 0.168,-0.152 0.348,-0.324 0.348,-0.552 0,-0.128 -0.052,-0.252 -0.164,-0.252 -0.124,0 -0.192,0.128 -0.196,0.264 z m -0.004,-1.644 -0.036,1.348 c 0.1,-0.104 0.236,-0.16 0.38,-0.16 0.2,0 0.328,0.204 0.328,0.42 0,0.308 -0.32,0.468 -0.548,0.676 -0.072,0.068 -0.104,0.192 -0.208,0.192 -0.064,0 -0.112,-0.06 -0.112,-0.128 l -0.06,-2.348 c 0.04,-0.024 0.084,-0.032 0.128,-0.032 0.044,0 0.088,0.008 0.128,0.032 z"
     fill="currentColor"
     id="path48"
     style="stroke-width:0.004" />
  <path
     d="m 2.4291,17.711529 h 0.036 c 0.628,0 1.032,0.52 1.032,1.056 0,0.308 -0.132,0.624 -0.432,0.848 -0.088,0.064 -0.184,0.112 -0.284,0.144 0.008,0.128 0.012,0.26 0.012,0.388 0,0.084 -0.004,0.172 -0.008,0.256 -0.028,0.488 -0.364,0.92 -0.844,0.92 -0.432,0 -0.788,-0.352 -0.788,-0.788 0,-0.232 0.216,-0.416 0.452,-0.416 0.216,0 0.38,0.192 0.38,0.416 0,0.208 -0.172,0.38 -0.38,0.38 -0.032,0 -0.064,-0.008 -0.096,-0.016 0.1,0.14 0.26,0.236 0.444,0.236 0.38,0 0.62,-0.368 0.644,-0.76 0.004,-0.08 0.008,-0.156 0.008,-0.236 0,-0.112 -0.004,-0.22 -0.012,-0.332 -0.116,0.02 -0.228,0.028 -0.348,0.028 -0.756,0 -1.332,-0.696 -1.332,-1.508 0,-0.704 0.512,-1.228 0.968,-1.772 -0.084,-0.248 -0.164,-0.496 -0.2,-0.756 -0.028,-0.208 -0.032,-0.424 -0.032,-0.636 0,-0.452 0.216,-0.876 0.584,-1.144 0.032,-0.024 0.084,-0.028 0.116,0 0.288,0.328 0.544,0.976 0.544,1.428 0,0.564 -0.332,1.012 -0.696,1.448 0.088,0.268 0.164,0.54 0.232,0.816 z m 0.332,1.864 c 0.256,-0.1 0.432,-0.372 0.432,-0.636 0,-0.348 -0.248,-0.692 -0.652,-0.748 0.096,0.452 0.172,0.9 0.22,1.384 z m -0.504,0.072 c 0.108,0 0.216,-0.008 0.32,-0.024 -0.052,-0.5 -0.132,-0.968 -0.232,-1.436 -0.316,0.028 -0.492,0.236 -0.492,0.464 0,0.172 0.096,0.356 0.312,0.48 0.02,0.02 0.032,0.044 0.032,0.068 0,0.052 -0.044,0.096 -0.096,0.096 -0.012,0 -0.028,0 -0.04,-0.008 -0.324,-0.176 -0.476,-0.464 -0.476,-0.748 0,-0.36 0.24,-0.712 0.656,-0.804 -0.056,-0.224 -0.12,-0.448 -0.188,-0.668 -0.416,0.488 -0.832,0.98 -0.832,1.616 0,0.528 0.508,0.964 1.036,0.964 z m 0.328,-4.56 c 0,-0.196 -0.012,-0.276 -0.076,-0.452 -0.396,0.18 -0.648,0.58 -0.648,1.012 0,0.276 0.088,0.508 0.164,0.732 0.308,-0.388 0.56,-0.796 0.56,-1.292 z"
     fill="currentColor"
     id="path50"
     style="stroke-width:0.004" />
  <rect
     x="0"
     y="1.7114285"
     width="0.2051"
     height="18.128201"
     ry="0.064099997"
     fill="currentColor"
     id="rect52" />
  <path
     d="m 10.1981,6.2195288 c 0.244,0 0.468,0.132 0.468,0.396 0,0.284 -0.208,0.476 -0.396,0.588 -0.136,0.08 -0.284,0.128 -0.44,0.128 -0.244,0 -0.464,-0.132 -0.464,-0.396 0,-0.284 0.204,-0.476 0.392,-0.588 0.136,-0.08 0.284,-0.128 0.44,-0.128 z"
     fill="currentColor"
     id="path54"
     style="stroke-width:0.004" />
  <path
     d="m 2.4291,3.7115288 h 0.036 c 0.628,0 1.032,0.52 1.032,1.056 0,0.308 -0.132,0.624 -0.432,0.848 -0.088,0.064 -0.184,0.112 -0.284,0.144 0.008,0.128 0.012,0.26 0.012,0.388 0,0.084 -0.004,0.172 -0.008,0.256 -0.028,0.488 -0.364,0.92 -0.844,0.92 -0.432,0 -0.788,-0.352 -0.788,-0.788 0,-0.232 0.216,-0.416 0.452,-0.416 0.216,0 0.38,0.192 0.38,0.416 0,0.208 -0.172,0.38 -0.38,0.38 -0.032,0 -0.064,-0.008 -0.096,-0.016 0.1,0.14 0.26,0.236 0.444,0.236 0.38,0 0.62,-0.368 0.644,-0.76 0.004,-0.08 0.008,-0.156 0.008,-0.236 0,-0.112 -0.004,-0.22 -0.012,-0.332 -0.116,0.02 -0.228,0.028 -0.348,0.028 -0.756,0 -1.332,-0.696 -1.332,-1.508 0,-0.704 0.512,-1.228 0.968,-1.772 -0.084,-0.248 -0.164,-0.496 -0.2,-0.756 -0.028,-0.208 -0.032,-0.424 -0.032,-0.636 0,-0.45200004 0.216,-0.87600004 0.584,-1.14400004 0.032,-0.024 0.084,-0.028 0.116,0 0.288,0.328 0.544,0.976 0.544,1.42800004 0,0.564 -0.332,1.012 -0.696,1.448 0.088,0.268 0.164,0.54 0.232,0.816 z m 0.332,1.864 c 0.256,-0.1 0.432,-0.372 0.432,-0.636 0,-0.348 -0.248,-0.692 -0.652,-0.748 0.096,0.452 0.172,0.9 0.22,1.384 z m -0.504,0.072 c 0.108,0 0.216,-0.008 0.32,-0.024 -0.052,-0.5 -0.132,-0.968 -0.232,-1.436 -0.316,0.028 -0.492,0.236 -0.492,0.464 0,0.172 0.096,0.356 0.312,0.48 0.02,0.02 0.032,0.044 0.032,0.068 0,0.052 -0.044,0.096 -0.096,0.096 -0.012,0 -0.028,0 -0.04,-0.008 -0.324,-0.176 -0.476,-0.464 -0.476,-0.748 0,-0.36 0.24,-0.712 0.656,-0.804 -0.056,-0.224 -0.12,-0.448 -0.188,-0.668 -0.416,0.488 -0.832,0.98 -0.832,1.616 0,0.528 0.508,0.964 1.036,0.964 z m 0.328,-4.56 c 0,-0.19600004 -0.012,-0.27600004 -0.076,-0.45200004 -0.396,0.18 -0.648,0.58000004 -0.648,1.01200004 0,0.276 0.088,0.508 0.164,0.732 0.308,-0.388 0.56,-0.796 0.56,-1.292 z"
     fill="currentColor"
     id="path56"
     style="stroke-width:0.004" />
  <path
     d="m 5.9051,2.6115288 c 0.092,-0.06 0.184,-0.12 0.252,-0.208 0.048,-0.064 0.076,-0.136 0.112,-0.208 0.008,-0.016 0.024,-0.024 0.04,-0.024 0.028,0 0.06,0.024 0.06,0.064 v 0.904 h 0.308 c 0.044,0 0.068,0.036 0.068,0.068 0,0.032 -0.024,0.068 -0.068,0.068 h -0.308 c 0,0.204 0.124,0.392 0.312,0.392 0.036,0 0.056,0.028 0.056,0.056 0,0.028 -0.02,0.052 -0.056,0.052 -0.188,0 -0.376,-0.052 -0.564,-0.052 -0.188,0 -0.376,0.052 -0.564,0.052 -0.036,0 -0.052,-0.024 -0.052,-0.052 0,-0.028 0.016,-0.056 0.052,-0.056 0.188,0 0.316,-0.188 0.316,-0.392 h -0.628 c -0.108,0 -0.144,-0.068 -0.144,-0.108 0,-0.012 0.004,-0.024 0.008,-0.028 0.316,-0.36 0.512,-0.812 0.512,-1.288 0,-0.048 0.036,-0.088 0.076,-0.076 0.1,0.028 0.2,0.052 0.3,0.052 0.1,0 0.2,-0.024 0.3,-0.052 0.008,-0.004 0.016,-0.004 0.024,-0.004 0.036,0 0.06,0.028 0.06,0.056 0,0.008 0,0.016 -0.008,0.024 l -1.128,1.288 h 0.628 v -0.428 c 0,-0.04 0.004,-0.08 0.036,-0.1 z"
     fill="currentColor"
     id="path58"
     style="stroke-width:0.004" />
  <path
     d="m 5.9051,4.6601288 c 0.092,-0.06 0.184,-0.12 0.252,-0.208 0.048,-0.064 0.076,-0.136 0.112,-0.208 0.008,-0.016 0.024,-0.024 0.04,-0.024 0.028,0 0.06,0.024 0.06,0.064 v 0.904 h 0.308 c 0.044,0 0.068,0.036 0.068,0.068 0,0.032 -0.024,0.068 -0.068,0.068 h -0.308 c 0,0.204 0.124,0.392 0.312,0.392 0.036,0 0.056,0.028 0.056,0.056 0,0.028 -0.02,0.052 -0.056,0.052 -0.188,0 -0.376,-0.052 -0.564,-0.052 -0.188,0 -0.376,0.052 -0.564,0.052 -0.036,0 -0.052,-0.024 -0.052,-0.052 0,-0.028 0.016,-0.056 0.052,-0.056 0.188,0 0.316,-0.188 0.316,-0.392 h -0.628 c -0.108,0 -0.144,-0.068 -0.144,-0.108 0,-0.012 0.004,-0.024 0.008,-0.028 0.316,-0.36 0.512,-0.812 0.512,-1.288 0,-0.048 0.036,-0.088 0.076,-0.076 0.1,0.028 0.2,0.052 0.3,0.052 0.1,0 0.2,-0.024 0.3,-0.052 0.008,-0.004 0.016,-0.004 0.024,-0.004 0.036,0 0.06,0.028 0.06,0.056 0,0.008 0,0.016 -0.008,0.024 l -1.128,1.288 h 0.628 v -0.428 c 0,-0.04 0.004,-0.08 0.036,-0.1 z"
     fill="currentColor"
     id="path60"
     style="stroke-width:0.004" />
  <path
     d="m 10.1981,20.719529 c 0.244,0 0.468,0.132 0.468,0.396 0,0.284 -0.208,0.476 -0.396,0.588 -0.136,0.08 -0.284,0.128 -0.44,0.128 -0.244,0 -0.464,-0.132 -0.464,-0.396 0,-0.284 0.204,-0.476 0.392,-0.588 0.136,-0.08 0.284,-0.128 0.44,-0.128 z"
     fill="currentColor"
     id="path62"
     style="stroke-width:0.004" />
  <path
     d="m 5.9051,16.611529 c 0.092,-0.06 0.184,-0.12 0.252,-0.208 0.048,-0.064 0.076,-0.136 0.112,-0.208 0.008,-0.016 0.024,-0.024 0.04,-0.024 0.028,0 0.06,0.024 0.06,0.064 v 0.904 h 0.308 c 0.044,0 0.068,0.036 0.068,0.068 0,0.032 -0.024,0.068 -0.068,0.068 h -0.308 c 0,0.204 0.124,0.392 0.312,0.392 0.036,0 0.056,0.028 0.056,0.056 0,0.028 -0.02,0.052 -0.056,0.052 -0.188,0 -0.376,-0.052 -0.564,-0.052 -0.188,0 -0.376,0.052 -0.564,0.052 -0.036,0 -0.052,-0.024 -0.052,-0.052 0,-0.028 0.016,-0.056 0.052,-0.056 0.188,0 0.316,-0.188 0.316,-0.392 h -0.628 c -0.108,0 -0.144,-0.068 -0.144,-0.108 0,-0.012 0.004,-0.024 0.008,-0.028 0.316,-0.36 0.512,-0.812 0.512,-1.288 0,-0.048 0.036,-0.088 0.076,-0.076 0.1,0.028 0.2,0.052 0.3,0.052 0.1,0 0.2,-0.024 0.3,-0.052 0.008,-0.004 0.016,-0.004 0.024,-0.004 0.036,0 0.06,0.028 0.06,0.056 0,0.008 0,0.016 -0.008,0.024 l -1.128,1.288 h 0.628 v -0.428 c 0,-0.04 0.004,-0.08 0.036,-0.1 z"
     fill="currentColor"
     id="path64"
     style="stroke-width:0.004" />
  <path
     d="m 5.9051,18.660129 c 0.092,-0.06 0.184,-0.12 0.252,-0.208 0.048,-0.064 0.076,-0.136 0.112,-0.208 0.008,-0.016 0.024,-0.024 0.04,-0.024 0.028,0 0.06,0.024 0.06,0.064 v 0.904 h 0.308 c 0.044,0 0.068,0.036 0.068,0.068 0,0.032 -0.024,0.068 -0.068,0.068 h -0.308 c 0,0.204 0.124,0.392 0.312,0.392 0.036,0 0.056,0.028 0.056,0.056 0,0.028 -0.02,0.052 -0.056,0.052 -0.188,0 -0.376,-0.052 -0.564,-0.052 -0.188,0 -0.376,0.052 -0.564,0.052 -0.036,0 -0.052,-0.024 -0.052,-0.052 0,-0.028 0.016,-0.056 0.052,-0.056 0.188,0 0.316,-0.188 0.316,-0.392 h -0.628 c -0.108,0 -0.144,-0.068 -0.144,-0.108 0,-0.012 0.004,-0.024 0.008,-0.028 0.316,-0.36 0.512,-0.812 0.512,-1.288 0,-0.048 0.036,-0.088 0.076,-0.076 0.1,0.028 0.2,0.052 0.3,0.052 0.1,0 0.2,-0.024 0.3,-0.052 0.008,-0.004 0.016,-0.004 0.024,-0.004 0.036,0 0.06,0.028 0.06,0.056 0,0.008 0,0.016 -0.008,0.024 l -1.128,1.288 h 0.628 v -0.428 c 0,-0.04 0.004,-0.08 0.036,-0.1 z"
     fill="currentColor"
     id="path66"
     style="stroke-width:0.004" />
  <rect
     x="10.4976"
     y="3.2755287"
     width="0.1666"
     height="3.3382001"
     ry="0.057100002"
     fill="currentColor"
     id="rect68" />
  <rect
     x="10.4976"
     y="17.775528"
     width="0.1666"
     height="3.3382001"
     ry="0.057100002"
     fill="currentColor"
     id="rect70" />
  <polygon
     transform="translate(10.6642,17.832629)"
     stroke-linejoin="round"
     stroke-linecap="round"
     stroke-width="0.0833"
     fill="currentColor"
     stroke="currentColor"
     points="1.0004,0.3126 -0.0417,-0.026 -0.0417,0.4364 1.0004,0.775 "
     id="polygon72" />
</svg>
