<?xml version="1.0" encoding="UTF-8" standalone="no"?>
<svg
   version="1.2"
   width="54.272762mm"
   height="11.517176mm"
   viewBox="0 0 30.8842 6.5539089"
   id="svg74"
   sodipodi:docname="README-11.svg"
   xmlns:inkscape="http://www.inkscape.org/namespaces/inkscape"
   xmlns:sodipodi="http://sodipodi.sourceforge.net/DTD/sodipodi-0.dtd"
   xmlns="http://www.w3.org/2000/svg"
   xmlns:svg="http://www.w3.org/2000/svg">
  <defs
     id="defs78" />
  <sodipodi:namedview
     id="namedview76"
     pagecolor="#ffffff"
     bordercolor="#666666"
     borderopacity="1.0"
     inkscape:pageshadow="2"
     inkscape:pageopacity="0.0"
     inkscape:pagecheckerboard="0"
     inkscape:document-units="mm" />
  <style
     text="style/css"
     id="style2"><![CDATA[
tspan { white-space: pre; }
]]></style>
  <!-- Page: 1/1 -->
  <text
     font-family="serif"
     font-size="2.2001px"
     text-anchor="start"
     fill="currentColor"
     id="text6"
     y="-1.0046909"><tspan
       id="tspan4" /></text>
  <line
     stroke-linejoin="round"
     stroke-linecap="round"
     stroke-width="0.1"
     stroke="currentColor"
     x1="0.050000001"
     y1="6.0099092"
     x2="30.554199"
     y2="6.0099092"
     id="line8" />
  <polygon
     transform="translate(25.4799,2.6749091)"
     stroke-linejoin="round"
     stroke-linecap="round"
     stroke-width="0.065"
     fill="currentColor"
     stroke="currentColor"
     points="1.0105,0.3186 -0.0325,-0.0203 -0.0325,0.4614 1.0105,0.8003 "
     id="polygon10" />
  <polygon
     transform="translate(1.6742,2.5099091)"
     stroke-linejoin="round"
     stroke-linecap="round"
     stroke-width="0.08"
     fill="currentColor"
     stroke="currentColor"
     points="0.04,0.2 0.04,-0.2 4.59,-0.2 4.59,0.2 "
     id="polygon12" />
  <polygon
     transform="translate(1.6742,3.3199091)"
     stroke-linejoin="round"
     stroke-linecap="round"
     stroke-width="0.08"
     fill="currentColor"
     stroke="currentColor"
     points="0.04,0.2 0.04,-0.2 4.59,-0.2 4.59,0.2 "
     id="polygon14" />
  <polygon
     transform="translate(5.1392,4.1299091)"
     stroke-linejoin="round"
     stroke-linecap="round"
     stroke-width="0.08"
     fill="currentColor"
     stroke="currentColor"
     points="0.04,0.2 0.04,-0.2 1.125,-0.2 1.125,0.2 "
     id="polygon16" />
  <path
     d="m 5.872,5.4659091 c 0.22,0 0.432,0.112 0.432,0.356 0,0.284 -0.22,0.484 -0.408,0.596 -0.14,0.084 -0.3,0.136 -0.464,0.136 -0.22,0 -0.432,-0.112 -0.432,-0.356 0,-0.284 0.22,-0.484 0.408,-0.596 0.14,-0.084 0.3,-0.136 0.464,-0.136 z"
     fill="currentColor"
     id="path18"
     style="stroke-width:0.004" />
  <rect
     x="6.1742001"
     y="2.5099092"
     width="0.13"
     height="3.3139"
     ry="0.039999999"
     fill="currentColor"
     id="rect20" />
  <path
     d="m 7.4762,5.4659091 c 0.22,0 0.432,0.112 0.432,0.356 0,0.284 -0.22,0.484 -0.408,0.596 -0.14,0.084 -0.3,0.136 -0.464,0.136 -0.22,0 -0.432,-0.112 -0.432,-0.356 0,-0.284 0.22,-0.484 0.408,-0.596 0.14,-0.084 0.3,-0.136 0.464,-0.136 z"
     fill="currentColor"
     id="path22"
     style="stroke-width:0.004" />
  <path
     d="m 8.3584,5.5099091 c 0,-0.124 0.1,-0.224 0.224,-0.224 0.124,0 0.224,0.1 0.224,0.224 0,0.124 -0.1,0.224 -0.224,0.224 -0.124,0 -0.224,-0.1 -0.224,-0.224 z"
     fill="currentColor"
     id="path24"
     style="stroke-width:0.004" />
  <rect
     x="7.7783999"
     y="3.0099092"
     width="0.13"
     height="2.8139"
     ry="0.039999999"
     fill="currentColor"
     id="rect26" />
  <path
     d="m 12.8762,5.4659091 c 0.22,0 0.432,0.112 0.432,0.356 0,0.284 -0.22,0.484 -0.408,0.596 -0.14,0.084 -0.3,0.136 -0.464,0.136 -0.22,0 -0.432,-0.112 -0.432,-0.356 0,-0.284 0.22,-0.484 0.408,-0.596 0.14,-0.084 0.3,-0.136 0.464,-0.136 z"
     fill="currentColor"
     id="path28"
     style="stroke-width:0.004" />
  <rect
     x="13.1784"
     y="3.0099092"
     width="0.13"
     height="2.8139"
     ry="0.039999999"
     fill="currentColor"
     id="rect30" />
  <text
     font-family="serif"
     font-style="italic"
     font-size="1.7461px"
     text-anchor="start"
     fill="currentColor"
     id="text34"
     x="9.7634001"
     y="1.3503091"><tspan
       id="tspan32">5:3</tspan></text>
  <line
     stroke-linejoin="round"
     stroke-linecap="round"
     stroke-width="0.16"
     stroke="currentColor"
     x1="14.3042"
     y1="0.76990914"
     x2="14.3042"
     y2="1.4699092"
     id="line36" />
  <line
     stroke-linejoin="round"
     stroke-linecap="round"
     stroke-width="0.16"
     stroke="currentColor"
     x1="7.5784001"
     y1="0.76990914"
     x2="7.5784001"
     y2="1.4699092"
     id="line38" />
  <line
     stroke-linejoin="round"
     stroke-linecap="round"
     stroke-width="0.16"
     stroke="currentColor"
     x1="14.3042"
     y1="0.76990914"
     x2="12.7192"
     y2="0.76990914"
     id="line40" />
  <line
     stroke-linejoin="round"
     stroke-linecap="round"
     stroke-width="0.16"
     stroke="currentColor"
     x1="7.5784001"
     y1="0.76990914"
     x2="9.3633003"
     y2="0.76990914"
     id="line42" />
  <polygon
     transform="translate(7.7784,3.0099091)"
     stroke-linejoin="round"
     stroke-linecap="round"
     stroke-width="0.08"
     fill="currentColor"
     stroke="currentColor"
     points="0.04,0.2 0.04,-0.2 5.49,-0.2 5.49,0.2 "
     id="polygon44" />
  <line
     stroke-linejoin="round"
     stroke-linecap="round"
     stroke-width="0.16"
     stroke="currentColor"
     x1="30.804199"
     y1="0.60990912"
     x2="30.804199"
     y2="1.3099091"
     id="line46" />
  <line
     stroke-linejoin="round"
     stroke-linecap="round"
     stroke-width="0.16"
     stroke="currentColor"
     x1="16.5784"
     y1="0.60990912"
     x2="16.5784"
     y2="1.3099091"
     id="line48" />
  <line
     stroke-linejoin="round"
     stroke-linecap="round"
     stroke-width="0.16"
     stroke="currentColor"
     x1="30.804199"
     y1="0.60990912"
     x2="25.4692"
     y2="0.60990912"
     id="line50" />
  <line
     stroke-linejoin="round"
     stroke-linecap="round"
     stroke-width="0.16"
     stroke="currentColor"
     x1="16.5784"
     y1="0.60990912"
     x2="22.1133"
     y2="0.60990912"
     id="line52" />
  <text
     font-family="serif"
     font-style="italic"
     font-size="1.7461px"
     text-anchor="start"
     fill="currentColor"
     id="text56"
     x="22.513399"
     y="1.1561091"><tspan
       id="tspan54">7:5</tspan></text>
  <path
     d="m 1.372,5.4659091 c 0.22,0 0.432,0.112 0.432,0.356 0,0.284 -0.22,0.484 -0.408,0.596 -0.14,0.084 -0.3,0.136 -0.464,0.136 -0.22,0 -0.432,-0.112 -0.432,-0.356 0,-0.284 0.22,-0.484 0.408,-0.596 0.14,-0.084 0.3,-0.136 0.464,-0.136 z"
     fill="currentColor"
     id="path58"
     style="stroke-width:0.004" />
  <path
     d="m 2.2542,5.5099091 c 0,-0.124 0.1,-0.224 0.224,-0.224 0.124,0 0.224,0.1 0.224,0.224 0,0.124 -0.1,0.224 -0.224,0.224 -0.124,0 -0.224,-0.1 -0.224,-0.224 z"
     fill="currentColor"
     id="path60"
     style="stroke-width:0.004" />
  <rect
     x="1.6742001"
     y="2.5099092"
     width="0.13"
     height="3.3139"
     ry="0.039999999"
     fill="currentColor"
     id="rect62" />
  <rect
     x="25.349899"
     y="2.6349092"
     width="0.13"
     height="3.1889"
     ry="0.039999999"
     fill="currentColor"
     id="rect64" />
  <path
     d="m 25.9299,5.5099091 c 0,-0.124 0.1,-0.224 0.224,-0.224 0.124,0 0.224,0.1 0.224,0.224 0,0.124 -0.1,0.224 -0.224,0.224 -0.124,0 -0.224,-0.1 -0.224,-0.224 z"
     fill="currentColor"
     id="path66"
     style="stroke-width:0.004" />
  <path
     d="m 25.0476,5.4659091 c 0.22,0 0.432,0.112 0.432,0.356 0,0.284 -0.22,0.484 -0.408,0.596 -0.14,0.084 -0.3,0.136 -0.464,0.136 -0.22,0 -0.432,-0.112 -0.432,-0.356 0,-0.284 0.22,-0.484 0.408,-0.596 0.14,-0.084 0.3,-0.136 0.464,-0.136 z"
     fill="currentColor"
     id="path68"
     style="stroke-width:0.004" />
  <rect
     x="16.7784"
     y="2.676609"
     width="0.13"
     height="3.1472001"
     ry="0.039999999"
     fill="currentColor"
     id="rect70" />
  <path
     d="m 16.4762,5.4659091 c 0.22,0 0.432,0.112 0.432,0.356 0,0.284 -0.22,0.484 -0.408,0.596 -0.14,0.084 -0.3,0.136 -0.464,0.136 -0.22,0 -0.432,-0.112 -0.432,-0.356 0,-0.284 0.22,-0.484 0.408,-0.596 0.14,-0.084 0.3,-0.136 0.464,-0.136 z"
     fill="currentColor"
     id="path72"
     style="stroke-width:0.004" />
</svg>
