<?xml version="1.0" encoding="UTF-8" standalone="no"?>
<svg
   version="1.2"
   width="34.416431mm"
   height="47.253086mm"
   viewBox="0 0 16.320698 22.408002"
   id="svg74"
   sodipodi:docname="README-3.svg"
   xmlns:inkscape="http://www.inkscape.org/namespaces/inkscape"
   xmlns:sodipodi="http://sodipodi.sourceforge.net/DTD/sodipodi-0.dtd"
   xmlns="http://www.w3.org/2000/svg"
   xmlns:svg="http://www.w3.org/2000/svg">
  <defs
     id="defs78" />
  <sodipodi:namedview
     id="namedview76"
     pagecolor="#ffffff"
     bordercolor="#666666"
     borderopacity="1.0"
     inkscape:pageshadow="2"
     inkscape:pageopacity="0.0"
     inkscape:pagecheckerboard="0"
     inkscape:document-units="mm" />
  <style
     text="style/css"
     id="style2"><![CDATA[
tspan { white-space: pre; }
]]></style>
  <!-- Page: 1/1 -->
  <g
     color="#7f7f7f"
     id="g14"
     transform="translate(-12.0025,-3.3591)">
    <line
       transform="translate(12.045,9.1391)"
       stroke-linejoin="round"
       stroke-linecap="round"
       stroke-width="0.089"
       stroke="currentColor"
       x1="0.044500001"
       y1="0"
       x2="16.2337"
       y2="0"
       id="line4" />
    <line
       transform="translate(12.045,8.1391)"
       stroke-linejoin="round"
       stroke-linecap="round"
       stroke-width="0.089"
       stroke="currentColor"
       x1="0.044500001"
       y1="0"
       x2="16.2337"
       y2="0"
       id="line6" />
    <line
       transform="translate(12.045,7.1391)"
       stroke-linejoin="round"
       stroke-linecap="round"
       stroke-width="0.089"
       stroke="currentColor"
       x1="0.044500001"
       y1="0"
       x2="16.2337"
       y2="0"
       id="line8" />
    <line
       transform="translate(12.045,6.1391)"
       stroke-linejoin="round"
       stroke-linecap="round"
       stroke-width="0.089"
       stroke="currentColor"
       x1="0.044500001"
       y1="0"
       x2="16.2337"
       y2="0"
       id="line10" />
    <line
       transform="translate(12.045,5.1391)"
       stroke-linejoin="round"
       stroke-linecap="round"
       stroke-width="0.089"
       stroke="currentColor"
       x1="0.044500001"
       y1="0"
       x2="16.2337"
       y2="0"
       id="line12" />
  </g>
  <g
     color="#7f7f7f"
     id="g26"
     transform="translate(-12.0025,-3.3591)">
    <line
       transform="translate(12.045,23.1391)"
       stroke-linejoin="round"
       stroke-linecap="round"
       stroke-width="0.089"
       stroke="currentColor"
       x1="0.044500001"
       y1="0"
       x2="16.2337"
       y2="0"
       id="line16" />
    <line
       transform="translate(12.045,22.1391)"
       stroke-linejoin="round"
       stroke-linecap="round"
       stroke-width="0.089"
       stroke="currentColor"
       x1="0.044500001"
       y1="0"
       x2="16.2337"
       y2="0"
       id="line18" />
    <line
       transform="translate(12.045,21.1391)"
       stroke-linejoin="round"
       stroke-linecap="round"
       stroke-width="0.089"
       stroke="currentColor"
       x1="0.044500001"
       y1="0"
       x2="16.2337"
       y2="0"
       id="line20" />
    <line
       transform="translate(12.045,20.1391)"
       stroke-linejoin="round"
       stroke-linecap="round"
       stroke-width="0.089"
       stroke="currentColor"
       x1="0.044500001"
       y1="0"
       x2="16.2337"
       y2="0"
       id="line22" />
    <line
       transform="translate(12.045,19.1391)"
       stroke-linejoin="round"
       stroke-linecap="round"
       stroke-width="0.089"
       stroke="currentColor"
       x1="0.044500001"
       y1="0"
       x2="16.2337"
       y2="0"
       id="line24" />
  </g>
  <rect
     x="8.8346996"
     y="6.6855001"
     width="1.9586999"
     height="0.189"
     ry="0.094499998"
     fill="currentColor"
     id="rect28" />
  <rect
     x="11.7942"
     y="20.685499"
     width="1.9586999"
     height="0.189"
     ry="0.094499998"
     fill="currentColor"
     id="rect30" />
  <rect
     x="11.9457"
     y="21.685499"
     width="1.8073"
     height="0.189"
     ry="0.094499998"
     fill="currentColor"
     id="rect32" />
  <rect
     x="8.9860992"
     y="20.685499"
     width="1.8073"
     height="0.189"
     ry="0.094499998"
     fill="currentColor"
     id="rect34" />
  <path
     d="m 8.1111,21.104 -0.004,0.276 c 0,0.016 -0.004,0.028 -0.004,0.044 0,0.088 0.008,0.176 0.016,0.264 0.184,-0.152 0.384,-0.32 0.384,-0.556 0,-0.136 -0.056,-0.276 -0.176,-0.276 -0.124,0 -0.212,0.116 -0.216,0.248 z m -0.2,-1.676 c 0.032,-0.016 0.064,-0.028 0.1,-0.028 0.036,0 0.068,0.012 0.1,0.028 l -0.024,1.396 c 0.104,-0.076 0.224,-0.12 0.352,-0.12 0.212,0 0.372,0.184 0.372,0.4 0,0.328 -0.36,0.472 -0.612,0.676 -0.056,0.044 -0.088,0.128 -0.16,0.128 -0.048,0 -0.084,-0.036 -0.084,-0.084 z"
     fill="currentColor"
     id="path36"
     style="stroke-width:0.004" />
  <path
     d="m 14.8087,5.74 c 0.212,0 0.416,0.108 0.416,0.344 0,0.284 -0.224,0.48 -0.412,0.592 -0.144,0.088 -0.304,0.144 -0.472,0.144 -0.212,0 -0.42,-0.108 -0.42,-0.344 0,-0.284 0.228,-0.48 0.416,-0.592 0.144,-0.088 0.304,-0.144 0.472,-0.144 z"
     fill="currentColor"
     id="path38"
     style="stroke-width:0.004" />
  <rect
     x="15.1107"
     y="2.78"
     width="0.1158"
     height="3.3032999"
     ry="0.033300001"
     fill="currentColor"
     id="rect40" />
  <polygon
     transform="translate(15.2265,2.8133)"
     stroke-linejoin="round"
     stroke-linecap="round"
     stroke-width="0.0579"
     fill="currentColor"
     stroke="currentColor"
     points="1.0144,0.321 -0.0289,-0.018 -0.0289,0.4711 1.0144,0.8101 "
     id="polygon42" />
  <path
     d="m 13.0087,21.24 c 0.212,0 0.416,0.108 0.416,0.344 0,0.284 -0.224,0.48 -0.412,0.592 -0.144,0.088 -0.304,0.144 -0.472,0.144 -0.212,0 -0.42,-0.108 -0.42,-0.344 0,-0.284 0.228,-0.48 0.416,-0.592 0.144,-0.088 0.304,-0.144 0.472,-0.144 z"
     fill="currentColor"
     id="path44"
     style="stroke-width:0.004" />
  <rect
     x="13.3107"
     y="17.780001"
     width="0.1158"
     height="3.8032999"
     ry="0.033300001"
     fill="currentColor"
     id="rect46" />
  <path
     d="m 11.0707,21.604 -0.004,0.276 c 0,0.016 -0.004,0.028 -0.004,0.044 0,0.088 0.008,0.176 0.016,0.264 0.184,-0.152 0.384,-0.32 0.384,-0.556 0,-0.136 -0.056,-0.276 -0.176,-0.276 -0.124,0 -0.212,0.116 -0.216,0.248 z m -0.2,-1.676 c 0.032,-0.016 0.064,-0.028 0.1,-0.028 0.036,0 0.068,0.012 0.1,0.028 l -0.024,1.396 c 0.104,-0.076 0.224,-0.12 0.352,-0.12 0.212,0 0.372,0.184 0.372,0.4 0,0.328 -0.36,0.472 -0.612,0.676 -0.056,0.044 -0.088,0.128 -0.16,0.128 -0.048,0 -0.084,-0.036 -0.084,-0.084 z"
     fill="currentColor"
     id="path48"
     style="stroke-width:0.004" />
  <path
     d="m 2.3385,17.74 c 0.02,0 0.04,-0.004 0.06,-0.004 0.616,0 1.016,0.508 1.016,1.036 0,0.304 -0.132,0.612 -0.428,0.832 -0.088,0.068 -0.188,0.116 -0.292,0.148 0.012,0.144 0.02,0.288 0.02,0.432 0,0.076 0,0.148 -0.004,0.224 -0.028,0.48 -0.352,0.904 -0.824,0.904 -0.432,0 -0.78,-0.348 -0.78,-0.78 0,-0.232 0.212,-0.416 0.448,-0.416 0.216,0 0.38,0.192 0.38,0.416 0,0.208 -0.172,0.38 -0.38,0.38 -0.048,0 -0.096,-0.016 -0.14,-0.036 0.104,0.164 0.28,0.28 0.484,0.28 0.004,0 0.008,-0.004 0.012,-0.004 0.372,-0.008 0.616,-0.372 0.64,-0.768 0.004,-0.072 0.008,-0.14 0.008,-0.212 0,-0.128 -0.008,-0.256 -0.02,-0.384 -0.116,0.02 -0.232,0.032 -0.356,0.032 -0.752,0 -1.332,-0.684 -1.332,-1.488 0,-0.712 0.532,-1.224 1.004,-1.76 -0.072,-0.252 -0.14,-0.504 -0.168,-0.764 -0.024,-0.204 -0.028,-0.408 -0.028,-0.616 0,-0.464 0.22,-0.904 0.6,-1.18 0.02,-0.016 0.044,-0.016 0.064,0 0.28,0.336 0.528,0.984 0.528,1.436 0,0.576 -0.348,1.024 -0.732,1.46 0.08,0.276 0.156,0.552 0.22,0.832 z m 0.34,1.86 c 0.276,-0.096 0.468,-0.384 0.468,-0.664 0,-0.368 -0.276,-0.736 -0.716,-0.772 0.1,0.468 0.192,0.94 0.248,1.436 z m -1.552,-0.944 c 0,0.544 0.524,1.004 1.068,1.004 0.112,0 0.22,-0.008 0.328,-0.024 -0.06,-0.512 -0.152,-0.988 -0.256,-1.468 -0.316,0.036 -0.5,0.248 -0.5,0.484 0,0.176 0.104,0.368 0.328,0.496 0.016,0.016 0.028,0.036 0.028,0.056 0,0.044 -0.036,0.084 -0.08,0.084 -0.012,0 -0.024,-0.004 -0.036,-0.008 -0.32,-0.172 -0.464,-0.456 -0.464,-0.736 0,-0.352 0.228,-0.692 0.632,-0.784 -0.056,-0.24 -0.12,-0.476 -0.184,-0.712 -0.432,0.484 -0.864,0.968 -0.864,1.608 z m 1.36,-4.076 c -0.396,0.2 -0.644,0.604 -0.644,1.048 0,0.304 0.06,0.548 0.132,0.8 0.328,-0.388 0.596,-0.792 0.596,-1.3 0,-0.232 -0.016,-0.336 -0.084,-0.548 z"
     fill="currentColor"
     id="path50"
     style="stroke-width:0.004" />
  <rect
     x="0"
     y="1.7354996"
     width="0.1425"
     height="18.089001"
     ry="0.044500001"
     fill="currentColor"
     id="rect52" />
  <path
     d="m 10.0491,6.24 c 0.212,0 0.416,0.108 0.416,0.344 0,0.284 -0.224,0.48 -0.412,0.592 -0.144,0.088 -0.304,0.144 -0.472,0.144 -0.212,0 -0.42,-0.108 -0.42,-0.344 0,-0.284 0.228,-0.48 0.416,-0.592 0.144,-0.088 0.304,-0.144 0.472,-0.144 z"
     fill="currentColor"
     id="path54"
     style="stroke-width:0.004" />
  <path
     d="m 2.3385,3.74 c 0.02,0 0.04,-0.004 0.06,-0.004 0.616,0 1.016,0.508 1.016,1.036 0,0.304 -0.132,0.612 -0.428,0.832 -0.088,0.068 -0.188,0.116 -0.292,0.148 0.012,0.144 0.02,0.288 0.02,0.432 0,0.076 0,0.148 -0.004,0.224 -0.028,0.48 -0.352,0.904 -0.824,0.904 -0.432,0 -0.78,-0.348 -0.78,-0.78 0,-0.232 0.212,-0.416 0.448,-0.416 0.216,0 0.38,0.192 0.38,0.416 0,0.208 -0.172,0.38 -0.38,0.38 -0.048,0 -0.096,-0.016 -0.14,-0.036 0.104,0.164 0.28,0.28 0.484,0.28 0.004,0 0.008,-0.004 0.012,-0.004 0.372,-0.008 0.616,-0.372 0.64,-0.768 0.004,-0.072 0.008,-0.14 0.008,-0.212 0,-0.128 -0.008,-0.256 -0.02,-0.384 -0.116,0.02 -0.232,0.032 -0.356,0.032 -0.752,0 -1.332,-0.684 -1.332,-1.488 0,-0.712 0.532,-1.224 1.004,-1.76 C 1.7825,2.32 1.7145,2.068 1.6865,1.808 1.6625,1.604 1.6585,1.4 1.6585,1.192 c 0,-0.464 0.22,-0.904 0.6,-1.18 0.02,-0.016 0.044,-0.016 0.064,0 0.28,0.336 0.528,0.984 0.528,1.436 0,0.576 -0.348,1.024 -0.732,1.46 0.08,0.276 0.156,0.552 0.22,0.832 z m 0.34,1.86 c 0.276,-0.096 0.468,-0.384 0.468,-0.664 0,-0.368 -0.276,-0.736 -0.716,-0.772 0.1,0.468 0.192,0.94 0.248,1.436 z M 1.1265,4.656 c 0,0.544 0.524,1.004 1.068,1.004 0.112,0 0.22,-0.008 0.328,-0.024 -0.06,-0.512 -0.152,-0.988 -0.256,-1.468 -0.316,0.036 -0.5,0.248 -0.5,0.484 0,0.176 0.104,0.368 0.328,0.496 0.016,0.016 0.028,0.036 0.028,0.056 0,0.044 -0.036,0.084 -0.08,0.084 -0.012,0 -0.024,-0.004 -0.036,-0.008 -0.32,-0.172 -0.464,-0.456 -0.464,-0.736 0,-0.352 0.228,-0.692 0.632,-0.784 -0.056,-0.24 -0.12,-0.476 -0.184,-0.712 -0.432,0.484 -0.864,0.968 -0.864,1.608 z m 1.36,-4.076 c -0.396,0.2 -0.644,0.604 -0.644,1.048 0,0.304 0.06,0.548 0.132,0.8 0.328,-0.388 0.596,-0.792 0.596,-1.3 0,-0.232 -0.016,-0.336 -0.084,-0.548 z"
     fill="currentColor"
     id="path56"
     style="stroke-width:0.004" />
  <path
     d="m 5.8745,2.504 c 0.084,-0.052 0.168,-0.108 0.228,-0.188 0.044,-0.06 0.072,-0.128 0.1,-0.196 0.016,-0.036 0.08,-0.028 0.08,0.028 v 1.024 h 0.272 c 0.036,0 0.052,0.028 0.052,0.056 0,0.028 -0.016,0.052 -0.052,0.052 h -0.272 v 0.064 c 0,0.18 0.104,0.352 0.272,0.352 0.028,0 0.04,0.02 0.04,0.04 0,0.02 -0.012,0.044 -0.04,0.044 -0.164,0 -0.328,-0.052 -0.492,-0.052 -0.164,0 -0.328,0.052 -0.492,0.052 -0.028,0 -0.04,-0.024 -0.04,-0.044 0,-0.02 0.012,-0.04 0.04,-0.04 0.168,0 0.272,-0.172 0.272,-0.352 V 3.28 h -0.692 c -0.084,0 -0.116,-0.052 -0.116,-0.084 0,-0.008 0.004,-0.02 0.008,-0.024 0.324,-0.384 0.584,-0.832 0.584,-1.332 0,-0.04 0.028,-0.072 0.06,-0.06 0.088,0.028 0.176,0.052 0.268,0.052 0.092,0 0.18,-0.024 0.268,-0.052 0.048,-0.016 0.084,0.032 0.06,0.06 l -1.132,1.332 h 0.692 V 2.584 c 0,-0.032 0.008,-0.064 0.032,-0.08 z"
     fill="currentColor"
     id="path58"
     style="stroke-width:0.004" />
  <path
     d="m 5.8745,4.5241 c 0.084,-0.052 0.168,-0.108 0.228,-0.188 0.044,-0.06 0.072,-0.128 0.1,-0.196 0.016,-0.036 0.08,-0.028 0.08,0.028 v 1.024 h 0.272 c 0.036,0 0.052,0.028 0.052,0.056 0,0.028 -0.016,0.052 -0.052,0.052 h -0.272 v 0.064 c 0,0.18 0.104,0.352 0.272,0.352 0.028,0 0.04,0.02 0.04,0.04 0,0.02 -0.012,0.044 -0.04,0.044 -0.164,0 -0.328,-0.052 -0.492,-0.052 -0.164,0 -0.328,0.052 -0.492,0.052 -0.028,0 -0.04,-0.024 -0.04,-0.044 0,-0.02 0.012,-0.04 0.04,-0.04 0.168,0 0.272,-0.172 0.272,-0.352 v -0.064 h -0.692 c -0.084,0 -0.116,-0.052 -0.116,-0.084 0,-0.008 0.004,-0.02 0.008,-0.024 0.324,-0.384 0.584,-0.832 0.584,-1.332 0,-0.04 0.028,-0.072 0.06,-0.06 0.088,0.028 0.176,0.052 0.268,0.052 0.092,0 0.18,-0.024 0.268,-0.052 0.048,-0.016 0.084,0.032 0.06,0.06 l -1.132,1.332 h 0.692 v -0.588 c 0,-0.032 0.008,-0.064 0.032,-0.08 z"
     fill="currentColor"
     id="path60"
     style="stroke-width:0.004" />
  <path
     d="m 10.0491,20.74 c 0.212,0 0.416,0.108 0.416,0.344 0,0.284 -0.224,0.48 -0.412,0.592 -0.144,0.088 -0.304,0.144 -0.472,0.144 -0.212,0 -0.42,-0.108 -0.42,-0.344 0,-0.284 0.228,-0.48 0.416,-0.592 0.144,-0.088 0.304,-0.144 0.472,-0.144 z"
     fill="currentColor"
     id="path62"
     style="stroke-width:0.004" />
  <path
     d="m 5.8745,16.504 c 0.084,-0.052 0.168,-0.108 0.228,-0.188 0.044,-0.06 0.072,-0.128 0.1,-0.196 0.016,-0.036 0.08,-0.028 0.08,0.028 v 1.024 h 0.272 c 0.036,0 0.052,0.028 0.052,0.056 0,0.028 -0.016,0.052 -0.052,0.052 h -0.272 v 0.064 c 0,0.18 0.104,0.352 0.272,0.352 0.028,0 0.04,0.02 0.04,0.04 0,0.02 -0.012,0.044 -0.04,0.044 -0.164,0 -0.328,-0.052 -0.492,-0.052 -0.164,0 -0.328,0.052 -0.492,0.052 -0.028,0 -0.04,-0.024 -0.04,-0.044 0,-0.02 0.012,-0.04 0.04,-0.04 0.168,0 0.272,-0.172 0.272,-0.352 V 17.28 h -0.692 c -0.084,0 -0.116,-0.052 -0.116,-0.084 0,-0.008 0.004,-0.02 0.008,-0.024 0.324,-0.384 0.584,-0.832 0.584,-1.332 0,-0.04 0.028,-0.072 0.06,-0.06 0.088,0.028 0.176,0.052 0.268,0.052 0.092,0 0.18,-0.024 0.268,-0.052 0.048,-0.016 0.084,0.032 0.06,0.06 l -1.132,1.332 h 0.692 v -0.588 c 0,-0.032 0.008,-0.064 0.032,-0.08 z"
     fill="currentColor"
     id="path64"
     style="stroke-width:0.004" />
  <path
     d="m 5.8745,18.5241 c 0.084,-0.052 0.168,-0.108 0.228,-0.188 0.044,-0.06 0.072,-0.128 0.1,-0.196 0.016,-0.036 0.08,-0.028 0.08,0.028 v 1.024 h 0.272 c 0.036,0 0.052,0.028 0.052,0.056 0,0.028 -0.016,0.052 -0.052,0.052 h -0.272 v 0.064 c 0,0.18 0.104,0.352 0.272,0.352 0.028,0 0.04,0.02 0.04,0.04 0,0.02 -0.012,0.044 -0.04,0.044 -0.164,0 -0.328,-0.052 -0.492,-0.052 -0.164,0 -0.328,0.052 -0.492,0.052 -0.028,0 -0.04,-0.024 -0.04,-0.044 0,-0.02 0.012,-0.04 0.04,-0.04 0.168,0 0.272,-0.172 0.272,-0.352 v -0.064 h -0.692 c -0.084,0 -0.116,-0.052 -0.116,-0.084 0,-0.008 0.004,-0.02 0.008,-0.024 0.324,-0.384 0.584,-0.832 0.584,-1.332 0,-0.04 0.028,-0.072 0.06,-0.06 0.088,0.028 0.176,0.052 0.268,0.052 0.092,0 0.18,-0.024 0.268,-0.052 0.048,-0.016 0.084,0.032 0.06,0.06 l -1.132,1.332 h 0.692 v -0.588 c 0,-0.032 0.008,-0.064 0.032,-0.08 z"
     fill="currentColor"
     id="path66"
     style="stroke-width:0.004" />
  <rect
     x="10.3512"
     y="3.28"
     width="0.1158"
     height="3.3032999"
     ry="0.033300001"
     fill="currentColor"
     id="rect68" />
  <rect
     x="10.3512"
     y="17.780001"
     width="0.1158"
     height="3.3032999"
     ry="0.033300001"
     fill="currentColor"
     id="rect70" />
  <polygon
     transform="translate(10.467,17.8133)"
     stroke-linejoin="round"
     stroke-linecap="round"
     stroke-width="0.0579"
     fill="currentColor"
     stroke="currentColor"
     points="1.0144,0.321 -0.0289,-0.018 -0.0289,0.4711 1.0144,0.8101 "
     id="polygon72" />
</svg>
