<?xml version="1.0" encoding="UTF-8" standalone="no"?>
<svg
   version="1.2"
   width="80.89901mm"
   height="12.19038mm"
   viewBox="0 0 51.151096 7.7077762"
   id="svg146"
   sodipodi:docname="README-16.svg"
   xmlns:inkscape="http://www.inkscape.org/namespaces/inkscape"
   xmlns:sodipodi="http://sodipodi.sourceforge.net/DTD/sodipodi-0.dtd"
   xmlns="http://www.w3.org/2000/svg"
   xmlns:svg="http://www.w3.org/2000/svg">
  <defs
     id="defs150" />
  <sodipodi:namedview
     id="namedview148"
     pagecolor="#ffffff"
     bordercolor="#666666"
     borderopacity="1.0"
     inkscape:pageshadow="2"
     inkscape:pageopacity="0.0"
     inkscape:pagecheckerboard="0"
     inkscape:document-units="mm" />
  <style
     text="style/css"
     id="style2"><![CDATA[
tspan { white-space: pre; }
]]></style>
  <!-- Page: 1/1 -->
  <g
     color="#7f7f7f"
     id="g14"
     transform="translate(-16.06005,-4.1433246)">
    <line
       transform="translate(16.06,10.3031)"
       stroke-linejoin="round"
       stroke-linecap="round"
       stroke-width="0.1073"
       stroke="currentColor"
       x1="0.0537"
       y1="0"
       x2="51.015499"
       y2="0"
       id="line4" />
    <line
       transform="translate(16.06,9.3031)"
       stroke-linejoin="round"
       stroke-linecap="round"
       stroke-width="0.1073"
       stroke="currentColor"
       x1="0.0537"
       y1="0"
       x2="51.015499"
       y2="0"
       id="line6" />
    <line
       transform="translate(16.06,8.3031)"
       stroke-linejoin="round"
       stroke-linecap="round"
       stroke-width="0.1073"
       stroke="currentColor"
       x1="0.0537"
       y1="0"
       x2="51.015499"
       y2="0"
       id="line8" />
    <line
       transform="translate(16.06,7.3031)"
       stroke-linejoin="round"
       stroke-linecap="round"
       stroke-width="0.1073"
       stroke="currentColor"
       x1="0.0537"
       y1="0"
       x2="51.015499"
       y2="0"
       id="line10" />
    <line
       transform="translate(16.06,6.3031)"
       stroke-linejoin="round"
       stroke-linecap="round"
       stroke-width="0.1073"
       stroke="currentColor"
       x1="0.0537"
       y1="0"
       x2="51.015499"
       y2="0"
       id="line12" />
  </g>
  <rect
     x="47.143452"
     y="7.0560756"
     width="1.9542"
     height="0.20730001"
     ry="0.1037"
     fill="currentColor"
     id="rect16" />
  <rect
     x="34.643452"
     y="7.0560756"
     width="1.9542"
     height="0.20730001"
     ry="0.1037"
     fill="currentColor"
     id="rect18" />
  <rect
     x="20.767651"
     y="7.0560756"
     width="1.9542"
     height="0.20730001"
     ry="0.1037"
     fill="currentColor"
     id="rect20" />
  <rect
     x="8.2676506"
     y="7.0560756"
     width="1.9542"
     height="0.20730001"
     ry="0.1037"
     fill="currentColor"
     id="rect22" />
  <rect
     x="50.86525"
     y="2.1060753"
     width="0.20389999"
     height="4.1072998"
     ry="0.0000"
     fill="currentColor"
     id="rect24" />
  <path
     d="m 27.95335,6.1117754 c 0.228,0 0.444,0.116 0.444,0.368 0,0.284 -0.216,0.48 -0.404,0.592 -0.14,0.084 -0.296,0.136 -0.456,0.136 -0.228,0 -0.444,-0.116 -0.444,-0.368 0,-0.284 0.216,-0.48 0.404,-0.592 0.14,-0.084 0.296,-0.136 0.456,-0.136 z"
     fill="currentColor"
     id="path26"
     style="stroke-width:0.004" />
  <path
     d="m 21.95335,6.6117754 c 0.228,0 0.444,0.116 0.444,0.368 0,0.284 -0.216,0.48 -0.404,0.592 -0.14,0.084 -0.296,0.136 -0.456,0.136 -0.228,0 -0.444,-0.116 -0.444,-0.368 0,-0.284 0.216,-0.48 0.404,-0.592 0.14,-0.084 0.296,-0.136 0.456,-0.136 z"
     fill="currentColor"
     id="path28"
     style="stroke-width:0.004" />
  <rect
     x="22.256651"
     y="3.6597753"
     width="0.13950001"
     height="3.3206"
     ry="0.044399999"
     fill="currentColor"
     id="rect30" />
  <polygon
     transform="translate(22.39615,3.7041754)"
     stroke-linejoin="round"
     stroke-linecap="round"
     stroke-width="0.0697"
     fill="currentColor"
     stroke="currentColor"
     points="1.0079,0.3171 -0.0349,-0.0217 -0.0349,0.4549 1.0079,0.7937 "
     id="polygon32" />
  <path
     d="m 12.44935,6.1597754 0.4,-1.304 c -0.132,0.048 -0.268,0.088 -0.412,0.088 -0.184,0 -0.348,-0.132 -0.348,-0.316 0,-0.16 0.132,-0.288 0.292,-0.288 0.1,0 0.192,0.056 0.224,0.152 0.04,0.108 0.02,0.236 0.136,0.236 0.064,0 0.212,-0.204 0.232,-0.268 l 0.184,-0.604 c -0.132,0.048 -0.268,0.088 -0.408,0.088 -0.184,0 -0.348,-0.132 -0.348,-0.316 0,-0.16 0.132,-0.288 0.292,-0.288 0.1,0 0.192,0.056 0.224,0.152 0.04,0.108 0.02,0.236 0.136,0.236 0.056,0 0.192,-0.18 0.216,-0.236 0.024,-0.052 0.104,-0.052 0.124,0 l -0.708,2.668 c -0.036,0.028 -0.076,0.044 -0.12,0.044 -0.044,0 -0.08,-0.016 -0.116,-0.044 z"
     fill="currentColor"
     id="path34"
     style="stroke-width:0.004" />
  <path
     d="m 18.94935,6.1597754 0.4,-1.304 c -0.132,0.048 -0.268,0.088 -0.412,0.088 -0.184,0 -0.348,-0.132 -0.348,-0.316 0,-0.16 0.132,-0.288 0.292,-0.288 0.1,0 0.192,0.056 0.224,0.152 0.04,0.108 0.02,0.236 0.136,0.236 0.064,0 0.212,-0.204 0.232,-0.268 l 0.184,-0.604 c -0.132,0.048 -0.268,0.088 -0.408,0.088 -0.184,0 -0.348,-0.132 -0.348,-0.316 0,-0.16 0.132,-0.288 0.292,-0.288 0.1,0 0.192,0.056 0.224,0.152 0.04,0.108 0.02,0.236 0.136,0.236 0.056,0 0.192,-0.18 0.216,-0.236 0.024,-0.052 0.104,-0.052 0.124,0 l -0.708,2.668 c -0.036,0.028 -0.076,0.044 -0.12,0.044 -0.044,0 -0.08,-0.016 -0.116,-0.044 z"
     fill="currentColor"
     id="path36"
     style="stroke-width:0.004" />
  <polygon
     transform="translate(15.89615,3.2041754)"
     stroke-linejoin="round"
     stroke-linecap="round"
     stroke-width="0.0697"
     fill="currentColor"
     stroke="currentColor"
     points="1.0079,0.3171 -0.0349,-0.0217 -0.0349,0.4549 1.0079,0.7937 "
     id="polygon38" />
  <rect
     x="15.75665"
     y="3.1597753"
     width="0.13950001"
     height="3.3206"
     ry="0.044399999"
     fill="currentColor"
     id="rect40" />
  <path
     d="m 15.45335,6.1117754 c 0.228,0 0.444,0.116 0.444,0.368 0,0.284 -0.216,0.48 -0.404,0.592 -0.14,0.084 -0.296,0.136 -0.456,0.136 -0.228,0 -0.444,-0.116 -0.444,-0.368 0,-0.284 0.216,-0.48 0.404,-0.592 0.14,-0.084 0.296,-0.136 0.456,-0.136 z"
     fill="currentColor"
     id="path42"
     style="stroke-width:0.004" />
  <line
     stroke-linejoin="round"
     stroke-linecap="round"
     stroke-width="0.1717"
     stroke="currentColor"
     x1="17.393351"
     y1="0.60607535"
     x2="17.393351"
     y2="1.3060753"
     id="line44" />
  <line
     stroke-linejoin="round"
     stroke-linecap="round"
     stroke-width="0.1717"
     stroke="currentColor"
     x1="9.5566502"
     y1="0.60607535"
     x2="9.5566502"
     y2="1.3060753"
     id="line46" />
  <line
     stroke-linejoin="round"
     stroke-linecap="round"
     stroke-width="0.1717"
     stroke="currentColor"
     x1="17.393351"
     y1="0.60607535"
     x2="14.51125"
     y2="0.60607535"
     id="line48" />
  <line
     stroke-linejoin="round"
     stroke-linecap="round"
     stroke-width="0.1717"
     stroke="currentColor"
     x1="9.5566502"
     y1="0.60607535"
     x2="12.63875"
     y2="0.60607535"
     id="line50" />
  <text
     font-family="serif"
     font-style="italic"
     font-size="1.7462px"
     text-anchor="start"
     fill="currentColor"
     id="text54"
     x="13.03865"
     y="1.1561754"><tspan
       id="tspan52">5</tspan></text>
  <line
     stroke-linejoin="round"
     stroke-linecap="round"
     stroke-width="0.1717"
     stroke="currentColor"
     x1="28.69335"
     y1="0.60607535"
     x2="28.69335"
     y2="1.3060753"
     id="line56" />
  <line
     stroke-linejoin="round"
     stroke-linecap="round"
     stroke-width="0.1717"
     stroke="currentColor"
     x1="18.493349"
     y1="0.60607535"
     x2="18.493349"
     y2="1.3060753"
     id="line58" />
  <line
     stroke-linejoin="round"
     stroke-linecap="round"
     stroke-width="0.1717"
     stroke="currentColor"
     x1="28.69335"
     y1="0.60607535"
     x2="24.62965"
     y2="0.60607535"
     id="line60" />
  <line
     stroke-linejoin="round"
     stroke-linecap="round"
     stroke-width="0.1717"
     stroke="currentColor"
     x1="18.493349"
     y1="0.60607535"
     x2="22.75705"
     y2="0.60607535"
     id="line62" />
  <text
     font-family="serif"
     font-style="italic"
     font-size="1.7462px"
     text-anchor="start"
     fill="currentColor"
     id="text66"
     x="23.157049"
     y="1.1561754"><tspan
       id="tspan64">5</tspan></text>
  <path
     stroke-width="0.0858"
     stroke-linejoin="round"
     stroke-linecap="round"
     stroke="currentColor"
     fill="currentColor"
     d="m 28.59615,7.1597754 c 0.3237,0.4206 0.8735,0.4206 1.1972,0 v 0 c -0.3237,0.2918 -0.8735,0.2918 -1.1972,0 z"
     id="path68" />
  <line
     stroke-linejoin="round"
     stroke-linecap="round"
     stroke-width="0.1717"
     stroke="currentColor"
     x1="40.169151"
     y1="0.60607535"
     x2="40.169151"
     y2="1.3060753"
     id="line70" />
  <line
     stroke-linejoin="round"
     stroke-linecap="round"
     stroke-width="0.1717"
     stroke="currentColor"
     x1="30.95665"
     y1="0.60607535"
     x2="30.95665"
     y2="1.3060753"
     id="line72" />
  <line
     stroke-linejoin="round"
     stroke-linecap="round"
     stroke-width="0.1717"
     stroke="currentColor"
     x1="40.169151"
     y1="0.60607535"
     x2="36.599152"
     y2="0.60607535"
     id="line74" />
  <line
     stroke-linejoin="round"
     stroke-linecap="round"
     stroke-width="0.1717"
     stroke="currentColor"
     x1="30.95665"
     y1="0.60607535"
     x2="34.72665"
     y2="0.60607535"
     id="line76" />
  <text
     font-family="serif"
     font-style="italic"
     font-size="1.7462px"
     text-anchor="start"
     fill="currentColor"
     id="text80"
     x="35.126549"
     y="1.1561754"><tspan
       id="tspan78">5</tspan></text>
  <polygon
     transform="translate(36.27195,3.7041754)"
     stroke-linejoin="round"
     stroke-linecap="round"
     stroke-width="0.0697"
     fill="currentColor"
     stroke="currentColor"
     points="1.0079,0.3171 -0.0349,-0.0217 -0.0349,0.4549 1.0079,0.7937 "
     id="polygon82" />
  <rect
     x="36.13245"
     y="3.6597753"
     width="0.13950001"
     height="3.3206"
     ry="0.044399999"
     fill="currentColor"
     id="rect84" />
  <path
     d="m 35.82915,6.6117754 c 0.228,0 0.444,0.116 0.444,0.368 0,0.284 -0.216,0.48 -0.404,0.592 -0.14,0.084 -0.296,0.136 -0.456,0.136 -0.228,0 -0.444,-0.116 -0.444,-0.368 0,-0.284 0.216,-0.48 0.404,-0.592 0.14,-0.084 0.296,-0.136 0.456,-0.136 z"
     fill="currentColor"
     id="path86"
     style="stroke-width:0.004" />
  <rect
     x="28.256651"
     y="3.1597753"
     width="0.13950001"
     height="3.3206"
     ry="0.044399999"
     fill="currentColor"
     id="rect88" />
  <path
     d="m 32.82515,6.1597754 0.4,-1.304 c -0.132,0.048 -0.268,0.088 -0.412,0.088 -0.184,0 -0.348,-0.132 -0.348,-0.316 0,-0.16 0.132,-0.288 0.292,-0.288 0.1,0 0.192,0.056 0.224,0.152 0.04,0.108 0.02,0.236 0.136,0.236 0.064,0 0.212,-0.204 0.232,-0.268 l 0.184,-0.604 c -0.132,0.048 -0.268,0.088 -0.408,0.088 -0.184,0 -0.348,-0.132 -0.348,-0.316 0,-0.16 0.132,-0.288 0.292,-0.288 0.1,0 0.192,0.056 0.224,0.152 0.04,0.108 0.02,0.236 0.136,0.236 0.056,0 0.192,-0.18 0.216,-0.236 0.024,-0.052 0.104,-0.052 0.124,0 l -0.708,2.668 c -0.036,0.028 -0.076,0.044 -0.12,0.044 -0.044,0 -0.08,-0.016 -0.116,-0.044 z"
     fill="currentColor"
     id="path90"
     style="stroke-width:0.004" />
  <polygon
     transform="translate(31.29615,3.2041754)"
     stroke-linejoin="round"
     stroke-linecap="round"
     stroke-width="0.0697"
     fill="currentColor"
     stroke="currentColor"
     points="1.0079,0.3171 -0.0349,-0.0217 -0.0349,0.4549 1.0079,0.7937 "
     id="polygon92" />
  <polygon
     transform="translate(31.29615,4.2041754)"
     stroke-linejoin="round"
     stroke-linecap="round"
     stroke-width="0.0697"
     fill="currentColor"
     stroke="currentColor"
     points="1.0079,0.3171 -0.0349,-0.0217 -0.0349,0.4549 1.0079,0.7937 "
     id="polygon94" />
  <rect
     x="31.156651"
     y="3.1597753"
     width="0.13950001"
     height="3.3206"
     ry="0.044399999"
     fill="currentColor"
     id="rect96" />
  <path
     d="m 30.85335,6.1117754 c 0.228,0 0.444,0.116 0.444,0.368 0,0.284 -0.216,0.48 -0.404,0.592 -0.14,0.084 -0.296,0.136 -0.456,0.136 -0.228,0 -0.444,-0.116 -0.444,-0.368 0,-0.284 0.216,-0.48 0.404,-0.592 0.14,-0.084 0.296,-0.136 0.456,-0.136 z"
     fill="currentColor"
     id="path98"
     style="stroke-width:0.004" />
  <polygon
     transform="translate(28.39615,3.2041754)"
     stroke-linejoin="round"
     stroke-linecap="round"
     stroke-width="0.0697"
     fill="currentColor"
     stroke="currentColor"
     points="1.0079,0.3171 -0.0349,-0.0217 -0.0349,0.4549 1.0079,0.7937 "
     id="polygon100" />
  <polygon
     transform="translate(28.39615,4.2041754)"
     stroke-linejoin="round"
     stroke-linecap="round"
     stroke-width="0.0697"
     fill="currentColor"
     stroke="currentColor"
     points="1.0079,0.3171 -0.0349,-0.0217 -0.0349,0.4549 1.0079,0.7937 "
     id="polygon102" />
  <polygon
     transform="translate(42.77195,3.2041754)"
     stroke-linejoin="round"
     stroke-linecap="round"
     stroke-width="0.0697"
     fill="currentColor"
     stroke="currentColor"
     points="1.0079,0.3171 -0.0349,-0.0217 -0.0349,0.4549 1.0079,0.7937 "
     id="polygon104" />
  <path
     d="m 42.32915,6.1117754 c 0.228,0 0.444,0.116 0.444,0.368 0,0.284 -0.216,0.48 -0.404,0.592 -0.14,0.084 -0.296,0.136 -0.456,0.136 -0.228,0 -0.444,-0.116 -0.444,-0.368 0,-0.284 0.216,-0.48 0.404,-0.592 0.14,-0.084 0.296,-0.136 0.456,-0.136 z"
     fill="currentColor"
     id="path106"
     style="stroke-width:0.004" />
  <path
     d="m 38.82515,6.1597754 0.4,-1.304 c -0.132,0.048 -0.268,0.088 -0.412,0.088 -0.184,0 -0.348,-0.132 -0.348,-0.316 0,-0.16 0.132,-0.288 0.292,-0.288 0.1,0 0.192,0.056 0.224,0.152 0.04,0.108 0.02,0.236 0.136,0.236 0.064,0 0.212,-0.204 0.232,-0.268 l 0.184,-0.604 c -0.132,0.048 -0.268,0.088 -0.408,0.088 -0.184,0 -0.348,-0.132 -0.348,-0.316 0,-0.16 0.132,-0.288 0.292,-0.288 0.1,0 0.192,0.056 0.224,0.152 0.04,0.108 0.02,0.236 0.136,0.236 0.056,0 0.192,-0.18 0.216,-0.236 0.024,-0.052 0.104,-0.052 0.124,0 l -0.708,2.668 c -0.036,0.028 -0.076,0.044 -0.12,0.044 -0.044,0 -0.08,-0.016 -0.116,-0.044 z"
     fill="currentColor"
     id="path108"
     style="stroke-width:0.004" />
  <rect
     x="42.63245"
     y="3.1597753"
     width="0.13950001"
     height="3.3206"
     ry="0.044399999"
     fill="currentColor"
     id="rect110" />
  <polygon
     transform="translate(9.89615,3.7041754)"
     stroke-linejoin="round"
     stroke-linecap="round"
     stroke-width="0.0697"
     fill="currentColor"
     stroke="currentColor"
     points="1.0079,0.3171 -0.0349,-0.0217 -0.0349,0.4549 1.0079,0.7937 "
     id="polygon112" />
  <rect
     x="9.75665"
     y="3.6597753"
     width="0.13950001"
     height="3.3206"
     ry="0.044399999"
     fill="currentColor"
     id="rect114" />
  <path
     d="m 5.77595,3.6797754 h 0.48 c 0,0.196 0.116,0.38 0.3,0.38 0.032,0 0.048,0.028 0.048,0.052 0,0.024 -0.016,0.048 -0.048,0.048 -0.18,0 -0.36,-0.052 -0.54,-0.052 -0.18,0 -0.36,0.052 -0.54,0.052 -0.032,0 -0.048,-0.024 -0.048,-0.048 0,-0.024 0.016,-0.052 0.048,-0.052 0.184,0 0.3,-0.184 0.3,-0.38 z m 0.036,-0.724 c 0.088,-0.06 0.18,-0.12 0.244,-0.204 0.048,-0.06 0.076,-0.136 0.108,-0.204 0.008,-0.016 0.02,-0.024 0.036,-0.024 0.024,0 0.056,0.024 0.056,0.06 v 0.952 h 0.296 c 0.04,0 0.064,0.032 0.064,0.064 0,0.032 -0.024,0.06 -0.064,0.06 h -0.296 v 0.02 h -0.48 v -0.02 h -0.652 c -0.096,0 -0.132,-0.06 -0.132,-0.096 0,-0.012 0.004,-0.024 0.008,-0.028 0.32,-0.368 0.536,-0.82 0.536,-1.308 0,-0.044 0.032,-0.08 0.068,-0.068 0.096,0.028 0.192,0.052 0.292,0.052 0.1,0 0.192,-0.024 0.288,-0.052 0.008,-0.004 0.016,-0.004 0.024,-0.004 0.036,0 0.056,0.028 0.056,0.052 0,0.008 0,0.012 -0.008,0.02 l -1.132,1.308 h 0.652 v -0.488 c 0,-0.036 0.008,-0.072 0.036,-0.092 z"
     fill="currentColor"
     id="path116"
     style="stroke-width:0.004" />
  <path
     d="m 5.77595,5.7662754 h 0.48 c 0,0.196 0.116,0.38 0.3,0.38 0.032,0 0.048,0.028 0.048,0.052 0,0.024 -0.016,0.048 -0.048,0.048 -0.18,0 -0.36,-0.052 -0.54,-0.052 -0.18,0 -0.36,0.052 -0.54,0.052 -0.032,0 -0.048,-0.024 -0.048,-0.048 0,-0.024 0.016,-0.052 0.048,-0.052 0.184,0 0.3,-0.184 0.3,-0.38 z m 0.036,-0.724 c 0.088,-0.06 0.18,-0.12 0.244,-0.204 0.048,-0.06 0.076,-0.136 0.108,-0.204 0.008,-0.016 0.02,-0.024 0.036,-0.024 0.024,0 0.056,0.024 0.056,0.06 v 0.952 h 0.296 c 0.04,0 0.064,0.032 0.064,0.064 0,0.032 -0.024,0.06 -0.064,0.06 h -0.296 v 0.02 h -0.48 v -0.02 h -0.652 c -0.096,0 -0.132,-0.06 -0.132,-0.096 0,-0.012 0.004,-0.024 0.008,-0.028 0.32,-0.368 0.536,-0.82 0.536,-1.308 0,-0.044 0.032,-0.08 0.068,-0.068 0.096,0.028 0.192,0.052 0.292,0.052 0.1,0 0.192,-0.024 0.288,-0.052 0.008,-0.004 0.016,-0.004 0.024,-0.004 0.036,0 0.056,0.028 0.056,0.052 0,0.008 0,0.012 -0.008,0.02 l -1.132,1.308 h 0.652 v -0.488 c 0,-0.036 0.008,-0.072 0.036,-0.092 z"
     fill="currentColor"
     id="path118"
     style="stroke-width:0.004" />
  <path
     d="m 2.31195,4.1077754 c 0.016,0 0.028,-0.004 0.044,-0.004 0.624,0 1.028,0.516 1.028,1.048 0,0.304 -0.136,0.616 -0.432,0.84 -0.088,0.068 -0.184,0.116 -0.288,0.148 0.012,0.136 0.016,0.272 0.016,0.408 0,0.08 0,0.16 -0.004,0.24 -0.028,0.484 -0.36,0.912 -0.836,0.912 -0.432,0 -0.784,-0.348 -0.784,-0.784 0,-0.232 0.212,-0.416 0.448,-0.416 0.216,0 0.38,0.192 0.38,0.416 0,0.208 -0.172,0.38 -0.38,0.38 -0.04,0 -0.08,-0.008 -0.116,-0.024 0.104,0.152 0.272,0.252 0.464,0.252 h 0.012 c 0.372,-0.008 0.612,-0.368 0.636,-0.76 0.004,-0.076 0.008,-0.148 0.008,-0.224 0,-0.12 -0.008,-0.24 -0.016,-0.36 -0.116,0.02 -0.232,0.032 -0.352,0.032 -0.752,0 -1.332,-0.692 -1.332,-1.5 0,-0.708 0.52,-1.228 0.984,-1.768 -0.08,-0.248 -0.152,-0.5 -0.184,-0.76 -0.024,-0.208 -0.028,-0.416 -0.028,-0.628 0,-0.46 0.22,-0.89200003 0.592,-1.16000003 0.028,-0.02 0.064,-0.016 0.088,0.004 0.284,0.332 0.536,0.97600003 0.536,1.42800003 0,0.572 -0.34,1.02 -0.712,1.456 0.084,0.272 0.16,0.548 0.228,0.824 z m 0.336,1.86 c 0.268,-0.096 0.444,-0.376 0.444,-0.648 0,-0.356 -0.26,-0.712 -0.68,-0.76 0.096,0.46 0.184,0.92 0.236,1.408 z m -1.548,-0.912 c 0,0.536 0.516,0.98 1.052,0.98 0.112,0 0.22,-0.008 0.324,-0.024 -0.056,-0.504 -0.144,-0.976 -0.244,-1.452 -0.316,0.032 -0.496,0.244 -0.496,0.476 0,0.172 0.1,0.356 0.32,0.484 0.02,0.02 0.028,0.044 0.028,0.064 0,0.048 -0.04,0.092 -0.088,0.092 -0.012,0 -0.024,-0.004 -0.036,-0.008 -0.324,-0.172 -0.472,-0.464 -0.472,-0.744 0,-0.356 0.232,-0.7 0.644,-0.792 -0.056,-0.232 -0.116,-0.464 -0.184,-0.692 -0.424,0.488 -0.848,0.976 -0.848,1.616 z m 0.676,-3.036 c 0,0.292 0.08,0.528 0.152,0.764 0.316,-0.388 0.576,-0.796 0.576,-1.296 0,-0.212 -0.016,-0.304 -0.08,-0.49600003 -0.396,0.18800003 -0.648,0.59200003 -0.648,1.02800003 z"
     fill="currentColor"
     id="path120"
     style="stroke-width:0.004" />
  <path
     d="m 9.45335,6.6117754 c 0.228,0 0.444,0.116 0.444,0.368 0,0.284 -0.216,0.48 -0.404,0.592 -0.14,0.084 -0.296,0.136 -0.456,0.136 -0.228,0 -0.444,-0.116 -0.444,-0.368 0,-0.284 0.216,-0.48 0.404,-0.592 0.14,-0.084 0.296,-0.136 0.456,-0.136 z"
     fill="currentColor"
     id="path122"
     style="stroke-width:0.004" />
  <path
     d="m 24.94935,6.1597754 0.4,-1.304 c -0.132,0.048 -0.268,0.088 -0.412,0.088 -0.184,0 -0.348,-0.132 -0.348,-0.316 0,-0.16 0.132,-0.288 0.292,-0.288 0.1,0 0.192,0.056 0.224,0.152 0.04,0.108 0.02,0.236 0.136,0.236 0.064,0 0.212,-0.204 0.232,-0.268 l 0.184,-0.604 c -0.132,0.048 -0.268,0.088 -0.408,0.088 -0.184,0 -0.348,-0.132 -0.348,-0.316 0,-0.16 0.132,-0.288 0.292,-0.288 0.1,0 0.192,0.056 0.224,0.152 0.04,0.108 0.02,0.236 0.136,0.236 0.056,0 0.192,-0.18 0.216,-0.236 0.024,-0.052 0.104,-0.052 0.124,0 l -0.708,2.668 c -0.036,0.028 -0.076,0.044 -0.12,0.044 -0.044,0 -0.08,-0.016 -0.116,-0.044 z"
     fill="currentColor"
     id="path124"
     style="stroke-width:0.004" />
  <text
     font-family="serif"
     font-style="italic"
     font-size="1.7462px"
     text-anchor="start"
     fill="currentColor"
     id="text128"
     x="46.31255"
     y="1.1561754"><tspan
       id="tspan126">5</tspan></text>
  <line
     stroke-linejoin="round"
     stroke-linecap="round"
     stroke-width="0.1717"
     stroke="currentColor"
     x1="51.06525"
     y1="0.60607535"
     x2="51.06525"
     y2="1.3060753"
     id="line130" />
  <line
     stroke-linejoin="round"
     stroke-linecap="round"
     stroke-width="0.1717"
     stroke="currentColor"
     x1="42.432449"
     y1="0.60607535"
     x2="42.432449"
     y2="1.3060753"
     id="line132" />
  <line
     stroke-linejoin="round"
     stroke-linecap="round"
     stroke-width="0.1717"
     stroke="currentColor"
     x1="51.06525"
     y1="0.60607535"
     x2="47.785149"
     y2="0.60607535"
     id="line134" />
  <line
     stroke-linejoin="round"
     stroke-linecap="round"
     stroke-width="0.1717"
     stroke="currentColor"
     x1="42.432449"
     y1="0.60607535"
     x2="45.912552"
     y2="0.60607535"
     id="line136" />
  <polygon
     transform="translate(48.77195,3.7041754)"
     stroke-linejoin="round"
     stroke-linecap="round"
     stroke-width="0.0697"
     fill="currentColor"
     stroke="currentColor"
     points="1.0079,0.3171 -0.0349,-0.0217 -0.0349,0.4549 1.0079,0.7937 "
     id="polygon138" />
  <rect
     x="48.63245"
     y="3.6597753"
     width="0.13950001"
     height="3.3206"
     ry="0.044399999"
     fill="currentColor"
     id="rect140" />
  <path
     d="m 48.32915,6.6117754 c 0.228,0 0.444,0.116 0.444,0.368 0,0.284 -0.216,0.48 -0.404,0.592 -0.14,0.084 -0.296,0.136 -0.456,0.136 -0.228,0 -0.444,-0.116 -0.444,-0.368 0,-0.284 0.216,-0.48 0.404,-0.592 0.14,-0.084 0.296,-0.136 0.456,-0.136 z"
     fill="currentColor"
     id="path142"
     style="stroke-width:0.004" />
  <path
     d="m 45.32515,6.1597754 0.4,-1.304 c -0.132,0.048 -0.268,0.088 -0.412,0.088 -0.184,0 -0.348,-0.132 -0.348,-0.316 0,-0.16 0.132,-0.288 0.292,-0.288 0.1,0 0.192,0.056 0.224,0.152 0.04,0.108 0.02,0.236 0.136,0.236 0.064,0 0.212,-0.204 0.232,-0.268 l 0.184,-0.604 c -0.132,0.048 -0.268,0.088 -0.408,0.088 -0.184,0 -0.348,-0.132 -0.348,-0.316 0,-0.16 0.132,-0.288 0.292,-0.288 0.1,0 0.192,0.056 0.224,0.152 0.04,0.108 0.02,0.236 0.136,0.236 0.056,0 0.192,-0.18 0.216,-0.236 0.024,-0.052 0.104,-0.052 0.124,0 l -0.708,2.668 c -0.036,0.028 -0.076,0.044 -0.12,0.044 -0.044,0 -0.08,-0.016 -0.116,-0.044 z"
     fill="currentColor"
     id="path144"
     style="stroke-width:0.004" />
</svg>
