<?xml version="1.0" encoding="UTF-8" standalone="no"?>
<svg
   version="1.2"
   width="65.112274mm"
   height="13.823217mm"
   viewBox="0 0 30.877047 6.5551419"
   id="svg74"
   sodipodi:docname="README-11.svg"
   xmlns:inkscape="http://www.inkscape.org/namespaces/inkscape"
   xmlns:sodipodi="http://sodipodi.sourceforge.net/DTD/sodipodi-0.dtd"
   xmlns="http://www.w3.org/2000/svg"
   xmlns:svg="http://www.w3.org/2000/svg">
  <defs
     id="defs78" />
  <sodipodi:namedview
     id="namedview76"
     pagecolor="#ffffff"
     bordercolor="#666666"
     borderopacity="1.0"
     inkscape:pageshadow="2"
     inkscape:pageopacity="0.0"
     inkscape:pagecheckerboard="0"
     inkscape:document-units="mm" />
  <style
     text="style/css"
     id="style2"><![CDATA[
tspan { white-space: pre; }
]]></style>
  <!-- Page: 1/1 -->
  <text
     font-family="serif"
     font-size="2.2002px"
     text-anchor="start"
     fill="currentColor"
     id="text6"
     y="-0.98185843"><tspan
       id="tspan4" /></text>
  <line
     stroke-linejoin="round"
     stroke-linecap="round"
     stroke-width="0.089"
     stroke="currentColor"
     x1="0.044500001"
     y1="6.0151415"
     x2="30.5613"
     y2="6.0151415"
     id="line8" />
  <polygon
     transform="translate(25.483,2.6735416)"
     stroke-linejoin="round"
     stroke-linecap="round"
     stroke-width="0.0579"
     fill="currentColor"
     stroke="currentColor"
     points="1.0144,0.321 -0.0289,-0.018 -0.0289,0.4711 1.0144,0.8101 "
     id="polygon10" />
  <polygon
     transform="translate(1.69,2.5151416)"
     stroke-linejoin="round"
     stroke-linecap="round"
     stroke-width="0.0667"
     fill="currentColor"
     stroke="currentColor"
     points="0.0333,0.2067 0.0333,-0.2067 4.5824,-0.2067 4.5824,0.2067 "
     id="polygon12" />
  <polygon
     transform="translate(1.69,3.3196416)"
     stroke-linejoin="round"
     stroke-linecap="round"
     stroke-width="0.0667"
     fill="currentColor"
     stroke="currentColor"
     points="0.0333,0.2067 0.0333,-0.2067 4.5824,-0.2067 4.5824,0.2067 "
     id="polygon14" />
  <polygon
     transform="translate(5.1479,4.1242416)"
     stroke-linejoin="round"
     stroke-linecap="round"
     stroke-width="0.0667"
     fill="currentColor"
     stroke="currentColor"
     points="0.0333,0.2067 0.0333,-0.2067 1.1245,-0.2067 1.1245,0.2067 "
     id="polygon16" />
  <path
     d="m 5.888,5.4751416 c 0.212,0 0.416,0.108 0.416,0.344 0,0.284 -0.224,0.48 -0.412,0.592 -0.144,0.088 -0.304,0.144 -0.472,0.144 -0.212,0 -0.42,-0.108 -0.42,-0.344 0,-0.284 0.228,-0.48 0.416,-0.592 0.144,-0.088 0.304,-0.144 0.472,-0.144 z"
     fill="currentColor"
     id="path18"
     style="stroke-width:0.004" />
  <rect
     x="6.1900001"
     y="2.5151415"
     width="0.1158"
     height="3.3032999"
     ry="0.033300001"
     fill="currentColor"
     id="rect20" />
  <path
     d="m 7.4938,5.4751416 c 0.212,0 0.416,0.108 0.416,0.344 0,0.284 -0.224,0.48 -0.412,0.592 -0.144,0.088 -0.304,0.144 -0.472,0.144 -0.212,0 -0.42,-0.108 -0.42,-0.344 0,-0.284 0.228,-0.48 0.416,-0.592 0.144,-0.088 0.304,-0.144 0.472,-0.144 z"
     fill="currentColor"
     id="path22"
     style="stroke-width:0.004" />
  <path
     d="m 8.3683,5.5151416 c 0,-0.128 0.1,-0.228 0.228,-0.228 0.128,0 0.228,0.1 0.228,0.228 0,0.128 -0.1,0.228 -0.228,0.228 -0.128,0 -0.228,-0.1 -0.228,-0.228 z"
     fill="currentColor"
     id="path24"
     style="stroke-width:0.004" />
  <rect
     x="7.7958002"
     y="3.0151415"
     width="0.1158"
     height="2.8032999"
     ry="0.033300001"
     fill="currentColor"
     id="rect26" />
  <path
     d="m 12.8938,5.4751416 c 0.212,0 0.416,0.108 0.416,0.344 0,0.284 -0.224,0.48 -0.412,0.592 -0.144,0.088 -0.304,0.144 -0.472,0.144 -0.212,0 -0.42,-0.108 -0.42,-0.344 0,-0.284 0.228,-0.48 0.416,-0.592 0.144,-0.088 0.304,-0.144 0.472,-0.144 z"
     fill="currentColor"
     id="path28"
     style="stroke-width:0.004" />
  <rect
     x="13.1958"
     y="3.0151415"
     width="0.1158"
     height="2.8032999"
     ry="0.033300001"
     fill="currentColor"
     id="rect30" />
  <text
     font-family="serif"
     font-style="italic"
     font-size="1.7463px"
     text-anchor="start"
     fill="currentColor"
     id="text34"
     x="9.7841997"
     y="1.3584416"><tspan
       id="tspan32">5:3</tspan></text>
  <line
     stroke-linejoin="round"
     stroke-linecap="round"
     stroke-width="0.1425"
     stroke="currentColor"
     x1="14.3058"
     y1="0.7751416"
     x2="14.3058"
     y2="1.4751415"
     id="line36" />
  <line
     stroke-linejoin="round"
     stroke-linecap="round"
     stroke-width="0.1425"
     stroke="currentColor"
     x1="7.5957999"
     y1="0.7751416"
     x2="7.5957999"
     y2="1.4751415"
     id="line38" />
  <line
     stroke-linejoin="round"
     stroke-linecap="round"
     stroke-width="0.1425"
     stroke="currentColor"
     x1="14.3058"
     y1="0.7751416"
     x2="12.7173"
     y2="0.7751416"
     id="line40" />
  <line
     stroke-linejoin="round"
     stroke-linecap="round"
     stroke-width="0.1425"
     stroke="currentColor"
     x1="7.5957999"
     y1="0.7751416"
     x2="9.3842001"
     y2="0.7751416"
     id="line42" />
  <polygon
     transform="translate(7.7958,3.0151416)"
     stroke-linejoin="round"
     stroke-linecap="round"
     stroke-width="0.0667"
     fill="currentColor"
     stroke="currentColor"
     points="0.0333,0.2067 0.0333,-0.2067 5.4824,-0.2067 5.4824,0.2067 "
     id="polygon44" />
  <line
     stroke-linejoin="round"
     stroke-linecap="round"
     stroke-width="0.1425"
     stroke="currentColor"
     x1="30.805799"
     y1="0.61564159"
     x2="30.805799"
     y2="1.3156415"
     id="line46" />
  <line
     stroke-linejoin="round"
     stroke-linecap="round"
     stroke-width="0.1425"
     stroke="currentColor"
     x1="16.5958"
     y1="0.61564159"
     x2="16.5958"
     y2="1.3156415"
     id="line48" />
  <line
     stroke-linejoin="round"
     stroke-linecap="round"
     stroke-width="0.1425"
     stroke="currentColor"
     x1="30.805799"
     y1="0.61564159"
     x2="25.4673"
     y2="0.61564159"
     id="line50" />
  <line
     stroke-linejoin="round"
     stroke-linecap="round"
     stroke-width="0.1425"
     stroke="currentColor"
     x1="16.5958"
     y1="0.61564159"
     x2="22.134199"
     y2="0.61564159"
     id="line52" />
  <text
     font-family="serif"
     font-style="italic"
     font-size="1.7463px"
     text-anchor="start"
     fill="currentColor"
     id="text56"
     x="22.534201"
     y="1.1562415"><tspan
       id="tspan54">7:5</tspan></text>
  <path
     d="m 1.388,5.4751416 c 0.212,0 0.416,0.108 0.416,0.344 0,0.284 -0.224,0.48 -0.412,0.592 -0.144,0.088 -0.304,0.144 -0.472,0.144 -0.212,0 -0.42,-0.108 -0.42,-0.344 0,-0.284 0.228,-0.48 0.416,-0.592 0.144,-0.088 0.304,-0.144 0.472,-0.144 z"
     fill="currentColor"
     id="path58"
     style="stroke-width:0.004" />
  <path
     d="m 2.2625,5.5151416 c 0,-0.128 0.1,-0.228 0.228,-0.228 0.128,0 0.228,0.1 0.228,0.228 0,0.128 -0.1,0.228 -0.228,0.228 -0.128,0 -0.228,-0.1 -0.228,-0.228 z"
     fill="currentColor"
     id="path60"
     style="stroke-width:0.004" />
  <rect
     x="1.6900001"
     y="2.5151415"
     width="0.1158"
     height="3.3032999"
     ry="0.033300001"
     fill="currentColor"
     id="rect62" />
  <rect
     x="25.367201"
     y="2.6401415"
     width="0.1158"
     height="3.1782999"
     ry="0.033300001"
     fill="currentColor"
     id="rect64" />
  <path
     d="m 25.9398,5.5151416 c 0,-0.128 0.1,-0.228 0.228,-0.228 0.128,0 0.228,0.1 0.228,0.228 0,0.128 -0.1,0.228 -0.228,0.228 -0.128,0 -0.228,-0.1 -0.228,-0.228 z"
     fill="currentColor"
     id="path66"
     style="stroke-width:0.004" />
  <path
     d="m 25.0652,5.4751416 c 0.212,0 0.416,0.108 0.416,0.344 0,0.284 -0.224,0.48 -0.412,0.592 -0.144,0.088 -0.304,0.144 -0.472,0.144 -0.212,0 -0.42,-0.108 -0.42,-0.344 0,-0.284 0.228,-0.48 0.416,-0.592 0.144,-0.088 0.304,-0.144 0.472,-0.144 z"
     fill="currentColor"
     id="path68"
     style="stroke-width:0.004" />
  <rect
     x="16.795799"
     y="2.6818414"
     width="0.1158"
     height="3.1366"
     ry="0.033300001"
     fill="currentColor"
     id="rect70" />
  <path
     d="m 16.4938,5.4751416 c 0.212,0 0.416,0.108 0.416,0.344 0,0.284 -0.224,0.48 -0.412,0.592 -0.144,0.088 -0.304,0.144 -0.472,0.144 -0.212,0 -0.42,-0.108 -0.42,-0.344 0,-0.284 0.228,-0.48 0.416,-0.592 0.144,-0.088 0.304,-0.144 0.472,-0.144 z"
     fill="currentColor"
     id="path72"
     style="stroke-width:0.004" />
</svg>
