<?xml version="1.0" encoding="UTF-8" standalone="no"?>
<svg
   version="1.2"
   width="98.283669mm"
   height="19.400391mm"
   viewBox="0 0 50.844388 10.036266"
   id="svg94"
   sodipodi:docname="README-14.svg"
   xmlns:inkscape="http://www.inkscape.org/namespaces/inkscape"
   xmlns:sodipodi="http://sodipodi.sourceforge.net/DTD/sodipodi-0.dtd"
   xmlns="http://www.w3.org/2000/svg"
   xmlns:svg="http://www.w3.org/2000/svg">
  <defs
     id="defs98" />
  <sodipodi:namedview
     id="namedview96"
     pagecolor="#ffffff"
     bordercolor="#666666"
     borderopacity="1.0"
     inkscape:pageshadow="2"
     inkscape:pageopacity="0.0"
     inkscape:pagecheckerboard="0"
     inkscape:document-units="mm"
     fit-margin-top="2"
     fit-margin-left="2"
     fit-margin-right="2"
     fit-margin-bottom="2" />
  <style
     text="style/css"
     id="style2"><![CDATA[
tspan { white-space: pre; }
]]></style>
  <!-- Page: 1/1 -->
  <text
     font-family="serif"
     font-size="2.2001px"
     text-anchor="start"
     fill="currentColor"
     id="text6"
     x="1.0346458"
     y="0.042519789"><tspan
       id="tspan4" /></text>
  <line
     stroke-linejoin="round"
     stroke-linecap="round"
     stroke-width="0.094"
     stroke="currentColor"
     x1="1.0816457"
     y1="6.9656196"
     x2="49.487644"
     y2="6.9656196"
     id="line8" />
  <path
     d="m 4.8146458,6.4256198 c 0.216,0 0.424,0.108 0.424,0.348 0,0.284 -0.224,0.48 -0.412,0.592 -0.144,0.084 -0.304,0.14 -0.468,0.14 -0.216,0 -0.424,-0.108 -0.424,-0.348 0,-0.284 0.224,-0.48 0.412,-0.592 0.144,-0.084 0.304,-0.14 0.468,-0.14 z"
     fill="currentColor"
     id="path10"
     style="stroke-width:0.004" />
  <path
     d="m 23.410646,8.9656198 0.4,-1.308 c -0.14,0.048 -0.28,0.092 -0.428,0.092 -0.184,0 -0.348,-0.132 -0.348,-0.316 0,-0.156 0.124,-0.288 0.284,-0.288 0.1,0 0.196,0.064 0.228,0.16 0.04,0.112 0.024,0.236 0.14,0.236 0.068,0 0.224,-0.208 0.244,-0.276 l 0.184,-0.608 c -0.136,0.048 -0.276,0.092 -0.42,0.092 -0.184,0 -0.348,-0.132 -0.348,-0.316 0,-0.156 0.124,-0.288 0.284,-0.288 0.1,0 0.196,0.064 0.228,0.16 0.04,0.112 0.024,0.236 0.14,0.236 0.064,0 0.204,-0.208 0.232,-0.268 0.02,-0.044 0.088,-0.044 0.104,0 l -0.72,2.692 c -0.028,0.024 -0.068,0.036 -0.104,0.036 -0.036,0 -0.072,-0.012 -0.1,-0.036 z"
     fill="currentColor"
     id="path12"
     style="stroke-width:0.004" />
  <rect
     x="14.717546"
     y="3.6323197"
     width="0.1222"
     height="3.1415"
     ry="0.036400001"
     fill="currentColor"
     id="rect14" />
  <path
     d="m 14.414646,6.4256198 c 0.216,0 0.424,0.108 0.424,0.348 0,0.284 -0.224,0.48 -0.412,0.592 -0.144,0.084 -0.304,0.14 -0.468,0.14 -0.216,0 -0.424,-0.108 -0.424,-0.348 0,-0.284 0.224,-0.48 0.412,-0.592 0.144,-0.084 0.304,-0.14 0.468,-0.14 z"
     fill="currentColor"
     id="path16"
     style="stroke-width:0.004" />
  <rect
     x="9.9175453"
     y="3.9656198"
     width="0.1222"
     height="2.8081"
     ry="0.036400001"
     fill="currentColor"
     id="rect18" />
  <path
     d="m 9.6146458,6.4256198 c 0.216,0 0.4240002,0.108 0.4240002,0.348 0,0.284 -0.2240002,0.48 -0.4120002,0.592 -0.144,0.084 -0.304,0.14 -0.468,0.14 -0.216,0 -0.424,-0.108 -0.424,-0.348 0,-0.284 0.224,-0.48 0.412,-0.592 0.144,-0.084 0.304,-0.14 0.468,-0.14 z"
     fill="currentColor"
     id="path20"
     style="stroke-width:0.004" />
  <rect
     x="5.1175456"
     y="3.9656198"
     width="0.1222"
     height="2.8081"
     ry="0.036400001"
     fill="currentColor"
     id="rect22" />
  <line
     stroke-linejoin="round"
     stroke-linecap="round"
     stroke-width="0.1504"
     stroke="currentColor"
     x1="12.234646"
     y1="1.7256198"
     x2="12.234646"
     y2="2.4256198"
     id="line24" />
  <line
     stroke-linejoin="round"
     stroke-linecap="round"
     stroke-width="0.1504"
     stroke="currentColor"
     x1="1.9346458"
     y1="1.7256198"
     x2="1.9346458"
     y2="2.4256198"
     id="line26" />
  <line
     stroke-linejoin="round"
     stroke-linecap="round"
     stroke-width="0.1504"
     stroke="currentColor"
     x1="12.234646"
     y1="1.7256198"
     x2="8.1192455"
     y2="1.7256198"
     id="line28" />
  <line
     stroke-linejoin="round"
     stroke-linecap="round"
     stroke-width="0.1504"
     stroke="currentColor"
     x1="1.9346458"
     y1="1.7256198"
     x2="6.2500458"
     y2="1.7256198"
     id="line30" />
  <text
     font-family="serif"
     font-style="italic"
     font-size="1.7465px"
     text-anchor="start"
     fill="currentColor"
     id="text34"
     x="6.6500459"
     y="2.2843199"><tspan
       id="tspan32">5</tspan></text>
  <polygon
     transform="translate(5.1175458,3.9656198)"
     stroke-linejoin="round"
     stroke-linecap="round"
     stroke-width="0.0727"
     fill="currentColor"
     stroke="currentColor"
     points="0.0364,0.2036 0.0364,-0.2036 4.8859,-0.2036 4.8859,0.2036 "
     id="polygon36" />
  <line
     stroke-linejoin="round"
     stroke-linecap="round"
     stroke-width="0.1504"
     stroke="currentColor"
     x1="24.234547"
     y1="1.6323198"
     x2="24.234547"
     y2="2.3323197"
     id="line38" />
  <line
     stroke-linejoin="round"
     stroke-linecap="round"
     stroke-width="0.1504"
     stroke="currentColor"
     x1="14.517546"
     y1="1.6323198"
     x2="14.517546"
     y2="2.3323197"
     id="line40" />
  <line
     stroke-linejoin="round"
     stroke-linecap="round"
     stroke-width="0.1504"
     stroke="currentColor"
     x1="24.234547"
     y1="1.6323198"
     x2="20.410646"
     y2="1.6323198"
     id="line42" />
  <line
     stroke-linejoin="round"
     stroke-linecap="round"
     stroke-width="0.1504"
     stroke="currentColor"
     x1="14.517546"
     y1="1.6323198"
     x2="18.541546"
     y2="1.6323198"
     id="line44" />
  <text
     font-family="serif"
     font-style="italic"
     font-size="1.7465px"
     text-anchor="start"
     fill="currentColor"
     id="text48"
     x="18.941545"
     y="2.1910198"><tspan
       id="tspan46">5</tspan></text>
  <line
     stroke-linejoin="round"
     stroke-linecap="round"
     stroke-width="0.1504"
     stroke="currentColor"
     x1="36.234646"
     y1="1.7256198"
     x2="36.234646"
     y2="2.4256198"
     id="line50" />
  <line
     stroke-linejoin="round"
     stroke-linecap="round"
     stroke-width="0.1504"
     stroke="currentColor"
     x1="25.934647"
     y1="1.7256198"
     x2="25.934647"
     y2="2.4256198"
     id="line52" />
  <line
     stroke-linejoin="round"
     stroke-linecap="round"
     stroke-width="0.1504"
     stroke="currentColor"
     x1="36.234646"
     y1="1.7256198"
     x2="32.119247"
     y2="1.7256198"
     id="line54" />
  <line
     stroke-linejoin="round"
     stroke-linecap="round"
     stroke-width="0.1504"
     stroke="currentColor"
     x1="25.934647"
     y1="1.7256198"
     x2="30.250046"
     y2="1.7256198"
     id="line56" />
  <text
     font-family="serif"
     font-style="italic"
     font-size="1.7465px"
     text-anchor="start"
     fill="currentColor"
     id="text60"
     x="30.650045"
     y="2.2843199"><tspan
       id="tspan58">5</tspan></text>
  <polygon
     transform="translate(29.117546,3.9656198)"
     stroke-linejoin="round"
     stroke-linecap="round"
     stroke-width="0.0727"
     fill="currentColor"
     stroke="currentColor"
     points="0.0364,0.2036 0.0364,-0.2036 4.8859,-0.2036 4.8859,0.2036 "
     id="polygon62" />
  <path
     d="m 33.614646,6.4256198 c 0.216,0 0.424,0.108 0.424,0.348 0,0.284 -0.224,0.48 -0.412,0.592 -0.144,0.084 -0.304,0.14 -0.468,0.14 -0.216,0 -0.424,-0.108 -0.424,-0.348 0,-0.284 0.224,-0.48 0.412,-0.592 0.144,-0.084 0.304,-0.14 0.468,-0.14 z"
     fill="currentColor"
     id="path64"
     style="stroke-width:0.004" />
  <rect
     x="29.117546"
     y="3.9656198"
     width="0.1222"
     height="2.8081"
     ry="0.036400001"
     fill="currentColor"
     id="rect66" />
  <path
     d="m 28.814646,6.4256198 c 0.216,0 0.424,0.108 0.424,0.348 0,0.284 -0.224,0.48 -0.412,0.592 -0.144,0.084 -0.304,0.14 -0.468,0.14 -0.216,0 -0.424,-0.108 -0.424,-0.348 0,-0.284 0.224,-0.48 0.412,-0.592 0.144,-0.084 0.304,-0.14 0.468,-0.14 z"
     fill="currentColor"
     id="path68"
     style="stroke-width:0.004" />
  <path
     d="m 25.810646,8.9656198 0.4,-1.308 c -0.14,0.048 -0.28,0.092 -0.428,0.092 -0.184,0 -0.348,-0.132 -0.348,-0.316 0,-0.156 0.124,-0.288 0.284,-0.288 0.1,0 0.196,0.064 0.228,0.16 0.04,0.112 0.024,0.236 0.14,0.236 0.068,0 0.224,-0.208 0.244,-0.276 l 0.184,-0.608 c -0.136,0.048 -0.276,0.092 -0.42,0.092 -0.184,0 -0.348,-0.132 -0.348,-0.316 0,-0.156 0.124,-0.288 0.284,-0.288 0.1,0 0.196,0.064 0.228,0.16 0.04,0.112 0.024,0.236 0.14,0.236 0.064,0 0.204,-0.208 0.232,-0.268 0.02,-0.044 0.088,-0.044 0.104,0 l -0.72,2.692 c -0.028,0.024 -0.068,0.036 -0.104,0.036 -0.036,0 -0.072,-0.012 -0.1,-0.036 z"
     fill="currentColor"
     id="path70"
     style="stroke-width:0.004" />
  <line
     stroke-linejoin="round"
     stroke-linecap="round"
     stroke-width="0.1504"
     stroke="currentColor"
     x1="49.734547"
     y1="1.6323198"
     x2="49.734547"
     y2="2.3323197"
     id="line72" />
  <line
     stroke-linejoin="round"
     stroke-linecap="round"
     stroke-width="0.1504"
     stroke="currentColor"
     x1="38.517548"
     y1="1.6323198"
     x2="38.517548"
     y2="2.3323197"
     id="line74" />
  <line
     stroke-linejoin="round"
     stroke-linecap="round"
     stroke-width="0.1504"
     stroke="currentColor"
     x1="49.734547"
     y1="1.6323198"
     x2="45.160645"
     y2="1.6323198"
     id="line76" />
  <line
     stroke-linejoin="round"
     stroke-linecap="round"
     stroke-width="0.1504"
     stroke="currentColor"
     x1="38.517548"
     y1="1.6323198"
     x2="43.291546"
     y2="1.6323198"
     id="line78" />
  <rect
     x="38.717545"
     y="3.6323197"
     width="0.1222"
     height="3.1415"
     ry="0.036400001"
     fill="currentColor"
     id="rect80" />
  <path
     d="m 38.414646,6.4256198 c 0.216,0 0.424,0.108 0.424,0.348 0,0.284 -0.224,0.48 -0.412,0.592 -0.144,0.084 -0.304,0.14 -0.468,0.14 -0.216,0 -0.424,-0.108 -0.424,-0.348 0,-0.284 0.224,-0.48 0.412,-0.592 0.144,-0.084 0.304,-0.14 0.468,-0.14 z"
     fill="currentColor"
     id="path82"
     style="stroke-width:0.004" />
  <text
     font-family="serif"
     font-style="italic"
     font-size="1.7465px"
     text-anchor="start"
     fill="currentColor"
     id="text86"
     x="43.691547"
     y="2.1910198"><tspan
       id="tspan84">5</tspan></text>
  <rect
     x="33.917545"
     y="3.9656198"
     width="0.1222"
     height="2.8081"
     ry="0.036400001"
     fill="currentColor"
     id="rect88" />
  <path
     d="m 1.8106458,8.9656198 0.4,-1.308 c -0.14,0.048 -0.28,0.092 -0.428,0.092 -0.184,0 -0.348,-0.132 -0.348,-0.316 0,-0.156 0.124,-0.288 0.284,-0.288 0.1,0 0.196,0.064 0.228,0.16 0.04,0.112 0.024,0.236 0.14,0.236 0.068,0 0.224,-0.208 0.244,-0.276 l 0.184,-0.608 c -0.136,0.048 -0.276,0.092 -0.42,0.092 -0.184,0 -0.348,-0.132 -0.348,-0.316 0,-0.156 0.124,-0.288 0.284,-0.288 0.1,0 0.196,0.064 0.228,0.16 0.04,0.112 0.024,0.236 0.14,0.236 0.064,0 0.204,-0.208 0.232,-0.268 0.02,-0.044 0.088,-0.044 0.104,0 l -0.72,2.692 c -0.028,0.024 -0.068,0.036 -0.104,0.036 -0.036,0 -0.072,-0.012 -0.1,-0.036 z"
     fill="currentColor"
     id="path90"
     style="stroke-width:0.004" />
  <path
     d="m 47.410646,8.9656198 0.4,-1.308 c -0.14,0.048 -0.28,0.092 -0.428,0.092 -0.184,0 -0.348,-0.132 -0.348,-0.316 0,-0.156 0.124,-0.288 0.284,-0.288 0.1,0 0.196,0.064 0.228,0.16 0.04,0.112 0.024,0.236 0.14,0.236 0.068,0 0.224,-0.208 0.244,-0.276 l 0.184,-0.608 c -0.136,0.048 -0.276,0.092 -0.42,0.092 -0.184,0 -0.348,-0.132 -0.348,-0.316 0,-0.156 0.124,-0.288 0.284,-0.288 0.1,0 0.196,0.064 0.228,0.16 0.04,0.112 0.024,0.236 0.14,0.236 0.064,0 0.204,-0.208 0.232,-0.268 0.02,-0.044 0.088,-0.044 0.104,0 l -0.72,2.692 c -0.028,0.024 -0.068,0.036 -0.104,0.036 -0.036,0 -0.072,-0.012 -0.1,-0.036 z"
     fill="currentColor"
     id="path92"
     style="stroke-width:0.004" />
</svg>
