<?xml version="1.0" encoding="UTF-8" standalone="no"?>
<svg
   version="1.2"
   width="107.47704mm"
   height="17.73444mm"
   viewBox="0 0 50.966945 8.4098923"
   id="svg166"
   sodipodi:docname="README-15.svg"
   xmlns:inkscape="http://www.inkscape.org/namespaces/inkscape"
   xmlns:sodipodi="http://sodipodi.sourceforge.net/DTD/sodipodi-0.dtd"
   xmlns="http://www.w3.org/2000/svg"
   xmlns:svg="http://www.w3.org/2000/svg">
  <defs
     id="defs170" />
  <sodipodi:namedview
     id="namedview168"
     pagecolor="#ffffff"
     bordercolor="#666666"
     borderopacity="1.0"
     inkscape:pageshadow="2"
     inkscape:pageopacity="0.0"
     inkscape:pagecheckerboard="0"
     inkscape:document-units="mm" />
  <style
     text="style/css"
     id="style2"><![CDATA[
tspan { white-space: pre; }
]]></style>
  <!-- Page: 1/1 -->
  <g
     color="#7f7f7f"
     id="g14"
     transform="translate(-12.045,-3.3529584)">
    <line
       transform="translate(12.045,9.4989)"
       stroke-linejoin="round"
       stroke-linecap="round"
       stroke-width="0.089"
       stroke="currentColor"
       x1="0.044500001"
       y1="0"
       x2="50.8204"
       y2="0"
       id="line4" />
    <line
       transform="translate(12.045,8.4989)"
       stroke-linejoin="round"
       stroke-linecap="round"
       stroke-width="0.089"
       stroke="currentColor"
       x1="0.044500001"
       y1="0"
       x2="50.8204"
       y2="0"
       id="line6" />
    <line
       transform="translate(12.045,7.4989)"
       stroke-linejoin="round"
       stroke-linecap="round"
       stroke-width="0.089"
       stroke="currentColor"
       x1="0.044500001"
       y1="0"
       x2="50.8204"
       y2="0"
       id="line8" />
    <line
       transform="translate(12.045,6.4989)"
       stroke-linejoin="round"
       stroke-linecap="round"
       stroke-width="0.089"
       stroke="currentColor"
       x1="0.044500001"
       y1="0"
       x2="50.8204"
       y2="0"
       id="line10" />
    <line
       transform="translate(12.045,5.4989)"
       stroke-linejoin="round"
       stroke-linecap="round"
       stroke-width="0.089"
       stroke="currentColor"
       x1="0.044500001"
       y1="0"
       x2="50.8204"
       y2="0"
       id="line12" />
  </g>
  <rect
     x="46.9384"
     y="7.0514417"
     width="1.9586999"
     height="0.189"
     ry="0.094499998"
     fill="currentColor"
     id="rect16" />
  <rect
     x="40.9384"
     y="7.0514417"
     width="1.9586999"
     height="0.189"
     ry="0.094499998"
     fill="currentColor"
     id="rect18" />
  <rect
     x="34.4384"
     y="7.0514417"
     width="1.9586999"
     height="0.189"
     ry="0.094499998"
     fill="currentColor"
     id="rect20" />
  <rect
     x="29.638399"
     y="7.0514417"
     width="1.9586999"
     height="0.189"
     ry="0.094499998"
     fill="currentColor"
     id="rect22" />
  <rect
     x="26.7384"
     y="7.0514417"
     width="1.9586999"
     height="0.189"
     ry="0.094499998"
     fill="currentColor"
     id="rect24" />
  <rect
     x="20.7384"
     y="7.0514417"
     width="1.9586999"
     height="0.189"
     ry="0.094499998"
     fill="currentColor"
     id="rect26" />
  <rect
     x="14.2384"
     y="7.0514417"
     width="1.9586999"
     height="0.189"
     ry="0.094499998"
     fill="currentColor"
     id="rect28" />
  <rect
     x="8.2384005"
     y="7.0514417"
     width="1.9586999"
     height="0.189"
     ry="0.094499998"
     fill="currentColor"
     id="rect30" />
  <rect
     x="50.695702"
     y="2.1014414"
     width="0.1692"
     height="4.0890002"
     ry="0.0000"
     fill="currentColor"
     id="rect32" />
  <path
     d="m 35.6529,6.6059416 c 0.212,0 0.416,0.108 0.416,0.344 0,0.284 -0.224,0.48 -0.412,0.592 -0.144,0.088 -0.304,0.144 -0.472,0.144 -0.212,0 -0.42,-0.108 -0.42,-0.344 0,-0.284 0.228,-0.48 0.416,-0.592 0.144,-0.088 0.304,-0.144 0.472,-0.144 z"
     fill="currentColor"
     id="path34"
     style="stroke-width:0.004" />
  <rect
     x="35.954899"
     y="3.3514416"
     width="0.1158"
     height="3.5978"
     ry="0.033300001"
     fill="currentColor"
     id="rect36" />
  <path
     d="m 39.2529,6.1059416 c 0.212,0 0.416,0.108 0.416,0.344 0,0.284 -0.224,0.48 -0.412,0.592 -0.144,0.088 -0.304,0.144 -0.472,0.144 -0.212,0 -0.42,-0.108 -0.42,-0.344 0,-0.284 0.228,-0.48 0.416,-0.592 0.144,-0.088 0.304,-0.144 0.472,-0.144 z"
     fill="currentColor"
     id="path38"
     style="stroke-width:0.004" />
  <rect
     x="39.554901"
     y="3.3514416"
     width="0.1158"
     height="3.0978"
     ry="0.033300001"
     fill="currentColor"
     id="rect40" />
  <rect
     x="33.554901"
     y="3.3514416"
     width="0.1158"
     height="3.0978"
     ry="0.033300001"
     fill="currentColor"
     id="rect42" />
  <path
     d="m 33.2529,6.1059416 c 0.212,0 0.416,0.108 0.416,0.344 0,0.284 -0.224,0.48 -0.412,0.592 -0.144,0.088 -0.304,0.144 -0.472,0.144 -0.212,0 -0.42,-0.108 -0.42,-0.344 0,-0.284 0.228,-0.48 0.416,-0.592 0.144,-0.088 0.304,-0.144 0.472,-0.144 z"
     fill="currentColor"
     id="path44"
     style="stroke-width:0.004" />
  <rect
     x="31.1549"
     y="3.3514416"
     width="0.1158"
     height="3.5978"
     ry="0.033300001"
     fill="currentColor"
     id="rect46" />
  <path
     d="m 30.8529,6.6059416 c 0.212,0 0.416,0.108 0.416,0.344 0,0.284 -0.224,0.48 -0.412,0.592 -0.144,0.088 -0.304,0.144 -0.472,0.144 -0.212,0 -0.42,-0.108 -0.42,-0.344 0,-0.284 0.228,-0.48 0.416,-0.592 0.144,-0.088 0.304,-0.144 0.472,-0.144 z"
     fill="currentColor"
     id="path48"
     style="stroke-width:0.004" />
  <polygon
     transform="translate(9.7549,3.9404416)"
     stroke-linejoin="round"
     stroke-linecap="round"
     stroke-width="0.0667"
     fill="currentColor"
     stroke="currentColor"
     points="0.0333,0.2167 0.0333,-0.2167 6.0824,-0.2167 6.0824,0.2167 "
     id="polygon50" />
  <polygon
     transform="translate(13.3549,4.7349416)"
     stroke-linejoin="round"
     stroke-linecap="round"
     stroke-width="0.0667"
     fill="currentColor"
     stroke="currentColor"
     points="0.0333,0.2167 0.0333,-0.2167 1.1245,-0.2167 1.1245,0.2167 "
     id="polygon52" />
  <line
     stroke-linejoin="round"
     stroke-linecap="round"
     stroke-width="0.1425"
     stroke="currentColor"
     x1="17.364901"
     y1="0.60134161"
     x2="17.364901"
     y2="1.3013415"
     id="line54" />
  <line
     stroke-linejoin="round"
     stroke-linecap="round"
     stroke-width="0.1425"
     stroke="currentColor"
     x1="9.5549002"
     y1="0.60134161"
     x2="9.5549002"
     y2="1.3013415"
     id="line56" />
  <line
     stroke-linejoin="round"
     stroke-linecap="round"
     stroke-width="0.1425"
     stroke="currentColor"
     x1="17.364901"
     y1="0.60134161"
     x2="14.5009"
     y2="0.60134161"
     id="line58" />
  <line
     stroke-linejoin="round"
     stroke-linecap="round"
     stroke-width="0.1425"
     stroke="currentColor"
     x1="9.5549002"
     y1="0.60134161"
     x2="12.6189"
     y2="0.60134161"
     id="line60" />
  <text
     font-family="serif"
     font-style="italic"
     font-size="1.7463px"
     text-anchor="start"
     fill="currentColor"
     id="text64"
     x="13.0189"
     y="1.1562415"><tspan
       id="tspan62">5</tspan></text>
  <polygon
     transform="translate(19.8549,3.3513416)"
     stroke-linejoin="round"
     stroke-linecap="round"
     stroke-width="0.0667"
     fill="currentColor"
     stroke="currentColor"
     points="0.0333,0.2167 0.0333,-0.2167 8.4824,-0.2167 8.4824,0.2167 "
     id="polygon66" />
  <polygon
     transform="translate(25.8549,4.1459416)"
     stroke-linejoin="round"
     stroke-linecap="round"
     stroke-width="0.0667"
     fill="currentColor"
     stroke="currentColor"
     points="0.0333,0.2167 0.0333,-0.2167 2.4824,-0.2167 2.4824,0.2167 "
     id="polygon68" />
  <polygon
     transform="translate(19.8549,4.1459416)"
     stroke-linejoin="round"
     stroke-linecap="round"
     stroke-width="0.0667"
     fill="currentColor"
     stroke="currentColor"
     points="0.0333,0.2167 0.0333,-0.2167 1.1245,-0.2167 1.1245,0.2167 "
     id="polygon70" />
  <line
     stroke-linejoin="round"
     stroke-linecap="round"
     stroke-width="0.1425"
     stroke="currentColor"
     x1="28.6649"
     y1="0.60134161"
     x2="28.6649"
     y2="1.3013415"
     id="line72" />
  <line
     stroke-linejoin="round"
     stroke-linecap="round"
     stroke-width="0.1425"
     stroke="currentColor"
     x1="19.6549"
     y1="0.60134161"
     x2="19.6549"
     y2="1.3013415"
     id="line74" />
  <line
     stroke-linejoin="round"
     stroke-linecap="round"
     stroke-width="0.1425"
     stroke="currentColor"
     x1="28.6649"
     y1="0.60134161"
     x2="25.200901"
     y2="0.60134161"
     id="line76" />
  <line
     stroke-linejoin="round"
     stroke-linecap="round"
     stroke-width="0.1425"
     stroke="currentColor"
     x1="19.6549"
     y1="0.60134161"
     x2="23.318899"
     y2="0.60134161"
     id="line78" />
  <text
     font-family="serif"
     font-style="italic"
     font-size="1.7463px"
     text-anchor="start"
     fill="currentColor"
     id="text82"
     x="23.718901"
     y="1.1562415"><tspan
       id="tspan80">5</tspan></text>
  <path
     stroke-width="0.0712"
     stroke-linejoin="round"
     stroke-linecap="round"
     stroke="currentColor"
     fill="currentColor"
     d="m 27.9178,7.8959416 c 0.5747,0.6378 1.9253,0.6378 2.5,0 v 0 c -0.5747,0.531 -1.9253,0.531 -2.5,0 z"
     id="path84" />
  <polygon
     transform="translate(31.1549,3.3513416)"
     stroke-linejoin="round"
     stroke-linecap="round"
     stroke-width="0.0667"
     fill="currentColor"
     stroke="currentColor"
     points="0.0333,0.2167 0.0333,-0.2167 8.4824,-0.2167 8.4824,0.2167 "
     id="polygon86" />
  <polygon
     transform="translate(38.5128,4.1459416)"
     stroke-linejoin="round"
     stroke-linecap="round"
     stroke-width="0.0667"
     fill="currentColor"
     stroke="currentColor"
     points="0.0333,0.2167 0.0333,-0.2167 1.1245,-0.2167 1.1245,0.2167 "
     id="polygon88" />
  <polygon
     transform="translate(31.1549,4.1459416)"
     stroke-linejoin="round"
     stroke-linecap="round"
     stroke-width="0.0667"
     fill="currentColor"
     stroke="currentColor"
     points="0.0333,0.2167 0.0333,-0.2167 2.4824,-0.2167 2.4824,0.2167 "
     id="polygon90" />
  <line
     stroke-linejoin="round"
     stroke-linecap="round"
     stroke-width="0.1425"
     stroke="currentColor"
     x1="39.964901"
     y1="0.60134161"
     x2="39.964901"
     y2="1.3013415"
     id="line92" />
  <line
     stroke-linejoin="round"
     stroke-linecap="round"
     stroke-width="0.1425"
     stroke="currentColor"
     x1="30.954901"
     y1="0.60134161"
     x2="30.954901"
     y2="1.3013415"
     id="line94" />
  <line
     stroke-linejoin="round"
     stroke-linecap="round"
     stroke-width="0.1425"
     stroke="currentColor"
     x1="39.964901"
     y1="0.60134161"
     x2="36.5009"
     y2="0.60134161"
     id="line96" />
  <line
     stroke-linejoin="round"
     stroke-linecap="round"
     stroke-width="0.1425"
     stroke="currentColor"
     x1="30.954901"
     y1="0.60134161"
     x2="34.6189"
     y2="0.60134161"
     id="line98" />
  <text
     font-family="serif"
     font-style="italic"
     font-size="1.7463px"
     text-anchor="start"
     fill="currentColor"
     id="text102"
     x="35.018902"
     y="1.1562415"><tspan
       id="tspan100">5</tspan></text>
  <polygon
     transform="translate(42.4549,3.9404416)"
     stroke-linejoin="round"
     stroke-linecap="round"
     stroke-width="0.0667"
     fill="currentColor"
     stroke="currentColor"
     points="0.0333,0.2167 0.0333,-0.2167 6.0824,-0.2167 6.0824,0.2167 "
     id="polygon104" />
  <polygon
     transform="translate(46.0549,4.7349416)"
     stroke-linejoin="round"
     stroke-linecap="round"
     stroke-width="0.0667"
     fill="currentColor"
     stroke="currentColor"
     points="0.0333,0.2167 0.0333,-0.2167 1.1245,-0.2167 1.1245,0.2167 "
     id="polygon106" />
  <path
     d="m 42.1529,6.6059416 c 0.212,0 0.416,0.108 0.416,0.344 0,0.284 -0.224,0.48 -0.412,0.592 -0.144,0.088 -0.304,0.144 -0.472,0.144 -0.212,0 -0.42,-0.108 -0.42,-0.344 0,-0.284 0.228,-0.48 0.416,-0.592 0.144,-0.088 0.304,-0.144 0.472,-0.144 z"
     fill="currentColor"
     id="path108"
     style="stroke-width:0.004" />
  <rect
     x="48.454899"
     y="3.9404416"
     width="0.1158"
     height="3.0086999"
     ry="0.033300001"
     fill="currentColor"
     id="rect110" />
  <path
     d="m 48.1529,6.6059416 c 0.212,0 0.416,0.108 0.416,0.344 0,0.284 -0.224,0.48 -0.412,0.592 -0.144,0.088 -0.304,0.144 -0.472,0.144 -0.212,0 -0.42,-0.108 -0.42,-0.344 0,-0.284 0.228,-0.48 0.416,-0.592 0.144,-0.088 0.304,-0.144 0.472,-0.144 z"
     fill="currentColor"
     id="path112"
     style="stroke-width:0.004" />
  <rect
     x="46.054901"
     y="3.9404416"
     width="0.1158"
     height="2.5086999"
     ry="0.033300001"
     fill="currentColor"
     id="rect114" />
  <path
     d="m 45.7529,6.1059416 c 0.212,0 0.416,0.108 0.416,0.344 0,0.284 -0.224,0.48 -0.412,0.592 -0.144,0.088 -0.304,0.144 -0.472,0.144 -0.212,0 -0.42,-0.108 -0.42,-0.344 0,-0.284 0.228,-0.48 0.416,-0.592 0.144,-0.088 0.304,-0.144 0.472,-0.144 z"
     fill="currentColor"
     id="path116"
     style="stroke-width:0.004" />
  <rect
     x="42.454899"
     y="3.9404416"
     width="0.1158"
     height="3.0086999"
     ry="0.033300001"
     fill="currentColor"
     id="rect118" />
  <path
     d="m 21.9529,6.6059416 c 0.212,0 0.416,0.108 0.416,0.344 0,0.284 -0.224,0.48 -0.412,0.592 -0.144,0.088 -0.304,0.144 -0.472,0.144 -0.212,0 -0.42,-0.108 -0.42,-0.344 0,-0.284 0.228,-0.48 0.416,-0.592 0.144,-0.088 0.304,-0.144 0.472,-0.144 z"
     fill="currentColor"
     id="path120"
     style="stroke-width:0.004" />
  <path
     d="m 2.296,4.1059416 c 0.02,0 0.04,-0.004 0.06,-0.004 0.616,0 1.016,0.508 1.016,1.036 0,0.304 -0.132,0.612 -0.428,0.832 -0.088,0.068 -0.188,0.116 -0.292,0.148 0.012,0.144 0.02,0.288 0.02,0.432 0,0.076 0,0.148 -0.004,0.224 -0.028,0.48 -0.352,0.904 -0.824,0.904 -0.432,0 -0.78,-0.348 -0.78,-0.78 0,-0.232 0.212,-0.416 0.448,-0.416 0.216,0 0.38,0.192 0.38,0.416 0,0.208 -0.172,0.38 -0.38,0.38 -0.048,0 -0.096,-0.016 -0.14,-0.036 0.104,0.164 0.28,0.28 0.484,0.28 0.004,0 0.008,-0.004 0.012,-0.004 0.372,-0.008 0.616,-0.372 0.64,-0.768 0.004,-0.072 0.008,-0.14 0.008,-0.212 0,-0.128 -0.008,-0.256 -0.02,-0.384 -0.116,0.02 -0.232,0.032 -0.356,0.032 -0.752,0 -1.332,-0.684 -1.332,-1.488 0,-0.712 0.532,-1.224 1.004,-1.76 -0.072,-0.252 -0.14,-0.504 -0.168,-0.764 -0.024,-0.204 -0.028,-0.408 -0.028,-0.616 0,-0.464 0.22,-0.90400001 0.6,-1.18000001 0.02,-0.016 0.044,-0.016 0.064,0 0.28,0.336 0.528,0.98400001 0.528,1.43600001 0,0.576 -0.348,1.024 -0.732,1.46 0.08,0.276 0.156,0.552 0.22,0.832 z m 0.34,1.86 c 0.276,-0.096 0.468,-0.384 0.468,-0.664 0,-0.368 -0.276,-0.736 -0.716,-0.772 0.1,0.468 0.192,0.94 0.248,1.436 z m -1.552,-0.944 c 0,0.544 0.524,1.004 1.068,1.004 0.112,0 0.22,-0.008 0.328,-0.024 -0.06,-0.512 -0.152,-0.988 -0.256,-1.468 -0.316,0.036 -0.5,0.248 -0.5,0.484 0,0.176 0.104,0.368 0.328,0.496 0.016,0.016 0.028,0.036 0.028,0.056 0,0.044 -0.036,0.084 -0.08,0.084 -0.012,0 -0.024,-0.004 -0.036,-0.008 -0.32,-0.172 -0.464,-0.456 -0.464,-0.736 0,-0.352 0.228,-0.692 0.632,-0.784 -0.056,-0.24 -0.12,-0.476 -0.184,-0.712 -0.432,0.484 -0.864,0.968 -0.864,1.608 z M 2.444,0.94594159 C 2.048,1.1459416 1.8,1.5499416 1.8,1.9939416 c 0,0.304 0.06,0.548 0.132,0.8 0.328,-0.388 0.596,-0.792 0.596,-1.3 0,-0.232 -0.016,-0.336 -0.084,-0.54800001 z"
     fill="currentColor"
     id="path122"
     style="stroke-width:0.004" />
  <rect
     x="19.8549"
     y="3.3514416"
     width="0.1158"
     height="3.0978"
     ry="0.033300001"
     fill="currentColor"
     id="rect124" />
  <path
     d="m 19.5529,6.1059416 c 0.212,0 0.416,0.108 0.416,0.344 0,0.284 -0.224,0.48 -0.412,0.592 -0.144,0.088 -0.304,0.144 -0.472,0.144 -0.212,0 -0.42,-0.108 -0.42,-0.344 0,-0.284 0.228,-0.48 0.416,-0.592 0.144,-0.088 0.304,-0.144 0.472,-0.144 z"
     fill="currentColor"
     id="path126"
     style="stroke-width:0.004" />
  <rect
     x="15.7549"
     y="3.9404416"
     width="0.1158"
     height="3.0086999"
     ry="0.033300001"
     fill="currentColor"
     id="rect128" />
  <path
     d="m 15.4529,6.6059416 c 0.212,0 0.416,0.108 0.416,0.344 0,0.284 -0.224,0.48 -0.412,0.592 -0.144,0.088 -0.304,0.144 -0.472,0.144 -0.212,0 -0.42,-0.108 -0.42,-0.344 0,-0.284 0.228,-0.48 0.416,-0.592 0.144,-0.088 0.304,-0.144 0.472,-0.144 z"
     fill="currentColor"
     id="path130"
     style="stroke-width:0.004" />
  <path
     d="m 9.4529,6.6059416 c 0.212,0 0.416,0.108 0.416,0.344 0,0.284 -0.224,0.48 -0.412,0.592 -0.144,0.088 -0.304,0.144 -0.472,0.144 -0.212,0 -0.42,-0.108 -0.42,-0.344 0,-0.284 0.228,-0.48 0.416,-0.592 0.144,-0.088 0.304,-0.144 0.472,-0.144 z"
     fill="currentColor"
     id="path132"
     style="stroke-width:0.004" />
  <path
     d="m 27.9529,6.6059416 c 0.212,0 0.416,0.108 0.416,0.344 0,0.284 -0.224,0.48 -0.412,0.592 -0.144,0.088 -0.304,0.144 -0.472,0.144 -0.212,0 -0.42,-0.108 -0.42,-0.344 0,-0.284 0.228,-0.48 0.416,-0.592 0.144,-0.088 0.304,-0.144 0.472,-0.144 z"
     fill="currentColor"
     id="path134"
     style="stroke-width:0.004" />
  <rect
     x="13.3549"
     y="3.9404416"
     width="0.1158"
     height="2.5086999"
     ry="0.033300001"
     fill="currentColor"
     id="rect136" />
  <path
     d="m 13.0529,6.1059416 c 0.212,0 0.416,0.108 0.416,0.344 0,0.284 -0.224,0.48 -0.412,0.592 -0.144,0.088 -0.304,0.144 -0.472,0.144 -0.212,0 -0.42,-0.108 -0.42,-0.344 0,-0.284 0.228,-0.48 0.416,-0.592 0.144,-0.088 0.304,-0.144 0.472,-0.144 z"
     fill="currentColor"
     id="path138"
     style="stroke-width:0.004" />
  <text
     font-family="serif"
     font-style="italic"
     font-size="1.7463px"
     text-anchor="start"
     fill="currentColor"
     id="text142"
     x="46.1343"
     y="1.1562415"><tspan
       id="tspan140">5</tspan></text>
  <line
     stroke-linejoin="round"
     stroke-linecap="round"
     stroke-width="0.1425"
     stroke="currentColor"
     x1="50.895699"
     y1="0.60134161"
     x2="50.895699"
     y2="1.3013415"
     id="line144" />
  <line
     stroke-linejoin="round"
     stroke-linecap="round"
     stroke-width="0.1425"
     stroke="currentColor"
     x1="42.254902"
     y1="0.60134161"
     x2="42.254902"
     y2="1.3013415"
     id="line146" />
  <line
     stroke-linejoin="round"
     stroke-linecap="round"
     stroke-width="0.1425"
     stroke="currentColor"
     x1="50.895699"
     y1="0.60134161"
     x2="47.616299"
     y2="0.60134161"
     id="line148" />
  <line
     stroke-linejoin="round"
     stroke-linecap="round"
     stroke-width="0.1425"
     stroke="currentColor"
     x1="42.254902"
     y1="0.60134161"
     x2="45.734299"
     y2="0.60134161"
     id="line150" />
  <path
     d="m 25.5529,6.1059416 c 0.212,0 0.416,0.108 0.416,0.344 0,0.284 -0.224,0.48 -0.412,0.592 -0.144,0.088 -0.304,0.144 -0.472,0.144 -0.212,0 -0.42,-0.108 -0.42,-0.344 0,-0.284 0.228,-0.48 0.416,-0.592 0.144,-0.088 0.304,-0.144 0.472,-0.144 z"
     fill="currentColor"
     id="path152"
     style="stroke-width:0.004" />
  <rect
     x="25.8549"
     y="3.3514416"
     width="0.1158"
     height="3.0978"
     ry="0.033300001"
     fill="currentColor"
     id="rect154" />
  <rect
     x="9.7549"
     y="3.9404416"
     width="0.1158"
     height="3.0086999"
     ry="0.033300001"
     fill="currentColor"
     id="rect156" />
  <rect
     x="28.2549"
     y="3.3514416"
     width="0.1158"
     height="3.5978"
     ry="0.033300001"
     fill="currentColor"
     id="rect158" />
  <rect
     x="22.2549"
     y="3.3514416"
     width="0.1158"
     height="3.5978"
     ry="0.033300001"
     fill="currentColor"
     id="rect160" />
  <path
     d="m 5.832,2.8699416 c 0.084,-0.052 0.168,-0.108 0.228,-0.188 0.044,-0.06 0.072,-0.128 0.1,-0.196 0.016,-0.036 0.08,-0.028 0.08,0.028 v 1.024 h 0.272 c 0.036,0 0.052,0.028 0.052,0.056 0,0.028 -0.016,0.052 -0.052,0.052 H 6.24 v 0.064 c 0,0.18 0.104,0.352 0.272,0.352 0.028,0 0.04,0.02 0.04,0.04 0,0.02 -0.012,0.044 -0.04,0.044 -0.164,0 -0.328,-0.052 -0.492,-0.052 -0.164,0 -0.328,0.052 -0.492,0.052 -0.028,0 -0.04,-0.024 -0.04,-0.044 0,-0.02 0.012,-0.04 0.04,-0.04 0.168,0 0.272,-0.172 0.272,-0.352 v -0.064 H 5.108 c -0.084,0 -0.116,-0.052 -0.116,-0.084 0,-0.008 0.004,-0.02 0.008,-0.024 0.324,-0.384 0.584,-0.832 0.584,-1.332 0,-0.04 0.028,-0.072 0.06,-0.06 0.088,0.028 0.176,0.052 0.268,0.052 0.092,0 0.18,-0.024 0.268,-0.052 0.048,-0.016 0.084,0.032 0.06,0.06 l -1.132,1.332 H 5.8 v -0.588 c 0,-0.032 0.008,-0.064 0.032,-0.08 z"
     fill="currentColor"
     id="path162"
     style="stroke-width:0.004" />
  <path
     d="m 5.832,4.8900416 c 0.084,-0.052 0.168,-0.108 0.228,-0.188 0.044,-0.06 0.072,-0.128 0.1,-0.196 0.016,-0.036 0.08,-0.028 0.08,0.028 v 1.024 h 0.272 c 0.036,0 0.052,0.028 0.052,0.056 0,0.028 -0.016,0.052 -0.052,0.052 H 6.24 v 0.064 c 0,0.18 0.104,0.352 0.272,0.352 0.028,0 0.04,0.02 0.04,0.04 0,0.02 -0.012,0.044 -0.04,0.044 -0.164,0 -0.328,-0.052 -0.492,-0.052 -0.164,0 -0.328,0.052 -0.492,0.052 -0.028,0 -0.04,-0.024 -0.04,-0.044 0,-0.02 0.012,-0.04 0.04,-0.04 0.168,0 0.272,-0.172 0.272,-0.352 v -0.064 H 5.108 c -0.084,0 -0.116,-0.052 -0.116,-0.084 0,-0.008 0.004,-0.02 0.008,-0.024 0.324,-0.384 0.584,-0.832 0.584,-1.332 0,-0.04 0.028,-0.072 0.06,-0.06 0.088,0.028 0.176,0.052 0.268,0.052 0.092,0 0.18,-0.024 0.268,-0.052 0.048,-0.016 0.084,0.032 0.06,0.06 l -1.132,1.332 H 5.8 v -0.588 c 0,-0.032 0.008,-0.064 0.032,-0.08 z"
     fill="currentColor"
     id="path164"
     style="stroke-width:0.004" />
</svg>
