<?xml version="1.0" encoding="UTF-8" standalone="no"?>
<svg
   version="1.2"
   width="35.148262mm"
   height="20.040068mm"
   viewBox="0 0 18.182999 10.367186"
   id="svg52"
   sodipodi:docname="README-5.svg"
   xmlns:inkscape="http://www.inkscape.org/namespaces/inkscape"
   xmlns:sodipodi="http://sodipodi.sourceforge.net/DTD/sodipodi-0.dtd"
   xmlns="http://www.w3.org/2000/svg"
   xmlns:svg="http://www.w3.org/2000/svg">
  <defs
     id="defs56" />
  <sodipodi:namedview
     id="namedview54"
     pagecolor="#ffffff"
     bordercolor="#666666"
     borderopacity="1.0"
     inkscape:pageshadow="2"
     inkscape:pageopacity="0.0"
     inkscape:pagecheckerboard="0"
     inkscape:document-units="mm" />
  <style
     text="style/css"
     id="style2"><![CDATA[
tspan { white-space: pre; }
]]></style>
  <!-- Page: 1/1 -->
  <g
     color="#7f7f7f"
     id="g14"
     transform="translate(-13.14,-3.5764144)">
    <line
       transform="translate(13.14,9.3546)"
       stroke-linejoin="round"
       stroke-linecap="round"
       stroke-width="0.094"
       stroke="currentColor"
       x1="0.046999998"
       y1="0"
       x2="18.136"
       y2="0"
       id="line4" />
    <line
       transform="translate(13.14,8.3546)"
       stroke-linejoin="round"
       stroke-linecap="round"
       stroke-width="0.094"
       stroke="currentColor"
       x1="0.046999998"
       y1="0"
       x2="18.136"
       y2="0"
       id="line6" />
    <line
       transform="translate(13.14,7.3546)"
       stroke-linejoin="round"
       stroke-linecap="round"
       stroke-width="0.094"
       stroke="currentColor"
       x1="0.046999998"
       y1="0"
       x2="18.136"
       y2="0"
       id="line8" />
    <line
       transform="translate(13.14,6.3546)"
       stroke-linejoin="round"
       stroke-linecap="round"
       stroke-width="0.094"
       stroke="currentColor"
       x1="0.046999998"
       y1="0"
       x2="18.136"
       y2="0"
       id="line10" />
    <line
       transform="translate(13.14,5.3546)"
       stroke-linejoin="round"
       stroke-linecap="round"
       stroke-width="0.094"
       stroke="currentColor"
       x1="0.046999998"
       y1="0"
       x2="18.136"
       y2="0"
       id="line12" />
  </g>
  <rect
     x="8.2566996"
     y="6.6811857"
     width="1.9578"
     height="0.19400001"
     ry="0.097000003"
     fill="currentColor"
     id="rect16" />
  <path
     d="m 16.663,4.7381856 c 0.216,0 0.424,0.108 0.424,0.348 0,0.284 -0.224,0.48 -0.412,0.592 -0.144,0.084 -0.304,0.14 -0.468,0.14 -0.216,0 -0.424,-0.108 -0.424,-0.348 0,-0.284 0.224,-0.48 0.412,-0.592 0.144,-0.084 0.304,-0.14 0.468,-0.14 z"
     fill="currentColor"
     id="path18"
     style="stroke-width:0.004" />
  <line
     stroke-linejoin="round"
     stroke-linecap="round"
     stroke-width="0.094"
     stroke="currentColor"
     x1="10.965"
     y1="9.0831852"
     x2="14.7993"
     y2="9.7497854"
     id="line20" />
  <line
     stroke-linejoin="round"
     stroke-linecap="round"
     stroke-width="0.094"
     stroke="currentColor"
     x1="10.965"
     y1="9.0831852"
     x2="14.7993"
     y2="8.4165859"
     id="line22" />
  <path
     d="m 16.8113,8.6911856 -0.2,0.656 c -0.12,0.396 -0.484,1.0200004 -0.872,1.0200004 -0.18,0 -0.348,-0.1 -0.348,-0.264 0,-0.1560004 0.068,-0.3120004 0.208,-0.3120004 0.096,0 0.176,0.08 0.176,0.176 0,0.1200004 -0.152,0.1000004 -0.152,0.2200004 0,0.04 0.044,0.044 0.092,0.044 h 0.024 c 0.196,0 0.24,-0.2400004 0.292,-0.4440004 l 0.276,-1.096 h -0.204 c -0.04,0 -0.072,-0.032 -0.072,-0.072 0,-0.04 0.032,-0.072 0.072,-0.072 h 0.24 c 0.124,-0.384 0.476,-0.768 0.856,-0.768 0.18,0 0.348,0.1 0.348,0.264 0,0.156 -0.068,0.312 -0.208,0.312 -0.096,0 -0.176,-0.08 -0.176,-0.176 0,-0.12 0.152,-0.1 0.152,-0.22 0,-0.04 -0.04,-0.04 -0.088,-0.04 h -0.028 c -0.252,0 -0.28,0.36 -0.344,0.628 h 0.224 c 0.04,0 0.072,0.032 0.072,0.072 0,0.04 -0.032,0.072 -0.072,0.072 z"
     fill="currentColor"
     id="path24"
     style="stroke-width:0.004" />
  <rect
     x="16.966"
     y="2.5835855"
     width="0.1222"
     height="2.5028"
     ry="0.036400001"
     fill="currentColor"
     id="rect26" />
  <path
     d="m 11.863,5.7381856 c 0.216,0 0.424,0.108 0.424,0.348 0,0.284 -0.224,0.48 -0.412,0.592 -0.144,0.084 -0.304,0.14 -0.468,0.14 -0.216,0 -0.424,-0.108 -0.424,-0.348 0,-0.284 0.224,-0.48 0.412,-0.592 0.144,-0.084 0.304,-0.14 0.468,-0.14 z"
     fill="currentColor"
     id="path28"
     style="stroke-width:0.004" />
  <rect
     x="12.166"
     y="3.2390857"
     width="0.1222"
     height="2.8471999"
     ry="0.036400001"
     fill="currentColor"
     id="rect30" />
  <path
     d="m 14.263,5.2381856 c 0.216,0 0.424,0.108 0.424,0.348 0,0.284 -0.224,0.48 -0.412,0.592 -0.144,0.084 -0.304,0.14 -0.468,0.14 -0.216,0 -0.424,-0.108 -0.424,-0.348 0,-0.284 0.224,-0.48 0.412,-0.592 0.144,-0.084 0.304,-0.14 0.468,-0.14 z"
     fill="currentColor"
     id="path32"
     style="stroke-width:0.004" />
  <rect
     x="14.566"
     y="2.9112856"
     width="0.1222"
     height="2.675"
     ry="0.036400001"
     fill="currentColor"
     id="rect34" />
  <polygon
     transform="translate(9.766,3.5751856)"
     stroke-linejoin="round"
     stroke-linecap="round"
     stroke-width="0.0727"
     fill="currentColor"
     stroke="currentColor"
     points="0.0364,0.2136 0.0364,-0.2136 7.2859,-1.2136 7.2859,-0.7864 "
     id="polygon36" />
  <path
     stroke-width="0.0752"
     stroke-linejoin="round"
     stroke-linecap="round"
     stroke="currentColor"
     fill="currentColor"
     d="m 9.3243,7.8199856 c 1.72,0.9545 6.0043,0.0619 7.2,-1.5 v 0 c -1.2187,1.4515 -5.503,2.344 -7.2,1.5 z"
     id="path38" />
  <path
     d="m 9.463,6.2381856 c 0.216,0 0.424,0.108 0.424,0.348 0,0.284 -0.224,0.48 -0.412,0.592 -0.144,0.084 -0.304,0.14 -0.468,0.14 -0.216,0 -0.424,-0.108 -0.424,-0.348 0,-0.284 0.224,-0.48 0.412,-0.592 0.144,-0.084 0.304,-0.14 0.468,-0.14 z"
     fill="currentColor"
     id="path40"
     style="stroke-width:0.004" />
  <path
     d="m 9.4382,8.7111856 c -0.22,0 -0.408,0.424 -0.408,0.688 0,0.092 0.032,0.156 0.12,0.156 0.256,0 0.388,-0.504 0.388,-0.712 0,-0.072 -0.028,-0.132 -0.1,-0.132 z m -0.484,1.5560004 c -0.152,0 -0.308,-0.02 -0.464,-0.02 -0.156,0 -0.32,0.02 -0.468,0.02 -0.032,0 -0.048,-0.028 -0.048,-0.052 0,-0.068 0.124,-0.056 0.188,-0.06 0.088,-0.004 0.188,-0.012 0.216,-0.092 l 0.412,-1.2160004 c 0.008,-0.024 0.016,-0.052 0.016,-0.076 0,-0.036 -0.012,-0.06 -0.048,-0.06 -0.136,0 -0.26,0.24 -0.324,0.388 -0.02,0.044 -0.06,0.064 -0.092,0.064 -0.028,0 -0.052,-0.016 -0.052,-0.044 0,-0.008 0.004,-0.02 0.008,-0.032 0.12,-0.272 0.288,-0.572 0.528,-0.572 0.144,0 0.24,0.084 0.268,0.208 0.116,-0.124 0.268,-0.208 0.412,-0.208 0.276,0 0.428,0.196 0.428,0.456 0,0.084 -0.016,0.176 -0.048,0.268 -0.08,0.232 -0.364,0.476 -0.584,0.476 -0.108,0 -0.208,-0.024 -0.292,-0.072 -0.016,-0.008 -0.032,-0.012 -0.048,-0.012 -0.028,0 -0.052,0.012 -0.06,0.036 l -0.128,0.3640004 c -0.004,0.008 -0.004,0.016 -0.004,0.024 0,0.076 0.096,0.1 0.188,0.108 0.032,0.004 0.048,0.028 0.048,0.052 0,0.024 -0.02,0.052 -0.052,0.052 z"
     fill="currentColor"
     id="path42"
     style="stroke-width:0.004" />
  <path
     d="m 1.868,7.1501856 -0.004,0.164 h -0.02 c -0.432,0 -0.784,-0.352 -0.784,-0.784 0,-0.232 0.216,-0.416 0.452,-0.416 0.216,0 0.38,0.192 0.38,0.416 0,0.208 -0.172,0.38 -0.38,0.38 -0.044,0 -0.092,-0.012 -0.136,-0.032 0.104,0.16 0.276,0.272 0.476,0.272 z m 0.432,-3.416 c 0.02,0 0.036,-0.004 0.056,-0.004 0.62,0 1.02,0.512 1.02,1.04 0,0.304 -0.132,0.616 -0.428,0.836 -0.088,0.068 -0.188,0.112 -0.292,0.144 0.012,0.14 0.02,0.284 0.02,0.428 0,0.076 -0.004,0.152 -0.008,0.228 -0.028,0.476 -0.348,0.896 -0.804,0.908 l 0.004,-0.164 c 0.372,-0.008 0.616,-0.372 0.64,-0.768 0.004,-0.072 0.004,-0.144 0.004,-0.216 0,-0.124 -0.004,-0.252 -0.016,-0.376 -0.116,0.02 -0.232,0.032 -0.356,0.032 -0.752,0 -1.332,-0.688 -1.332,-1.492 0,-0.708 0.528,-1.228 0.996,-1.764 -0.076,-0.252 -0.14,-0.5 -0.172,-0.76 -0.024,-0.204 -0.028,-0.412 -0.028,-0.62 0,-0.46400001 0.224,-0.90400001 0.6,-1.17600001 0.02,-0.016 0.052,-0.012 0.072,0.004 0.28,0.336 0.528,0.98 0.528,1.43200001 0,0.572 -0.344,1.02 -0.724,1.456 0.08,0.276 0.152,0.552 0.22,0.832 z m 0.34,1.86 c 0.276,-0.096 0.46,-0.384 0.46,-0.66 0,-0.364 -0.272,-0.728 -0.704,-0.768 0.1,0.468 0.188,0.932 0.244,1.428 z m -1.548,-0.936 c 0,0.544 0.52,1 1.06,1 0.112,0 0.22,-0.008 0.328,-0.024 -0.056,-0.508 -0.152,-0.984 -0.256,-1.464 -0.316,0.036 -0.496,0.248 -0.496,0.48 0,0.176 0.104,0.364 0.328,0.492 0.02,0.016 0.024,0.04 0.024,0.06 0,0.044 -0.036,0.084 -0.084,0.084 -0.012,0 -0.02,-0.004 -0.032,-0.008 -0.32,-0.172 -0.468,-0.456 -0.468,-0.736 0,-0.352 0.232,-0.692 0.636,-0.784 -0.056,-0.236 -0.12,-0.476 -0.184,-0.708 -0.428,0.484 -0.856,0.968 -0.856,1.608 z m 1.432,-3.54 c 0,-0.22800001 -0.016,-0.32000001 -0.084,-0.52800001 -0.396,0.196 -0.648,0.60000001 -0.648,1.04000001 0,0.3 0.068,0.54 0.14,0.788 0.324,-0.388 0.592,-0.796 0.592,-1.3 z"
     fill="currentColor"
     id="path44"
     style="stroke-width:0.004" />
  <path
     d="m 5.792,3.3261856 h 0.452 c 0,0.188 0.112,0.364 0.284,0.364 0.028,0 0.044,0.02 0.044,0.044 0,0.024 -0.016,0.044 -0.044,0.044 -0.172,0 -0.336,-0.052 -0.508,-0.052 -0.172,0 -0.34,0.052 -0.512,0.052 -0.028,0 -0.044,-0.02 -0.044,-0.044 0,-0.024 0.016,-0.044 0.044,-0.044 0.172,0 0.284,-0.176 0.284,-0.364 z m 0.032,-0.796 c 0.088,-0.056 0.176,-0.112 0.236,-0.196 0.044,-0.06 0.068,-0.132 0.1,-0.2 0.016,-0.04 0.084,-0.024 0.084,0.032 v 1 h 0.284 c 0.036,0 0.056,0.028 0.056,0.056 0,0.028 -0.02,0.056 -0.056,0.056 H 6.244 v 0.048 H 5.792 v -0.048 h -0.68 c -0.088,0 -0.12,-0.052 -0.12,-0.088 0,-0.008 0.004,-0.02 0.008,-0.024 0.324,-0.376 0.564,-0.828 0.564,-1.324 0,-0.04 0.032,-0.076 0.064,-0.064 0.088,0.028 0.18,0.052 0.276,0.052 0.096,0 0.188,-0.024 0.276,-0.052 0.052,-0.016 0.088,0.036 0.064,0.064 l -1.132,1.324 h 0.68 v -0.552 c 0,-0.032 0.004,-0.068 0.032,-0.084 z"
     fill="currentColor"
     id="path46"
     style="stroke-width:0.004" />
  <path
     d="m 5.792,5.3437856 h 0.452 c 0,0.188 0.112,0.364 0.284,0.364 0.028,0 0.044,0.02 0.044,0.044 0,0.024 -0.016,0.044 -0.044,0.044 -0.172,0 -0.336,-0.052 -0.508,-0.052 -0.172,0 -0.34,0.052 -0.512,0.052 -0.028,0 -0.044,-0.02 -0.044,-0.044 0,-0.024 0.016,-0.044 0.044,-0.044 0.172,0 0.284,-0.176 0.284,-0.364 z m 0.032,-0.796 c 0.088,-0.056 0.176,-0.112 0.236,-0.196 0.044,-0.06 0.068,-0.132 0.1,-0.2 0.016,-0.04 0.084,-0.024 0.084,0.032 v 1 h 0.284 c 0.036,0 0.056,0.028 0.056,0.056 0,0.028 -0.02,0.056 -0.056,0.056 H 6.244 v 0.048 H 5.792 v -0.048 h -0.68 c -0.088,0 -0.12,-0.052 -0.12,-0.088 0,-0.008 0.004,-0.02 0.008,-0.024 0.324,-0.376 0.564,-0.828 0.564,-1.324 0,-0.04 0.032,-0.076 0.064,-0.064 0.088,0.028 0.18,0.052 0.276,0.052 0.096,0 0.188,-0.024 0.276,-0.052 0.052,-0.016 0.088,0.036 0.064,0.064 l -1.132,1.324 h 0.68 v -0.552 c 0,-0.032 0.004,-0.068 0.032,-0.084 z"
     fill="currentColor"
     id="path48"
     style="stroke-width:0.004" />
  <rect
     x="9.7659998"
     y="3.5668857"
     width="0.1222"
     height="3.0195"
     ry="0.036400001"
     fill="currentColor"
     id="rect50" />
</svg>
