<?xml version="1.0" encoding="UTF-8" standalone="no"?>
<svg
   version="1.2"
   width="102.84684mm"
   height="16.808378mm"
   viewBox="0 0 48.771245 7.9707423"
   id="svg94"
   sodipodi:docname="README-14.svg"
   xmlns:inkscape="http://www.inkscape.org/namespaces/inkscape"
   xmlns:sodipodi="http://sodipodi.sourceforge.net/DTD/sodipodi-0.dtd"
   xmlns="http://www.w3.org/2000/svg"
   xmlns:svg="http://www.w3.org/2000/svg">
  <defs
     id="defs98" />
  <sodipodi:namedview
     id="namedview96"
     pagecolor="#ffffff"
     bordercolor="#666666"
     borderopacity="1.0"
     inkscape:pageshadow="2"
     inkscape:pageopacity="0.0"
     inkscape:pagecheckerboard="0"
     inkscape:document-units="mm" />
  <style
     text="style/css"
     id="style2"><![CDATA[
tspan { white-space: pre; }
]]></style>
  <!-- Page: 1/1 -->
  <text
     font-family="serif"
     font-size="2.2002px"
     text-anchor="start"
     fill="currentColor"
     id="text6"
     y="-0.98185843"><tspan
       id="tspan4" /></text>
  <line
     stroke-linejoin="round"
     stroke-linecap="round"
     stroke-width="0.089"
     stroke="currentColor"
     x1="0.044500001"
     y1="5.9347415"
     x2="48.455502"
     y2="5.9347415"
     id="line8" />
  <path
     d="m 3.788,5.3947416 c 0.212,0 0.416,0.108 0.416,0.344 0,0.284 -0.224,0.48 -0.412,0.592 -0.144,0.088 -0.304,0.144 -0.472,0.144 -0.212,0 -0.42,-0.108 -0.42,-0.344 0,-0.284 0.228,-0.48 0.416,-0.592 0.144,-0.088 0.304,-0.144 0.472,-0.144 z"
     fill="currentColor"
     id="path10"
     style="stroke-width:0.004" />
  <path
     d="m 22.384,7.9347416 0.4,-1.308 c -0.14,0.052 -0.288,0.092 -0.436,0.092 -0.184,0 -0.348,-0.136 -0.348,-0.32 0,-0.156 0.124,-0.284 0.284,-0.284 0.104,0 0.196,0.064 0.228,0.16 0.04,0.112 0.024,0.24 0.14,0.24 0.068,0 0.228,-0.212 0.248,-0.28 l 0.188,-0.608 c -0.136,0.048 -0.28,0.092 -0.428,0.092 -0.184,0 -0.348,-0.136 -0.348,-0.32 0,-0.156 0.124,-0.284 0.284,-0.284 0.104,0 0.196,0.064 0.228,0.16 0.04,0.112 0.024,0.24 0.14,0.24 0.068,0 0.212,-0.216 0.24,-0.28 0.016,-0.044 0.08,-0.044 0.096,0 l -0.728,2.7 c -0.028,0.024 -0.06,0.036 -0.092,0.036 -0.032,0 -0.068,-0.012 -0.096,-0.036 z"
     fill="currentColor"
     id="path12"
     style="stroke-width:0.004" />
  <rect
     x="13.69"
     y="2.6014414"
     width="0.1158"
     height="3.1366"
     ry="0.033300001"
     fill="currentColor"
     id="rect14" />
  <path
     d="m 13.388,5.3947416 c 0.212,0 0.416,0.108 0.416,0.344 0,0.284 -0.224,0.48 -0.412,0.592 -0.144,0.088 -0.304,0.144 -0.472,0.144 -0.212,0 -0.42,-0.108 -0.42,-0.344 0,-0.284 0.228,-0.48 0.416,-0.592 0.144,-0.088 0.304,-0.144 0.472,-0.144 z"
     fill="currentColor"
     id="path16"
     style="stroke-width:0.004" />
  <rect
     x="8.8900003"
     y="2.9347415"
     width="0.1158"
     height="2.8032999"
     ry="0.033300001"
     fill="currentColor"
     id="rect18" />
  <path
     d="m 8.588,5.3947416 c 0.212,0 0.416,0.108 0.416,0.344 0,0.284 -0.224,0.48 -0.412,0.592 -0.144,0.088 -0.304,0.144 -0.472,0.144 -0.212,0 -0.42,-0.108 -0.42,-0.344 0,-0.284 0.228,-0.48 0.416,-0.592 0.144,-0.088 0.304,-0.144 0.472,-0.144 z"
     fill="currentColor"
     id="path20"
     style="stroke-width:0.004" />
  <rect
     x="4.0900002"
     y="2.9347415"
     width="0.1158"
     height="2.8032999"
     ry="0.033300001"
     fill="currentColor"
     id="rect22" />
  <line
     stroke-linejoin="round"
     stroke-linecap="round"
     stroke-width="0.1425"
     stroke="currentColor"
     x1="11.200001"
     y1="0.69474161"
     x2="11.200001"
     y2="1.3947415"
     id="line24" />
  <line
     stroke-linejoin="round"
     stroke-linecap="round"
     stroke-width="0.1425"
     stroke="currentColor"
     x1="0.89999998"
     y1="0.69474161"
     x2="0.89999998"
     y2="1.3947415"
     id="line26" />
  <line
     stroke-linejoin="round"
     stroke-linecap="round"
     stroke-width="0.1425"
     stroke="currentColor"
     x1="11.200001"
     y1="0.69474161"
     x2="7.0910001"
     y2="0.69474161"
     id="line28" />
  <line
     stroke-linejoin="round"
     stroke-linecap="round"
     stroke-width="0.1425"
     stroke="currentColor"
     x1="0.89999998"
     y1="0.69474161"
     x2="5.2090001"
     y2="0.69474161"
     id="line30" />
  <text
     font-family="serif"
     font-style="italic"
     font-size="1.7463px"
     text-anchor="start"
     fill="currentColor"
     id="text34"
     x="5.6089001"
     y="1.2495416"><tspan
       id="tspan32">5</tspan></text>
  <polygon
     transform="translate(4.09,2.9347416)"
     stroke-linejoin="round"
     stroke-linecap="round"
     stroke-width="0.0667"
     fill="currentColor"
     stroke="currentColor"
     points="0.0333,0.2067 0.0333,-0.2067 4.8824,-0.2067 4.8824,0.2067 "
     id="polygon36" />
  <line
     stroke-linejoin="round"
     stroke-linecap="round"
     stroke-width="0.1425"
     stroke="currentColor"
     x1="23.200001"
     y1="0.60134161"
     x2="23.200001"
     y2="1.3013415"
     id="line38" />
  <line
     stroke-linejoin="round"
     stroke-linecap="round"
     stroke-width="0.1425"
     stroke="currentColor"
     x1="13.49"
     y1="0.60134161"
     x2="13.49"
     y2="1.3013415"
     id="line40" />
  <line
     stroke-linejoin="round"
     stroke-linecap="round"
     stroke-width="0.1425"
     stroke="currentColor"
     x1="23.200001"
     y1="0.60134161"
     x2="19.386"
     y2="0.60134161"
     id="line42" />
  <line
     stroke-linejoin="round"
     stroke-linecap="round"
     stroke-width="0.1425"
     stroke="currentColor"
     x1="13.49"
     y1="0.60134161"
     x2="17.504"
     y2="0.60134161"
     id="line44" />
  <text
     font-family="serif"
     font-style="italic"
     font-size="1.7463px"
     text-anchor="start"
     fill="currentColor"
     id="text48"
     x="17.903999"
     y="1.1562415"><tspan
       id="tspan46">5</tspan></text>
  <line
     stroke-linejoin="round"
     stroke-linecap="round"
     stroke-width="0.1425"
     stroke="currentColor"
     x1="35.200001"
     y1="0.69474161"
     x2="35.200001"
     y2="1.3947415"
     id="line50" />
  <line
     stroke-linejoin="round"
     stroke-linecap="round"
     stroke-width="0.1425"
     stroke="currentColor"
     x1="24.9"
     y1="0.69474161"
     x2="24.9"
     y2="1.3947415"
     id="line52" />
  <line
     stroke-linejoin="round"
     stroke-linecap="round"
     stroke-width="0.1425"
     stroke="currentColor"
     x1="35.200001"
     y1="0.69474161"
     x2="31.091"
     y2="0.69474161"
     id="line54" />
  <line
     stroke-linejoin="round"
     stroke-linecap="round"
     stroke-width="0.1425"
     stroke="currentColor"
     x1="24.9"
     y1="0.69474161"
     x2="29.209"
     y2="0.69474161"
     id="line56" />
  <text
     font-family="serif"
     font-style="italic"
     font-size="1.7463px"
     text-anchor="start"
     fill="currentColor"
     id="text60"
     x="29.6089"
     y="1.2495416"><tspan
       id="tspan58">5</tspan></text>
  <polygon
     transform="translate(28.09,2.9347416)"
     stroke-linejoin="round"
     stroke-linecap="round"
     stroke-width="0.0667"
     fill="currentColor"
     stroke="currentColor"
     points="0.0333,0.2067 0.0333,-0.2067 4.8824,-0.2067 4.8824,0.2067 "
     id="polygon62" />
  <path
     d="m 32.588,5.3947416 c 0.212,0 0.416,0.108 0.416,0.344 0,0.284 -0.224,0.48 -0.412,0.592 -0.144,0.088 -0.304,0.144 -0.472,0.144 -0.212,0 -0.42,-0.108 -0.42,-0.344 0,-0.284 0.228,-0.48 0.416,-0.592 0.144,-0.088 0.304,-0.144 0.472,-0.144 z"
     fill="currentColor"
     id="path64"
     style="stroke-width:0.004" />
  <rect
     x="28.09"
     y="2.9347415"
     width="0.1158"
     height="2.8032999"
     ry="0.033300001"
     fill="currentColor"
     id="rect66" />
  <path
     d="m 27.788,5.3947416 c 0.212,0 0.416,0.108 0.416,0.344 0,0.284 -0.224,0.48 -0.412,0.592 -0.144,0.088 -0.304,0.144 -0.472,0.144 -0.212,0 -0.42,-0.108 -0.42,-0.344 0,-0.284 0.228,-0.48 0.416,-0.592 0.144,-0.088 0.304,-0.144 0.472,-0.144 z"
     fill="currentColor"
     id="path68"
     style="stroke-width:0.004" />
  <path
     d="m 24.784,7.9347416 0.4,-1.308 c -0.14,0.052 -0.288,0.092 -0.436,0.092 -0.184,0 -0.348,-0.136 -0.348,-0.32 0,-0.156 0.124,-0.284 0.284,-0.284 0.104,0 0.196,0.064 0.228,0.16 0.04,0.112 0.024,0.24 0.14,0.24 0.068,0 0.228,-0.212 0.248,-0.28 l 0.188,-0.608 c -0.136,0.048 -0.28,0.092 -0.428,0.092 -0.184,0 -0.348,-0.136 -0.348,-0.32 0,-0.156 0.124,-0.284 0.284,-0.284 0.104,0 0.196,0.064 0.228,0.16 0.04,0.112 0.024,0.24 0.14,0.24 0.068,0 0.212,-0.216 0.24,-0.28 0.016,-0.044 0.08,-0.044 0.096,0 l -0.728,2.7 c -0.028,0.024 -0.06,0.036 -0.092,0.036 -0.032,0 -0.068,-0.012 -0.096,-0.036 z"
     fill="currentColor"
     id="path70"
     style="stroke-width:0.004" />
  <line
     stroke-linejoin="round"
     stroke-linecap="round"
     stroke-width="0.1425"
     stroke="currentColor"
     x1="48.700001"
     y1="0.60134161"
     x2="48.700001"
     y2="1.3013415"
     id="line72" />
  <line
     stroke-linejoin="round"
     stroke-linecap="round"
     stroke-width="0.1425"
     stroke="currentColor"
     x1="37.490002"
     y1="0.60134161"
     x2="37.490002"
     y2="1.3013415"
     id="line74" />
  <line
     stroke-linejoin="round"
     stroke-linecap="round"
     stroke-width="0.1425"
     stroke="currentColor"
     x1="48.700001"
     y1="0.60134161"
     x2="44.136002"
     y2="0.60134161"
     id="line76" />
  <line
     stroke-linejoin="round"
     stroke-linecap="round"
     stroke-width="0.1425"
     stroke="currentColor"
     x1="37.490002"
     y1="0.60134161"
     x2="42.254002"
     y2="0.60134161"
     id="line78" />
  <rect
     x="37.689999"
     y="2.6014414"
     width="0.1158"
     height="3.1366"
     ry="0.033300001"
     fill="currentColor"
     id="rect80" />
  <path
     d="m 37.388,5.3947416 c 0.212,0 0.416,0.108 0.416,0.344 0,0.284 -0.224,0.48 -0.412,0.592 -0.144,0.088 -0.304,0.144 -0.472,0.144 -0.212,0 -0.42,-0.108 -0.42,-0.344 0,-0.284 0.228,-0.48 0.416,-0.592 0.144,-0.088 0.304,-0.144 0.472,-0.144 z"
     fill="currentColor"
     id="path82"
     style="stroke-width:0.004" />
  <text
     font-family="serif"
     font-style="italic"
     font-size="1.7463px"
     text-anchor="start"
     fill="currentColor"
     id="text86"
     x="42.653999"
     y="1.1562415"><tspan
       id="tspan84">5</tspan></text>
  <rect
     x="32.889999"
     y="2.9347415"
     width="0.1158"
     height="2.8032999"
     ry="0.033300001"
     fill="currentColor"
     id="rect88" />
  <path
     d="m 0.784,7.9347416 0.4,-1.308 c -0.14,0.052 -0.288,0.092 -0.436,0.092 -0.184,0 -0.348,-0.136 -0.348,-0.32 0,-0.156 0.124,-0.284 0.284,-0.284 0.104,0 0.196,0.064 0.228,0.16 0.04,0.112 0.024,0.24 0.14,0.24 0.068,0 0.228,-0.212 0.248,-0.28 l 0.188,-0.608 c -0.136,0.048 -0.28,0.092 -0.428,0.092 -0.184,0 -0.348,-0.136 -0.348,-0.32 0,-0.156 0.124,-0.284 0.284,-0.284 0.104,0 0.196,0.064 0.228,0.16 0.04,0.112 0.024,0.24 0.14,0.24 0.068,0 0.212,-0.216 0.24,-0.28 0.016,-0.044 0.08,-0.044 0.096,0 l -0.728,2.7 c -0.028,0.024 -0.06,0.036 -0.092,0.036 -0.032,0 -0.068,-0.012 -0.096,-0.036 z"
     fill="currentColor"
     id="path90"
     style="stroke-width:0.004" />
  <path
     d="m 46.384,7.9347416 0.4,-1.308 c -0.14,0.052 -0.288,0.092 -0.436,0.092 -0.184,0 -0.348,-0.136 -0.348,-0.32 0,-0.156 0.124,-0.284 0.284,-0.284 0.104,0 0.196,0.064 0.228,0.16 0.04,0.112 0.024,0.24 0.14,0.24 0.068,0 0.228,-0.212 0.248,-0.28 l 0.188,-0.608 c -0.136,0.048 -0.28,0.092 -0.428,0.092 -0.184,0 -0.348,-0.136 -0.348,-0.32 0,-0.156 0.124,-0.284 0.284,-0.284 0.104,0 0.196,0.064 0.228,0.16 0.04,0.112 0.024,0.24 0.14,0.24 0.068,0 0.212,-0.216 0.24,-0.28 0.016,-0.044 0.08,-0.044 0.096,0 l -0.728,2.7 c -0.028,0.024 -0.06,0.036 -0.092,0.036 -0.032,0 -0.068,-0.012 -0.096,-0.036 z"
     fill="currentColor"
     id="path92"
     style="stroke-width:0.004" />
</svg>
