<?xml version="1.0" encoding="UTF-8" standalone="no"?>
<svg
   version="1.2"
   width="30.357746mm"
   height="13.486193mm"
   viewBox="0 0 19.194697 8.5270971"
   id="svg50"
   sodipodi:docname="README-18.svg"
   xmlns:inkscape="http://www.inkscape.org/namespaces/inkscape"
   xmlns:sodipodi="http://sodipodi.sourceforge.net/DTD/sodipodi-0.dtd"
   xmlns="http://www.w3.org/2000/svg"
   xmlns:svg="http://www.w3.org/2000/svg">
  <defs
     id="defs54" />
  <sodipodi:namedview
     id="namedview52"
     pagecolor="#ffffff"
     bordercolor="#666666"
     borderopacity="1.0"
     inkscape:pageshadow="2"
     inkscape:pageopacity="0.0"
     inkscape:pagecheckerboard="0"
     inkscape:document-units="mm" />
  <style
     text="style/css"
     id="style2"><![CDATA[
tspan { white-space: pre; }
]]></style>
  <!-- Page: 1/1 -->
  <g
     color="#7f7f7f"
     id="g14"
     transform="translate(-16.06005,-4.148251)">
    <line
       transform="translate(16.06,9.9254)"
       stroke-linejoin="round"
       stroke-linecap="round"
       stroke-width="0.1073"
       stroke="currentColor"
       x1="0.0537"
       y1="0"
       x2="19.1411"
       y2="0"
       id="line4" />
    <line
       transform="translate(16.06,8.9254)"
       stroke-linejoin="round"
       stroke-linecap="round"
       stroke-width="0.1073"
       stroke="currentColor"
       x1="0.0537"
       y1="0"
       x2="19.1411"
       y2="0"
       id="line6" />
    <line
       transform="translate(16.06,7.9254)"
       stroke-linejoin="round"
       stroke-linecap="round"
       stroke-width="0.1073"
       stroke="currentColor"
       x1="0.0537"
       y1="0"
       x2="19.1411"
       y2="0"
       id="line8" />
    <line
       transform="translate(16.06,6.9254)"
       stroke-linejoin="round"
       stroke-linecap="round"
       stroke-width="0.1073"
       stroke="currentColor"
       x1="0.0537"
       y1="0"
       x2="19.1411"
       y2="0"
       id="line10" />
    <line
       transform="translate(16.06,5.9254)"
       stroke-linejoin="round"
       stroke-linecap="round"
       stroke-width="0.1073"
       stroke="currentColor"
       x1="0.0537"
       y1="0"
       x2="19.1411"
       y2="0"
       id="line12" />
  </g>
  <rect
     x="14.21975"
     y="6.673449"
     width="1.8035001"
     height="0.20730001"
     ry="0.1037"
     fill="currentColor"
     id="rect16" />
  <rect
     x="10.66765"
     y="6.673449"
     width="1.9542"
     height="0.20730001"
     ry="0.1037"
     fill="currentColor"
     id="rect18" />
  <path
     d="m 16.60615,7.177749 c -0.036,-0.008 -0.06,-0.04 -0.06,-0.076 0,-0.048 0.048,-0.092 0.1,-0.076 l 1.62,0.416 c 0.056,0 0.08,0.024 0.08,0.08 0,0.056 -0.024,0.08 -0.08,0.08 l -1.62,0.416 c -0.052,0.016 -0.1,-0.028 -0.1,-0.076 0,-0.036 0.024,-0.068 0.06,-0.076 l 0.992,-0.256 0.56,-0.088 -0.56,-0.088 z"
     fill="currentColor"
     id="path20"
     style="stroke-width:0.004" />
  <polygon
     transform="translate(12.15665,3.777149)"
     stroke-linejoin="round"
     stroke-linecap="round"
     stroke-width="0.0889"
     fill="currentColor"
     stroke="currentColor"
     points="0.0444,0.2056 0.0444,-0.2056 5.8964,-0.4019 5.8964,0.0092 "
     id="polygon22" />
  <rect
     x="17.95805"
     y="3.583149"
     width="0.13950001"
     height="2.5146999"
     ry="0.044399999"
     fill="currentColor"
     id="rect24" />
  <path
     d="m 11.85335,6.229149 c 0.228,0 0.444,0.116 0.444,0.368 0,0.284 -0.216,0.48 -0.404,0.592 -0.14,0.084 -0.296,0.136 -0.456,0.136 -0.228,0 -0.444,-0.116 -0.444,-0.368 0,-0.284 0.216,-0.48 0.404,-0.592 0.14,-0.084 0.296,-0.136 0.456,-0.136 z"
     fill="currentColor"
     id="path26"
     style="stroke-width:0.004" />
  <rect
     x="12.15665"
     y="3.7748489"
     width="0.13950001"
     height="2.8229001"
     ry="0.044399999"
     fill="currentColor"
     id="rect28" />
  <path
     d="m 15.25475,6.229149 c 0.228,0 0.444,0.116 0.444,0.368 0,0.284 -0.216,0.48 -0.404,0.592 -0.14,0.084 -0.296,0.136 -0.456,0.136 -0.228,0 -0.444,-0.116 -0.444,-0.368 0,-0.284 0.216,-0.48 0.404,-0.592 0.14,-0.084 0.296,-0.136 0.456,-0.136 z"
     fill="currentColor"
     id="path30"
     style="stroke-width:0.004" />
  <path
     d="m 14.20615,7.683749 c -0.036,-0.008 -0.06,-0.04 -0.06,-0.076 0,-0.048 0.048,-0.092 0.1,-0.076 l 1.62,0.416 c 0.056,0 0.08,0.024 0.08,0.08 0,0.056 -0.024,0.08 -0.08,0.08 l -1.62,0.416 c -0.052,0.016 -0.1,-0.028 -0.1,-0.076 0,-0.036 0.024,-0.068 0.06,-0.076 l 0.992,-0.256 0.56,-0.088 -0.56,-0.088 z"
     fill="currentColor"
     id="path32"
     style="stroke-width:0.004" />
  <rect
     x="15.55805"
     y="3.6624491"
     width="0.13950001"
     height="2.9354"
     ry="0.044399999"
     fill="currentColor"
     id="rect34" />
  <path
     d="m 13.81275,8.021149 c 0,0.044 -0.032,0.076 -0.076,0.076 -0.044,0 -0.08,-0.032 -0.08,-0.076 v -0.568 l -0.324,0.12 v 0.624 c 0,0.044 -0.036,0.08 -0.08,0.08 -0.044,0 -0.076,-0.036 -0.076,-0.08 v -0.568 l -0.112,0.044 c -0.012,0.004 -0.02,0.004 -0.032,0.004 -0.048,0 -0.088,-0.04 -0.088,-0.092 v -0.228 c 0,-0.036 0.024,-0.072 0.06,-0.084 l 0.172,-0.064 v -0.628 l -0.112,0.04 c -0.012,0.004 -0.02,0.004 -0.032,0.004 -0.048,0 -0.088,-0.036 -0.088,-0.088 v -0.228 c 0,-0.036 0.024,-0.072 0.06,-0.084 l 0.172,-0.064 v -0.628 c 0,-0.044 0.032,-0.076 0.076,-0.076 0.044,0 0.08,0.032 0.08,0.076 v 0.568 l 0.324,-0.12 v -0.624 c 0,-0.044 0.036,-0.08 0.08,-0.08 0.044,0 0.076,0.036 0.076,0.08 v 0.568 l 0.112,-0.044 c 0.012,-0.004 0.02,-0.004 0.032,-0.004 0.048,0 0.088,0.04 0.088,0.092 v 0.228 c 0,0.036 -0.024,0.072 -0.06,0.084 l -0.172,0.064 v 0.628 l 0.112,-0.04 c 0.012,-0.004 0.02,-0.004 0.032,-0.004 0.048,0 0.088,0.036 0.088,0.088 v 0.228 c 0,0.036 -0.024,0.072 -0.06,0.084 l -0.172,0.064 z m -0.48,-1.5 v 0.632 l 0.324,-0.12 v -0.632 z"
     fill="currentColor"
     id="path36"
     style="stroke-width:0.004" />
  <path
     d="m 10.80475,7.677749 c -0.036,-0.008 -0.06,-0.04 -0.06,-0.076 0,-0.048 0.048,-0.092 0.1,-0.076 l 1.62,0.416 c 0.056,0 0.08,0.024 0.08,0.08 0,0.056 -0.024,0.08 -0.08,0.08 l -1.62,0.416 c -0.052,0.016 -0.1,-0.028 -0.1,-0.076 0,-0.036 0.024,-0.068 0.06,-0.076 l 0.992,-0.256 0.56,-0.088 -0.56,-0.088 z"
     fill="currentColor"
     id="path38"
     style="stroke-width:0.004" />
  <path
     d="m 8.86935,4.777149 0.472,-1.304 c -0.132,0.048 -0.272,0.088 -0.412,0.088 -0.184,0 -0.348,-0.132 -0.348,-0.316 0,-0.16 0.132,-0.288 0.292,-0.288 0.1,0 0.196,0.056 0.228,0.152 0.04,0.108 0.016,0.236 0.132,0.236 0.06,0 0.208,-0.18 0.236,-0.236 0.024,-0.052 0.104,-0.052 0.124,0 l -0.484,1.668 c -0.036,0.028 -0.076,0.044 -0.12,0.044 -0.044,0 -0.084,-0.016 -0.12,-0.044 z"
     fill="currentColor"
     id="path40"
     style="stroke-width:0.004" />
  <path
     d="m 2.31195,3.725149 c 0.016,0 0.028,-0.004 0.044,-0.004 0.624,0 1.028,0.516 1.028,1.048 0,0.304 -0.136,0.616 -0.432,0.84 -0.088,0.068 -0.184,0.116 -0.288,0.148 0.012,0.136 0.016,0.272 0.016,0.408 0,0.08 0,0.16 -0.004,0.24 -0.028,0.484 -0.36,0.912 -0.836,0.912 -0.432,0 -0.784,-0.348 -0.784,-0.784 0,-0.232 0.212,-0.416 0.448,-0.416 0.216,0 0.38,0.192 0.38,0.416 0,0.208 -0.172,0.38 -0.38,0.38 -0.04,0 -0.08,-0.008 -0.116,-0.024 0.104,0.152 0.272,0.252 0.464,0.252 h 0.012 c 0.372,-0.008 0.612,-0.368 0.636,-0.76 0.004,-0.076 0.008,-0.148 0.008,-0.224 0,-0.12 -0.008,-0.24 -0.016,-0.36 -0.116,0.02 -0.232,0.032 -0.352,0.032 -0.752,0 -1.332,-0.692 -1.332,-1.5 0,-0.708 0.52,-1.228 0.984,-1.768 -0.08,-0.248 -0.152,-0.5 -0.184,-0.76 -0.024,-0.208 -0.028,-0.416 -0.028,-0.628 0,-0.45999999 0.22,-0.89199999 0.592,-1.15999999 0.028,-0.02 0.064,-0.016 0.088,0.004 0.284,0.332 0.536,0.976 0.536,1.42799999 0,0.572 -0.34,1.02 -0.712,1.456 0.084,0.272 0.16,0.548 0.228,0.824 z m 0.336,1.86 c 0.268,-0.096 0.444,-0.376 0.444,-0.648 0,-0.356 -0.26,-0.712 -0.68,-0.76 0.096,0.46 0.184,0.92 0.236,1.408 z m -1.548,-0.912 c 0,0.536 0.516,0.98 1.052,0.98 0.112,0 0.22,-0.008 0.324,-0.024 -0.056,-0.504 -0.144,-0.976 -0.244,-1.452 -0.316,0.032 -0.496,0.244 -0.496,0.476 0,0.172 0.1,0.356 0.32,0.484 0.02,0.02 0.028,0.044 0.028,0.064 0,0.048 -0.04,0.092 -0.088,0.092 -0.012,0 -0.024,-0.004 -0.036,-0.008 -0.324,-0.172 -0.472,-0.464 -0.472,-0.744 0,-0.356 0.232,-0.7 0.644,-0.792 -0.056,-0.232 -0.116,-0.464 -0.184,-0.692 -0.424,0.488 -0.848,0.976 -0.848,1.616 z m 0.676,-3.036 c 0,0.292 0.08,0.528 0.152,0.764 0.316,-0.388 0.576,-0.796 0.576,-1.296 0,-0.21199999 -0.016,-0.30399999 -0.08,-0.49599999 -0.396,0.188 -0.648,0.59199999 -0.648,1.02799999 z"
     fill="currentColor"
     id="path42"
     style="stroke-width:0.004" />
  <path
     d="m 5.77595,3.297149 h 0.48 c 0,0.196 0.116,0.38 0.3,0.38 0.032,0 0.048,0.028 0.048,0.052 0,0.024 -0.016,0.048 -0.048,0.048 -0.18,0 -0.36,-0.052 -0.54,-0.052 -0.18,0 -0.36,0.052 -0.54,0.052 -0.032,0 -0.048,-0.024 -0.048,-0.048 0,-0.024 0.016,-0.052 0.048,-0.052 0.184,0 0.3,-0.184 0.3,-0.38 z m 0.036,-0.724 c 0.088,-0.06 0.18,-0.12 0.244,-0.204 0.048,-0.06 0.076,-0.136 0.108,-0.204 0.008,-0.016 0.02,-0.024 0.036,-0.024 0.024,0 0.056,0.024 0.056,0.06 v 0.952 h 0.296 c 0.04,0 0.064,0.032 0.064,0.064 0,0.032 -0.024,0.06 -0.064,0.06 h -0.296 v 0.02 h -0.48 v -0.02 h -0.652 c -0.096,0 -0.132,-0.06 -0.132,-0.096 0,-0.012 0.004,-0.024 0.008,-0.028 0.32,-0.368 0.536,-0.82 0.536,-1.308 0,-0.044 0.032,-0.08 0.068,-0.068 0.096,0.028 0.192,0.052 0.292,0.052 0.1,0 0.192,-0.024 0.288,-0.052 0.008,-0.004 0.016,-0.004 0.024,-0.004 0.036,0 0.056,0.028 0.056,0.052 0,0.008 0,0.012 -0.008,0.02 l -1.132,1.308 h 0.652 v -0.488 c 0,-0.036 0.008,-0.072 0.036,-0.092 z"
     fill="currentColor"
     id="path44"
     style="stroke-width:0.004" />
  <path
     d="m 5.77595,5.383749 h 0.48 c 0,0.196 0.116,0.38 0.3,0.38 0.032,0 0.048,0.028 0.048,0.052 0,0.024 -0.016,0.048 -0.048,0.048 -0.18,0 -0.36,-0.052 -0.54,-0.052 -0.18,0 -0.36,0.052 -0.54,0.052 -0.032,0 -0.048,-0.024 -0.048,-0.048 0,-0.024 0.016,-0.052 0.048,-0.052 0.184,0 0.3,-0.184 0.3,-0.38 z m 0.036,-0.724 c 0.088,-0.06 0.18,-0.12 0.244,-0.204 0.048,-0.06 0.076,-0.136 0.108,-0.204 0.008,-0.016 0.02,-0.024 0.036,-0.024 0.024,0 0.056,0.024 0.056,0.06 v 0.952 h 0.296 c 0.04,0 0.064,0.032 0.064,0.064 0,0.032 -0.024,0.06 -0.064,0.06 h -0.296 v 0.02 h -0.48 v -0.02 h -0.652 c -0.096,0 -0.132,-0.06 -0.132,-0.096 0,-0.012 0.004,-0.024 0.008,-0.028 0.32,-0.368 0.536,-0.82 0.536,-1.308 0,-0.044 0.032,-0.08 0.068,-0.068 0.096,0.028 0.192,0.052 0.292,0.052 0.1,0 0.192,-0.024 0.288,-0.052 0.008,-0.004 0.016,-0.004 0.024,-0.004 0.036,0 0.056,0.028 0.056,0.052 0,0.008 0,0.012 -0.008,0.02 l -1.132,1.308 h 0.652 v -0.488 c 0,-0.036 0.008,-0.072 0.036,-0.092 z"
     fill="currentColor"
     id="path46"
     style="stroke-width:0.004" />
  <path
     d="m 17.65475,5.729149 c 0.228,0 0.444,0.116 0.444,0.368 0,0.284 -0.216,0.48 -0.404,0.592 -0.14,0.084 -0.296,0.136 -0.456,0.136 -0.228,0 -0.444,-0.116 -0.444,-0.368 0,-0.284 0.216,-0.48 0.404,-0.592 0.14,-0.084 0.296,-0.136 0.456,-0.136 z"
     fill="currentColor"
     id="path48"
     style="stroke-width:0.004" />
</svg>
