<?xml version="1.0" encoding="UTF-8" standalone="no"?>
<svg
   version="1.2"
   width="63.692509mm"
   height="19.430351mm"
   viewBox="0 0 32.949591 10.051766"
   id="svg68"
   sodipodi:docname="README-12.svg"
   xmlns:inkscape="http://www.inkscape.org/namespaces/inkscape"
   xmlns:sodipodi="http://sodipodi.sourceforge.net/DTD/sodipodi-0.dtd"
   xmlns="http://www.w3.org/2000/svg"
   xmlns:svg="http://www.w3.org/2000/svg">
  <defs
     id="defs72" />
  <sodipodi:namedview
     id="namedview70"
     pagecolor="#ffffff"
     bordercolor="#666666"
     borderopacity="1.0"
     inkscape:pageshadow="2"
     inkscape:pageopacity="0.0"
     inkscape:pagecheckerboard="0"
     inkscape:document-units="mm"
     fit-margin-top="2"
     fit-margin-left="2"
     fit-margin-right="2"
     fit-margin-bottom="2" />
  <style
     text="style/css"
     id="style2"><![CDATA[
tspan { white-space: pre; }
]]></style>
  <!-- Page: 1/1 -->
  <text
     font-family="serif"
     font-size="2.2001px"
     text-anchor="start"
     fill="currentColor"
     id="text6"
     x="1.0346458"
     y="0.042519789"><tspan
       id="tspan4" /></text>
  <line
     stroke-linejoin="round"
     stroke-linecap="round"
     stroke-width="0.094"
     stroke="currentColor"
     x1="1.0816457"
     y1="6.9811196"
     x2="31.592846"
     y2="6.9811196"
     id="line8" />
  <polygon
     transform="translate(8.8227458,3.9811198)"
     stroke-linejoin="round"
     stroke-linecap="round"
     stroke-width="0.0727"
     fill="currentColor"
     stroke="currentColor"
     points="0.0364,0.2036 0.0364,-0.2036 5.4859,-0.2036 5.4859,0.2036 "
     id="polygon10" />
  <path
     d="m 6.9146458,6.4411198 c 0.216,0 0.424,0.108 0.424,0.348 0,0.284 -0.224,0.48 -0.412,0.592 -0.144,0.084 -0.304,0.14 -0.468,0.14 -0.216,0 -0.424,-0.108 -0.424,-0.348 0,-0.284 0.224,-0.48 0.412,-0.592 0.144,-0.084 0.304,-0.14 0.468,-0.14 z"
     fill="currentColor"
     id="path12"
     style="stroke-width:0.004" />
  <rect
     x="7.217546"
     y="2.8561199"
     width="0.1222"
     height="3.9331"
     ry="0.036400001"
     fill="currentColor"
     id="rect14" />
  <polygon
     transform="translate(7.3397458,2.8925198)"
     stroke-linejoin="round"
     stroke-linecap="round"
     stroke-width="0.0611"
     fill="currentColor"
     stroke="currentColor"
     points="1.0126,0.3199 -0.0306,-0.0191 -0.0306,0.4667 1.0126,0.8056 "
     id="polygon16" />
  <polygon
     transform="translate(7.3397458,3.8925198)"
     stroke-linejoin="round"
     stroke-linecap="round"
     stroke-width="0.0611"
     fill="currentColor"
     stroke="currentColor"
     points="1.0126,0.3199 -0.0306,-0.0191 -0.0306,0.4667 1.0126,0.8056 "
     id="polygon18" />
  <polygon
     transform="translate(7.3397458,4.8925198)"
     stroke-linejoin="round"
     stroke-linecap="round"
     stroke-width="0.0611"
     fill="currentColor"
     stroke="currentColor"
     points="1.0126,0.3199 -0.0306,-0.0191 -0.0306,0.4667 1.0126,0.8056 "
     id="polygon20" />
  <path
     d="m 8.5197458,6.4411198 c 0.216,0 0.424,0.108 0.424,0.348 0,0.284 -0.224,0.48 -0.412,0.592 -0.144,0.084 -0.304,0.14 -0.468,0.14 -0.216,0 -0.424,-0.108 -0.424,-0.348 0,-0.284 0.224,-0.48 0.412,-0.592 0.144,-0.084 0.304,-0.14 0.468,-0.14 z"
     fill="currentColor"
     id="path22"
     style="stroke-width:0.004" />
  <path
     d="m 9.3985458,6.4811198 c 0,-0.124 0.104,-0.228 0.228,-0.228 0.124,0 0.224,0.104 0.224,0.228 0,0.124 -0.1,0.228 -0.224,0.228 -0.124,0 -0.228,-0.104 -0.228,-0.228 z"
     fill="currentColor"
     id="path24"
     style="stroke-width:0.004" />
  <rect
     x="8.8227453"
     y="3.9811199"
     width="0.1222"
     height="2.8081"
     ry="0.036400001"
     fill="currentColor"
     id="rect26" />
  <path
     d="m 13.919746,6.4411198 c 0.216,0 0.424,0.108 0.424,0.348 0,0.284 -0.224,0.48 -0.412,0.592 -0.144,0.084 -0.304,0.14 -0.468,0.14 -0.216,0 -0.424,-0.108 -0.424,-0.348 0,-0.284 0.224,-0.48 0.412,-0.592 0.144,-0.084 0.304,-0.14 0.468,-0.14 z"
     fill="currentColor"
     id="path28"
     style="stroke-width:0.004" />
  <rect
     x="14.222746"
     y="3.9811199"
     width="0.1222"
     height="2.8081"
     ry="0.036400001"
     fill="currentColor"
     id="rect30" />
  <text
     font-family="serif"
     font-style="italic"
     font-size="1.7465px"
     text-anchor="start"
     fill="currentColor"
     id="text34"
     x="10.817245"
     y="2.3153198"><tspan
       id="tspan32">5:3</tspan></text>
  <line
     stroke-linejoin="round"
     stroke-linecap="round"
     stroke-width="0.1504"
     stroke="currentColor"
     x1="15.339746"
     y1="1.7411197"
     x2="15.339746"
     y2="2.4411197"
     id="line36" />
  <line
     stroke-linejoin="round"
     stroke-linecap="round"
     stroke-width="0.1504"
     stroke="currentColor"
     x1="8.6227455"
     y1="1.7411197"
     x2="8.6227455"
     y2="2.4411197"
     id="line38" />
  <line
     stroke-linejoin="round"
     stroke-linecap="round"
     stroke-width="0.1504"
     stroke="currentColor"
     x1="15.339746"
     y1="1.7411197"
     x2="13.745246"
     y2="1.7411197"
     id="line40" />
  <line
     stroke-linejoin="round"
     stroke-linecap="round"
     stroke-width="0.1504"
     stroke="currentColor"
     x1="8.6227455"
     y1="1.7411197"
     x2="10.417246"
     y2="1.7411197"
     id="line42" />
  <line
     stroke-linejoin="round"
     stroke-linecap="round"
     stroke-width="0.1504"
     stroke="currentColor"
     x1="31.839746"
     y1="1.6478198"
     x2="31.839746"
     y2="2.3478198"
     id="line44" />
  <line
     stroke-linejoin="round"
     stroke-linecap="round"
     stroke-width="0.1504"
     stroke="currentColor"
     x1="17.622746"
     y1="1.6478198"
     x2="17.622746"
     y2="2.3478198"
     id="line46" />
  <line
     stroke-linejoin="round"
     stroke-linecap="round"
     stroke-width="0.1504"
     stroke="currentColor"
     x1="31.839746"
     y1="1.6478198"
     x2="26.495245"
     y2="1.6478198"
     id="line48" />
  <line
     stroke-linejoin="round"
     stroke-linecap="round"
     stroke-width="0.1504"
     stroke="currentColor"
     x1="17.622746"
     y1="1.6478198"
     x2="23.167246"
     y2="1.6478198"
     id="line50" />
  <text
     font-family="serif"
     font-style="italic"
     font-size="1.7465px"
     text-anchor="start"
     fill="currentColor"
     id="text54"
     x="23.567245"
     y="2.1910198"><tspan
       id="tspan52">7:5</tspan></text>
  <path
     d="m 1.8106458,8.9811198 0.4,-1.308 c -0.14,0.048 -0.28,0.092 -0.428,0.092 -0.184,0 -0.348,-0.132 -0.348,-0.316 0,-0.156 0.124,-0.288 0.284,-0.288 0.1,0 0.196,0.064 0.228,0.16 0.04,0.112 0.024,0.236 0.14,0.236 0.068,0 0.224,-0.208 0.244,-0.276 l 0.184,-0.608 c -0.136,0.048 -0.276,0.092 -0.42,0.092 -0.184,0 -0.348,-0.132 -0.348,-0.316 0,-0.156 0.124,-0.288 0.284,-0.288 0.1,0 0.196,0.064 0.228,0.16 0.04,0.112 0.024,0.236 0.14,0.236 0.064,0 0.204,-0.208 0.232,-0.268 0.02,-0.044 0.088,-0.044 0.104,0 l -0.72,2.692 c -0.028,0.024 -0.068,0.036 -0.104,0.036 -0.036,0 -0.072,-0.012 -0.1,-0.036 z"
     fill="currentColor"
     id="path56"
     style="stroke-width:0.004" />
  <path
     d="m 3.1881458,6.4811198 c 0,-0.124 0.104,-0.228 0.228,-0.228 0.124,0 0.224,0.104 0.224,0.228 0,0.124 -0.1,0.228 -0.224,0.228 -0.124,0 -0.228,-0.104 -0.228,-0.228 z"
     fill="currentColor"
     id="path58"
     style="stroke-width:0.004" />
  <path
     d="m 26.664846,6.4811198 c 0,-0.124 0.104,-0.228 0.228,-0.228 0.124,0 0.224,0.104 0.224,0.228 0,0.124 -0.1,0.228 -0.224,0.228 -0.124,0 -0.228,-0.104 -0.228,-0.228 z"
     fill="currentColor"
     id="path60"
     style="stroke-width:0.004" />
  <path
     d="m 25.507246,7.9811198 0.468,-1.308 c -0.136,0.048 -0.28,0.092 -0.424,0.092 -0.184,0 -0.348,-0.132 -0.348,-0.316 0,-0.156 0.128,-0.288 0.288,-0.288 0.1,0 0.192,0.064 0.224,0.16 0.04,0.112 0.024,0.236 0.14,0.236 0.068,0 0.224,-0.204 0.252,-0.268 0.02,-0.044 0.088,-0.044 0.104,0 l -0.5,1.692 c -0.028,0.024 -0.064,0.036 -0.1,0.036 -0.036,0 -0.076,-0.012 -0.104,-0.036 z"
     fill="currentColor"
     id="path62"
     style="stroke-width:0.004" />
  <rect
     x="17.822746"
     y="3.6478198"
     width="0.1222"
     height="3.1415"
     ry="0.036400001"
     fill="currentColor"
     id="rect64" />
  <path
     d="m 17.519746,6.4411198 c 0.216,0 0.424,0.108 0.424,0.348 0,0.284 -0.224,0.48 -0.412,0.592 -0.144,0.084 -0.304,0.14 -0.468,0.14 -0.216,0 -0.424,-0.108 -0.424,-0.348 0,-0.284 0.224,-0.48 0.412,-0.592 0.144,-0.084 0.304,-0.14 0.468,-0.14 z"
     fill="currentColor"
     id="path66"
     style="stroke-width:0.004" />
</svg>
