<?xml version="1.0" encoding="UTF-8" standalone="no"?>
<svg
   version="1.2"
   width="89.612915mm"
   height="14.789618mm"
   viewBox="0 0 50.994699 8.416109"
   id="svg166"
   sodipodi:docname="README-15.svg"
   xmlns:inkscape="http://www.inkscape.org/namespaces/inkscape"
   xmlns:sodipodi="http://sodipodi.sourceforge.net/DTD/sodipodi-0.dtd"
   xmlns="http://www.w3.org/2000/svg"
   xmlns:svg="http://www.w3.org/2000/svg">
  <defs
     id="defs170" />
  <sodipodi:namedview
     id="namedview168"
     pagecolor="#ffffff"
     bordercolor="#666666"
     borderopacity="1.0"
     inkscape:pageshadow="2"
     inkscape:pageopacity="0.0"
     inkscape:pagecheckerboard="0"
     inkscape:document-units="mm" />
  <style
     text="style/css"
     id="style2"><![CDATA[
tspan { white-space: pre; }
]]></style>
  <!-- Page: 1/1 -->
  <g
     color="#7f7f7f"
     id="g14"
     transform="translate(-14.454,-3.8499909)">
    <line
       transform="translate(14.454,9.9928)"
       stroke-linejoin="round"
       stroke-linecap="round"
       stroke-width="0.1"
       stroke="currentColor"
       x1="0.050000001"
       y1="0"
       x2="50.854698"
       y2="0"
       id="line4" />
    <line
       transform="translate(14.454,8.9928)"
       stroke-linejoin="round"
       stroke-linecap="round"
       stroke-width="0.1"
       stroke="currentColor"
       x1="0.050000001"
       y1="0"
       x2="50.854698"
       y2="0"
       id="line6" />
    <line
       transform="translate(14.454,7.9928)"
       stroke-linejoin="round"
       stroke-linecap="round"
       stroke-width="0.1"
       stroke="currentColor"
       x1="0.050000001"
       y1="0"
       x2="50.854698"
       y2="0"
       id="line8" />
    <line
       transform="translate(14.454,6.9928)"
       stroke-linejoin="round"
       stroke-linecap="round"
       stroke-width="0.1"
       stroke="currentColor"
       x1="0.050000001"
       y1="0"
       x2="50.854698"
       y2="0"
       id="line10" />
    <line
       transform="translate(14.454,5.9928)"
       stroke-linejoin="round"
       stroke-linecap="round"
       stroke-width="0.1"
       stroke="currentColor"
       x1="0.050000001"
       y1="0"
       x2="50.854698"
       y2="0"
       id="line12" />
  </g>
  <rect
     x="46.978699"
     y="7.042809"
     width="1.9563"
     height="0.2"
     ry="0.1"
     fill="currentColor"
     id="rect16" />
  <rect
     x="40.978699"
     y="7.042809"
     width="1.9563"
     height="0.2"
     ry="0.1"
     fill="currentColor"
     id="rect18" />
  <rect
     x="34.478699"
     y="7.042809"
     width="1.9563"
     height="0.2"
     ry="0.1"
     fill="currentColor"
     id="rect20" />
  <rect
     x="29.678699"
     y="7.042809"
     width="1.9563"
     height="0.2"
     ry="0.1"
     fill="currentColor"
     id="rect22" />
  <rect
     x="26.7787"
     y="7.042809"
     width="1.9563"
     height="0.2"
     ry="0.1"
     fill="currentColor"
     id="rect24" />
  <rect
     x="20.7787"
     y="7.042809"
     width="1.9563"
     height="0.2"
     ry="0.1"
     fill="currentColor"
     id="rect26" />
  <rect
     x="14.2787"
     y="7.042809"
     width="1.9563"
     height="0.2"
     ry="0.1"
     fill="currentColor"
     id="rect28" />
  <rect
     x="8.2786999"
     y="7.042809"
     width="1.9563"
     height="0.2"
     ry="0.1"
     fill="currentColor"
     id="rect30" />
  <rect
     x="50.714699"
     y="2.0928092"
     width="0.19"
     height="4.0999999"
     ry="0.0000"
     fill="currentColor"
     id="rect32" />
  <path
     d="m 35.6767,6.5988091 c 0.22,0 0.432,0.112 0.432,0.356 0,0.284 -0.22,0.484 -0.408,0.596 -0.14,0.084 -0.3,0.136 -0.464,0.136 -0.22,0 -0.432,-0.112 -0.432,-0.356 0,-0.284 0.22,-0.484 0.408,-0.596 0.14,-0.084 0.3,-0.136 0.464,-0.136 z"
     fill="currentColor"
     id="path34"
     style="stroke-width:0.004" />
  <rect
     x="35.978901"
     y="3.3428092"
     width="0.13"
     height="3.6138999"
     ry="0.039999999"
     fill="currentColor"
     id="rect36" />
  <path
     d="m 39.2767,6.0988091 c 0.22,0 0.432,0.112 0.432,0.356 0,0.284 -0.22,0.484 -0.408,0.596 -0.14,0.084 -0.3,0.136 -0.464,0.136 -0.22,0 -0.432,-0.112 -0.432,-0.356 0,-0.284 0.22,-0.484 0.408,-0.596 0.14,-0.084 0.3,-0.136 0.464,-0.136 z"
     fill="currentColor"
     id="path38"
     style="stroke-width:0.004" />
  <rect
     x="39.578899"
     y="3.3428092"
     width="0.13"
     height="3.1138999"
     ry="0.039999999"
     fill="currentColor"
     id="rect40" />
  <rect
     x="33.578899"
     y="3.3428092"
     width="0.13"
     height="3.1138999"
     ry="0.039999999"
     fill="currentColor"
     id="rect42" />
  <path
     d="m 33.2767,6.0988091 c 0.22,0 0.432,0.112 0.432,0.356 0,0.284 -0.22,0.484 -0.408,0.596 -0.14,0.084 -0.3,0.136 -0.464,0.136 -0.22,0 -0.432,-0.112 -0.432,-0.356 0,-0.284 0.22,-0.484 0.408,-0.596 0.14,-0.084 0.3,-0.136 0.464,-0.136 z"
     fill="currentColor"
     id="path44"
     style="stroke-width:0.004" />
  <rect
     x="31.1789"
     y="3.3428092"
     width="0.13"
     height="3.6138999"
     ry="0.039999999"
     fill="currentColor"
     id="rect46" />
  <path
     d="m 30.8767,6.5988091 c 0.22,0 0.432,0.112 0.432,0.356 0,0.284 -0.22,0.484 -0.408,0.596 -0.14,0.084 -0.3,0.136 -0.464,0.136 -0.22,0 -0.432,-0.112 -0.432,-0.356 0,-0.284 0.22,-0.484 0.408,-0.596 0.14,-0.084 0.3,-0.136 0.464,-0.136 z"
     fill="currentColor"
     id="path48"
     style="stroke-width:0.004" />
  <polygon
     transform="translate(9.7789,3.9428091)"
     stroke-linejoin="round"
     stroke-linecap="round"
     stroke-width="0.08"
     fill="currentColor"
     stroke="currentColor"
     points="0.04,0.21 0.04,-0.21 6.09,-0.21 6.09,0.21 "
     id="polygon50" />
  <polygon
     transform="translate(13.3789,4.7428091)"
     stroke-linejoin="round"
     stroke-linecap="round"
     stroke-width="0.08"
     fill="currentColor"
     stroke="currentColor"
     points="0.04,0.21 0.04,-0.21 1.125,-0.21 1.125,0.21 "
     id="polygon52" />
  <line
     stroke-linejoin="round"
     stroke-linecap="round"
     stroke-width="0.16"
     stroke="currentColor"
     x1="17.404699"
     y1="0.59280914"
     x2="17.404699"
     y2="1.2928091"
     id="line54" />
  <line
     stroke-linejoin="round"
     stroke-linecap="round"
     stroke-width="0.16"
     stroke="currentColor"
     x1="9.5789003"
     y1="0.59280914"
     x2="9.5789003"
     y2="1.2928091"
     id="line56" />
  <line
     stroke-linejoin="round"
     stroke-linecap="round"
     stroke-width="0.16"
     stroke="currentColor"
     x1="17.404699"
     y1="0.59280914"
     x2="14.5357"
     y2="0.59280914"
     id="line58" />
  <line
     stroke-linejoin="round"
     stroke-linecap="round"
     stroke-width="0.16"
     stroke="currentColor"
     x1="9.5789003"
     y1="0.59280914"
     x2="12.6479"
     y2="0.59280914"
     id="line60" />
  <text
     font-family="serif"
     font-style="italic"
     font-size="1.7461px"
     text-anchor="start"
     fill="currentColor"
     id="text64"
     x="13.048"
     y="1.1561091"><tspan
       id="tspan62">5</tspan></text>
  <polygon
     transform="translate(19.8789,3.3428091)"
     stroke-linejoin="round"
     stroke-linecap="round"
     stroke-width="0.08"
     fill="currentColor"
     stroke="currentColor"
     points="0.04,0.21 0.04,-0.21 8.49,-0.21 8.49,0.21 "
     id="polygon66" />
  <polygon
     transform="translate(25.8789,4.1428091)"
     stroke-linejoin="round"
     stroke-linecap="round"
     stroke-width="0.08"
     fill="currentColor"
     stroke="currentColor"
     points="0.04,0.21 0.04,-0.21 2.49,-0.21 2.49,0.21 "
     id="polygon68" />
  <polygon
     transform="translate(19.8789,4.1428091)"
     stroke-linejoin="round"
     stroke-linecap="round"
     stroke-width="0.08"
     fill="currentColor"
     stroke="currentColor"
     points="0.04,0.21 0.04,-0.21 1.125,-0.21 1.125,0.21 "
     id="polygon70" />
  <line
     stroke-linejoin="round"
     stroke-linecap="round"
     stroke-width="0.16"
     stroke="currentColor"
     x1="28.7047"
     y1="0.59280914"
     x2="28.7047"
     y2="1.2928091"
     id="line72" />
  <line
     stroke-linejoin="round"
     stroke-linecap="round"
     stroke-width="0.16"
     stroke="currentColor"
     x1="19.6789"
     y1="0.59280914"
     x2="19.6789"
     y2="1.2928091"
     id="line74" />
  <line
     stroke-linejoin="round"
     stroke-linecap="round"
     stroke-width="0.16"
     stroke="currentColor"
     x1="28.7047"
     y1="0.59280914"
     x2="25.235701"
     y2="0.59280914"
     id="line76" />
  <line
     stroke-linejoin="round"
     stroke-linecap="round"
     stroke-width="0.16"
     stroke="currentColor"
     x1="19.6789"
     y1="0.59280914"
     x2="23.3479"
     y2="0.59280914"
     id="line78" />
  <text
     font-family="serif"
     font-style="italic"
     font-size="1.7461px"
     text-anchor="start"
     fill="currentColor"
     id="text82"
     x="23.747999"
     y="1.1561091"><tspan
       id="tspan80">5</tspan></text>
  <path
     stroke-width="0.08"
     stroke-linejoin="round"
     stroke-linecap="round"
     stroke="currentColor"
     fill="currentColor"
     d="m 27.9568,7.8928091 c 0.5747,0.6444 1.9253,0.6444 2.5,0 v 0 c -0.5747,0.5244 -1.9253,0.5244 -2.5,0 z"
     id="path84" />
  <polygon
     transform="translate(31.1789,3.3428091)"
     stroke-linejoin="round"
     stroke-linecap="round"
     stroke-width="0.08"
     fill="currentColor"
     stroke="currentColor"
     points="0.04,0.21 0.04,-0.21 8.49,-0.21 8.49,0.21 "
     id="polygon86" />
  <polygon
     transform="translate(38.5439,4.1428091)"
     stroke-linejoin="round"
     stroke-linecap="round"
     stroke-width="0.08"
     fill="currentColor"
     stroke="currentColor"
     points="0.04,0.21 0.04,-0.21 1.125,-0.21 1.125,0.21 "
     id="polygon88" />
  <polygon
     transform="translate(31.1789,4.1428091)"
     stroke-linejoin="round"
     stroke-linecap="round"
     stroke-width="0.08"
     fill="currentColor"
     stroke="currentColor"
     points="0.04,0.21 0.04,-0.21 2.49,-0.21 2.49,0.21 "
     id="polygon90" />
  <line
     stroke-linejoin="round"
     stroke-linecap="round"
     stroke-width="0.16"
     stroke="currentColor"
     x1="40.0047"
     y1="0.59280914"
     x2="40.0047"
     y2="1.2928091"
     id="line92" />
  <line
     stroke-linejoin="round"
     stroke-linecap="round"
     stroke-width="0.16"
     stroke="currentColor"
     x1="30.978901"
     y1="0.59280914"
     x2="30.978901"
     y2="1.2928091"
     id="line94" />
  <line
     stroke-linejoin="round"
     stroke-linecap="round"
     stroke-width="0.16"
     stroke="currentColor"
     x1="40.0047"
     y1="0.59280914"
     x2="36.535702"
     y2="0.59280914"
     id="line96" />
  <line
     stroke-linejoin="round"
     stroke-linecap="round"
     stroke-width="0.16"
     stroke="currentColor"
     x1="30.978901"
     y1="0.59280914"
     x2="34.6479"
     y2="0.59280914"
     id="line98" />
  <text
     font-family="serif"
     font-style="italic"
     font-size="1.7461px"
     text-anchor="start"
     fill="currentColor"
     id="text102"
     x="35.048"
     y="1.1561091"><tspan
       id="tspan100">5</tspan></text>
  <polygon
     transform="translate(42.4789,3.9428091)"
     stroke-linejoin="round"
     stroke-linecap="round"
     stroke-width="0.08"
     fill="currentColor"
     stroke="currentColor"
     points="0.04,0.21 0.04,-0.21 6.09,-0.21 6.09,0.21 "
     id="polygon104" />
  <polygon
     transform="translate(46.0789,4.7428091)"
     stroke-linejoin="round"
     stroke-linecap="round"
     stroke-width="0.08"
     fill="currentColor"
     stroke="currentColor"
     points="0.04,0.21 0.04,-0.21 1.125,-0.21 1.125,0.21 "
     id="polygon106" />
  <path
     d="m 42.1767,6.5988091 c 0.22,0 0.432,0.112 0.432,0.356 0,0.284 -0.22,0.484 -0.408,0.596 -0.14,0.084 -0.3,0.136 -0.464,0.136 -0.22,0 -0.432,-0.112 -0.432,-0.356 0,-0.284 0.22,-0.484 0.408,-0.596 0.14,-0.084 0.3,-0.136 0.464,-0.136 z"
     fill="currentColor"
     id="path108"
     style="stroke-width:0.004" />
  <rect
     x="48.478901"
     y="3.9428091"
     width="0.13"
     height="3.0139"
     ry="0.039999999"
     fill="currentColor"
     id="rect110" />
  <path
     d="m 48.1767,6.5988091 c 0.22,0 0.432,0.112 0.432,0.356 0,0.284 -0.22,0.484 -0.408,0.596 -0.14,0.084 -0.3,0.136 -0.464,0.136 -0.22,0 -0.432,-0.112 -0.432,-0.356 0,-0.284 0.22,-0.484 0.408,-0.596 0.14,-0.084 0.3,-0.136 0.464,-0.136 z"
     fill="currentColor"
     id="path112"
     style="stroke-width:0.004" />
  <rect
     x="46.078899"
     y="3.9428091"
     width="0.13"
     height="2.5139"
     ry="0.039999999"
     fill="currentColor"
     id="rect114" />
  <path
     d="m 45.7767,6.0988091 c 0.22,0 0.432,0.112 0.432,0.356 0,0.284 -0.22,0.484 -0.408,0.596 -0.14,0.084 -0.3,0.136 -0.464,0.136 -0.22,0 -0.432,-0.112 -0.432,-0.356 0,-0.284 0.22,-0.484 0.408,-0.596 0.14,-0.084 0.3,-0.136 0.464,-0.136 z"
     fill="currentColor"
     id="path116"
     style="stroke-width:0.004" />
  <rect
     x="42.478901"
     y="3.9428091"
     width="0.13"
     height="3.0139"
     ry="0.039999999"
     fill="currentColor"
     id="rect118" />
  <path
     d="m 21.9767,6.5988091 c 0.22,0 0.432,0.112 0.432,0.356 0,0.284 -0.22,0.484 -0.408,0.596 -0.14,0.084 -0.3,0.136 -0.464,0.136 -0.22,0 -0.432,-0.112 -0.432,-0.356 0,-0.284 0.22,-0.484 0.408,-0.596 0.14,-0.084 0.3,-0.136 0.464,-0.136 z"
     fill="currentColor"
     id="path120"
     style="stroke-width:0.004" />
  <path
     d="M 1.864,7.6828091 H 1.84 c -0.432,0 -0.78,-0.352 -0.78,-0.788 0,-0.232 0.212,-0.412 0.448,-0.412 0.216,0 0.38,0.188 0.38,0.412 0,0.208 -0.172,0.38 -0.38,0.38 -0.044,0 -0.084,-0.008 -0.124,-0.024 0.104,0.156 0.272,0.26 0.468,0.26 h 0.016 z m 0.78,-1.728 c 0.272,-0.096 0.452,-0.38 0.452,-0.656 0,-0.36 -0.264,-0.716 -0.692,-0.76 0.096,0.464 0.184,0.924 0.24,1.416 z m -1.548,-0.924 c 0,0.54 0.516,0.988 1.056,0.988 0.112,0 0.22,-0.008 0.328,-0.024 -0.056,-0.508 -0.148,-0.98 -0.252,-1.456 -0.316,0.032 -0.496,0.244 -0.496,0.476 0,0.176 0.1,0.364 0.324,0.492 0.02,0.02 0.028,0.04 0.028,0.06 0,0.044 -0.04,0.088 -0.088,0.088 -0.012,0 -0.024,-0.004 -0.036,-0.008 -0.32,-0.172 -0.468,-0.46 -0.468,-0.74 0,-0.352 0.232,-0.696 0.64,-0.788 -0.056,-0.232 -0.116,-0.468 -0.184,-0.7 -0.428,0.484 -0.852,0.972 -0.852,1.612 z m 1.044,1.16 c -0.752,0 -1.332,-0.688 -1.332,-1.496 0,-0.708 0.524,-1.224 0.992,-1.764 -0.076,-0.248 -0.148,-0.5 -0.18,-0.76 -0.024,-0.208 -0.028,-0.416 -0.028,-0.624 0,-0.46 0.22,-0.89599995 0.596,-1.16799995 0.024,-0.02 0.056,-0.02 0.08,0 0.284,0.336 0.532,0.97999995 0.532,1.43199995 0,0.572 -0.344,1.02 -0.72,1.456 0.084,0.272 0.156,0.552 0.224,0.828 0.016,0 0.036,-0.004 0.052,-0.004 0.62,0 1.024,0.512 1.024,1.044 0,0.304 -0.132,0.616 -0.428,0.84 -0.088,0.068 -0.188,0.112 -0.292,0.144 0.012,0.14 0.02,0.28 0.02,0.42 0,0.076 -0.004,0.156 -0.008,0.232 -0.028,0.476 -0.352,0.9 -0.808,0.912 l 0.004,-0.172 c 0.372,-0.008 0.612,-0.368 0.636,-0.764 0.004,-0.072 0.008,-0.148 0.008,-0.22 0,-0.124 -0.004,-0.244 -0.016,-0.368 -0.116,0.02 -0.232,0.032 -0.356,0.032 z m 0.372,-4.712 c 0,-0.22 -0.016,-0.316 -0.08,-0.51599995 C 2.036,1.1548091 1.784,1.5588091 1.784,1.9988091 c 0,0.296 0.072,0.532 0.144,0.776 0.32,-0.388 0.584,-0.792 0.584,-1.296 z"
     fill="currentColor"
     id="path122"
     style="stroke-width:0.004" />
  <rect
     x="19.878901"
     y="3.3428092"
     width="0.13"
     height="3.1138999"
     ry="0.039999999"
     fill="currentColor"
     id="rect124" />
  <path
     d="m 19.5767,6.0988091 c 0.22,0 0.432,0.112 0.432,0.356 0,0.284 -0.22,0.484 -0.408,0.596 -0.14,0.084 -0.3,0.136 -0.464,0.136 -0.22,0 -0.432,-0.112 -0.432,-0.356 0,-0.284 0.22,-0.484 0.408,-0.596 0.14,-0.084 0.3,-0.136 0.464,-0.136 z"
     fill="currentColor"
     id="path126"
     style="stroke-width:0.004" />
  <rect
     x="15.7789"
     y="3.9428091"
     width="0.13"
     height="3.0139"
     ry="0.039999999"
     fill="currentColor"
     id="rect128" />
  <path
     d="m 15.4767,6.5988091 c 0.22,0 0.432,0.112 0.432,0.356 0,0.284 -0.22,0.484 -0.408,0.596 -0.14,0.084 -0.3,0.136 -0.464,0.136 -0.22,0 -0.432,-0.112 -0.432,-0.356 0,-0.284 0.22,-0.484 0.408,-0.596 0.14,-0.084 0.3,-0.136 0.464,-0.136 z"
     fill="currentColor"
     id="path130"
     style="stroke-width:0.004" />
  <path
     d="m 9.4767,6.5988091 c 0.22,0 0.432,0.112 0.432,0.356 0,0.284 -0.22,0.484 -0.408,0.596 -0.14,0.084 -0.3,0.136 -0.464,0.136 -0.22,0 -0.432,-0.112 -0.432,-0.356 0,-0.284 0.22,-0.484 0.408,-0.596 0.14,-0.084 0.3,-0.136 0.464,-0.136 z"
     fill="currentColor"
     id="path132"
     style="stroke-width:0.004" />
  <path
     d="m 27.9767,6.5988091 c 0.22,0 0.432,0.112 0.432,0.356 0,0.284 -0.22,0.484 -0.408,0.596 -0.14,0.084 -0.3,0.136 -0.464,0.136 -0.22,0 -0.432,-0.112 -0.432,-0.356 0,-0.284 0.22,-0.484 0.408,-0.596 0.14,-0.084 0.3,-0.136 0.464,-0.136 z"
     fill="currentColor"
     id="path134"
     style="stroke-width:0.004" />
  <rect
     x="13.3789"
     y="3.9428091"
     width="0.13"
     height="2.5139"
     ry="0.039999999"
     fill="currentColor"
     id="rect136" />
  <path
     d="m 13.0767,6.0988091 c 0.22,0 0.432,0.112 0.432,0.356 0,0.284 -0.22,0.484 -0.408,0.596 -0.14,0.084 -0.3,0.136 -0.464,0.136 -0.22,0 -0.432,-0.112 -0.432,-0.356 0,-0.284 0.22,-0.484 0.408,-0.596 0.14,-0.084 0.3,-0.136 0.464,-0.136 z"
     fill="currentColor"
     id="path138"
     style="stroke-width:0.004" />
  <text
     font-family="serif"
     font-style="italic"
     font-size="1.7461px"
     text-anchor="start"
     fill="currentColor"
     id="text142"
     x="46.153"
     y="1.1561091"><tspan
       id="tspan140">5</tspan></text>
  <line
     stroke-linejoin="round"
     stroke-linecap="round"
     stroke-width="0.16"
     stroke="currentColor"
     x1="50.9147"
     y1="0.59280914"
     x2="50.9147"
     y2="1.2928091"
     id="line144" />
  <line
     stroke-linejoin="round"
     stroke-linecap="round"
     stroke-width="0.16"
     stroke="currentColor"
     x1="42.2789"
     y1="0.59280914"
     x2="42.2789"
     y2="1.2928091"
     id="line146" />
  <line
     stroke-linejoin="round"
     stroke-linecap="round"
     stroke-width="0.16"
     stroke="currentColor"
     x1="50.9147"
     y1="0.59280914"
     x2="47.640701"
     y2="0.59280914"
     id="line148" />
  <line
     stroke-linejoin="round"
     stroke-linecap="round"
     stroke-width="0.16"
     stroke="currentColor"
     x1="42.2789"
     y1="0.59280914"
     x2="45.752899"
     y2="0.59280914"
     id="line150" />
  <path
     d="m 25.5767,6.0988091 c 0.22,0 0.432,0.112 0.432,0.356 0,0.284 -0.22,0.484 -0.408,0.596 -0.14,0.084 -0.3,0.136 -0.464,0.136 -0.22,0 -0.432,-0.112 -0.432,-0.356 0,-0.284 0.22,-0.484 0.408,-0.596 0.14,-0.084 0.3,-0.136 0.464,-0.136 z"
     fill="currentColor"
     id="path152"
     style="stroke-width:0.004" />
  <rect
     x="25.878901"
     y="3.3428092"
     width="0.13"
     height="3.1138999"
     ry="0.039999999"
     fill="currentColor"
     id="rect154" />
  <rect
     x="9.7789001"
     y="3.9428091"
     width="0.13"
     height="3.0139"
     ry="0.039999999"
     fill="currentColor"
     id="rect156" />
  <rect
     x="28.2789"
     y="3.3428092"
     width="0.13"
     height="3.6138999"
     ry="0.039999999"
     fill="currentColor"
     id="rect158" />
  <rect
     x="22.2789"
     y="3.3428092"
     width="0.13"
     height="3.6138999"
     ry="0.039999999"
     fill="currentColor"
     id="rect160" />
  <path
     d="m 5.784,3.6748091 h 0.468 c 0,0.192 0.108,0.376 0.288,0.376 0.032,0 0.048,0.02 0.048,0.044 0,0.024 -0.016,0.048 -0.048,0.048 -0.176,0 -0.348,-0.052 -0.524,-0.052 -0.176,0 -0.348,0.052 -0.524,0.052 -0.032,0 -0.048,-0.024 -0.048,-0.048 0,-0.024 0.016,-0.044 0.048,-0.044 0.18,0 0.292,-0.184 0.292,-0.376 z m 0.032,-0.76 c 0.088,-0.056 0.176,-0.116 0.24,-0.2 0.044,-0.06 0.076,-0.132 0.108,-0.2 0.008,-0.016 0.02,-0.024 0.036,-0.024 0.024,0 0.052,0.02 0.052,0.056 v 0.98 H 6.54 c 0.04,0 0.06,0.028 0.06,0.056 0,0.028 -0.02,0.06 -0.06,0.06 H 6.252 v 0.032 H 5.784 v -0.032 H 5.116 c -0.092,0 -0.124,-0.056 -0.124,-0.092 0,-0.012 0.004,-0.02 0.008,-0.024 0.32,-0.372 0.552,-0.828 0.552,-1.32 0,-0.04 0.028,-0.076 0.064,-0.064 0.092,0.028 0.188,0.052 0.284,0.052 0.096,0 0.192,-0.024 0.284,-0.052 0.056,-0.016 0.092,0.036 0.068,0.064 l -1.136,1.32 h 0.668 v -0.524 c 0,-0.032 0.004,-0.068 0.032,-0.088 z"
     fill="currentColor"
     id="path162"
     style="stroke-width:0.004" />
  <path
     d="m 5.784,5.6892091 h 0.468 c 0,0.192 0.108,0.376 0.288,0.376 0.032,0 0.048,0.02 0.048,0.044 0,0.024 -0.016,0.048 -0.048,0.048 -0.176,0 -0.348,-0.052 -0.524,-0.052 -0.176,0 -0.348,0.052 -0.524,0.052 -0.032,0 -0.048,-0.024 -0.048,-0.048 0,-0.024 0.016,-0.044 0.048,-0.044 0.18,0 0.292,-0.184 0.292,-0.376 z m 0.032,-0.76 c 0.088,-0.056 0.176,-0.116 0.24,-0.2 0.044,-0.06 0.076,-0.132 0.108,-0.2 0.008,-0.016 0.02,-0.024 0.036,-0.024 0.024,0 0.052,0.02 0.052,0.056 v 0.98 H 6.54 c 0.04,0 0.06,0.028 0.06,0.056 0,0.028 -0.02,0.06 -0.06,0.06 H 6.252 v 0.032 H 5.784 v -0.032 H 5.116 c -0.092,0 -0.124,-0.056 -0.124,-0.092 0,-0.012 0.004,-0.02 0.008,-0.024 0.32,-0.372 0.552,-0.828 0.552,-1.32 0,-0.04 0.028,-0.076 0.064,-0.064 0.092,0.028 0.188,0.052 0.284,0.052 0.096,0 0.192,-0.024 0.284,-0.052 0.056,-0.016 0.092,0.036 0.068,0.064 l -1.136,1.32 h 0.668 v -0.524 c 0,-0.032 0.004,-0.068 0.032,-0.088 z"
     fill="currentColor"
     id="path164"
     style="stroke-width:0.004" />
</svg>
