<?xml version="1.0" encoding="UTF-8" standalone="no"?>
<svg
   version="1.2"
   width="59.692509mm"
   height="12.666894mm"
   viewBox="0 0 30.880299 6.5528743"
   id="svg74"
   sodipodi:docname="README-11.svg"
   xmlns:inkscape="http://www.inkscape.org/namespaces/inkscape"
   xmlns:sodipodi="http://sodipodi.sourceforge.net/DTD/sodipodi-0.dtd"
   xmlns="http://www.w3.org/2000/svg"
   xmlns:svg="http://www.w3.org/2000/svg">
  <defs
     id="defs78" />
  <sodipodi:namedview
     id="namedview76"
     pagecolor="#ffffff"
     bordercolor="#666666"
     borderopacity="1.0"
     inkscape:pageshadow="2"
     inkscape:pageopacity="0.0"
     inkscape:pagecheckerboard="0"
     inkscape:document-units="mm" />
  <style
     text="style/css"
     id="style2"><![CDATA[
tspan { white-space: pre; }
]]></style>
  <!-- Page: 1/1 -->
  <text
     font-family="serif"
     font-size="2.2001px"
     text-anchor="start"
     fill="currentColor"
     id="text6"
     y="-0.99212599"><tspan
       id="tspan4" /></text>
  <line
     stroke-linejoin="round"
     stroke-linecap="round"
     stroke-width="0.094"
     stroke="currentColor"
     x1="0.046999998"
     y1="6.0128741"
     x2="30.558201"
     y2="6.0128741"
     id="line8" />
  <polygon
     transform="translate(25.4818,2.674274)"
     stroke-linejoin="round"
     stroke-linecap="round"
     stroke-width="0.0611"
     fill="currentColor"
     stroke="currentColor"
     points="1.0126,0.3199 -0.0306,-0.0191 -0.0306,0.4667 1.0126,0.8056 "
     id="polygon10" />
  <polygon
     transform="translate(1.6829,2.512874)"
     stroke-linejoin="round"
     stroke-linecap="round"
     stroke-width="0.0727"
     fill="currentColor"
     stroke="currentColor"
     points="0.0364,0.2036 0.0364,-0.2036 4.5859,-0.2036 4.5859,0.2036 "
     id="polygon12" />
  <polygon
     transform="translate(1.6829,3.319874)"
     stroke-linejoin="round"
     stroke-linecap="round"
     stroke-width="0.0727"
     fill="currentColor"
     stroke="currentColor"
     points="0.0364,0.2036 0.0364,-0.2036 4.5859,-0.2036 4.5859,0.2036 "
     id="polygon14" />
  <polygon
     transform="translate(5.144,4.126974)"
     stroke-linejoin="round"
     stroke-linecap="round"
     stroke-width="0.0727"
     fill="currentColor"
     stroke="currentColor"
     points="0.0364,0.2036 0.0364,-0.2036 1.1248,-0.2036 1.1248,0.2036 "
     id="polygon16" />
  <path
     d="m 5.88,5.472874 c 0.216,0 0.424,0.108 0.424,0.348 0,0.284 -0.224,0.48 -0.412,0.592 -0.144,0.084 -0.304,0.14 -0.468,0.14 -0.216,0 -0.424,-0.108 -0.424,-0.348 0,-0.284 0.224,-0.48 0.412,-0.592 0.144,-0.084 0.304,-0.14 0.468,-0.14 z"
     fill="currentColor"
     id="path18"
     style="stroke-width:0.004" />
  <rect
     x="6.1829"
     y="2.5128741"
     width="0.1222"
     height="3.3081"
     ry="0.036400001"
     fill="currentColor"
     id="rect20" />
  <path
     d="m 7.4851,5.472874 c 0.216,0 0.424,0.108 0.424,0.348 0,0.284 -0.224,0.48 -0.412,0.592 -0.144,0.084 -0.304,0.14 -0.468,0.14 -0.216,0 -0.424,-0.108 -0.424,-0.348 0,-0.284 0.224,-0.48 0.412,-0.592 0.144,-0.084 0.304,-0.14 0.468,-0.14 z"
     fill="currentColor"
     id="path22"
     style="stroke-width:0.004" />
  <path
     d="m 8.3639,5.512874 c 0,-0.124 0.104,-0.228 0.228,-0.228 0.124,0 0.224,0.104 0.224,0.228 0,0.124 -0.1,0.228 -0.224,0.228 -0.124,0 -0.228,-0.104 -0.228,-0.228 z"
     fill="currentColor"
     id="path24"
     style="stroke-width:0.004" />
  <rect
     x="7.7880998"
     y="3.0128741"
     width="0.1222"
     height="2.8081"
     ry="0.036400001"
     fill="currentColor"
     id="rect26" />
  <path
     d="m 12.8851,5.472874 c 0.216,0 0.424,0.108 0.424,0.348 0,0.284 -0.224,0.48 -0.412,0.592 -0.144,0.084 -0.304,0.14 -0.468,0.14 -0.216,0 -0.424,-0.108 -0.424,-0.348 0,-0.284 0.224,-0.48 0.412,-0.592 0.144,-0.084 0.304,-0.14 0.468,-0.14 z"
     fill="currentColor"
     id="path28"
     style="stroke-width:0.004" />
  <rect
     x="13.1881"
     y="3.0128741"
     width="0.1222"
     height="2.8081"
     ry="0.036400001"
     fill="currentColor"
     id="rect30" />
  <text
     font-family="serif"
     font-style="italic"
     font-size="1.7465px"
     text-anchor="start"
     fill="currentColor"
     id="text34"
     x="9.7826004"
     y="1.347174"><tspan
       id="tspan32">5:3</tspan></text>
  <line
     stroke-linejoin="round"
     stroke-linecap="round"
     stroke-width="0.1504"
     stroke="currentColor"
     x1="14.3051"
     y1="0.77287406"
     x2="14.3051"
     y2="1.472874"
     id="line36" />
  <line
     stroke-linejoin="round"
     stroke-linecap="round"
     stroke-width="0.1504"
     stroke="currentColor"
     x1="7.5881"
     y1="0.77287406"
     x2="7.5881"
     y2="1.472874"
     id="line38" />
  <line
     stroke-linejoin="round"
     stroke-linecap="round"
     stroke-width="0.1504"
     stroke="currentColor"
     x1="14.3051"
     y1="0.77287406"
     x2="12.7106"
     y2="0.77287406"
     id="line40" />
  <line
     stroke-linejoin="round"
     stroke-linecap="round"
     stroke-width="0.1504"
     stroke="currentColor"
     x1="7.5881"
     y1="0.77287406"
     x2="9.3825998"
     y2="0.77287406"
     id="line42" />
  <polygon
     transform="translate(7.7881,3.012874)"
     stroke-linejoin="round"
     stroke-linecap="round"
     stroke-width="0.0727"
     fill="currentColor"
     stroke="currentColor"
     points="0.0364,0.2036 0.0364,-0.2036 5.4859,-0.2036 5.4859,0.2036 "
     id="polygon44" />
  <line
     stroke-linejoin="round"
     stroke-linecap="round"
     stroke-width="0.1504"
     stroke="currentColor"
     x1="30.805099"
     y1="0.61317402"
     x2="30.805099"
     y2="1.313174"
     id="line46" />
  <line
     stroke-linejoin="round"
     stroke-linecap="round"
     stroke-width="0.1504"
     stroke="currentColor"
     x1="16.5881"
     y1="0.61317402"
     x2="16.5881"
     y2="1.313174"
     id="line48" />
  <line
     stroke-linejoin="round"
     stroke-linecap="round"
     stroke-width="0.1504"
     stroke="currentColor"
     x1="30.805099"
     y1="0.61317402"
     x2="25.4606"
     y2="0.61317402"
     id="line50" />
  <line
     stroke-linejoin="round"
     stroke-linecap="round"
     stroke-width="0.1504"
     stroke="currentColor"
     x1="16.5881"
     y1="0.61317402"
     x2="22.132601"
     y2="0.61317402"
     id="line52" />
  <text
     font-family="serif"
     font-style="italic"
     font-size="1.7465px"
     text-anchor="start"
     fill="currentColor"
     id="text56"
     x="22.5326"
     y="1.156374"><tspan
       id="tspan54">7:5</tspan></text>
  <path
     d="m 1.38,5.472874 c 0.216,0 0.424,0.108 0.424,0.348 0,0.284 -0.224,0.48 -0.412,0.592 -0.144,0.084 -0.304,0.14 -0.468,0.14 -0.216,0 -0.424,-0.108 -0.424,-0.348 0,-0.284 0.224,-0.48 0.412,-0.592 0.144,-0.084 0.304,-0.14 0.468,-0.14 z"
     fill="currentColor"
     id="path58"
     style="stroke-width:0.004" />
  <path
     d="m 2.2587,5.512874 c 0,-0.124 0.104,-0.228 0.228,-0.228 0.124,0 0.224,0.104 0.224,0.228 0,0.124 -0.1,0.228 -0.224,0.228 -0.124,0 -0.228,-0.104 -0.228,-0.228 z"
     fill="currentColor"
     id="path60"
     style="stroke-width:0.004" />
  <rect
     x="1.6829"
     y="2.5128741"
     width="0.1222"
     height="3.3081"
     ry="0.036400001"
     fill="currentColor"
     id="rect62" />
  <rect
     x="25.359501"
     y="2.6378741"
     width="0.1222"
     height="3.1831"
     ry="0.036400001"
     fill="currentColor"
     id="rect64" />
  <path
     d="m 25.9353,5.512874 c 0,-0.124 0.104,-0.228 0.228,-0.228 0.124,0 0.224,0.104 0.224,0.228 0,0.124 -0.1,0.228 -0.224,0.228 -0.124,0 -0.228,-0.104 -0.228,-0.228 z"
     fill="currentColor"
     id="path66"
     style="stroke-width:0.004" />
  <path
     d="m 25.0566,5.472874 c 0.216,0 0.424,0.108 0.424,0.348 0,0.284 -0.224,0.48 -0.412,0.592 -0.144,0.084 -0.304,0.14 -0.468,0.14 -0.216,0 -0.424,-0.108 -0.424,-0.348 0,-0.284 0.224,-0.48 0.412,-0.592 0.144,-0.084 0.304,-0.14 0.468,-0.14 z"
     fill="currentColor"
     id="path68"
     style="stroke-width:0.004" />
  <rect
     x="16.788099"
     y="2.679574"
     width="0.1222"
     height="3.1415"
     ry="0.036400001"
     fill="currentColor"
     id="rect70" />
  <path
     d="m 16.4851,5.472874 c 0.216,0 0.424,0.108 0.424,0.348 0,0.284 -0.224,0.48 -0.412,0.592 -0.144,0.084 -0.304,0.14 -0.468,0.14 -0.216,0 -0.424,-0.108 -0.424,-0.348 0,-0.284 0.224,-0.48 0.412,-0.592 0.144,-0.084 0.304,-0.14 0.468,-0.14 z"
     fill="currentColor"
     id="path72"
     style="stroke-width:0.004" />
</svg>
