<?xml version="1.0" encoding="UTF-8" standalone="no"?>
<svg
   version="1.2"
   width="38.011177mm"
   height="9.8172245mm"
   viewBox="0 0 30.900643 7.9807755"
   id="svg68"
   sodipodi:docname="README-12.svg"
   xmlns:inkscape="http://www.inkscape.org/namespaces/inkscape"
   xmlns:sodipodi="http://sodipodi.sourceforge.net/DTD/sodipodi-0.dtd"
   xmlns="http://www.w3.org/2000/svg"
   xmlns:svg="http://www.w3.org/2000/svg">
  <defs
     id="defs72" />
  <sodipodi:namedview
     id="namedview70"
     pagecolor="#ffffff"
     bordercolor="#666666"
     borderopacity="1.0"
     inkscape:pageshadow="2"
     inkscape:pageopacity="0.0"
     inkscape:pagecheckerboard="0"
     inkscape:document-units="mm" />
  <style
     text="style/css"
     id="style2"><![CDATA[
tspan { white-space: pre; }
]]></style>
  <!-- Page: 1/1 -->
  <text
     font-family="serif"
     font-size="2.1998px"
     text-anchor="start"
     fill="currentColor"
     id="text6"
     y="-1.014226"><tspan
       id="tspan4" /></text>
  <line
     stroke-linejoin="round"
     stroke-linecap="round"
     stroke-width="0.1282"
     stroke="currentColor"
     x1="0.064099997"
     y1="5.9287739"
     x2="30.534"
     y2="5.9287739"
     id="line8" />
  <polygon
     transform="translate(7.7296,2.928774)"
     stroke-linejoin="round"
     stroke-linecap="round"
     stroke-width="0.1143"
     fill="currentColor"
     stroke="currentColor"
     points="0.0571,0.1829 0.0571,-0.1829 5.5095,-0.1829 5.5095,0.1829 "
     id="polygon10" />
  <path
     d="m 5.832,5.372774 c 0.244,0 0.468,0.132 0.468,0.396 0,0.284 -0.208,0.476 -0.396,0.588 -0.136,0.08 -0.284,0.128 -0.44,0.128 -0.244,0 -0.464,-0.132 -0.464,-0.396 0,-0.284 0.204,-0.476 0.392,-0.588 0.136,-0.08 0.284,-0.128 0.44,-0.128 z"
     fill="currentColor"
     id="path12"
     style="stroke-width:0.004" />
  <rect
     x="6.1314998"
     y="1.803774"
     width="0.1666"
     height="3.9632001"
     ry="0.057100002"
     fill="currentColor"
     id="rect14" />
  <polygon
     transform="translate(6.2981,1.860974)"
     stroke-linejoin="round"
     stroke-linecap="round"
     stroke-width="0.0833"
     fill="currentColor"
     stroke="currentColor"
     points="1.0004,0.3126 -0.0417,-0.026 -0.0417,0.4364 1.0004,0.775 "
     id="polygon16" />
  <polygon
     transform="translate(6.2981,2.860974)"
     stroke-linejoin="round"
     stroke-linecap="round"
     stroke-width="0.0833"
     fill="currentColor"
     stroke="currentColor"
     points="1.0004,0.3126 -0.0417,-0.026 -0.0417,0.4364 1.0004,0.775 "
     id="polygon18" />
  <polygon
     transform="translate(6.2981,3.860974)"
     stroke-linejoin="round"
     stroke-linecap="round"
     stroke-width="0.0833"
     fill="currentColor"
     stroke="currentColor"
     points="1.0004,0.3126 -0.0417,-0.026 -0.0417,0.4364 1.0004,0.775 "
     id="polygon20" />
  <path
     d="m 7.4301,5.372774 c 0.244,0 0.468,0.132 0.468,0.396 0,0.284 -0.208,0.476 -0.396,0.588 -0.136,0.08 -0.284,0.128 -0.44,0.128 -0.244,0 -0.464,-0.132 -0.464,-0.396 0,-0.284 0.204,-0.476 0.392,-0.588 0.136,-0.08 0.284,-0.128 0.44,-0.128 z"
     fill="currentColor"
     id="path22"
     style="stroke-width:0.004" />
  <path
     d="m 8.3326,5.428774 c 0,-0.12 0.1,-0.22 0.22,-0.22 0.12,0 0.216,0.1 0.216,0.22 0,0.12 -0.096,0.22 -0.216,0.22 -0.12,0 -0.22,-0.1 -0.22,-0.22 z"
     fill="currentColor"
     id="path24"
     style="stroke-width:0.004" />
  <rect
     x="7.7296"
     y="2.9287741"
     width="0.1666"
     height="2.8382001"
     ry="0.057100002"
     fill="currentColor"
     id="rect26" />
  <path
     d="m 12.8301,5.372774 c 0.244,0 0.468,0.132 0.468,0.396 0,0.284 -0.208,0.476 -0.396,0.588 -0.136,0.08 -0.284,0.128 -0.44,0.128 -0.244,0 -0.464,-0.132 -0.464,-0.396 0,-0.284 0.204,-0.476 0.392,-0.588 0.136,-0.08 0.284,-0.128 0.44,-0.128 z"
     fill="currentColor"
     id="path28"
     style="stroke-width:0.004" />
  <rect
     x="13.1296"
     y="2.9287741"
     width="0.1666"
     height="2.8382001"
     ry="0.057100002"
     fill="currentColor"
     id="rect30" />
  <text
     font-family="serif"
     font-style="italic"
     font-size="1.7465px"
     text-anchor="start"
     fill="currentColor"
     id="text34"
     x="9.7432003"
     y="1.2740741"><tspan
       id="tspan32">5:3</tspan></text>
  <line
     stroke-linejoin="round"
     stroke-linecap="round"
     stroke-width="0.2051"
     stroke="currentColor"
     x1="14.2981"
     y1="0.68877405"
     x2="14.2981"
     y2="1.388774"
     id="line36" />
  <line
     stroke-linejoin="round"
     stroke-linecap="round"
     stroke-width="0.2051"
     stroke="currentColor"
     x1="7.5296001"
     y1="0.68877405"
     x2="7.5296001"
     y2="1.388774"
     id="line38" />
  <line
     stroke-linejoin="round"
     stroke-linecap="round"
     stroke-width="0.2051"
     stroke="currentColor"
     x1="14.2981"
     y1="0.68877405"
     x2="12.6845"
     y2="0.68877405"
     id="line40" />
  <line
     stroke-linejoin="round"
     stroke-linecap="round"
     stroke-width="0.2051"
     stroke="currentColor"
     x1="7.5296001"
     y1="0.68877405"
     x2="9.3431997"
     y2="0.68877405"
     id="line42" />
  <line
     stroke-linejoin="round"
     stroke-linecap="round"
     stroke-width="0.2051"
     stroke="currentColor"
     x1="30.7981"
     y1="0.595474"
     x2="30.7981"
     y2="1.2954741"
     id="line44" />
  <line
     stroke-linejoin="round"
     stroke-linecap="round"
     stroke-width="0.2051"
     stroke="currentColor"
     x1="16.5296"
     y1="0.595474"
     x2="16.5296"
     y2="1.2954741"
     id="line46" />
  <line
     stroke-linejoin="round"
     stroke-linecap="round"
     stroke-width="0.2051"
     stroke="currentColor"
     x1="30.7981"
     y1="0.595474"
     x2="25.4345"
     y2="0.595474"
     id="line48" />
  <line
     stroke-linejoin="round"
     stroke-linecap="round"
     stroke-width="0.2051"
     stroke="currentColor"
     x1="16.5296"
     y1="0.595474"
     x2="22.093201"
     y2="0.595474"
     id="line50" />
  <text
     font-family="serif"
     font-style="italic"
     font-size="1.7465px"
     text-anchor="start"
     fill="currentColor"
     id="text54"
     x="22.4932"
     y="1.156374"><tspan
       id="tspan52">7:5</tspan></text>
  <path
     d="m 0.728,7.928774 0.408,-1.3 c -0.128,0.044 -0.264,0.084 -0.4,0.084 -0.188,0 -0.348,-0.136 -0.348,-0.316 0,-0.16 0.136,-0.288 0.3,-0.288 0.1,0 0.196,0.052 0.228,0.144 0.04,0.104 0.016,0.232 0.128,0.232 0.06,0 0.196,-0.196 0.216,-0.256 l 0.188,-0.6 c -0.128,0.044 -0.264,0.084 -0.4,0.084 -0.188,0 -0.348,-0.136 -0.348,-0.316 0,-0.16 0.136,-0.288 0.3,-0.288 0.1,0 0.196,0.052 0.228,0.144 0.04,0.104 0.016,0.232 0.128,0.232 0.052,0 0.172,-0.152 0.196,-0.2 0.032,-0.06 0.12,-0.06 0.148,0 l -0.692,2.644 c -0.04,0.032 -0.092,0.052 -0.14,0.052 -0.048,0 -0.1,-0.02 -0.14,-0.052 z"
     fill="currentColor"
     id="path56"
     style="stroke-width:0.004" />
  <path
     d="m 2.1364,5.428774 c 0,-0.12 0.1,-0.22 0.22,-0.22 0.12,0 0.216,0.1 0.216,0.22 0,0.12 -0.096,0.22 -0.216,0.22 -0.12,0 -0.22,-0.1 -0.22,-0.22 z"
     fill="currentColor"
     id="path58"
     style="stroke-width:0.004" />
  <path
     d="m 25.6059,5.428774 c 0,-0.12 0.1,-0.22 0.22,-0.22 0.12,0 0.216,0.1 0.216,0.22 0,0.12 -0.096,0.22 -0.216,0.22 -0.12,0 -0.22,-0.1 -0.22,-0.22 z"
     fill="currentColor"
     id="path60"
     style="stroke-width:0.004" />
  <path
     d="m 24.4215,6.928774 0.476,-1.3 c -0.128,0.044 -0.26,0.084 -0.396,0.084 -0.188,0 -0.348,-0.136 -0.348,-0.316 0,-0.16 0.136,-0.288 0.3,-0.288 0.1,0 0.192,0.052 0.224,0.144 0.04,0.104 0.016,0.232 0.128,0.232 0.052,0 0.192,-0.152 0.216,-0.2 0.032,-0.06 0.12,-0.06 0.148,0 l -0.468,1.644 c -0.04,0.032 -0.092,0.052 -0.14,0.052 -0.048,0 -0.1,-0.02 -0.14,-0.052 z"
     fill="currentColor"
     id="path62"
     style="stroke-width:0.004" />
  <rect
     x="16.729601"
     y="2.595474"
     width="0.1666"
     height="3.1715"
     ry="0.057100002"
     fill="currentColor"
     id="rect64" />
  <path
     d="m 16.4301,5.372774 c 0.244,0 0.468,0.132 0.468,0.396 0,0.284 -0.208,0.476 -0.396,0.588 -0.136,0.08 -0.284,0.128 -0.44,0.128 -0.244,0 -0.464,-0.132 -0.464,-0.396 0,-0.284 0.204,-0.476 0.392,-0.588 0.136,-0.08 0.284,-0.128 0.44,-0.128 z"
     fill="currentColor"
     id="path66"
     style="stroke-width:0.004" />
</svg>
