<?xml version="1.0" encoding="UTF-8" standalone="no"?>
<svg
   version="1.2"
   width="107.88045mm"
   height="16.207804mm"
   viewBox="0 0 51.158244 7.6859424"
   id="svg146"
   sodipodi:docname="README-16.svg"
   xmlns:inkscape="http://www.inkscape.org/namespaces/inkscape"
   xmlns:sodipodi="http://sodipodi.sourceforge.net/DTD/sodipodi-0.dtd"
   xmlns="http://www.w3.org/2000/svg"
   xmlns:svg="http://www.w3.org/2000/svg">
  <defs
     id="defs150" />
  <sodipodi:namedview
     id="namedview148"
     pagecolor="#ffffff"
     bordercolor="#666666"
     borderopacity="1.0"
     inkscape:pageshadow="2"
     inkscape:pageopacity="0.0"
     inkscape:pagecheckerboard="0"
     inkscape:document-units="mm" />
  <style
     text="style/css"
     id="style2"><![CDATA[
tspan { white-space: pre; }
]]></style>
  <!-- Page: 1/1 -->
  <g
     color="#7f7f7f"
     id="g14"
     transform="translate(-12.045,-3.3529584)">
    <line
       transform="translate(12.045,9.4989)"
       stroke-linejoin="round"
       stroke-linecap="round"
       stroke-width="0.089"
       stroke="currentColor"
       x1="0.044500001"
       y1="0"
       x2="51.0116"
       y2="0"
       id="line4" />
    <line
       transform="translate(12.045,8.4989)"
       stroke-linejoin="round"
       stroke-linecap="round"
       stroke-width="0.089"
       stroke="currentColor"
       x1="0.044500001"
       y1="0"
       x2="51.0116"
       y2="0"
       id="line6" />
    <line
       transform="translate(12.045,7.4989)"
       stroke-linejoin="round"
       stroke-linecap="round"
       stroke-width="0.089"
       stroke="currentColor"
       x1="0.044500001"
       y1="0"
       x2="51.0116"
       y2="0"
       id="line8" />
    <line
       transform="translate(12.045,6.4989)"
       stroke-linejoin="round"
       stroke-linecap="round"
       stroke-width="0.089"
       stroke="currentColor"
       x1="0.044500001"
       y1="0"
       x2="51.0116"
       y2="0"
       id="line10" />
    <line
       transform="translate(12.045,5.4989)"
       stroke-linejoin="round"
       stroke-linecap="round"
       stroke-width="0.089"
       stroke="currentColor"
       x1="0.044500001"
       y1="0"
       x2="51.0116"
       y2="0"
       id="line12" />
  </g>
  <rect
     x="47.1297"
     y="7.0514417"
     width="1.9586999"
     height="0.189"
     ry="0.094499998"
     fill="currentColor"
     id="rect16" />
  <rect
     x="34.6297"
     y="7.0514417"
     width="1.9586999"
     height="0.189"
     ry="0.094499998"
     fill="currentColor"
     id="rect18" />
  <rect
     x="20.7384"
     y="7.0514417"
     width="1.9586999"
     height="0.189"
     ry="0.094499998"
     fill="currentColor"
     id="rect20" />
  <rect
     x="8.2384005"
     y="7.0514417"
     width="1.9586999"
     height="0.189"
     ry="0.094499998"
     fill="currentColor"
     id="rect22" />
  <rect
     x="50.887001"
     y="2.1014414"
     width="0.1692"
     height="4.0890002"
     ry="0.0000"
     fill="currentColor"
     id="rect24" />
  <path
     d="m 27.9529,6.1059416 c 0.212,0 0.416,0.108 0.416,0.344 0,0.284 -0.224,0.48 -0.412,0.592 -0.144,0.088 -0.304,0.144 -0.472,0.144 -0.212,0 -0.42,-0.108 -0.42,-0.344 0,-0.284 0.228,-0.48 0.416,-0.592 0.144,-0.088 0.304,-0.144 0.472,-0.144 z"
     fill="currentColor"
     id="path26"
     style="stroke-width:0.004" />
  <path
     d="m 21.9529,6.6059416 c 0.212,0 0.416,0.108 0.416,0.344 0,0.284 -0.224,0.48 -0.412,0.592 -0.144,0.088 -0.304,0.144 -0.472,0.144 -0.212,0 -0.42,-0.108 -0.42,-0.344 0,-0.284 0.228,-0.48 0.416,-0.592 0.144,-0.088 0.304,-0.144 0.472,-0.144 z"
     fill="currentColor"
     id="path28"
     style="stroke-width:0.004" />
  <rect
     x="22.2549"
     y="3.6459415"
     width="0.1158"
     height="3.3032999"
     ry="0.033300001"
     fill="currentColor"
     id="rect30" />
  <polygon
     transform="translate(22.3707,3.6792416)"
     stroke-linejoin="round"
     stroke-linecap="round"
     stroke-width="0.0579"
     fill="currentColor"
     stroke="currentColor"
     points="1.0144,0.321 -0.0289,-0.018 -0.0289,0.4711 1.0144,0.8101 "
     id="polygon32" />
  <path
     d="m 12.4489,6.1459416 0.4,-1.308 c -0.14,0.052 -0.288,0.092 -0.436,0.092 -0.184,0 -0.348,-0.136 -0.348,-0.32 0,-0.156 0.124,-0.284 0.284,-0.284 0.104,0 0.196,0.064 0.228,0.16 0.04,0.112 0.024,0.24 0.14,0.24 0.068,0 0.228,-0.212 0.248,-0.28 l 0.188,-0.608 c -0.136,0.048 -0.28,0.092 -0.428,0.092 -0.184,0 -0.348,-0.136 -0.348,-0.32 0,-0.156 0.124,-0.284 0.284,-0.284 0.104,0 0.196,0.064 0.228,0.16 0.04,0.112 0.024,0.24 0.14,0.24 0.068,0 0.212,-0.216 0.24,-0.28 0.016,-0.044 0.08,-0.044 0.096,0 l -0.728,2.7 c -0.028,0.024 -0.06,0.036 -0.092,0.036 -0.032,0 -0.068,-0.012 -0.096,-0.036 z"
     fill="currentColor"
     id="path34"
     style="stroke-width:0.004" />
  <path
     d="m 18.9489,6.1459416 0.4,-1.308 c -0.14,0.052 -0.288,0.092 -0.436,0.092 -0.184,0 -0.348,-0.136 -0.348,-0.32 0,-0.156 0.124,-0.284 0.284,-0.284 0.104,0 0.196,0.064 0.228,0.16 0.04,0.112 0.024,0.24 0.14,0.24 0.068,0 0.228,-0.212 0.248,-0.28 l 0.188,-0.608 c -0.136,0.048 -0.28,0.092 -0.428,0.092 -0.184,0 -0.348,-0.136 -0.348,-0.32 0,-0.156 0.124,-0.284 0.284,-0.284 0.104,0 0.196,0.064 0.228,0.16 0.04,0.112 0.024,0.24 0.14,0.24 0.068,0 0.212,-0.216 0.24,-0.28 0.016,-0.044 0.08,-0.044 0.096,0 l -0.728,2.7 c -0.028,0.024 -0.06,0.036 -0.092,0.036 -0.032,0 -0.068,-0.012 -0.096,-0.036 z"
     fill="currentColor"
     id="path36"
     style="stroke-width:0.004" />
  <polygon
     transform="translate(15.8707,3.1792416)"
     stroke-linejoin="round"
     stroke-linecap="round"
     stroke-width="0.0579"
     fill="currentColor"
     stroke="currentColor"
     points="1.0144,0.321 -0.0289,-0.018 -0.0289,0.4711 1.0144,0.8101 "
     id="polygon38" />
  <rect
     x="15.7549"
     y="3.1459415"
     width="0.1158"
     height="3.3032999"
     ry="0.033300001"
     fill="currentColor"
     id="rect40" />
  <path
     d="m 15.4529,6.1059416 c 0.212,0 0.416,0.108 0.416,0.344 0,0.284 -0.224,0.48 -0.412,0.592 -0.144,0.088 -0.304,0.144 -0.472,0.144 -0.212,0 -0.42,-0.108 -0.42,-0.344 0,-0.284 0.228,-0.48 0.416,-0.592 0.144,-0.088 0.304,-0.144 0.472,-0.144 z"
     fill="currentColor"
     id="path42"
     style="stroke-width:0.004" />
  <line
     stroke-linejoin="round"
     stroke-linecap="round"
     stroke-width="0.1425"
     stroke="currentColor"
     x1="17.364901"
     y1="0.60134161"
     x2="17.364901"
     y2="1.3013415"
     id="line44" />
  <line
     stroke-linejoin="round"
     stroke-linecap="round"
     stroke-width="0.1425"
     stroke="currentColor"
     x1="9.5549002"
     y1="0.60134161"
     x2="9.5549002"
     y2="1.3013415"
     id="line46" />
  <line
     stroke-linejoin="round"
     stroke-linecap="round"
     stroke-width="0.1425"
     stroke="currentColor"
     x1="17.364901"
     y1="0.60134161"
     x2="14.5009"
     y2="0.60134161"
     id="line48" />
  <line
     stroke-linejoin="round"
     stroke-linecap="round"
     stroke-width="0.1425"
     stroke="currentColor"
     x1="9.5549002"
     y1="0.60134161"
     x2="12.6189"
     y2="0.60134161"
     id="line50" />
  <text
     font-family="serif"
     font-style="italic"
     font-size="1.7463px"
     text-anchor="start"
     fill="currentColor"
     id="text54"
     x="13.0189"
     y="1.1562415"><tspan
       id="tspan52">5</tspan></text>
  <line
     stroke-linejoin="round"
     stroke-linecap="round"
     stroke-width="0.1425"
     stroke="currentColor"
     x1="28.6649"
     y1="0.60134161"
     x2="28.6649"
     y2="1.3013415"
     id="line56" />
  <line
     stroke-linejoin="round"
     stroke-linecap="round"
     stroke-width="0.1425"
     stroke="currentColor"
     x1="18.464899"
     y1="0.60134161"
     x2="18.464899"
     y2="1.3013415"
     id="line58" />
  <line
     stroke-linejoin="round"
     stroke-linecap="round"
     stroke-width="0.1425"
     stroke="currentColor"
     x1="28.6649"
     y1="0.60134161"
     x2="24.6059"
     y2="0.60134161"
     id="line60" />
  <line
     stroke-linejoin="round"
     stroke-linecap="round"
     stroke-width="0.1425"
     stroke="currentColor"
     x1="18.464899"
     y1="0.60134161"
     x2="22.7239"
     y2="0.60134161"
     id="line62" />
  <text
     font-family="serif"
     font-style="italic"
     font-size="1.7463px"
     text-anchor="start"
     fill="currentColor"
     id="text66"
     x="23.123899"
     y="1.1562415"><tspan
       id="tspan64">5</tspan></text>
  <path
     stroke-width="0.0712"
     stroke-linejoin="round"
     stroke-linecap="round"
     stroke="currentColor"
     fill="currentColor"
     d="m 28.5707,7.1459416 c 0.323,0.4089 0.8712,0.4089 1.1942,0 v 0 c -0.323,0.302 -0.8712,0.302 -1.1942,0 z"
     id="path68" />
  <line
     stroke-linejoin="round"
     stroke-linecap="round"
     stroke-width="0.1425"
     stroke="currentColor"
     x1="40.156101"
     y1="0.60134161"
     x2="40.156101"
     y2="1.3013415"
     id="line70" />
  <line
     stroke-linejoin="round"
     stroke-linecap="round"
     stroke-width="0.1425"
     stroke="currentColor"
     x1="30.954901"
     y1="0.60134161"
     x2="30.954901"
     y2="1.3013415"
     id="line72" />
  <line
     stroke-linejoin="round"
     stroke-linecap="round"
     stroke-width="0.1425"
     stroke="currentColor"
     x1="40.156101"
     y1="0.60134161"
     x2="36.5965"
     y2="0.60134161"
     id="line74" />
  <line
     stroke-linejoin="round"
     stroke-linecap="round"
     stroke-width="0.1425"
     stroke="currentColor"
     x1="30.954901"
     y1="0.60134161"
     x2="34.7145"
     y2="0.60134161"
     id="line76" />
  <text
     font-family="serif"
     font-style="italic"
     font-size="1.7463px"
     text-anchor="start"
     fill="currentColor"
     id="text80"
     x="35.114498"
     y="1.1562415"><tspan
       id="tspan78">5</tspan></text>
  <polygon
     transform="translate(36.262,3.6792416)"
     stroke-linejoin="round"
     stroke-linecap="round"
     stroke-width="0.0579"
     fill="currentColor"
     stroke="currentColor"
     points="1.0144,0.321 -0.0289,-0.018 -0.0289,0.4711 1.0144,0.8101 "
     id="polygon82" />
  <rect
     x="36.146198"
     y="3.6459415"
     width="0.1158"
     height="3.3032999"
     ry="0.033300001"
     fill="currentColor"
     id="rect84" />
  <path
     d="m 35.8442,6.6059416 c 0.212,0 0.416,0.108 0.416,0.344 0,0.284 -0.224,0.48 -0.412,0.592 -0.144,0.088 -0.304,0.144 -0.472,0.144 -0.212,0 -0.42,-0.108 -0.42,-0.344 0,-0.284 0.228,-0.48 0.416,-0.592 0.144,-0.088 0.304,-0.144 0.472,-0.144 z"
     fill="currentColor"
     id="path86"
     style="stroke-width:0.004" />
  <rect
     x="28.2549"
     y="3.1459415"
     width="0.1158"
     height="3.3032999"
     ry="0.033300001"
     fill="currentColor"
     id="rect88" />
  <path
     d="m 32.8402,6.1459416 0.4,-1.308 c -0.14,0.052 -0.288,0.092 -0.436,0.092 -0.184,0 -0.348,-0.136 -0.348,-0.32 0,-0.156 0.124,-0.284 0.284,-0.284 0.104,0 0.196,0.064 0.228,0.16 0.04,0.112 0.024,0.24 0.14,0.24 0.068,0 0.228,-0.212 0.248,-0.28 l 0.188,-0.608 c -0.136,0.048 -0.28,0.092 -0.428,0.092 -0.184,0 -0.348,-0.136 -0.348,-0.32 0,-0.156 0.124,-0.284 0.284,-0.284 0.104,0 0.196,0.064 0.228,0.16 0.04,0.112 0.024,0.24 0.14,0.24 0.068,0 0.212,-0.216 0.24,-0.28 0.016,-0.044 0.08,-0.044 0.096,0 l -0.728,2.7 c -0.028,0.024 -0.06,0.036 -0.092,0.036 -0.032,0 -0.068,-0.012 -0.096,-0.036 z"
     fill="currentColor"
     id="path90"
     style="stroke-width:0.004" />
  <polygon
     transform="translate(31.2707,3.1792416)"
     stroke-linejoin="round"
     stroke-linecap="round"
     stroke-width="0.0579"
     fill="currentColor"
     stroke="currentColor"
     points="1.0144,0.321 -0.0289,-0.018 -0.0289,0.4711 1.0144,0.8101 "
     id="polygon92" />
  <polygon
     transform="translate(31.2707,4.1792416)"
     stroke-linejoin="round"
     stroke-linecap="round"
     stroke-width="0.0579"
     fill="currentColor"
     stroke="currentColor"
     points="1.0144,0.321 -0.0289,-0.018 -0.0289,0.4711 1.0144,0.8101 "
     id="polygon94" />
  <rect
     x="31.1549"
     y="3.1459415"
     width="0.1158"
     height="3.3032999"
     ry="0.033300001"
     fill="currentColor"
     id="rect96" />
  <path
     d="m 30.8529,6.1059416 c 0.212,0 0.416,0.108 0.416,0.344 0,0.284 -0.224,0.48 -0.412,0.592 -0.144,0.088 -0.304,0.144 -0.472,0.144 -0.212,0 -0.42,-0.108 -0.42,-0.344 0,-0.284 0.228,-0.48 0.416,-0.592 0.144,-0.088 0.304,-0.144 0.472,-0.144 z"
     fill="currentColor"
     id="path98"
     style="stroke-width:0.004" />
  <polygon
     transform="translate(28.3707,3.1792416)"
     stroke-linejoin="round"
     stroke-linecap="round"
     stroke-width="0.0579"
     fill="currentColor"
     stroke="currentColor"
     points="1.0144,0.321 -0.0289,-0.018 -0.0289,0.4711 1.0144,0.8101 "
     id="polygon100" />
  <polygon
     transform="translate(28.3707,4.1792416)"
     stroke-linejoin="round"
     stroke-linecap="round"
     stroke-width="0.0579"
     fill="currentColor"
     stroke="currentColor"
     points="1.0144,0.321 -0.0289,-0.018 -0.0289,0.4711 1.0144,0.8101 "
     id="polygon102" />
  <polygon
     transform="translate(42.762,3.1792416)"
     stroke-linejoin="round"
     stroke-linecap="round"
     stroke-width="0.0579"
     fill="currentColor"
     stroke="currentColor"
     points="1.0144,0.321 -0.0289,-0.018 -0.0289,0.4711 1.0144,0.8101 "
     id="polygon104" />
  <path
     d="m 42.3442,6.1059416 c 0.212,0 0.416,0.108 0.416,0.344 0,0.284 -0.224,0.48 -0.412,0.592 -0.144,0.088 -0.304,0.144 -0.472,0.144 -0.212,0 -0.42,-0.108 -0.42,-0.344 0,-0.284 0.228,-0.48 0.416,-0.592 0.144,-0.088 0.304,-0.144 0.472,-0.144 z"
     fill="currentColor"
     id="path106"
     style="stroke-width:0.004" />
  <path
     d="m 38.8402,6.1459416 0.4,-1.308 c -0.14,0.052 -0.288,0.092 -0.436,0.092 -0.184,0 -0.348,-0.136 -0.348,-0.32 0,-0.156 0.124,-0.284 0.284,-0.284 0.104,0 0.196,0.064 0.228,0.16 0.04,0.112 0.024,0.24 0.14,0.24 0.068,0 0.228,-0.212 0.248,-0.28 l 0.188,-0.608 c -0.136,0.048 -0.28,0.092 -0.428,0.092 -0.184,0 -0.348,-0.136 -0.348,-0.32 0,-0.156 0.124,-0.284 0.284,-0.284 0.104,0 0.196,0.064 0.228,0.16 0.04,0.112 0.024,0.24 0.14,0.24 0.068,0 0.212,-0.216 0.24,-0.28 0.016,-0.044 0.08,-0.044 0.096,0 l -0.728,2.7 c -0.028,0.024 -0.06,0.036 -0.092,0.036 -0.032,0 -0.068,-0.012 -0.096,-0.036 z"
     fill="currentColor"
     id="path108"
     style="stroke-width:0.004" />
  <rect
     x="42.646198"
     y="3.1459415"
     width="0.1158"
     height="3.3032999"
     ry="0.033300001"
     fill="currentColor"
     id="rect110" />
  <polygon
     transform="translate(9.8707,3.6792416)"
     stroke-linejoin="round"
     stroke-linecap="round"
     stroke-width="0.0579"
     fill="currentColor"
     stroke="currentColor"
     points="1.0144,0.321 -0.0289,-0.018 -0.0289,0.4711 1.0144,0.8101 "
     id="polygon112" />
  <rect
     x="9.7549"
     y="3.6459415"
     width="0.1158"
     height="3.3032999"
     ry="0.033300001"
     fill="currentColor"
     id="rect114" />
  <path
     d="m 5.832,2.8699416 c 0.084,-0.052 0.168,-0.108 0.228,-0.188 0.044,-0.06 0.072,-0.128 0.1,-0.196 0.016,-0.036 0.08,-0.028 0.08,0.028 v 1.024 h 0.272 c 0.036,0 0.052,0.028 0.052,0.056 0,0.028 -0.016,0.052 -0.052,0.052 H 6.24 v 0.064 c 0,0.18 0.104,0.352 0.272,0.352 0.028,0 0.04,0.02 0.04,0.04 0,0.02 -0.012,0.044 -0.04,0.044 -0.164,0 -0.328,-0.052 -0.492,-0.052 -0.164,0 -0.328,0.052 -0.492,0.052 -0.028,0 -0.04,-0.024 -0.04,-0.044 0,-0.02 0.012,-0.04 0.04,-0.04 0.168,0 0.272,-0.172 0.272,-0.352 v -0.064 H 5.108 c -0.084,0 -0.116,-0.052 -0.116,-0.084 0,-0.008 0.004,-0.02 0.008,-0.024 0.324,-0.384 0.584,-0.832 0.584,-1.332 0,-0.04 0.028,-0.072 0.06,-0.06 0.088,0.028 0.176,0.052 0.268,0.052 0.092,0 0.18,-0.024 0.268,-0.052 0.048,-0.016 0.084,0.032 0.06,0.06 l -1.132,1.332 H 5.8 v -0.588 c 0,-0.032 0.008,-0.064 0.032,-0.08 z"
     fill="currentColor"
     id="path116"
     style="stroke-width:0.004" />
  <path
     d="m 5.832,4.8900416 c 0.084,-0.052 0.168,-0.108 0.228,-0.188 0.044,-0.06 0.072,-0.128 0.1,-0.196 0.016,-0.036 0.08,-0.028 0.08,0.028 v 1.024 h 0.272 c 0.036,0 0.052,0.028 0.052,0.056 0,0.028 -0.016,0.052 -0.052,0.052 H 6.24 v 0.064 c 0,0.18 0.104,0.352 0.272,0.352 0.028,0 0.04,0.02 0.04,0.04 0,0.02 -0.012,0.044 -0.04,0.044 -0.164,0 -0.328,-0.052 -0.492,-0.052 -0.164,0 -0.328,0.052 -0.492,0.052 -0.028,0 -0.04,-0.024 -0.04,-0.044 0,-0.02 0.012,-0.04 0.04,-0.04 0.168,0 0.272,-0.172 0.272,-0.352 v -0.064 H 5.108 c -0.084,0 -0.116,-0.052 -0.116,-0.084 0,-0.008 0.004,-0.02 0.008,-0.024 0.324,-0.384 0.584,-0.832 0.584,-1.332 0,-0.04 0.028,-0.072 0.06,-0.06 0.088,0.028 0.176,0.052 0.268,0.052 0.092,0 0.18,-0.024 0.268,-0.052 0.048,-0.016 0.084,0.032 0.06,0.06 l -1.132,1.332 H 5.8 v -0.588 c 0,-0.032 0.008,-0.064 0.032,-0.08 z"
     fill="currentColor"
     id="path118"
     style="stroke-width:0.004" />
  <path
     d="m 2.296,4.1059416 c 0.02,0 0.04,-0.004 0.06,-0.004 0.616,0 1.016,0.508 1.016,1.036 0,0.304 -0.132,0.612 -0.428,0.832 -0.088,0.068 -0.188,0.116 -0.292,0.148 0.012,0.144 0.02,0.288 0.02,0.432 0,0.076 0,0.148 -0.004,0.224 -0.028,0.48 -0.352,0.904 -0.824,0.904 -0.432,0 -0.78,-0.348 -0.78,-0.78 0,-0.232 0.212,-0.416 0.448,-0.416 0.216,0 0.38,0.192 0.38,0.416 0,0.208 -0.172,0.38 -0.38,0.38 -0.048,0 -0.096,-0.016 -0.14,-0.036 0.104,0.164 0.28,0.28 0.484,0.28 0.004,0 0.008,-0.004 0.012,-0.004 0.372,-0.008 0.616,-0.372 0.64,-0.768 0.004,-0.072 0.008,-0.14 0.008,-0.212 0,-0.128 -0.008,-0.256 -0.02,-0.384 -0.116,0.02 -0.232,0.032 -0.356,0.032 -0.752,0 -1.332,-0.684 -1.332,-1.488 0,-0.712 0.532,-1.224 1.004,-1.76 -0.072,-0.252 -0.14,-0.504 -0.168,-0.764 -0.024,-0.204 -0.028,-0.408 -0.028,-0.616 0,-0.464 0.22,-0.90400001 0.6,-1.18000001 0.02,-0.016 0.044,-0.016 0.064,0 0.28,0.336 0.528,0.98400001 0.528,1.43600001 0,0.576 -0.348,1.024 -0.732,1.46 0.08,0.276 0.156,0.552 0.22,0.832 z m 0.34,1.86 c 0.276,-0.096 0.468,-0.384 0.468,-0.664 0,-0.368 -0.276,-0.736 -0.716,-0.772 0.1,0.468 0.192,0.94 0.248,1.436 z m -1.552,-0.944 c 0,0.544 0.524,1.004 1.068,1.004 0.112,0 0.22,-0.008 0.328,-0.024 -0.06,-0.512 -0.152,-0.988 -0.256,-1.468 -0.316,0.036 -0.5,0.248 -0.5,0.484 0,0.176 0.104,0.368 0.328,0.496 0.016,0.016 0.028,0.036 0.028,0.056 0,0.044 -0.036,0.084 -0.08,0.084 -0.012,0 -0.024,-0.004 -0.036,-0.008 -0.32,-0.172 -0.464,-0.456 -0.464,-0.736 0,-0.352 0.228,-0.692 0.632,-0.784 -0.056,-0.24 -0.12,-0.476 -0.184,-0.712 -0.432,0.484 -0.864,0.968 -0.864,1.608 z M 2.444,0.94594159 C 2.048,1.1459416 1.8,1.5499416 1.8,1.9939416 c 0,0.304 0.06,0.548 0.132,0.8 0.328,-0.388 0.596,-0.792 0.596,-1.3 0,-0.232 -0.016,-0.336 -0.084,-0.54800001 z"
     fill="currentColor"
     id="path120"
     style="stroke-width:0.004" />
  <path
     d="m 9.4529,6.6059416 c 0.212,0 0.416,0.108 0.416,0.344 0,0.284 -0.224,0.48 -0.412,0.592 -0.144,0.088 -0.304,0.144 -0.472,0.144 -0.212,0 -0.42,-0.108 -0.42,-0.344 0,-0.284 0.228,-0.48 0.416,-0.592 0.144,-0.088 0.304,-0.144 0.472,-0.144 z"
     fill="currentColor"
     id="path122"
     style="stroke-width:0.004" />
  <path
     d="m 24.9489,6.1459416 0.4,-1.308 c -0.14,0.052 -0.288,0.092 -0.436,0.092 -0.184,0 -0.348,-0.136 -0.348,-0.32 0,-0.156 0.124,-0.284 0.284,-0.284 0.104,0 0.196,0.064 0.228,0.16 0.04,0.112 0.024,0.24 0.14,0.24 0.068,0 0.228,-0.212 0.248,-0.28 l 0.188,-0.608 c -0.136,0.048 -0.28,0.092 -0.428,0.092 -0.184,0 -0.348,-0.136 -0.348,-0.32 0,-0.156 0.124,-0.284 0.284,-0.284 0.104,0 0.196,0.064 0.228,0.16 0.04,0.112 0.024,0.24 0.14,0.24 0.068,0 0.212,-0.216 0.24,-0.28 0.016,-0.044 0.08,-0.044 0.096,0 l -0.728,2.7 c -0.028,0.024 -0.06,0.036 -0.092,0.036 -0.032,0 -0.068,-0.012 -0.096,-0.036 z"
     fill="currentColor"
     id="path124"
     style="stroke-width:0.004" />
  <text
     font-family="serif"
     font-style="italic"
     font-size="1.7463px"
     text-anchor="start"
     fill="currentColor"
     id="text128"
     x="46.3256"
     y="1.1562415"><tspan
       id="tspan126">5</tspan></text>
  <line
     stroke-linejoin="round"
     stroke-linecap="round"
     stroke-width="0.1425"
     stroke="currentColor"
     x1="51.086998"
     y1="0.60134161"
     x2="51.086998"
     y2="1.3013415"
     id="line130" />
  <line
     stroke-linejoin="round"
     stroke-linecap="round"
     stroke-width="0.1425"
     stroke="currentColor"
     x1="42.446201"
     y1="0.60134161"
     x2="42.446201"
     y2="1.3013415"
     id="line132" />
  <line
     stroke-linejoin="round"
     stroke-linecap="round"
     stroke-width="0.1425"
     stroke="currentColor"
     x1="51.086998"
     y1="0.60134161"
     x2="47.807598"
     y2="0.60134161"
     id="line134" />
  <line
     stroke-linejoin="round"
     stroke-linecap="round"
     stroke-width="0.1425"
     stroke="currentColor"
     x1="42.446201"
     y1="0.60134161"
     x2="45.925602"
     y2="0.60134161"
     id="line136" />
  <polygon
     transform="translate(48.762,3.6792416)"
     stroke-linejoin="round"
     stroke-linecap="round"
     stroke-width="0.0579"
     fill="currentColor"
     stroke="currentColor"
     points="1.0144,0.321 -0.0289,-0.018 -0.0289,0.4711 1.0144,0.8101 "
     id="polygon138" />
  <rect
     x="48.646198"
     y="3.6459415"
     width="0.1158"
     height="3.3032999"
     ry="0.033300001"
     fill="currentColor"
     id="rect140" />
  <path
     d="m 48.3442,6.6059416 c 0.212,0 0.416,0.108 0.416,0.344 0,0.284 -0.224,0.48 -0.412,0.592 -0.144,0.088 -0.304,0.144 -0.472,0.144 -0.212,0 -0.42,-0.108 -0.42,-0.344 0,-0.284 0.228,-0.48 0.416,-0.592 0.144,-0.088 0.304,-0.144 0.472,-0.144 z"
     fill="currentColor"
     id="path142"
     style="stroke-width:0.004" />
  <path
     d="m 45.3402,6.1459416 0.4,-1.308 c -0.14,0.052 -0.288,0.092 -0.436,0.092 -0.184,0 -0.348,-0.136 -0.348,-0.32 0,-0.156 0.124,-0.284 0.284,-0.284 0.104,0 0.196,0.064 0.228,0.16 0.04,0.112 0.024,0.24 0.14,0.24 0.068,0 0.228,-0.212 0.248,-0.28 l 0.188,-0.608 c -0.136,0.048 -0.28,0.092 -0.428,0.092 -0.184,0 -0.348,-0.136 -0.348,-0.32 0,-0.156 0.124,-0.284 0.284,-0.284 0.104,0 0.196,0.064 0.228,0.16 0.04,0.112 0.024,0.24 0.14,0.24 0.068,0 0.212,-0.216 0.24,-0.28 0.016,-0.044 0.08,-0.044 0.096,0 l -0.728,2.7 c -0.028,0.024 -0.06,0.036 -0.092,0.036 -0.032,0 -0.068,-0.012 -0.096,-0.036 z"
     fill="currentColor"
     id="path144"
     style="stroke-width:0.004" />
</svg>
