<?xml version="1.0" encoding="UTF-8" standalone="no"?>
<svg
   version="1.2"
   width="102.84684mm"
   height="13.868978mm"
   viewBox="0 0 48.771245 6.5768419"
   id="svg154"
   sodipodi:docname="README-13.svg"
   xmlns:inkscape="http://www.inkscape.org/namespaces/inkscape"
   xmlns:sodipodi="http://sodipodi.sourceforge.net/DTD/sodipodi-0.dtd"
   xmlns="http://www.w3.org/2000/svg"
   xmlns:svg="http://www.w3.org/2000/svg">
  <defs
     id="defs158" />
  <sodipodi:namedview
     id="namedview156"
     pagecolor="#ffffff"
     bordercolor="#666666"
     borderopacity="1.0"
     inkscape:pageshadow="2"
     inkscape:pageopacity="0.0"
     inkscape:pagecheckerboard="0"
     inkscape:document-units="mm" />
  <style
     text="style/css"
     id="style2"><![CDATA[
tspan { white-space: pre; }
]]></style>
  <!-- Page: 1/1 -->
  <text
     font-family="serif"
     font-size="2.2002px"
     text-anchor="start"
     fill="currentColor"
     id="text6"
     y="-0.98185843"><tspan
       id="tspan4" /></text>
  <line
     stroke-linejoin="round"
     stroke-linecap="round"
     stroke-width="0.089"
     stroke="currentColor"
     x1="0.044500001"
     y1="6.0368414"
     x2="48.455502"
     y2="6.0368414"
     id="line8" />
  <path
     d="m 13.388,5.4968416 c 0.212,0 0.416,0.108 0.416,0.344 0,0.284 -0.224,0.48 -0.412,0.592 -0.144,0.088 -0.304,0.144 -0.472,0.144 -0.212,0 -0.42,-0.108 -0.42,-0.344 0,-0.284 0.228,-0.48 0.416,-0.592 0.144,-0.088 0.304,-0.144 0.472,-0.144 z"
     fill="currentColor"
     id="path10"
     style="stroke-width:0.004" />
  <path
     d="m 20.588,5.4968416 c 0.212,0 0.416,0.108 0.416,0.344 0,0.284 -0.224,0.48 -0.412,0.592 -0.144,0.088 -0.304,0.144 -0.472,0.144 -0.212,0 -0.42,-0.108 -0.42,-0.344 0,-0.284 0.228,-0.48 0.416,-0.592 0.144,-0.088 0.304,-0.144 0.472,-0.144 z"
     fill="currentColor"
     id="path12"
     style="stroke-width:0.004" />
  <rect
     x="13.69"
     y="2.8413417"
     width="0.1158"
     height="2.9986999"
     ry="0.033300001"
     fill="currentColor"
     id="rect14" />
  <path
     d="m 15.788,5.4968416 c 0.212,0 0.416,0.108 0.416,0.344 0,0.284 -0.224,0.48 -0.412,0.592 -0.144,0.088 -0.304,0.144 -0.472,0.144 -0.212,0 -0.42,-0.108 -0.42,-0.344 0,-0.284 0.228,-0.48 0.416,-0.592 0.144,-0.088 0.304,-0.144 0.472,-0.144 z"
     fill="currentColor"
     id="path16"
     style="stroke-width:0.004" />
  <rect
     x="16.09"
     y="2.8413417"
     width="0.1158"
     height="2.9986999"
     ry="0.033300001"
     fill="currentColor"
     id="rect18" />
  <path
     d="m 18.188,5.4968416 c 0.212,0 0.416,0.108 0.416,0.344 0,0.284 -0.224,0.48 -0.412,0.592 -0.144,0.088 -0.304,0.144 -0.472,0.144 -0.212,0 -0.42,-0.108 -0.42,-0.344 0,-0.284 0.228,-0.48 0.416,-0.592 0.144,-0.088 0.304,-0.144 0.472,-0.144 z"
     fill="currentColor"
     id="path20"
     style="stroke-width:0.004" />
  <rect
     x="18.49"
     y="2.8413417"
     width="0.1158"
     height="2.9986999"
     ry="0.033300001"
     fill="currentColor"
     id="rect22" />
  <polygon
     transform="translate(1.69,2.8413416)"
     stroke-linejoin="round"
     stroke-linecap="round"
     stroke-width="0.0667"
     fill="currentColor"
     stroke="currentColor"
     points="0.0333,0.2067 0.0333,-0.2067 9.6824,-0.2067 9.6824,0.2067 "
     id="polygon24" />
  <polygon
     transform="translate(1.69,3.6459416)"
     stroke-linejoin="round"
     stroke-linecap="round"
     stroke-width="0.0667"
     fill="currentColor"
     stroke="currentColor"
     points="0.0333,0.2067 0.0333,-0.2067 9.6824,-0.2067 9.6824,0.2067 "
     id="polygon26" />
  <path
     d="m 6.188,5.4968416 c 0.212,0 0.416,0.108 0.416,0.344 0,0.284 -0.224,0.48 -0.412,0.592 -0.144,0.088 -0.304,0.144 -0.472,0.144 -0.212,0 -0.42,-0.108 -0.42,-0.344 0,-0.284 0.228,-0.48 0.416,-0.592 0.144,-0.088 0.304,-0.144 0.472,-0.144 z"
     fill="currentColor"
     id="path28"
     style="stroke-width:0.004" />
  <rect
     x="6.4899998"
     y="2.8413417"
     width="0.1158"
     height="2.9986999"
     ry="0.033300001"
     fill="currentColor"
     id="rect30" />
  <path
     d="m 8.588,5.4968416 c 0.212,0 0.416,0.108 0.416,0.344 0,0.284 -0.224,0.48 -0.412,0.592 -0.144,0.088 -0.304,0.144 -0.472,0.144 -0.212,0 -0.42,-0.108 -0.42,-0.344 0,-0.284 0.228,-0.48 0.416,-0.592 0.144,-0.088 0.304,-0.144 0.472,-0.144 z"
     fill="currentColor"
     id="path32"
     style="stroke-width:0.004" />
  <rect
     x="8.8900003"
     y="2.8413417"
     width="0.1158"
     height="2.9986999"
     ry="0.033300001"
     fill="currentColor"
     id="rect34" />
  <path
     d="m 10.988,5.4968416 c 0.212,0 0.416,0.108 0.416,0.344 0,0.284 -0.224,0.48 -0.412,0.592 -0.144,0.088 -0.304,0.144 -0.472,0.144 -0.212,0 -0.42,-0.108 -0.42,-0.344 0,-0.284 0.228,-0.48 0.416,-0.592 0.144,-0.088 0.304,-0.144 0.472,-0.144 z"
     fill="currentColor"
     id="path36"
     style="stroke-width:0.004" />
  <rect
     x="11.29"
     y="2.8413417"
     width="0.1158"
     height="2.9986999"
     ry="0.033300001"
     fill="currentColor"
     id="rect38" />
  <path
     d="m 32.588,5.4968416 c 0.212,0 0.416,0.108 0.416,0.344 0,0.284 -0.224,0.48 -0.412,0.592 -0.144,0.088 -0.304,0.144 -0.472,0.144 -0.212,0 -0.42,-0.108 -0.42,-0.344 0,-0.284 0.228,-0.48 0.416,-0.592 0.144,-0.088 0.304,-0.144 0.472,-0.144 z"
     fill="currentColor"
     id="path40"
     style="stroke-width:0.004" />
  <path
     d="m 30.188,5.4968416 c 0.212,0 0.416,0.108 0.416,0.344 0,0.284 -0.224,0.48 -0.412,0.592 -0.144,0.088 -0.304,0.144 -0.472,0.144 -0.212,0 -0.42,-0.108 -0.42,-0.344 0,-0.284 0.228,-0.48 0.416,-0.592 0.144,-0.088 0.304,-0.144 0.472,-0.144 z"
     fill="currentColor"
     id="path42"
     style="stroke-width:0.004" />
  <rect
     x="30.49"
     y="2.8413417"
     width="0.1158"
     height="2.9986999"
     ry="0.033300001"
     fill="currentColor"
     id="rect44" />
  <polygon
     transform="translate(37.69,2.8413416)"
     stroke-linejoin="round"
     stroke-linecap="round"
     stroke-width="0.0667"
     fill="currentColor"
     stroke="currentColor"
     points="0.0333,0.2067 0.0333,-0.2067 9.6824,-0.2067 9.6824,0.2067 "
     id="polygon46" />
  <polygon
     transform="translate(37.69,3.6459416)"
     stroke-linejoin="round"
     stroke-linecap="round"
     stroke-width="0.0667"
     fill="currentColor"
     stroke="currentColor"
     points="0.0333,0.2067 0.0333,-0.2067 9.6824,-0.2067 9.6824,0.2067 "
     id="polygon48" />
  <text
     font-family="serif"
     font-style="italic"
     font-size="1.7463px"
     text-anchor="start"
     fill="currentColor"
     id="text52"
     x="29.903999"
     y="1.1562415"><tspan
       id="tspan50">5</tspan></text>
  <line
     stroke-linejoin="round"
     stroke-linecap="round"
     stroke-width="0.1425"
     stroke="currentColor"
     x1="35.200001"
     y1="0.60134161"
     x2="35.200001"
     y2="1.3013415"
     id="line54" />
  <line
     stroke-linejoin="round"
     stroke-linecap="round"
     stroke-width="0.1425"
     stroke="currentColor"
     x1="25.49"
     y1="0.60134161"
     x2="25.49"
     y2="1.3013415"
     id="line56" />
  <line
     stroke-linejoin="round"
     stroke-linecap="round"
     stroke-width="0.1425"
     stroke="currentColor"
     x1="35.200001"
     y1="0.60134161"
     x2="31.386"
     y2="0.60134161"
     id="line58" />
  <line
     stroke-linejoin="round"
     stroke-linecap="round"
     stroke-width="0.1425"
     stroke="currentColor"
     x1="25.49"
     y1="0.60134161"
     x2="29.504"
     y2="0.60134161"
     id="line60" />
  <polygon
     transform="translate(25.69,2.8413416)"
     stroke-linejoin="round"
     stroke-linecap="round"
     stroke-width="0.0667"
     fill="currentColor"
     stroke="currentColor"
     points="0.0333,0.2067 0.0333,-0.2067 9.6824,-0.2067 9.6824,0.2067 "
     id="polygon62" />
  <polygon
     transform="translate(25.69,3.6459416)"
     stroke-linejoin="round"
     stroke-linecap="round"
     stroke-width="0.0667"
     fill="currentColor"
     stroke="currentColor"
     points="0.0333,0.2067 0.0333,-0.2067 9.6824,-0.2067 9.6824,0.2067 "
     id="polygon64" />
  <text
     font-family="serif"
     font-style="italic"
     font-size="1.7463px"
     text-anchor="start"
     fill="currentColor"
     id="text68"
     x="17.903999"
     y="1.1562415"><tspan
       id="tspan66">5</tspan></text>
  <line
     stroke-linejoin="round"
     stroke-linecap="round"
     stroke-width="0.1425"
     stroke="currentColor"
     x1="23.200001"
     y1="0.60134161"
     x2="23.200001"
     y2="1.3013415"
     id="line70" />
  <line
     stroke-linejoin="round"
     stroke-linecap="round"
     stroke-width="0.1425"
     stroke="currentColor"
     x1="13.49"
     y1="0.60134161"
     x2="13.49"
     y2="1.3013415"
     id="line72" />
  <line
     stroke-linejoin="round"
     stroke-linecap="round"
     stroke-width="0.1425"
     stroke="currentColor"
     x1="23.200001"
     y1="0.60134161"
     x2="19.386"
     y2="0.60134161"
     id="line74" />
  <line
     stroke-linejoin="round"
     stroke-linecap="round"
     stroke-width="0.1425"
     stroke="currentColor"
     x1="13.49"
     y1="0.60134161"
     x2="17.504"
     y2="0.60134161"
     id="line76" />
  <polygon
     transform="translate(13.69,2.8413416)"
     stroke-linejoin="round"
     stroke-linecap="round"
     stroke-width="0.0667"
     fill="currentColor"
     stroke="currentColor"
     points="0.0333,0.2067 0.0333,-0.2067 9.6824,-0.2067 9.6824,0.2067 "
     id="polygon78" />
  <polygon
     transform="translate(13.69,3.6459416)"
     stroke-linejoin="round"
     stroke-linecap="round"
     stroke-width="0.0667"
     fill="currentColor"
     stroke="currentColor"
     points="0.0333,0.2067 0.0333,-0.2067 9.6824,-0.2067 9.6824,0.2067 "
     id="polygon80" />
  <text
     font-family="serif"
     font-style="italic"
     font-size="1.7463px"
     text-anchor="start"
     fill="currentColor"
     id="text84"
     x="5.9039998"
     y="1.1562415"><tspan
       id="tspan82">5</tspan></text>
  <line
     stroke-linejoin="round"
     stroke-linecap="round"
     stroke-width="0.1425"
     stroke="currentColor"
     x1="11.2"
     y1="0.60134161"
     x2="11.2"
     y2="1.3013415"
     id="line86" />
  <line
     stroke-linejoin="round"
     stroke-linecap="round"
     stroke-width="0.1425"
     stroke="currentColor"
     x1="1.49"
     y1="0.60134161"
     x2="1.49"
     y2="1.3013415"
     id="line88" />
  <line
     stroke-linejoin="round"
     stroke-linecap="round"
     stroke-width="0.1425"
     stroke="currentColor"
     x1="11.2"
     y1="0.60134161"
     x2="7.3860002"
     y2="0.60134161"
     id="line90" />
  <line
     stroke-linejoin="round"
     stroke-linecap="round"
     stroke-width="0.1425"
     stroke="currentColor"
     x1="1.49"
     y1="0.60134161"
     x2="5.5039997"
     y2="0.60134161"
     id="line92" />
  <path
     d="m 22.988,5.4968416 c 0.212,0 0.416,0.108 0.416,0.344 0,0.284 -0.224,0.48 -0.412,0.592 -0.144,0.088 -0.304,0.144 -0.472,0.144 -0.212,0 -0.42,-0.108 -0.42,-0.344 0,-0.284 0.228,-0.48 0.416,-0.592 0.144,-0.088 0.304,-0.144 0.472,-0.144 z"
     fill="currentColor"
     id="path94"
     style="stroke-width:0.004" />
  <rect
     x="23.290001"
     y="2.8413417"
     width="0.1158"
     height="2.9986999"
     ry="0.033300001"
     fill="currentColor"
     id="rect96" />
  <rect
     x="20.889999"
     y="2.8413417"
     width="0.1158"
     height="2.9986999"
     ry="0.033300001"
     fill="currentColor"
     id="rect98" />
  <path
     d="m 25.388,5.4968416 c 0.212,0 0.416,0.108 0.416,0.344 0,0.284 -0.224,0.48 -0.412,0.592 -0.144,0.088 -0.304,0.144 -0.472,0.144 -0.212,0 -0.42,-0.108 -0.42,-0.344 0,-0.284 0.228,-0.48 0.416,-0.592 0.144,-0.088 0.304,-0.144 0.472,-0.144 z"
     fill="currentColor"
     id="path100"
     style="stroke-width:0.004" />
  <rect
     x="25.690001"
     y="2.8413417"
     width="0.1158"
     height="2.9986999"
     ry="0.033300001"
     fill="currentColor"
     id="rect102" />
  <path
     d="m 27.788,5.4968416 c 0.212,0 0.416,0.108 0.416,0.344 0,0.284 -0.224,0.48 -0.412,0.592 -0.144,0.088 -0.304,0.144 -0.472,0.144 -0.212,0 -0.42,-0.108 -0.42,-0.344 0,-0.284 0.228,-0.48 0.416,-0.592 0.144,-0.088 0.304,-0.144 0.472,-0.144 z"
     fill="currentColor"
     id="path104"
     style="stroke-width:0.004" />
  <rect
     x="28.09"
     y="2.8413417"
     width="0.1158"
     height="2.9986999"
     ry="0.033300001"
     fill="currentColor"
     id="rect106" />
  <path
     d="m 34.988,5.4968416 c 0.212,0 0.416,0.108 0.416,0.344 0,0.284 -0.224,0.48 -0.412,0.592 -0.144,0.088 -0.304,0.144 -0.472,0.144 -0.212,0 -0.42,-0.108 -0.42,-0.344 0,-0.284 0.228,-0.48 0.416,-0.592 0.144,-0.088 0.304,-0.144 0.472,-0.144 z"
     fill="currentColor"
     id="path108"
     style="stroke-width:0.004" />
  <rect
     x="35.290001"
     y="2.8413417"
     width="0.1158"
     height="2.9986999"
     ry="0.033300001"
     fill="currentColor"
     id="rect110" />
  <path
     d="m 37.388,5.4968416 c 0.212,0 0.416,0.108 0.416,0.344 0,0.284 -0.224,0.48 -0.412,0.592 -0.144,0.088 -0.304,0.144 -0.472,0.144 -0.212,0 -0.42,-0.108 -0.42,-0.344 0,-0.284 0.228,-0.48 0.416,-0.592 0.144,-0.088 0.304,-0.144 0.472,-0.144 z"
     fill="currentColor"
     id="path112"
     style="stroke-width:0.004" />
  <rect
     x="37.689999"
     y="2.8413417"
     width="0.1158"
     height="2.9986999"
     ry="0.033300001"
     fill="currentColor"
     id="rect114" />
  <path
     d="m 39.788,5.4968416 c 0.212,0 0.416,0.108 0.416,0.344 0,0.284 -0.224,0.48 -0.412,0.592 -0.144,0.088 -0.304,0.144 -0.472,0.144 -0.212,0 -0.42,-0.108 -0.42,-0.344 0,-0.284 0.228,-0.48 0.416,-0.592 0.144,-0.088 0.304,-0.144 0.472,-0.144 z"
     fill="currentColor"
     id="path116"
     style="stroke-width:0.004" />
  <rect
     x="40.09"
     y="2.8413417"
     width="0.1158"
     height="2.9986999"
     ry="0.033300001"
     fill="currentColor"
     id="rect118" />
  <path
     d="m 1.388,5.4968416 c 0.212,0 0.416,0.108 0.416,0.344 0,0.284 -0.224,0.48 -0.412,0.592 -0.144,0.088 -0.304,0.144 -0.472,0.144 -0.212,0 -0.42,-0.108 -0.42,-0.344 0,-0.284 0.228,-0.48 0.416,-0.592 0.144,-0.088 0.304,-0.144 0.472,-0.144 z"
     fill="currentColor"
     id="path120"
     style="stroke-width:0.004" />
  <line
     stroke-linejoin="round"
     stroke-linecap="round"
     stroke-width="0.1425"
     stroke="currentColor"
     x1="48.700001"
     y1="0.60134161"
     x2="48.700001"
     y2="1.3013415"
     id="line122" />
  <line
     stroke-linejoin="round"
     stroke-linecap="round"
     stroke-width="0.1425"
     stroke="currentColor"
     x1="37.490002"
     y1="0.60134161"
     x2="37.490002"
     y2="1.3013415"
     id="line124" />
  <line
     stroke-linejoin="round"
     stroke-linecap="round"
     stroke-width="0.1425"
     stroke="currentColor"
     x1="48.700001"
     y1="0.60134161"
     x2="44.136002"
     y2="0.60134161"
     id="line126" />
  <line
     stroke-linejoin="round"
     stroke-linecap="round"
     stroke-width="0.1425"
     stroke="currentColor"
     x1="37.490002"
     y1="0.60134161"
     x2="42.254002"
     y2="0.60134161"
     id="line128" />
  <text
     font-family="serif"
     font-style="italic"
     font-size="1.7463px"
     text-anchor="start"
     fill="currentColor"
     id="text132"
     x="42.653999"
     y="1.1562415"><tspan
       id="tspan130">5</tspan></text>
  <rect
     x="1.6900001"
     y="2.8413417"
     width="0.1158"
     height="2.9986999"
     ry="0.033300001"
     fill="currentColor"
     id="rect134" />
  <rect
     x="32.889999"
     y="2.8413417"
     width="0.1158"
     height="2.9986999"
     ry="0.033300001"
     fill="currentColor"
     id="rect136" />
  <rect
     x="44.889999"
     y="2.8413417"
     width="0.1158"
     height="2.9986999"
     ry="0.033300001"
     fill="currentColor"
     id="rect138" />
  <path
     d="m 46.988,5.4968416 c 0.212,0 0.416,0.108 0.416,0.344 0,0.284 -0.224,0.48 -0.412,0.592 -0.144,0.088 -0.304,0.144 -0.472,0.144 -0.212,0 -0.42,-0.108 -0.42,-0.344 0,-0.284 0.228,-0.48 0.416,-0.592 0.144,-0.088 0.304,-0.144 0.472,-0.144 z"
     fill="currentColor"
     id="path140"
     style="stroke-width:0.004" />
  <path
     d="m 42.188,5.4968416 c 0.212,0 0.416,0.108 0.416,0.344 0,0.284 -0.224,0.48 -0.412,0.592 -0.144,0.088 -0.304,0.144 -0.472,0.144 -0.212,0 -0.42,-0.108 -0.42,-0.344 0,-0.284 0.228,-0.48 0.416,-0.592 0.144,-0.088 0.304,-0.144 0.472,-0.144 z"
     fill="currentColor"
     id="path142"
     style="stroke-width:0.004" />
  <rect
     x="47.290001"
     y="2.8413417"
     width="0.1158"
     height="2.9986999"
     ry="0.033300001"
     fill="currentColor"
     id="rect144" />
  <path
     d="m 44.588,5.4968416 c 0.212,0 0.416,0.108 0.416,0.344 0,0.284 -0.224,0.48 -0.412,0.592 -0.144,0.088 -0.304,0.144 -0.472,0.144 -0.212,0 -0.42,-0.108 -0.42,-0.344 0,-0.284 0.228,-0.48 0.416,-0.592 0.144,-0.088 0.304,-0.144 0.472,-0.144 z"
     fill="currentColor"
     id="path146"
     style="stroke-width:0.004" />
  <path
     d="m 3.788,5.4968416 c 0.212,0 0.416,0.108 0.416,0.344 0,0.284 -0.224,0.48 -0.412,0.592 -0.144,0.088 -0.304,0.144 -0.472,0.144 -0.212,0 -0.42,-0.108 -0.42,-0.344 0,-0.284 0.228,-0.48 0.416,-0.592 0.144,-0.088 0.304,-0.144 0.472,-0.144 z"
     fill="currentColor"
     id="path148"
     style="stroke-width:0.004" />
  <rect
     x="4.0900002"
     y="2.8413417"
     width="0.1158"
     height="2.9986999"
     ry="0.033300001"
     fill="currentColor"
     id="rect150" />
  <rect
     x="42.490002"
     y="2.8413417"
     width="0.1158"
     height="2.9986999"
     ry="0.033300001"
     fill="currentColor"
     id="rect152" />
</svg>
