<?xml version="1.0" encoding="UTF-8" standalone="no"?>
<svg
   version="1.2"
   width="38.011177mm"
   height="8.0603828mm"
   viewBox="0 0 30.900643 6.5525756"
   id="svg74"
   sodipodi:docname="README-11.svg"
   xmlns:inkscape="http://www.inkscape.org/namespaces/inkscape"
   xmlns:sodipodi="http://sodipodi.sourceforge.net/DTD/sodipodi-0.dtd"
   xmlns="http://www.w3.org/2000/svg"
   xmlns:svg="http://www.w3.org/2000/svg">
  <defs
     id="defs78" />
  <sodipodi:namedview
     id="namedview76"
     pagecolor="#ffffff"
     bordercolor="#666666"
     borderopacity="1.0"
     inkscape:pageshadow="2"
     inkscape:pageopacity="0.0"
     inkscape:pagecheckerboard="0"
     inkscape:document-units="mm" />
  <style
     text="style/css"
     id="style2"><![CDATA[
tspan { white-space: pre; }
]]></style>
  <!-- Page: 1/1 -->
  <text
     font-family="serif"
     font-size="2.1998px"
     text-anchor="start"
     fill="currentColor"
     id="text6"
     y="-1.014226"><tspan
       id="tspan4" /></text>
  <line
     stroke-linejoin="round"
     stroke-linecap="round"
     stroke-width="0.1282"
     stroke="currentColor"
     x1="0.064099997"
     y1="5.9965739"
     x2="30.534"
     y2="5.9965739"
     id="line8" />
  <polygon
     transform="translate(25.4676,2.678774)"
     stroke-linejoin="round"
     stroke-linecap="round"
     stroke-width="0.0833"
     fill="currentColor"
     stroke="currentColor"
     points="1.0004,0.3126 -0.0417,-0.026 -0.0417,0.4364 1.0004,0.775 "
     id="polygon10" />
  <polygon
     transform="translate(1.6315,2.496574)"
     stroke-linejoin="round"
     stroke-linecap="round"
     stroke-width="0.1143"
     fill="currentColor"
     stroke="currentColor"
     points="0.0571,0.1829 0.0571,-0.1829 4.6095,-0.1829 4.6095,0.1829 "
     id="polygon12" />
  <polygon
     transform="translate(1.6315,3.320674)"
     stroke-linejoin="round"
     stroke-linecap="round"
     stroke-width="0.1143"
     fill="currentColor"
     stroke="currentColor"
     points="0.0571,0.1829 0.0571,-0.1829 4.6095,-0.1829 4.6095,0.1829 "
     id="polygon14" />
  <polygon
     transform="translate(5.1148,4.144774)"
     stroke-linejoin="round"
     stroke-linecap="round"
     stroke-width="0.1143"
     fill="currentColor"
     stroke="currentColor"
     points="0.0571,0.1829 0.0571,-0.1829 1.1262,-0.1829 1.1262,0.1829 "
     id="polygon16" />
  <path
     d="m 5.832,5.440574 c 0.244,0 0.468,0.132 0.468,0.396 0,0.284 -0.208,0.476 -0.396,0.588 -0.136,0.08 -0.284,0.128 -0.44,0.128 -0.244,0 -0.464,-0.132 -0.464,-0.396 0,-0.284 0.204,-0.476 0.392,-0.588 0.136,-0.08 0.284,-0.128 0.44,-0.128 z"
     fill="currentColor"
     id="path18"
     style="stroke-width:0.004" />
  <rect
     x="6.1314998"
     y="2.4965739"
     width="0.1666"
     height="3.3382001"
     ry="0.057100002"
     fill="currentColor"
     id="rect20" />
  <path
     d="m 7.4301,5.440574 c 0.244,0 0.468,0.132 0.468,0.396 0,0.284 -0.208,0.476 -0.396,0.588 -0.136,0.08 -0.284,0.128 -0.44,0.128 -0.244,0 -0.464,-0.132 -0.464,-0.396 0,-0.284 0.204,-0.476 0.392,-0.588 0.136,-0.08 0.284,-0.128 0.44,-0.128 z"
     fill="currentColor"
     id="path22"
     style="stroke-width:0.004" />
  <path
     d="m 8.3326,5.496574 c 0,-0.12 0.1,-0.22 0.22,-0.22 0.12,0 0.216,0.1 0.216,0.22 0,0.12 -0.096,0.22 -0.216,0.22 -0.12,0 -0.22,-0.1 -0.22,-0.22 z"
     fill="currentColor"
     id="path24"
     style="stroke-width:0.004" />
  <rect
     x="7.7296"
     y="2.9965739"
     width="0.1666"
     height="2.8382001"
     ry="0.057100002"
     fill="currentColor"
     id="rect26" />
  <path
     d="m 12.8301,5.440574 c 0.244,0 0.468,0.132 0.468,0.396 0,0.284 -0.208,0.476 -0.396,0.588 -0.136,0.08 -0.284,0.128 -0.44,0.128 -0.244,0 -0.464,-0.132 -0.464,-0.396 0,-0.284 0.204,-0.476 0.392,-0.588 0.136,-0.08 0.284,-0.128 0.44,-0.128 z"
     fill="currentColor"
     id="path28"
     style="stroke-width:0.004" />
  <rect
     x="13.1296"
     y="2.9965739"
     width="0.1666"
     height="2.8382001"
     ry="0.057100002"
     fill="currentColor"
     id="rect30" />
  <text
     font-family="serif"
     font-style="italic"
     font-size="1.7465px"
     text-anchor="start"
     fill="currentColor"
     id="text34"
     x="9.7432003"
     y="1.341974"><tspan
       id="tspan32">5:3</tspan></text>
  <line
     stroke-linejoin="round"
     stroke-linecap="round"
     stroke-width="0.2051"
     stroke="currentColor"
     x1="14.2981"
     y1="0.75657403"
     x2="14.2981"
     y2="1.456574"
     id="line36" />
  <line
     stroke-linejoin="round"
     stroke-linecap="round"
     stroke-width="0.2051"
     stroke="currentColor"
     x1="7.5296001"
     y1="0.75657403"
     x2="7.5296001"
     y2="1.456574"
     id="line38" />
  <line
     stroke-linejoin="round"
     stroke-linecap="round"
     stroke-width="0.2051"
     stroke="currentColor"
     x1="14.2981"
     y1="0.75657403"
     x2="12.6845"
     y2="0.75657403"
     id="line40" />
  <line
     stroke-linejoin="round"
     stroke-linecap="round"
     stroke-width="0.2051"
     stroke="currentColor"
     x1="7.5296001"
     y1="0.75657403"
     x2="9.3431997"
     y2="0.75657403"
     id="line42" />
  <polygon
     transform="translate(7.7296,2.996574)"
     stroke-linejoin="round"
     stroke-linecap="round"
     stroke-width="0.1143"
     fill="currentColor"
     stroke="currentColor"
     points="0.0571,0.1829 0.0571,-0.1829 5.5095,-0.1829 5.5095,0.1829 "
     id="polygon44" />
  <line
     stroke-linejoin="round"
     stroke-linecap="round"
     stroke-width="0.2051"
     stroke="currentColor"
     x1="30.7981"
     y1="0.595474"
     x2="30.7981"
     y2="1.2954741"
     id="line46" />
  <line
     stroke-linejoin="round"
     stroke-linecap="round"
     stroke-width="0.2051"
     stroke="currentColor"
     x1="16.5296"
     y1="0.595474"
     x2="16.5296"
     y2="1.2954741"
     id="line48" />
  <line
     stroke-linejoin="round"
     stroke-linecap="round"
     stroke-width="0.2051"
     stroke="currentColor"
     x1="30.7981"
     y1="0.595474"
     x2="25.4345"
     y2="0.595474"
     id="line50" />
  <line
     stroke-linejoin="round"
     stroke-linecap="round"
     stroke-width="0.2051"
     stroke="currentColor"
     x1="16.5296"
     y1="0.595474"
     x2="22.093201"
     y2="0.595474"
     id="line52" />
  <text
     font-family="serif"
     font-style="italic"
     font-size="1.7465px"
     text-anchor="start"
     fill="currentColor"
     id="text56"
     x="22.4932"
     y="1.156374"><tspan
       id="tspan54">7:5</tspan></text>
  <path
     d="m 1.332,5.440574 c 0.244,0 0.468,0.132 0.468,0.396 0,0.284 -0.208,0.476 -0.396,0.588 -0.136,0.08 -0.284,0.128 -0.44,0.128 -0.244,0 -0.464,-0.132 -0.464,-0.396 0,-0.284 0.204,-0.476 0.392,-0.588 0.136,-0.08 0.284,-0.128 0.44,-0.128 z"
     fill="currentColor"
     id="path58"
     style="stroke-width:0.004" />
  <path
     d="m 2.2345,5.496574 c 0,-0.12 0.1,-0.22 0.22,-0.22 0.12,0 0.216,0.1 0.216,0.22 0,0.12 -0.096,0.22 -0.216,0.22 -0.12,0 -0.22,-0.1 -0.22,-0.22 z"
     fill="currentColor"
     id="path60"
     style="stroke-width:0.004" />
  <rect
     x="1.6315"
     y="2.4965739"
     width="0.1666"
     height="3.3382001"
     ry="0.057100002"
     fill="currentColor"
     id="rect62" />
  <rect
     x="25.301001"
     y="2.6215739"
     width="0.1666"
     height="3.2132001"
     ry="0.057100002"
     fill="currentColor"
     id="rect64" />
  <path
     d="m 25.904,5.496574 c 0,-0.12 0.1,-0.22 0.22,-0.22 0.12,0 0.216,0.1 0.216,0.22 0,0.12 -0.096,0.22 -0.216,0.22 -0.12,0 -0.22,-0.1 -0.22,-0.22 z"
     fill="currentColor"
     id="path66"
     style="stroke-width:0.004" />
  <path
     d="m 25.0015,5.440574 c 0.244,0 0.468,0.132 0.468,0.396 0,0.284 -0.208,0.476 -0.396,0.588 -0.136,0.08 -0.284,0.128 -0.44,0.128 -0.244,0 -0.464,-0.132 -0.464,-0.396 0,-0.284 0.204,-0.476 0.392,-0.588 0.136,-0.08 0.284,-0.128 0.44,-0.128 z"
     fill="currentColor"
     id="path68"
     style="stroke-width:0.004" />
  <rect
     x="16.729601"
     y="2.6632738"
     width="0.1666"
     height="3.1715"
     ry="0.057100002"
     fill="currentColor"
     id="rect70" />
  <path
     d="m 16.4301,5.440574 c 0.244,0 0.468,0.132 0.468,0.396 0,0.284 -0.208,0.476 -0.396,0.588 -0.136,0.08 -0.284,0.128 -0.44,0.128 -0.244,0 -0.464,-0.132 -0.464,-0.396 0,-0.284 0.204,-0.476 0.392,-0.588 0.136,-0.08 0.284,-0.128 0.44,-0.128 z"
     fill="currentColor"
     id="path72"
     style="stroke-width:0.004" />
</svg>
