<?xml version="1.0" encoding="UTF-8" standalone="no"?>
<svg
   version="1.2"
   width="98.545036mm"
   height="16.262327mm"
   viewBox="0 0 50.9796 8.4128742"
   id="svg166"
   sodipodi:docname="README-15.svg"
   xmlns:inkscape="http://www.inkscape.org/namespaces/inkscape"
   xmlns:sodipodi="http://sodipodi.sourceforge.net/DTD/sodipodi-0.dtd"
   xmlns="http://www.w3.org/2000/svg"
   xmlns:svg="http://www.w3.org/2000/svg">
  <defs
     id="defs170" />
  <sodipodi:namedview
     id="namedview168"
     pagecolor="#ffffff"
     bordercolor="#666666"
     borderopacity="1.0"
     inkscape:pageshadow="2"
     inkscape:pageopacity="0.0"
     inkscape:pagecheckerboard="0"
     inkscape:document-units="mm" />
  <style
     text="style/css"
     id="style2"><![CDATA[
tspan { white-space: pre; }
]]></style>
  <!-- Page: 1/1 -->
  <g
     color="#7f7f7f"
     id="g14"
     transform="translate(-13.14,-3.578726)">
    <line
       transform="translate(13.14,9.7234)"
       stroke-linejoin="round"
       stroke-linecap="round"
       stroke-width="0.094"
       stroke="currentColor"
       x1="0.046999998"
       y1="0"
       x2="50.835999"
       y2="0"
       id="line4" />
    <line
       transform="translate(13.14,8.7234)"
       stroke-linejoin="round"
       stroke-linecap="round"
       stroke-width="0.094"
       stroke="currentColor"
       x1="0.046999998"
       y1="0"
       x2="50.835999"
       y2="0"
       id="line6" />
    <line
       transform="translate(13.14,7.7234)"
       stroke-linejoin="round"
       stroke-linecap="round"
       stroke-width="0.094"
       stroke="currentColor"
       x1="0.046999998"
       y1="0"
       x2="50.835999"
       y2="0"
       id="line8" />
    <line
       transform="translate(13.14,6.7234)"
       stroke-linejoin="round"
       stroke-linecap="round"
       stroke-width="0.094"
       stroke="currentColor"
       x1="0.046999998"
       y1="0"
       x2="50.835999"
       y2="0"
       id="line10" />
    <line
       transform="translate(13.14,5.7234)"
       stroke-linejoin="round"
       stroke-linecap="round"
       stroke-width="0.094"
       stroke="currentColor"
       x1="0.046999998"
       y1="0"
       x2="50.835999"
       y2="0"
       id="line12" />
  </g>
  <rect
     x="46.956699"
     y="7.0476742"
     width="1.9578"
     height="0.19400001"
     ry="0.097000003"
     fill="currentColor"
     id="rect16" />
  <rect
     x="40.956699"
     y="7.0476742"
     width="1.9578"
     height="0.19400001"
     ry="0.097000003"
     fill="currentColor"
     id="rect18" />
  <rect
     x="34.456699"
     y="7.0476742"
     width="1.9578"
     height="0.19400001"
     ry="0.097000003"
     fill="currentColor"
     id="rect20" />
  <rect
     x="29.6567"
     y="7.0476742"
     width="1.9578"
     height="0.19400001"
     ry="0.097000003"
     fill="currentColor"
     id="rect22" />
  <rect
     x="26.756701"
     y="7.0476742"
     width="1.9578"
     height="0.19400001"
     ry="0.097000003"
     fill="currentColor"
     id="rect24" />
  <rect
     x="20.756701"
     y="7.0476742"
     width="1.9578"
     height="0.19400001"
     ry="0.097000003"
     fill="currentColor"
     id="rect26" />
  <rect
     x="14.2567"
     y="7.0476742"
     width="1.9578"
     height="0.19400001"
     ry="0.097000003"
     fill="currentColor"
     id="rect28" />
  <rect
     x="8.2566996"
     y="7.0476742"
     width="1.9578"
     height="0.19400001"
     ry="0.097000003"
     fill="currentColor"
     id="rect30" />
  <rect
     x="50.704399"
     y="2.0976741"
     width="0.1786"
     height="4.0939999"
     ry="0.0000"
     fill="currentColor"
     id="rect32" />
  <path
     d="m 35.663,6.604674 c 0.216,0 0.424,0.108 0.424,0.348 0,0.284 -0.224,0.48 -0.412,0.592 -0.144,0.084 -0.304,0.14 -0.468,0.14 -0.216,0 -0.424,-0.108 -0.424,-0.348 0,-0.284 0.224,-0.48 0.412,-0.592 0.144,-0.084 0.304,-0.14 0.468,-0.14 z"
     fill="currentColor"
     id="path34"
     style="stroke-width:0.004" />
  <rect
     x="35.966"
     y="3.3476741"
     width="0.1222"
     height="3.6052001"
     ry="0.036400001"
     fill="currentColor"
     id="rect36" />
  <path
     d="m 39.263,6.104674 c 0.216,0 0.424,0.108 0.424,0.348 0,0.284 -0.224,0.48 -0.412,0.592 -0.144,0.084 -0.304,0.14 -0.468,0.14 -0.216,0 -0.424,-0.108 -0.424,-0.348 0,-0.284 0.224,-0.48 0.412,-0.592 0.144,-0.084 0.304,-0.14 0.468,-0.14 z"
     fill="currentColor"
     id="path38"
     style="stroke-width:0.004" />
  <rect
     x="39.566002"
     y="3.3476741"
     width="0.1222"
     height="3.1052001"
     ry="0.036400001"
     fill="currentColor"
     id="rect40" />
  <rect
     x="33.566002"
     y="3.3476741"
     width="0.1222"
     height="3.1052001"
     ry="0.036400001"
     fill="currentColor"
     id="rect42" />
  <path
     d="m 33.263,6.104674 c 0.216,0 0.424,0.108 0.424,0.348 0,0.284 -0.224,0.48 -0.412,0.592 -0.144,0.084 -0.304,0.14 -0.468,0.14 -0.216,0 -0.424,-0.108 -0.424,-0.348 0,-0.284 0.224,-0.48 0.412,-0.592 0.144,-0.084 0.304,-0.14 0.468,-0.14 z"
     fill="currentColor"
     id="path44"
     style="stroke-width:0.004" />
  <rect
     x="31.166"
     y="3.3476741"
     width="0.1222"
     height="3.6052001"
     ry="0.036400001"
     fill="currentColor"
     id="rect46" />
  <path
     d="m 30.863,6.604674 c 0.216,0 0.424,0.108 0.424,0.348 0,0.284 -0.224,0.48 -0.412,0.592 -0.144,0.084 -0.304,0.14 -0.468,0.14 -0.216,0 -0.424,-0.108 -0.424,-0.348 0,-0.284 0.224,-0.48 0.412,-0.592 0.144,-0.084 0.304,-0.14 0.468,-0.14 z"
     fill="currentColor"
     id="path48"
     style="stroke-width:0.004" />
  <polygon
     transform="translate(9.766,3.941674)"
     stroke-linejoin="round"
     stroke-linecap="round"
     stroke-width="0.0727"
     fill="currentColor"
     stroke="currentColor"
     points="0.0364,0.2136 0.0364,-0.2136 6.0859,-0.2136 6.0859,0.2136 "
     id="polygon50" />
  <polygon
     transform="translate(13.366,4.738674)"
     stroke-linejoin="round"
     stroke-linecap="round"
     stroke-width="0.0727"
     fill="currentColor"
     stroke="currentColor"
     points="0.0364,0.2136 0.0364,-0.2136 1.1248,-0.2136 1.1248,0.2136 "
     id="polygon52" />
  <line
     stroke-linejoin="round"
     stroke-linecap="round"
     stroke-width="0.1504"
     stroke="currentColor"
     x1="17.382999"
     y1="0.59767401"
     x2="17.382999"
     y2="1.2976741"
     id="line54" />
  <line
     stroke-linejoin="round"
     stroke-linecap="round"
     stroke-width="0.1504"
     stroke="currentColor"
     x1="9.566"
     y1="0.59767401"
     x2="9.566"
     y2="1.2976741"
     id="line56" />
  <line
     stroke-linejoin="round"
     stroke-linecap="round"
     stroke-width="0.1504"
     stroke="currentColor"
     x1="17.382999"
     y1="0.59767401"
     x2="14.5091"
     y2="0.59767401"
     id="line58" />
  <line
     stroke-linejoin="round"
     stroke-linecap="round"
     stroke-width="0.1504"
     stroke="currentColor"
     x1="9.566"
     y1="0.59767401"
     x2="12.64"
     y2="0.59767401"
     id="line60" />
  <text
     font-family="serif"
     font-style="italic"
     font-size="1.7465px"
     text-anchor="start"
     fill="currentColor"
     id="text64"
     x="13.0399"
     y="1.156374"><tspan
       id="tspan62">5</tspan></text>
  <polygon
     transform="translate(19.866,3.347674)"
     stroke-linejoin="round"
     stroke-linecap="round"
     stroke-width="0.0727"
     fill="currentColor"
     stroke="currentColor"
     points="0.0364,0.2136 0.0364,-0.2136 8.4859,-0.2136 8.4859,0.2136 "
     id="polygon66" />
  <polygon
     transform="translate(25.866,4.144674)"
     stroke-linejoin="round"
     stroke-linecap="round"
     stroke-width="0.0727"
     fill="currentColor"
     stroke="currentColor"
     points="0.0364,0.2136 0.0364,-0.2136 2.4859,-0.2136 2.4859,0.2136 "
     id="polygon68" />
  <polygon
     transform="translate(19.866,4.144674)"
     stroke-linejoin="round"
     stroke-linecap="round"
     stroke-width="0.0727"
     fill="currentColor"
     stroke="currentColor"
     points="0.0364,0.2136 0.0364,-0.2136 1.1248,-0.2136 1.1248,0.2136 "
     id="polygon70" />
  <line
     stroke-linejoin="round"
     stroke-linecap="round"
     stroke-width="0.1504"
     stroke="currentColor"
     x1="28.683001"
     y1="0.59767401"
     x2="28.683001"
     y2="1.2976741"
     id="line72" />
  <line
     stroke-linejoin="round"
     stroke-linecap="round"
     stroke-width="0.1504"
     stroke="currentColor"
     x1="19.666"
     y1="0.59767401"
     x2="19.666"
     y2="1.2976741"
     id="line74" />
  <line
     stroke-linejoin="round"
     stroke-linecap="round"
     stroke-width="0.1504"
     stroke="currentColor"
     x1="28.683001"
     y1="0.59767401"
     x2="25.209101"
     y2="0.59767401"
     id="line76" />
  <line
     stroke-linejoin="round"
     stroke-linecap="round"
     stroke-width="0.1504"
     stroke="currentColor"
     x1="19.666"
     y1="0.59767401"
     x2="23.34"
     y2="0.59767401"
     id="line78" />
  <text
     font-family="serif"
     font-style="italic"
     font-size="1.7465px"
     text-anchor="start"
     fill="currentColor"
     id="text82"
     x="23.739901"
     y="1.156374"><tspan
       id="tspan80">5</tspan></text>
  <path
     stroke-width="0.0752"
     stroke-linejoin="round"
     stroke-linecap="round"
     stroke="currentColor"
     fill="currentColor"
     d="m 27.9356,7.894674 c 0.5747,0.6408 1.9253,0.6408 2.5,0 v 0 c -0.5747,0.528 -1.9253,0.528 -2.5,0 z"
     id="path84" />
  <polygon
     transform="translate(31.166,3.347674)"
     stroke-linejoin="round"
     stroke-linecap="round"
     stroke-width="0.0727"
     fill="currentColor"
     stroke="currentColor"
     points="0.0364,0.2136 0.0364,-0.2136 8.4859,-0.2136 8.4859,0.2136 "
     id="polygon86" />
  <polygon
     transform="translate(38.5271,4.144674)"
     stroke-linejoin="round"
     stroke-linecap="round"
     stroke-width="0.0727"
     fill="currentColor"
     stroke="currentColor"
     points="0.0364,0.2136 0.0364,-0.2136 1.1248,-0.2136 1.1248,0.2136 "
     id="polygon88" />
  <polygon
     transform="translate(31.166,4.144674)"
     stroke-linejoin="round"
     stroke-linecap="round"
     stroke-width="0.0727"
     fill="currentColor"
     stroke="currentColor"
     points="0.0364,0.2136 0.0364,-0.2136 2.4859,-0.2136 2.4859,0.2136 "
     id="polygon90" />
  <line
     stroke-linejoin="round"
     stroke-linecap="round"
     stroke-width="0.1504"
     stroke="currentColor"
     x1="39.983002"
     y1="0.59767401"
     x2="39.983002"
     y2="1.2976741"
     id="line92" />
  <line
     stroke-linejoin="round"
     stroke-linecap="round"
     stroke-width="0.1504"
     stroke="currentColor"
     x1="30.966"
     y1="0.59767401"
     x2="30.966"
     y2="1.2976741"
     id="line94" />
  <line
     stroke-linejoin="round"
     stroke-linecap="round"
     stroke-width="0.1504"
     stroke="currentColor"
     x1="39.983002"
     y1="0.59767401"
     x2="36.509102"
     y2="0.59767401"
     id="line96" />
  <line
     stroke-linejoin="round"
     stroke-linecap="round"
     stroke-width="0.1504"
     stroke="currentColor"
     x1="30.966"
     y1="0.59767401"
     x2="34.639999"
     y2="0.59767401"
     id="line98" />
  <text
     font-family="serif"
     font-style="italic"
     font-size="1.7465px"
     text-anchor="start"
     fill="currentColor"
     id="text102"
     x="35.039902"
     y="1.156374"><tspan
       id="tspan100">5</tspan></text>
  <polygon
     transform="translate(42.466,3.941674)"
     stroke-linejoin="round"
     stroke-linecap="round"
     stroke-width="0.0727"
     fill="currentColor"
     stroke="currentColor"
     points="0.0364,0.2136 0.0364,-0.2136 6.0859,-0.2136 6.0859,0.2136 "
     id="polygon104" />
  <polygon
     transform="translate(46.066,4.738674)"
     stroke-linejoin="round"
     stroke-linecap="round"
     stroke-width="0.0727"
     fill="currentColor"
     stroke="currentColor"
     points="0.0364,0.2136 0.0364,-0.2136 1.1248,-0.2136 1.1248,0.2136 "
     id="polygon106" />
  <path
     d="m 42.163,6.604674 c 0.216,0 0.424,0.108 0.424,0.348 0,0.284 -0.224,0.48 -0.412,0.592 -0.144,0.084 -0.304,0.14 -0.468,0.14 -0.216,0 -0.424,-0.108 -0.424,-0.348 0,-0.284 0.224,-0.48 0.412,-0.592 0.144,-0.084 0.304,-0.14 0.468,-0.14 z"
     fill="currentColor"
     id="path108"
     style="stroke-width:0.004" />
  <rect
     x="48.466"
     y="3.941674"
     width="0.1222"
     height="3.0111001"
     ry="0.036400001"
     fill="currentColor"
     id="rect110" />
  <path
     d="m 48.163,6.604674 c 0.216,0 0.424,0.108 0.424,0.348 0,0.284 -0.224,0.48 -0.412,0.592 -0.144,0.084 -0.304,0.14 -0.468,0.14 -0.216,0 -0.424,-0.108 -0.424,-0.348 0,-0.284 0.224,-0.48 0.412,-0.592 0.144,-0.084 0.304,-0.14 0.468,-0.14 z"
     fill="currentColor"
     id="path112"
     style="stroke-width:0.004" />
  <rect
     x="46.066002"
     y="3.941674"
     width="0.1222"
     height="2.5111001"
     ry="0.036400001"
     fill="currentColor"
     id="rect114" />
  <path
     d="m 45.763,6.104674 c 0.216,0 0.424,0.108 0.424,0.348 0,0.284 -0.224,0.48 -0.412,0.592 -0.144,0.084 -0.304,0.14 -0.468,0.14 -0.216,0 -0.424,-0.108 -0.424,-0.348 0,-0.284 0.224,-0.48 0.412,-0.592 0.144,-0.084 0.304,-0.14 0.468,-0.14 z"
     fill="currentColor"
     id="path116"
     style="stroke-width:0.004" />
  <rect
     x="42.466"
     y="3.941674"
     width="0.1222"
     height="3.0111001"
     ry="0.036400001"
     fill="currentColor"
     id="rect118" />
  <path
     d="m 21.963,6.604674 c 0.216,0 0.424,0.108 0.424,0.348 0,0.284 -0.224,0.48 -0.412,0.592 -0.144,0.084 -0.304,0.14 -0.468,0.14 -0.216,0 -0.424,-0.108 -0.424,-0.348 0,-0.284 0.224,-0.48 0.412,-0.592 0.144,-0.084 0.304,-0.14 0.468,-0.14 z"
     fill="currentColor"
     id="path120"
     style="stroke-width:0.004" />
  <path
     d="m 1.868,7.516674 -0.004,0.164 h -0.02 c -0.432,0 -0.784,-0.352 -0.784,-0.784 0,-0.232 0.216,-0.416 0.452,-0.416 0.216,0 0.38,0.192 0.38,0.416 0,0.208 -0.172,0.38 -0.38,0.38 -0.044,0 -0.092,-0.012 -0.136,-0.032 0.104,0.16 0.276,0.272 0.476,0.272 z m 0.432,-3.416 c 0.02,0 0.036,-0.004 0.056,-0.004 0.62,0 1.02,0.512 1.02,1.04 0,0.304 -0.132,0.616 -0.428,0.836 -0.088,0.068 -0.188,0.112 -0.292,0.144 0.012,0.14 0.02,0.284 0.02,0.428 0,0.076 -0.004,0.152 -0.008,0.228 -0.028,0.476 -0.348,0.896 -0.804,0.908 l 0.004,-0.164 c 0.372,-0.008 0.616,-0.372 0.64,-0.768 0.004,-0.072 0.004,-0.144 0.004,-0.216 0,-0.124 -0.004,-0.252 -0.016,-0.376 -0.116,0.02 -0.232,0.032 -0.356,0.032 -0.752,0 -1.332,-0.688 -1.332,-1.492 0,-0.708 0.528,-1.228 0.996,-1.764 -0.076,-0.252 -0.14,-0.5 -0.172,-0.76 -0.024,-0.204 -0.028,-0.412 -0.028,-0.62 0,-0.464 0.224,-0.90399997 0.6,-1.17599997 0.02,-0.016 0.052,-0.012 0.072,0.004 0.28,0.336 0.528,0.97999997 0.528,1.43199997 0,0.572 -0.344,1.02 -0.724,1.456 0.08,0.276 0.152,0.552 0.22,0.832 z m 0.34,1.86 c 0.276,-0.096 0.46,-0.384 0.46,-0.66 0,-0.364 -0.272,-0.728 -0.704,-0.768 0.1,0.468 0.188,0.932 0.244,1.428 z m -1.548,-0.936 c 0,0.544 0.52,1 1.06,1 0.112,0 0.22,-0.008 0.328,-0.024 -0.056,-0.508 -0.152,-0.984 -0.256,-1.464 -0.316,0.036 -0.496,0.248 -0.496,0.48 0,0.176 0.104,0.364 0.328,0.492 0.02,0.016 0.024,0.04 0.024,0.06 0,0.044 -0.036,0.084 -0.084,0.084 -0.012,0 -0.02,-0.004 -0.032,-0.008 -0.32,-0.172 -0.468,-0.456 -0.468,-0.736 0,-0.352 0.232,-0.692 0.636,-0.784 -0.056,-0.236 -0.12,-0.476 -0.184,-0.708 -0.428,0.484 -0.856,0.968 -0.856,1.608 z m 1.432,-3.54 c 0,-0.228 -0.016,-0.32 -0.084,-0.52799997 C 2.044,1.152674 1.792,1.556674 1.792,1.996674 c 0,0.3 0.068,0.54 0.14,0.788 0.324,-0.388 0.592,-0.796 0.592,-1.3 z"
     fill="currentColor"
     id="path122"
     style="stroke-width:0.004" />
  <rect
     x="19.865999"
     y="3.3476741"
     width="0.1222"
     height="3.1052001"
     ry="0.036400001"
     fill="currentColor"
     id="rect124" />
  <path
     d="m 19.563,6.104674 c 0.216,0 0.424,0.108 0.424,0.348 0,0.284 -0.224,0.48 -0.412,0.592 -0.144,0.084 -0.304,0.14 -0.468,0.14 -0.216,0 -0.424,-0.108 -0.424,-0.348 0,-0.284 0.224,-0.48 0.412,-0.592 0.144,-0.084 0.304,-0.14 0.468,-0.14 z"
     fill="currentColor"
     id="path126"
     style="stroke-width:0.004" />
  <rect
     x="15.766"
     y="3.941674"
     width="0.1222"
     height="3.0111001"
     ry="0.036400001"
     fill="currentColor"
     id="rect128" />
  <path
     d="m 15.463,6.604674 c 0.216,0 0.424,0.108 0.424,0.348 0,0.284 -0.224,0.48 -0.412,0.592 -0.144,0.084 -0.304,0.14 -0.468,0.14 -0.216,0 -0.424,-0.108 -0.424,-0.348 0,-0.284 0.224,-0.48 0.412,-0.592 0.144,-0.084 0.304,-0.14 0.468,-0.14 z"
     fill="currentColor"
     id="path130"
     style="stroke-width:0.004" />
  <path
     d="m 9.463,6.604674 c 0.216,0 0.424,0.108 0.424,0.348 0,0.284 -0.224,0.48 -0.412,0.592 -0.144,0.084 -0.304,0.14 -0.468,0.14 -0.216,0 -0.424,-0.108 -0.424,-0.348 0,-0.284 0.224,-0.48 0.412,-0.592 0.144,-0.084 0.304,-0.14 0.468,-0.14 z"
     fill="currentColor"
     id="path132"
     style="stroke-width:0.004" />
  <path
     d="m 27.963,6.604674 c 0.216,0 0.424,0.108 0.424,0.348 0,0.284 -0.224,0.48 -0.412,0.592 -0.144,0.084 -0.304,0.14 -0.468,0.14 -0.216,0 -0.424,-0.108 -0.424,-0.348 0,-0.284 0.224,-0.48 0.412,-0.592 0.144,-0.084 0.304,-0.14 0.468,-0.14 z"
     fill="currentColor"
     id="path134"
     style="stroke-width:0.004" />
  <rect
     x="13.366"
     y="3.941674"
     width="0.1222"
     height="2.5111001"
     ry="0.036400001"
     fill="currentColor"
     id="rect136" />
  <path
     d="m 13.063,6.104674 c 0.216,0 0.424,0.108 0.424,0.348 0,0.284 -0.224,0.48 -0.412,0.592 -0.144,0.084 -0.304,0.14 -0.468,0.14 -0.216,0 -0.424,-0.108 -0.424,-0.348 0,-0.284 0.224,-0.48 0.412,-0.592 0.144,-0.084 0.304,-0.14 0.468,-0.14 z"
     fill="currentColor"
     id="path138"
     style="stroke-width:0.004" />
  <text
     font-family="serif"
     font-style="italic"
     font-size="1.7465px"
     text-anchor="start"
     fill="currentColor"
     id="text142"
     x="46.1506"
     y="1.156374"><tspan
       id="tspan140">5</tspan></text>
  <line
     stroke-linejoin="round"
     stroke-linecap="round"
     stroke-width="0.1504"
     stroke="currentColor"
     x1="50.9044"
     y1="0.59767401"
     x2="50.9044"
     y2="1.2976741"
     id="line144" />
  <line
     stroke-linejoin="round"
     stroke-linecap="round"
     stroke-width="0.1504"
     stroke="currentColor"
     x1="42.265999"
     y1="0.59767401"
     x2="42.265999"
     y2="1.2976741"
     id="line146" />
  <line
     stroke-linejoin="round"
     stroke-linecap="round"
     stroke-width="0.1504"
     stroke="currentColor"
     x1="50.9044"
     y1="0.59767401"
     x2="47.619801"
     y2="0.59767401"
     id="line148" />
  <line
     stroke-linejoin="round"
     stroke-linecap="round"
     stroke-width="0.1504"
     stroke="currentColor"
     x1="42.265999"
     y1="0.59767401"
     x2="45.750599"
     y2="0.59767401"
     id="line150" />
  <path
     d="m 25.563,6.104674 c 0.216,0 0.424,0.108 0.424,0.348 0,0.284 -0.224,0.48 -0.412,0.592 -0.144,0.084 -0.304,0.14 -0.468,0.14 -0.216,0 -0.424,-0.108 -0.424,-0.348 0,-0.284 0.224,-0.48 0.412,-0.592 0.144,-0.084 0.304,-0.14 0.468,-0.14 z"
     fill="currentColor"
     id="path152"
     style="stroke-width:0.004" />
  <rect
     x="25.865999"
     y="3.3476741"
     width="0.1222"
     height="3.1052001"
     ry="0.036400001"
     fill="currentColor"
     id="rect154" />
  <rect
     x="9.7659998"
     y="3.941674"
     width="0.1222"
     height="3.0111001"
     ry="0.036400001"
     fill="currentColor"
     id="rect156" />
  <rect
     x="28.266001"
     y="3.3476741"
     width="0.1222"
     height="3.6052001"
     ry="0.036400001"
     fill="currentColor"
     id="rect158" />
  <rect
     x="22.266001"
     y="3.3476741"
     width="0.1222"
     height="3.6052001"
     ry="0.036400001"
     fill="currentColor"
     id="rect160" />
  <path
     d="m 5.792,3.692674 h 0.452 c 0,0.188 0.112,0.364 0.284,0.364 0.028,0 0.044,0.02 0.044,0.044 0,0.024 -0.016,0.044 -0.044,0.044 -0.172,0 -0.336,-0.052 -0.508,-0.052 -0.172,0 -0.34,0.052 -0.512,0.052 -0.028,0 -0.044,-0.02 -0.044,-0.044 0,-0.024 0.016,-0.044 0.044,-0.044 0.172,0 0.284,-0.176 0.284,-0.364 z m 0.032,-0.796 c 0.088,-0.056 0.176,-0.112 0.236,-0.196 0.044,-0.06 0.068,-0.132 0.1,-0.2 0.016,-0.04 0.084,-0.024 0.084,0.032 v 1 h 0.284 c 0.036,0 0.056,0.028 0.056,0.056 0,0.028 -0.02,0.056 -0.056,0.056 H 6.244 v 0.048 H 5.792 v -0.048 h -0.68 c -0.088,0 -0.12,-0.052 -0.12,-0.088 0,-0.008 0.004,-0.02 0.008,-0.024 0.324,-0.376 0.564,-0.828 0.564,-1.324 0,-0.04 0.032,-0.076 0.064,-0.064 0.088,0.028 0.18,0.052 0.276,0.052 0.096,0 0.188,-0.024 0.276,-0.052 0.052,-0.016 0.088,0.036 0.064,0.064 l -1.132,1.324 h 0.68 v -0.552 c 0,-0.032 0.004,-0.068 0.032,-0.084 z"
     fill="currentColor"
     id="path162"
     style="stroke-width:0.004" />
  <path
     d="m 5.792,5.710174 h 0.452 c 0,0.188 0.112,0.364 0.284,0.364 0.028,0 0.044,0.02 0.044,0.044 0,0.024 -0.016,0.044 -0.044,0.044 -0.172,0 -0.336,-0.052 -0.508,-0.052 -0.172,0 -0.34,0.052 -0.512,0.052 -0.028,0 -0.044,-0.02 -0.044,-0.044 0,-0.024 0.016,-0.044 0.044,-0.044 0.172,0 0.284,-0.176 0.284,-0.364 z m 0.032,-0.796 c 0.088,-0.056 0.176,-0.112 0.236,-0.196 0.044,-0.06 0.068,-0.132 0.1,-0.2 0.016,-0.04 0.084,-0.024 0.084,0.032 v 1 h 0.284 c 0.036,0 0.056,0.028 0.056,0.056 0,0.028 -0.02,0.056 -0.056,0.056 H 6.244 v 0.048 H 5.792 v -0.048 h -0.68 c -0.088,0 -0.12,-0.052 -0.12,-0.088 0,-0.008 0.004,-0.02 0.008,-0.024 0.324,-0.376 0.564,-0.828 0.564,-1.324 0,-0.04 0.032,-0.076 0.064,-0.064 0.088,0.028 0.18,0.052 0.276,0.052 0.096,0 0.188,-0.024 0.276,-0.052 0.052,-0.016 0.088,0.036 0.064,0.064 l -1.132,1.324 h 0.68 v -0.552 c 0,-0.032 0.004,-0.068 0.032,-0.084 z"
     fill="currentColor"
     id="path164"
     style="stroke-width:0.004" />
</svg>
