<?xml version="1.0" encoding="UTF-8" standalone="no"?>
<svg
   version="1.2"
   width="94.283669mm"
   height="12.701109mm"
   viewBox="0 0 48.775097 6.5705745"
   id="svg154"
   sodipodi:docname="README-13.svg"
   xmlns:inkscape="http://www.inkscape.org/namespaces/inkscape"
   xmlns:sodipodi="http://sodipodi.sourceforge.net/DTD/sodipodi-0.dtd"
   xmlns="http://www.w3.org/2000/svg"
   xmlns:svg="http://www.w3.org/2000/svg">
  <defs
     id="defs158" />
  <sodipodi:namedview
     id="namedview156"
     pagecolor="#ffffff"
     bordercolor="#666666"
     borderopacity="1.0"
     inkscape:pageshadow="2"
     inkscape:pageopacity="0.0"
     inkscape:pagecheckerboard="0"
     inkscape:document-units="mm" />
  <style
     text="style/css"
     id="style2"><![CDATA[
tspan { white-space: pre; }
]]></style>
  <!-- Page: 1/1 -->
  <text
     font-family="serif"
     font-size="2.2001px"
     text-anchor="start"
     fill="currentColor"
     id="text6"
     y="-0.99212599"><tspan
       id="tspan4" /></text>
  <line
     stroke-linejoin="round"
     stroke-linecap="round"
     stroke-width="0.094"
     stroke="currentColor"
     x1="0.046999998"
     y1="6.0305738"
     x2="48.452999"
     y2="6.0305738"
     id="line8" />
  <path
     d="m 13.38,5.490574 c 0.216,0 0.424,0.108 0.424,0.348 0,0.284 -0.224,0.48 -0.412,0.592 -0.144,0.084 -0.304,0.14 -0.468,0.14 -0.216,0 -0.424,-0.108 -0.424,-0.348 0,-0.284 0.224,-0.48 0.412,-0.592 0.144,-0.084 0.304,-0.14 0.468,-0.14 z"
     fill="currentColor"
     id="path10"
     style="stroke-width:0.004" />
  <path
     d="m 20.58,5.490574 c 0.216,0 0.424,0.108 0.424,0.348 0,0.284 -0.224,0.48 -0.412,0.592 -0.144,0.084 -0.304,0.14 -0.468,0.14 -0.216,0 -0.424,-0.108 -0.424,-0.348 0,-0.284 0.224,-0.48 0.412,-0.592 0.144,-0.084 0.304,-0.14 0.468,-0.14 z"
     fill="currentColor"
     id="path12"
     style="stroke-width:0.004" />
  <rect
     x="13.6829"
     y="2.837574"
     width="0.1222"
     height="3.0011001"
     ry="0.036400001"
     fill="currentColor"
     id="rect14" />
  <path
     d="m 15.78,5.490574 c 0.216,0 0.424,0.108 0.424,0.348 0,0.284 -0.224,0.48 -0.412,0.592 -0.144,0.084 -0.304,0.14 -0.468,0.14 -0.216,0 -0.424,-0.108 -0.424,-0.348 0,-0.284 0.224,-0.48 0.412,-0.592 0.144,-0.084 0.304,-0.14 0.468,-0.14 z"
     fill="currentColor"
     id="path16"
     style="stroke-width:0.004" />
  <rect
     x="16.082899"
     y="2.837574"
     width="0.1222"
     height="3.0011001"
     ry="0.036400001"
     fill="currentColor"
     id="rect18" />
  <path
     d="m 18.18,5.490574 c 0.216,0 0.424,0.108 0.424,0.348 0,0.284 -0.224,0.48 -0.412,0.592 -0.144,0.084 -0.304,0.14 -0.468,0.14 -0.216,0 -0.424,-0.108 -0.424,-0.348 0,-0.284 0.224,-0.48 0.412,-0.592 0.144,-0.084 0.304,-0.14 0.468,-0.14 z"
     fill="currentColor"
     id="path20"
     style="stroke-width:0.004" />
  <rect
     x="18.482901"
     y="2.837574"
     width="0.1222"
     height="3.0011001"
     ry="0.036400001"
     fill="currentColor"
     id="rect22" />
  <polygon
     transform="translate(1.6829,2.837674)"
     stroke-linejoin="round"
     stroke-linecap="round"
     stroke-width="0.0727"
     fill="currentColor"
     stroke="currentColor"
     points="0.0364,0.2036 0.0364,-0.2036 9.6859,-0.2036 9.6859,0.2036 "
     id="polygon24" />
  <polygon
     transform="translate(1.6829,3.644674)"
     stroke-linejoin="round"
     stroke-linecap="round"
     stroke-width="0.0727"
     fill="currentColor"
     stroke="currentColor"
     points="0.0364,0.2036 0.0364,-0.2036 9.6859,-0.2036 9.6859,0.2036 "
     id="polygon26" />
  <path
     d="m 6.18,5.490574 c 0.216,0 0.424,0.108 0.424,0.348 0,0.284 -0.224,0.48 -0.412,0.592 -0.144,0.084 -0.304,0.14 -0.468,0.14 -0.216,0 -0.424,-0.108 -0.424,-0.348 0,-0.284 0.224,-0.48 0.412,-0.592 0.144,-0.084 0.304,-0.14 0.468,-0.14 z"
     fill="currentColor"
     id="path28"
     style="stroke-width:0.004" />
  <rect
     x="6.4829001"
     y="2.837574"
     width="0.1222"
     height="3.0011001"
     ry="0.036400001"
     fill="currentColor"
     id="rect30" />
  <path
     d="m 8.58,5.490574 c 0.216,0 0.424,0.108 0.424,0.348 0,0.284 -0.224,0.48 -0.412,0.592 -0.144,0.084 -0.304,0.14 -0.468,0.14 -0.216,0 -0.424,-0.108 -0.424,-0.348 0,-0.284 0.224,-0.48 0.412,-0.592 0.144,-0.084 0.304,-0.14 0.468,-0.14 z"
     fill="currentColor"
     id="path32"
     style="stroke-width:0.004" />
  <rect
     x="8.8829002"
     y="2.837574"
     width="0.1222"
     height="3.0011001"
     ry="0.036400001"
     fill="currentColor"
     id="rect34" />
  <path
     d="m 10.98,5.490574 c 0.216,0 0.424,0.108 0.424,0.348 0,0.284 -0.224,0.48 -0.412,0.592 -0.144,0.084 -0.304,0.14 -0.468,0.14 -0.216,0 -0.424,-0.108 -0.424,-0.348 0,-0.284 0.224,-0.48 0.412,-0.592 0.144,-0.084 0.304,-0.14 0.468,-0.14 z"
     fill="currentColor"
     id="path36"
     style="stroke-width:0.004" />
  <rect
     x="11.2829"
     y="2.837574"
     width="0.1222"
     height="3.0011001"
     ry="0.036400001"
     fill="currentColor"
     id="rect38" />
  <path
     d="m 32.58,5.490574 c 0.216,0 0.424,0.108 0.424,0.348 0,0.284 -0.224,0.48 -0.412,0.592 -0.144,0.084 -0.304,0.14 -0.468,0.14 -0.216,0 -0.424,-0.108 -0.424,-0.348 0,-0.284 0.224,-0.48 0.412,-0.592 0.144,-0.084 0.304,-0.14 0.468,-0.14 z"
     fill="currentColor"
     id="path40"
     style="stroke-width:0.004" />
  <path
     d="m 30.18,5.490574 c 0.216,0 0.424,0.108 0.424,0.348 0,0.284 -0.224,0.48 -0.412,0.592 -0.144,0.084 -0.304,0.14 -0.468,0.14 -0.216,0 -0.424,-0.108 -0.424,-0.348 0,-0.284 0.224,-0.48 0.412,-0.592 0.144,-0.084 0.304,-0.14 0.468,-0.14 z"
     fill="currentColor"
     id="path42"
     style="stroke-width:0.004" />
  <rect
     x="30.482901"
     y="2.837574"
     width="0.1222"
     height="3.0011001"
     ry="0.036400001"
     fill="currentColor"
     id="rect44" />
  <polygon
     transform="translate(37.6829,2.837674)"
     stroke-linejoin="round"
     stroke-linecap="round"
     stroke-width="0.0727"
     fill="currentColor"
     stroke="currentColor"
     points="0.0364,0.2036 0.0364,-0.2036 9.6859,-0.2036 9.6859,0.2036 "
     id="polygon46" />
  <polygon
     transform="translate(37.6829,3.644674)"
     stroke-linejoin="round"
     stroke-linecap="round"
     stroke-width="0.0727"
     fill="currentColor"
     stroke="currentColor"
     points="0.0364,0.2036 0.0364,-0.2036 9.6859,-0.2036 9.6859,0.2036 "
     id="polygon48" />
  <text
     font-family="serif"
     font-style="italic"
     font-size="1.7465px"
     text-anchor="start"
     fill="currentColor"
     id="text52"
     x="29.9069"
     y="1.156374"><tspan
       id="tspan50">5</tspan></text>
  <line
     stroke-linejoin="round"
     stroke-linecap="round"
     stroke-width="0.1504"
     stroke="currentColor"
     x1="35.199902"
     y1="0.59767401"
     x2="35.199902"
     y2="1.2976741"
     id="line54" />
  <line
     stroke-linejoin="round"
     stroke-linecap="round"
     stroke-width="0.1504"
     stroke="currentColor"
     x1="25.482901"
     y1="0.59767401"
     x2="25.482901"
     y2="1.2976741"
     id="line56" />
  <line
     stroke-linejoin="round"
     stroke-linecap="round"
     stroke-width="0.1504"
     stroke="currentColor"
     x1="35.199902"
     y1="0.59767401"
     x2="31.375999"
     y2="0.59767401"
     id="line58" />
  <line
     stroke-linejoin="round"
     stroke-linecap="round"
     stroke-width="0.1504"
     stroke="currentColor"
     x1="25.482901"
     y1="0.59767401"
     x2="29.506901"
     y2="0.59767401"
     id="line60" />
  <polygon
     transform="translate(25.6829,2.837674)"
     stroke-linejoin="round"
     stroke-linecap="round"
     stroke-width="0.0727"
     fill="currentColor"
     stroke="currentColor"
     points="0.0364,0.2036 0.0364,-0.2036 9.6859,-0.2036 9.6859,0.2036 "
     id="polygon62" />
  <polygon
     transform="translate(25.6829,3.644674)"
     stroke-linejoin="round"
     stroke-linecap="round"
     stroke-width="0.0727"
     fill="currentColor"
     stroke="currentColor"
     points="0.0364,0.2036 0.0364,-0.2036 9.6859,-0.2036 9.6859,0.2036 "
     id="polygon64" />
  <text
     font-family="serif"
     font-style="italic"
     font-size="1.7465px"
     text-anchor="start"
     fill="currentColor"
     id="text68"
     x="17.9069"
     y="1.156374"><tspan
       id="tspan66">5</tspan></text>
  <line
     stroke-linejoin="round"
     stroke-linecap="round"
     stroke-width="0.1504"
     stroke="currentColor"
     x1="23.1999"
     y1="0.59767401"
     x2="23.1999"
     y2="1.2976741"
     id="line70" />
  <line
     stroke-linejoin="round"
     stroke-linecap="round"
     stroke-width="0.1504"
     stroke="currentColor"
     x1="13.4829"
     y1="0.59767401"
     x2="13.4829"
     y2="1.2976741"
     id="line72" />
  <line
     stroke-linejoin="round"
     stroke-linecap="round"
     stroke-width="0.1504"
     stroke="currentColor"
     x1="23.1999"
     y1="0.59767401"
     x2="19.375999"
     y2="0.59767401"
     id="line74" />
  <line
     stroke-linejoin="round"
     stroke-linecap="round"
     stroke-width="0.1504"
     stroke="currentColor"
     x1="13.4829"
     y1="0.59767401"
     x2="17.506901"
     y2="0.59767401"
     id="line76" />
  <polygon
     transform="translate(13.6829,2.837674)"
     stroke-linejoin="round"
     stroke-linecap="round"
     stroke-width="0.0727"
     fill="currentColor"
     stroke="currentColor"
     points="0.0364,0.2036 0.0364,-0.2036 9.6859,-0.2036 9.6859,0.2036 "
     id="polygon78" />
  <polygon
     transform="translate(13.6829,3.644674)"
     stroke-linejoin="round"
     stroke-linecap="round"
     stroke-width="0.0727"
     fill="currentColor"
     stroke="currentColor"
     points="0.0364,0.2036 0.0364,-0.2036 9.6859,-0.2036 9.6859,0.2036 "
     id="polygon80" />
  <text
     font-family="serif"
     font-style="italic"
     font-size="1.7465px"
     text-anchor="start"
     fill="currentColor"
     id="text84"
     x="5.9068999"
     y="1.156374"><tspan
       id="tspan82">5</tspan></text>
  <line
     stroke-linejoin="round"
     stroke-linecap="round"
     stroke-width="0.1504"
     stroke="currentColor"
     x1="11.199901"
     y1="0.59767401"
     x2="11.199901"
     y2="1.2976741"
     id="line86" />
  <line
     stroke-linejoin="round"
     stroke-linecap="round"
     stroke-width="0.1504"
     stroke="currentColor"
     x1="1.4829"
     y1="0.59767401"
     x2="1.4829"
     y2="1.2976741"
     id="line88" />
  <line
     stroke-linejoin="round"
     stroke-linecap="round"
     stroke-width="0.1504"
     stroke="currentColor"
     x1="11.199901"
     y1="0.59767401"
     x2="7.3759999"
     y2="0.59767401"
     id="line90" />
  <line
     stroke-linejoin="round"
     stroke-linecap="round"
     stroke-width="0.1504"
     stroke="currentColor"
     x1="1.4829"
     y1="0.59767401"
     x2="5.5068998"
     y2="0.59767401"
     id="line92" />
  <path
     d="m 22.98,5.490574 c 0.216,0 0.424,0.108 0.424,0.348 0,0.284 -0.224,0.48 -0.412,0.592 -0.144,0.084 -0.304,0.14 -0.468,0.14 -0.216,0 -0.424,-0.108 -0.424,-0.348 0,-0.284 0.224,-0.48 0.412,-0.592 0.144,-0.084 0.304,-0.14 0.468,-0.14 z"
     fill="currentColor"
     id="path94"
     style="stroke-width:0.004" />
  <rect
     x="23.2829"
     y="2.837574"
     width="0.1222"
     height="3.0011001"
     ry="0.036400001"
     fill="currentColor"
     id="rect96" />
  <rect
     x="20.8829"
     y="2.837574"
     width="0.1222"
     height="3.0011001"
     ry="0.036400001"
     fill="currentColor"
     id="rect98" />
  <path
     d="m 25.38,5.490574 c 0.216,0 0.424,0.108 0.424,0.348 0,0.284 -0.224,0.48 -0.412,0.592 -0.144,0.084 -0.304,0.14 -0.468,0.14 -0.216,0 -0.424,-0.108 -0.424,-0.348 0,-0.284 0.224,-0.48 0.412,-0.592 0.144,-0.084 0.304,-0.14 0.468,-0.14 z"
     fill="currentColor"
     id="path100"
     style="stroke-width:0.004" />
  <rect
     x="25.682899"
     y="2.837574"
     width="0.1222"
     height="3.0011001"
     ry="0.036400001"
     fill="currentColor"
     id="rect102" />
  <path
     d="m 27.78,5.490574 c 0.216,0 0.424,0.108 0.424,0.348 0,0.284 -0.224,0.48 -0.412,0.592 -0.144,0.084 -0.304,0.14 -0.468,0.14 -0.216,0 -0.424,-0.108 -0.424,-0.348 0,-0.284 0.224,-0.48 0.412,-0.592 0.144,-0.084 0.304,-0.14 0.468,-0.14 z"
     fill="currentColor"
     id="path104"
     style="stroke-width:0.004" />
  <rect
     x="28.082899"
     y="2.837574"
     width="0.1222"
     height="3.0011001"
     ry="0.036400001"
     fill="currentColor"
     id="rect106" />
  <path
     d="m 34.98,5.490574 c 0.216,0 0.424,0.108 0.424,0.348 0,0.284 -0.224,0.48 -0.412,0.592 -0.144,0.084 -0.304,0.14 -0.468,0.14 -0.216,0 -0.424,-0.108 -0.424,-0.348 0,-0.284 0.224,-0.48 0.412,-0.592 0.144,-0.084 0.304,-0.14 0.468,-0.14 z"
     fill="currentColor"
     id="path108"
     style="stroke-width:0.004" />
  <rect
     x="35.282902"
     y="2.837574"
     width="0.1222"
     height="3.0011001"
     ry="0.036400001"
     fill="currentColor"
     id="rect110" />
  <path
     d="m 37.38,5.490574 c 0.216,0 0.424,0.108 0.424,0.348 0,0.284 -0.224,0.48 -0.412,0.592 -0.144,0.084 -0.304,0.14 -0.468,0.14 -0.216,0 -0.424,-0.108 -0.424,-0.348 0,-0.284 0.224,-0.48 0.412,-0.592 0.144,-0.084 0.304,-0.14 0.468,-0.14 z"
     fill="currentColor"
     id="path112"
     style="stroke-width:0.004" />
  <rect
     x="37.682899"
     y="2.837574"
     width="0.1222"
     height="3.0011001"
     ry="0.036400001"
     fill="currentColor"
     id="rect114" />
  <path
     d="m 39.78,5.490574 c 0.216,0 0.424,0.108 0.424,0.348 0,0.284 -0.224,0.48 -0.412,0.592 -0.144,0.084 -0.304,0.14 -0.468,0.14 -0.216,0 -0.424,-0.108 -0.424,-0.348 0,-0.284 0.224,-0.48 0.412,-0.592 0.144,-0.084 0.304,-0.14 0.468,-0.14 z"
     fill="currentColor"
     id="path116"
     style="stroke-width:0.004" />
  <rect
     x="40.082901"
     y="2.837574"
     width="0.1222"
     height="3.0011001"
     ry="0.036400001"
     fill="currentColor"
     id="rect118" />
  <path
     d="m 1.38,5.490574 c 0.216,0 0.424,0.108 0.424,0.348 0,0.284 -0.224,0.48 -0.412,0.592 -0.144,0.084 -0.304,0.14 -0.468,0.14 -0.216,0 -0.424,-0.108 -0.424,-0.348 0,-0.284 0.224,-0.48 0.412,-0.592 0.144,-0.084 0.304,-0.14 0.468,-0.14 z"
     fill="currentColor"
     id="path120"
     style="stroke-width:0.004" />
  <line
     stroke-linejoin="round"
     stroke-linecap="round"
     stroke-width="0.1504"
     stroke="currentColor"
     x1="48.699902"
     y1="0.59767401"
     x2="48.699902"
     y2="1.2976741"
     id="line122" />
  <line
     stroke-linejoin="round"
     stroke-linecap="round"
     stroke-width="0.1504"
     stroke="currentColor"
     x1="37.482899"
     y1="0.59767401"
     x2="37.482899"
     y2="1.2976741"
     id="line124" />
  <line
     stroke-linejoin="round"
     stroke-linecap="round"
     stroke-width="0.1504"
     stroke="currentColor"
     x1="48.699902"
     y1="0.59767401"
     x2="44.125999"
     y2="0.59767401"
     id="line126" />
  <line
     stroke-linejoin="round"
     stroke-linecap="round"
     stroke-width="0.1504"
     stroke="currentColor"
     x1="37.482899"
     y1="0.59767401"
     x2="42.256901"
     y2="0.59767401"
     id="line128" />
  <text
     font-family="serif"
     font-style="italic"
     font-size="1.7465px"
     text-anchor="start"
     fill="currentColor"
     id="text132"
     x="42.656898"
     y="1.156374"><tspan
       id="tspan130">5</tspan></text>
  <rect
     x="1.6829"
     y="2.837574"
     width="0.1222"
     height="3.0011001"
     ry="0.036400001"
     fill="currentColor"
     id="rect134" />
  <rect
     x="32.8829"
     y="2.837574"
     width="0.1222"
     height="3.0011001"
     ry="0.036400001"
     fill="currentColor"
     id="rect136" />
  <rect
     x="44.8829"
     y="2.837574"
     width="0.1222"
     height="3.0011001"
     ry="0.036400001"
     fill="currentColor"
     id="rect138" />
  <path
     d="m 46.98,5.490574 c 0.216,0 0.424,0.108 0.424,0.348 0,0.284 -0.224,0.48 -0.412,0.592 -0.144,0.084 -0.304,0.14 -0.468,0.14 -0.216,0 -0.424,-0.108 -0.424,-0.348 0,-0.284 0.224,-0.48 0.412,-0.592 0.144,-0.084 0.304,-0.14 0.468,-0.14 z"
     fill="currentColor"
     id="path140"
     style="stroke-width:0.004" />
  <path
     d="m 42.18,5.490574 c 0.216,0 0.424,0.108 0.424,0.348 0,0.284 -0.224,0.48 -0.412,0.592 -0.144,0.084 -0.304,0.14 -0.468,0.14 -0.216,0 -0.424,-0.108 -0.424,-0.348 0,-0.284 0.224,-0.48 0.412,-0.592 0.144,-0.084 0.304,-0.14 0.468,-0.14 z"
     fill="currentColor"
     id="path142"
     style="stroke-width:0.004" />
  <rect
     x="47.282902"
     y="2.837574"
     width="0.1222"
     height="3.0011001"
     ry="0.036400001"
     fill="currentColor"
     id="rect144" />
  <path
     d="m 44.58,5.490574 c 0.216,0 0.424,0.108 0.424,0.348 0,0.284 -0.224,0.48 -0.412,0.592 -0.144,0.084 -0.304,0.14 -0.468,0.14 -0.216,0 -0.424,-0.108 -0.424,-0.348 0,-0.284 0.224,-0.48 0.412,-0.592 0.144,-0.084 0.304,-0.14 0.468,-0.14 z"
     fill="currentColor"
     id="path146"
     style="stroke-width:0.004" />
  <path
     d="m 3.78,5.490574 c 0.216,0 0.424,0.108 0.424,0.348 0,0.284 -0.224,0.48 -0.412,0.592 -0.144,0.084 -0.304,0.14 -0.468,0.14 -0.216,0 -0.424,-0.108 -0.424,-0.348 0,-0.284 0.224,-0.48 0.412,-0.592 0.144,-0.084 0.304,-0.14 0.468,-0.14 z"
     fill="currentColor"
     id="path148"
     style="stroke-width:0.004" />
  <rect
     x="4.0829"
     y="2.837574"
     width="0.1222"
     height="3.0011001"
     ry="0.036400001"
     fill="currentColor"
     id="rect150" />
  <rect
     x="42.482899"
     y="2.837574"
     width="0.1222"
     height="3.0011001"
     ry="0.036400001"
     fill="currentColor"
     id="rect152" />
</svg>
