<?xml version="1.0" encoding="UTF-8" standalone="no"?>
<svg
   version="1.2"
   width="59.692509mm"
   height="15.430352mm"
   viewBox="0 0 30.880299 7.9824745"
   id="svg68"
   sodipodi:docname="README-12.svg"
   xmlns:inkscape="http://www.inkscape.org/namespaces/inkscape"
   xmlns:sodipodi="http://sodipodi.sourceforge.net/DTD/sodipodi-0.dtd"
   xmlns="http://www.w3.org/2000/svg"
   xmlns:svg="http://www.w3.org/2000/svg">
  <defs
     id="defs72" />
  <sodipodi:namedview
     id="namedview70"
     pagecolor="#ffffff"
     bordercolor="#666666"
     borderopacity="1.0"
     inkscape:pageshadow="2"
     inkscape:pageopacity="0.0"
     inkscape:pagecheckerboard="0"
     inkscape:document-units="mm" />
  <style
     text="style/css"
     id="style2"><![CDATA[
tspan { white-space: pre; }
]]></style>
  <!-- Page: 1/1 -->
  <text
     font-family="serif"
     font-size="2.2001px"
     text-anchor="start"
     fill="currentColor"
     id="text6"
     y="-0.99212599"><tspan
       id="tspan4" /></text>
  <line
     stroke-linejoin="round"
     stroke-linecap="round"
     stroke-width="0.094"
     stroke="currentColor"
     x1="0.046999998"
     y1="5.9464741"
     x2="30.558201"
     y2="5.9464741"
     id="line8" />
  <polygon
     transform="translate(7.7881,2.946474)"
     stroke-linejoin="round"
     stroke-linecap="round"
     stroke-width="0.0727"
     fill="currentColor"
     stroke="currentColor"
     points="0.0364,0.2036 0.0364,-0.2036 5.4859,-0.2036 5.4859,0.2036 "
     id="polygon10" />
  <path
     d="m 5.88,5.406474 c 0.216,0 0.424,0.108 0.424,0.348 0,0.284 -0.224,0.48 -0.412,0.592 -0.144,0.084 -0.304,0.14 -0.468,0.14 -0.216,0 -0.424,-0.108 -0.424,-0.348 0,-0.284 0.224,-0.48 0.412,-0.592 0.144,-0.084 0.304,-0.14 0.468,-0.14 z"
     fill="currentColor"
     id="path12"
     style="stroke-width:0.004" />
  <rect
     x="6.1829"
     y="1.8214741"
     width="0.1222"
     height="3.9331"
     ry="0.036400001"
     fill="currentColor"
     id="rect14" />
  <polygon
     transform="translate(6.3051,1.857874)"
     stroke-linejoin="round"
     stroke-linecap="round"
     stroke-width="0.0611"
     fill="currentColor"
     stroke="currentColor"
     points="1.0126,0.3199 -0.0306,-0.0191 -0.0306,0.4667 1.0126,0.8056 "
     id="polygon16" />
  <polygon
     transform="translate(6.3051,2.857874)"
     stroke-linejoin="round"
     stroke-linecap="round"
     stroke-width="0.0611"
     fill="currentColor"
     stroke="currentColor"
     points="1.0126,0.3199 -0.0306,-0.0191 -0.0306,0.4667 1.0126,0.8056 "
     id="polygon18" />
  <polygon
     transform="translate(6.3051,3.857874)"
     stroke-linejoin="round"
     stroke-linecap="round"
     stroke-width="0.0611"
     fill="currentColor"
     stroke="currentColor"
     points="1.0126,0.3199 -0.0306,-0.0191 -0.0306,0.4667 1.0126,0.8056 "
     id="polygon20" />
  <path
     d="m 7.4851,5.406474 c 0.216,0 0.424,0.108 0.424,0.348 0,0.284 -0.224,0.48 -0.412,0.592 -0.144,0.084 -0.304,0.14 -0.468,0.14 -0.216,0 -0.424,-0.108 -0.424,-0.348 0,-0.284 0.224,-0.48 0.412,-0.592 0.144,-0.084 0.304,-0.14 0.468,-0.14 z"
     fill="currentColor"
     id="path22"
     style="stroke-width:0.004" />
  <path
     d="m 8.3639,5.446474 c 0,-0.124 0.104,-0.228 0.228,-0.228 0.124,0 0.224,0.104 0.224,0.228 0,0.124 -0.1,0.228 -0.224,0.228 -0.124,0 -0.228,-0.104 -0.228,-0.228 z"
     fill="currentColor"
     id="path24"
     style="stroke-width:0.004" />
  <rect
     x="7.7880998"
     y="2.9464741"
     width="0.1222"
     height="2.8081"
     ry="0.036400001"
     fill="currentColor"
     id="rect26" />
  <path
     d="m 12.8851,5.406474 c 0.216,0 0.424,0.108 0.424,0.348 0,0.284 -0.224,0.48 -0.412,0.592 -0.144,0.084 -0.304,0.14 -0.468,0.14 -0.216,0 -0.424,-0.108 -0.424,-0.348 0,-0.284 0.224,-0.48 0.412,-0.592 0.144,-0.084 0.304,-0.14 0.468,-0.14 z"
     fill="currentColor"
     id="path28"
     style="stroke-width:0.004" />
  <rect
     x="13.1881"
     y="2.9464741"
     width="0.1222"
     height="2.8081"
     ry="0.036400001"
     fill="currentColor"
     id="rect30" />
  <text
     font-family="serif"
     font-style="italic"
     font-size="1.7465px"
     text-anchor="start"
     fill="currentColor"
     id="text34"
     x="9.7826004"
     y="1.280674"><tspan
       id="tspan32">5:3</tspan></text>
  <line
     stroke-linejoin="round"
     stroke-linecap="round"
     stroke-width="0.1504"
     stroke="currentColor"
     x1="14.3051"
     y1="0.70647401"
     x2="14.3051"
     y2="1.406474"
     id="line36" />
  <line
     stroke-linejoin="round"
     stroke-linecap="round"
     stroke-width="0.1504"
     stroke="currentColor"
     x1="7.5881"
     y1="0.70647401"
     x2="7.5881"
     y2="1.406474"
     id="line38" />
  <line
     stroke-linejoin="round"
     stroke-linecap="round"
     stroke-width="0.1504"
     stroke="currentColor"
     x1="14.3051"
     y1="0.70647401"
     x2="12.7106"
     y2="0.70647401"
     id="line40" />
  <line
     stroke-linejoin="round"
     stroke-linecap="round"
     stroke-width="0.1504"
     stroke="currentColor"
     x1="7.5881"
     y1="0.70647401"
     x2="9.3825998"
     y2="0.70647401"
     id="line42" />
  <line
     stroke-linejoin="round"
     stroke-linecap="round"
     stroke-width="0.1504"
     stroke="currentColor"
     x1="30.805099"
     y1="0.61317402"
     x2="30.805099"
     y2="1.313174"
     id="line44" />
  <line
     stroke-linejoin="round"
     stroke-linecap="round"
     stroke-width="0.1504"
     stroke="currentColor"
     x1="16.5881"
     y1="0.61317402"
     x2="16.5881"
     y2="1.313174"
     id="line46" />
  <line
     stroke-linejoin="round"
     stroke-linecap="round"
     stroke-width="0.1504"
     stroke="currentColor"
     x1="30.805099"
     y1="0.61317402"
     x2="25.4606"
     y2="0.61317402"
     id="line48" />
  <line
     stroke-linejoin="round"
     stroke-linecap="round"
     stroke-width="0.1504"
     stroke="currentColor"
     x1="16.5881"
     y1="0.61317402"
     x2="22.132601"
     y2="0.61317402"
     id="line50" />
  <text
     font-family="serif"
     font-style="italic"
     font-size="1.7465px"
     text-anchor="start"
     fill="currentColor"
     id="text54"
     x="22.5326"
     y="1.156374"><tspan
       id="tspan52">7:5</tspan></text>
  <path
     d="m 0.776,7.946474 0.4,-1.308 c -0.14,0.048 -0.28,0.092 -0.428,0.092 -0.184,0 -0.348,-0.132 -0.348,-0.316 0,-0.156 0.124,-0.288 0.284,-0.288 0.1,0 0.196,0.064 0.228,0.16 0.04,0.112 0.024,0.236 0.14,0.236 0.068,0 0.224,-0.208 0.244,-0.276 l 0.184,-0.608 c -0.136,0.048 -0.276,0.092 -0.42,0.092 -0.184,0 -0.348,-0.132 -0.348,-0.316 0,-0.156 0.124,-0.288 0.284,-0.288 0.1,0 0.196,0.064 0.228,0.16 0.04,0.112 0.024,0.236 0.14,0.236 0.064,0 0.204,-0.208 0.232,-0.268 0.02,-0.044 0.088,-0.044 0.104,0 l -0.72,2.692 c -0.028,0.024 -0.068,0.036 -0.104,0.036 -0.036,0 -0.072,-0.012 -0.1,-0.036 z"
     fill="currentColor"
     id="path56"
     style="stroke-width:0.004" />
  <path
     d="m 2.1535,5.446474 c 0,-0.124 0.104,-0.228 0.228,-0.228 0.124,0 0.224,0.104 0.224,0.228 0,0.124 -0.1,0.228 -0.224,0.228 -0.124,0 -0.228,-0.104 -0.228,-0.228 z"
     fill="currentColor"
     id="path58"
     style="stroke-width:0.004" />
  <path
     d="m 25.6302,5.446474 c 0,-0.124 0.104,-0.228 0.228,-0.228 0.124,0 0.224,0.104 0.224,0.228 0,0.124 -0.1,0.228 -0.224,0.228 -0.124,0 -0.228,-0.104 -0.228,-0.228 z"
     fill="currentColor"
     id="path60"
     style="stroke-width:0.004" />
  <path
     d="m 24.4726,6.946474 0.468,-1.308 c -0.136,0.048 -0.28,0.092 -0.424,0.092 -0.184,0 -0.348,-0.132 -0.348,-0.316 0,-0.156 0.128,-0.288 0.288,-0.288 0.1,0 0.192,0.064 0.224,0.16 0.04,0.112 0.024,0.236 0.14,0.236 0.068,0 0.224,-0.204 0.252,-0.268 0.02,-0.044 0.088,-0.044 0.104,0 l -0.5,1.692 c -0.028,0.024 -0.064,0.036 -0.1,0.036 -0.036,0 -0.076,-0.012 -0.104,-0.036 z"
     fill="currentColor"
     id="path62"
     style="stroke-width:0.004" />
  <rect
     x="16.788099"
     y="2.613174"
     width="0.1222"
     height="3.1415"
     ry="0.036400001"
     fill="currentColor"
     id="rect64" />
  <path
     d="m 16.4851,5.406474 c 0.216,0 0.424,0.108 0.424,0.348 0,0.284 -0.224,0.48 -0.412,0.592 -0.144,0.084 -0.304,0.14 -0.468,0.14 -0.216,0 -0.424,-0.108 -0.424,-0.348 0,-0.284 0.224,-0.48 0.412,-0.592 0.144,-0.084 0.304,-0.14 0.468,-0.14 z"
     fill="currentColor"
     id="path66"
     style="stroke-width:0.004" />
</svg>
