<?xml version="1.0" encoding="UTF-8" standalone="no"?>
<svg
   version="1.2"
   width="60.032471mm"
   height="8.0485735mm"
   viewBox="0 0 48.802539 6.5429754"
   id="svg154"
   sodipodi:docname="README-13.svg"
   xmlns:inkscape="http://www.inkscape.org/namespaces/inkscape"
   xmlns:sodipodi="http://sodipodi.sourceforge.net/DTD/sodipodi-0.dtd"
   xmlns="http://www.w3.org/2000/svg"
   xmlns:svg="http://www.w3.org/2000/svg">
  <defs
     id="defs158" />
  <sodipodi:namedview
     id="namedview156"
     pagecolor="#ffffff"
     bordercolor="#666666"
     borderopacity="1.0"
     inkscape:pageshadow="2"
     inkscape:pageopacity="0.0"
     inkscape:pagecheckerboard="0"
     inkscape:document-units="mm" />
  <style
     text="style/css"
     id="style2"><![CDATA[
tspan { white-space: pre; }
]]></style>
  <!-- Page: 1/1 -->
  <text
     font-family="serif"
     font-size="2.1998px"
     text-anchor="start"
     fill="currentColor"
     id="text6"
     y="-1.014226"><tspan
       id="tspan4" /></text>
  <line
     stroke-linejoin="round"
     stroke-linecap="round"
     stroke-width="0.1282"
     stroke="currentColor"
     x1="0.064099997"
     y1="5.9869742"
     x2="48.435902"
     y2="5.9869742"
     id="line8" />
  <path
     d="m 13.332,5.430974 c 0.244,0 0.468,0.132 0.468,0.396 0,0.284 -0.208,0.476 -0.396,0.588 -0.136,0.08 -0.284,0.128 -0.44,0.128 -0.244,0 -0.464,-0.132 -0.464,-0.396 0,-0.284 0.204,-0.476 0.392,-0.588 0.136,-0.08 0.284,-0.128 0.44,-0.128 z"
     fill="currentColor"
     id="path10"
     style="stroke-width:0.004" />
  <path
     d="m 20.532,5.430974 c 0.244,0 0.468,0.132 0.468,0.396 0,0.284 -0.208,0.476 -0.396,0.588 -0.136,0.08 -0.284,0.128 -0.44,0.128 -0.244,0 -0.464,-0.132 -0.464,-0.396 0,-0.284 0.204,-0.476 0.392,-0.588 0.136,-0.08 0.284,-0.128 0.44,-0.128 z"
     fill="currentColor"
     id="path12"
     style="stroke-width:0.004" />
  <rect
     x="13.6315"
     y="2.811074"
     width="0.1666"
     height="3.0141001"
     ry="0.057100002"
     fill="currentColor"
     id="rect14" />
  <path
     d="m 15.732,5.430974 c 0.244,0 0.468,0.132 0.468,0.396 0,0.284 -0.208,0.476 -0.396,0.588 -0.136,0.08 -0.284,0.128 -0.44,0.128 -0.244,0 -0.464,-0.132 -0.464,-0.396 0,-0.284 0.204,-0.476 0.392,-0.588 0.136,-0.08 0.284,-0.128 0.44,-0.128 z"
     fill="currentColor"
     id="path16"
     style="stroke-width:0.004" />
  <rect
     x="16.0315"
     y="2.811074"
     width="0.1666"
     height="3.0141001"
     ry="0.057100002"
     fill="currentColor"
     id="rect18" />
  <path
     d="m 18.132,5.430974 c 0.244,0 0.468,0.132 0.468,0.396 0,0.284 -0.208,0.476 -0.396,0.588 -0.136,0.08 -0.284,0.128 -0.44,0.128 -0.244,0 -0.464,-0.132 -0.464,-0.396 0,-0.284 0.204,-0.476 0.392,-0.588 0.136,-0.08 0.284,-0.128 0.44,-0.128 z"
     fill="currentColor"
     id="path20"
     style="stroke-width:0.004" />
  <rect
     x="18.431499"
     y="2.811074"
     width="0.1666"
     height="3.0141001"
     ry="0.057100002"
     fill="currentColor"
     id="rect22" />
  <polygon
     transform="translate(1.6315,2.811074)"
     stroke-linejoin="round"
     stroke-linecap="round"
     stroke-width="0.1143"
     fill="currentColor"
     stroke="currentColor"
     points="0.0571,0.1829 0.0571,-0.1829 9.7095,-0.1829 9.7095,0.1829 "
     id="polygon24" />
  <polygon
     transform="translate(1.6315,3.635174)"
     stroke-linejoin="round"
     stroke-linecap="round"
     stroke-width="0.1143"
     fill="currentColor"
     stroke="currentColor"
     points="0.0571,0.1829 0.0571,-0.1829 9.7095,-0.1829 9.7095,0.1829 "
     id="polygon26" />
  <path
     d="m 6.132,5.430974 c 0.244,0 0.468,0.132 0.468,0.396 0,0.284 -0.208,0.476 -0.396,0.588 -0.136,0.08 -0.284,0.128 -0.44,0.128 -0.244,0 -0.464,-0.132 -0.464,-0.396 0,-0.284 0.204,-0.476 0.392,-0.588 0.136,-0.08 0.284,-0.128 0.44,-0.128 z"
     fill="currentColor"
     id="path28"
     style="stroke-width:0.004" />
  <rect
     x="6.4315"
     y="2.811074"
     width="0.1666"
     height="3.0141001"
     ry="0.057100002"
     fill="currentColor"
     id="rect30" />
  <path
     d="m 8.532,5.430974 c 0.244,0 0.468,0.132 0.468,0.396 0,0.284 -0.208,0.476 -0.396,0.588 -0.136,0.08 -0.284,0.128 -0.44,0.128 -0.244,0 -0.464,-0.132 -0.464,-0.396 0,-0.284 0.204,-0.476 0.392,-0.588 0.136,-0.08 0.284,-0.128 0.44,-0.128 z"
     fill="currentColor"
     id="path32"
     style="stroke-width:0.004" />
  <rect
     x="8.8315001"
     y="2.811074"
     width="0.1666"
     height="3.0141001"
     ry="0.057100002"
     fill="currentColor"
     id="rect34" />
  <path
     d="m 10.932,5.430974 c 0.244,0 0.468,0.132 0.468,0.396 0,0.284 -0.208,0.476 -0.396,0.588 -0.136,0.08 -0.284,0.128 -0.44,0.128 -0.244,0 -0.464,-0.132 -0.464,-0.396 0,-0.284 0.204,-0.476 0.392,-0.588 0.136,-0.08 0.284,-0.128 0.44,-0.128 z"
     fill="currentColor"
     id="path36"
     style="stroke-width:0.004" />
  <rect
     x="11.2315"
     y="2.811074"
     width="0.1666"
     height="3.0141001"
     ry="0.057100002"
     fill="currentColor"
     id="rect38" />
  <path
     d="m 32.532,5.430974 c 0.244,0 0.468,0.132 0.468,0.396 0,0.284 -0.208,0.476 -0.396,0.588 -0.136,0.08 -0.284,0.128 -0.44,0.128 -0.244,0 -0.464,-0.132 -0.464,-0.396 0,-0.284 0.204,-0.476 0.392,-0.588 0.136,-0.08 0.284,-0.128 0.44,-0.128 z"
     fill="currentColor"
     id="path40"
     style="stroke-width:0.004" />
  <path
     d="m 30.132,5.430974 c 0.244,0 0.468,0.132 0.468,0.396 0,0.284 -0.208,0.476 -0.396,0.588 -0.136,0.08 -0.284,0.128 -0.44,0.128 -0.244,0 -0.464,-0.132 -0.464,-0.396 0,-0.284 0.204,-0.476 0.392,-0.588 0.136,-0.08 0.284,-0.128 0.44,-0.128 z"
     fill="currentColor"
     id="path42"
     style="stroke-width:0.004" />
  <rect
     x="30.431499"
     y="2.811074"
     width="0.1666"
     height="3.0141001"
     ry="0.057100002"
     fill="currentColor"
     id="rect44" />
  <polygon
     transform="translate(37.6315,2.811074)"
     stroke-linejoin="round"
     stroke-linecap="round"
     stroke-width="0.1143"
     fill="currentColor"
     stroke="currentColor"
     points="0.0571,0.1829 0.0571,-0.1829 9.7095,-0.1829 9.7095,0.1829 "
     id="polygon46" />
  <polygon
     transform="translate(37.6315,3.635174)"
     stroke-linejoin="round"
     stroke-linecap="round"
     stroke-width="0.1143"
     fill="currentColor"
     stroke="currentColor"
     points="0.0571,0.1829 0.0571,-0.1829 9.7095,-0.1829 9.7095,0.1829 "
     id="polygon48" />
  <text
     font-family="serif"
     font-style="italic"
     font-size="1.7465px"
     text-anchor="start"
     fill="currentColor"
     id="text52"
     x="29.876801"
     y="1.156374"><tspan
       id="tspan50">5</tspan></text>
  <line
     stroke-linejoin="round"
     stroke-linecap="round"
     stroke-width="0.2051"
     stroke="currentColor"
     x1="35.200001"
     y1="0.57107401"
     x2="35.200001"
     y2="1.2710741"
     id="line54" />
  <line
     stroke-linejoin="round"
     stroke-linecap="round"
     stroke-width="0.2051"
     stroke="currentColor"
     x1="25.431499"
     y1="0.57107401"
     x2="25.431499"
     y2="1.2710741"
     id="line56" />
  <line
     stroke-linejoin="round"
     stroke-linecap="round"
     stroke-width="0.2051"
     stroke="currentColor"
     x1="35.200001"
     y1="0.57107401"
     x2="31.3547"
     y2="0.57107401"
     id="line58" />
  <line
     stroke-linejoin="round"
     stroke-linecap="round"
     stroke-width="0.2051"
     stroke="currentColor"
     x1="25.431499"
     y1="0.57107401"
     x2="29.476799"
     y2="0.57107401"
     id="line60" />
  <polygon
     transform="translate(25.6315,2.811074)"
     stroke-linejoin="round"
     stroke-linecap="round"
     stroke-width="0.1143"
     fill="currentColor"
     stroke="currentColor"
     points="0.0571,0.1829 0.0571,-0.1829 9.7095,-0.1829 9.7095,0.1829 "
     id="polygon62" />
  <polygon
     transform="translate(25.6315,3.635174)"
     stroke-linejoin="round"
     stroke-linecap="round"
     stroke-width="0.1143"
     fill="currentColor"
     stroke="currentColor"
     points="0.0571,0.1829 0.0571,-0.1829 9.7095,-0.1829 9.7095,0.1829 "
     id="polygon64" />
  <text
     font-family="serif"
     font-style="italic"
     font-size="1.7465px"
     text-anchor="start"
     fill="currentColor"
     id="text68"
     x="17.876801"
     y="1.156374"><tspan
       id="tspan66">5</tspan></text>
  <line
     stroke-linejoin="round"
     stroke-linecap="round"
     stroke-width="0.2051"
     stroke="currentColor"
     x1="23.199999"
     y1="0.57107401"
     x2="23.199999"
     y2="1.2710741"
     id="line70" />
  <line
     stroke-linejoin="round"
     stroke-linecap="round"
     stroke-width="0.2051"
     stroke="currentColor"
     x1="13.4315"
     y1="0.57107401"
     x2="13.4315"
     y2="1.2710741"
     id="line72" />
  <line
     stroke-linejoin="round"
     stroke-linecap="round"
     stroke-width="0.2051"
     stroke="currentColor"
     x1="23.199999"
     y1="0.57107401"
     x2="19.3547"
     y2="0.57107401"
     id="line74" />
  <line
     stroke-linejoin="round"
     stroke-linecap="round"
     stroke-width="0.2051"
     stroke="currentColor"
     x1="13.4315"
     y1="0.57107401"
     x2="17.476799"
     y2="0.57107401"
     id="line76" />
  <polygon
     transform="translate(13.6315,2.811074)"
     stroke-linejoin="round"
     stroke-linecap="round"
     stroke-width="0.1143"
     fill="currentColor"
     stroke="currentColor"
     points="0.0571,0.1829 0.0571,-0.1829 9.7095,-0.1829 9.7095,0.1829 "
     id="polygon78" />
  <polygon
     transform="translate(13.6315,3.635174)"
     stroke-linejoin="round"
     stroke-linecap="round"
     stroke-width="0.1143"
     fill="currentColor"
     stroke="currentColor"
     points="0.0571,0.1829 0.0571,-0.1829 9.7095,-0.1829 9.7095,0.1829 "
     id="polygon80" />
  <text
     font-family="serif"
     font-style="italic"
     font-size="1.7465px"
     text-anchor="start"
     fill="currentColor"
     id="text84"
     x="5.8768001"
     y="1.156374"><tspan
       id="tspan82">5</tspan></text>
  <line
     stroke-linejoin="round"
     stroke-linecap="round"
     stroke-width="0.2051"
     stroke="currentColor"
     x1="11.2"
     y1="0.57107401"
     x2="11.2"
     y2="1.2710741"
     id="line86" />
  <line
     stroke-linejoin="round"
     stroke-linecap="round"
     stroke-width="0.2051"
     stroke="currentColor"
     x1="1.4315"
     y1="0.57107401"
     x2="1.4315"
     y2="1.2710741"
     id="line88" />
  <line
     stroke-linejoin="round"
     stroke-linecap="round"
     stroke-width="0.2051"
     stroke="currentColor"
     x1="11.2"
     y1="0.57107401"
     x2="7.3546996"
     y2="0.57107401"
     id="line90" />
  <line
     stroke-linejoin="round"
     stroke-linecap="round"
     stroke-width="0.2051"
     stroke="currentColor"
     x1="1.4315"
     y1="0.57107401"
     x2="5.4768"
     y2="0.57107401"
     id="line92" />
  <path
     d="m 22.932,5.430974 c 0.244,0 0.468,0.132 0.468,0.396 0,0.284 -0.208,0.476 -0.396,0.588 -0.136,0.08 -0.284,0.128 -0.44,0.128 -0.244,0 -0.464,-0.132 -0.464,-0.396 0,-0.284 0.204,-0.476 0.392,-0.588 0.136,-0.08 0.284,-0.128 0.44,-0.128 z"
     fill="currentColor"
     id="path94"
     style="stroke-width:0.004" />
  <rect
     x="23.231501"
     y="2.811074"
     width="0.1666"
     height="3.0141001"
     ry="0.057100002"
     fill="currentColor"
     id="rect96" />
  <rect
     x="20.831499"
     y="2.811074"
     width="0.1666"
     height="3.0141001"
     ry="0.057100002"
     fill="currentColor"
     id="rect98" />
  <path
     d="m 25.332,5.430974 c 0.244,0 0.468,0.132 0.468,0.396 0,0.284 -0.208,0.476 -0.396,0.588 -0.136,0.08 -0.284,0.128 -0.44,0.128 -0.244,0 -0.464,-0.132 -0.464,-0.396 0,-0.284 0.204,-0.476 0.392,-0.588 0.136,-0.08 0.284,-0.128 0.44,-0.128 z"
     fill="currentColor"
     id="path100"
     style="stroke-width:0.004" />
  <rect
     x="25.6315"
     y="2.811074"
     width="0.1666"
     height="3.0141001"
     ry="0.057100002"
     fill="currentColor"
     id="rect102" />
  <path
     d="m 27.732,5.430974 c 0.244,0 0.468,0.132 0.468,0.396 0,0.284 -0.208,0.476 -0.396,0.588 -0.136,0.08 -0.284,0.128 -0.44,0.128 -0.244,0 -0.464,-0.132 -0.464,-0.396 0,-0.284 0.204,-0.476 0.392,-0.588 0.136,-0.08 0.284,-0.128 0.44,-0.128 z"
     fill="currentColor"
     id="path104"
     style="stroke-width:0.004" />
  <rect
     x="28.0315"
     y="2.811074"
     width="0.1666"
     height="3.0141001"
     ry="0.057100002"
     fill="currentColor"
     id="rect106" />
  <path
     d="m 34.932,5.430974 c 0.244,0 0.468,0.132 0.468,0.396 0,0.284 -0.208,0.476 -0.396,0.588 -0.136,0.08 -0.284,0.128 -0.44,0.128 -0.244,0 -0.464,-0.132 -0.464,-0.396 0,-0.284 0.204,-0.476 0.392,-0.588 0.136,-0.08 0.284,-0.128 0.44,-0.128 z"
     fill="currentColor"
     id="path108"
     style="stroke-width:0.004" />
  <rect
     x="35.231499"
     y="2.811074"
     width="0.1666"
     height="3.0141001"
     ry="0.057100002"
     fill="currentColor"
     id="rect110" />
  <path
     d="m 37.332,5.430974 c 0.244,0 0.468,0.132 0.468,0.396 0,0.284 -0.208,0.476 -0.396,0.588 -0.136,0.08 -0.284,0.128 -0.44,0.128 -0.244,0 -0.464,-0.132 -0.464,-0.396 0,-0.284 0.204,-0.476 0.392,-0.588 0.136,-0.08 0.284,-0.128 0.44,-0.128 z"
     fill="currentColor"
     id="path112"
     style="stroke-width:0.004" />
  <rect
     x="37.6315"
     y="2.811074"
     width="0.1666"
     height="3.0141001"
     ry="0.057100002"
     fill="currentColor"
     id="rect114" />
  <path
     d="m 39.732,5.430974 c 0.244,0 0.468,0.132 0.468,0.396 0,0.284 -0.208,0.476 -0.396,0.588 -0.136,0.08 -0.284,0.128 -0.44,0.128 -0.244,0 -0.464,-0.132 -0.464,-0.396 0,-0.284 0.204,-0.476 0.392,-0.588 0.136,-0.08 0.284,-0.128 0.44,-0.128 z"
     fill="currentColor"
     id="path116"
     style="stroke-width:0.004" />
  <rect
     x="40.031502"
     y="2.811074"
     width="0.1666"
     height="3.0141001"
     ry="0.057100002"
     fill="currentColor"
     id="rect118" />
  <path
     d="m 1.332,5.430974 c 0.244,0 0.468,0.132 0.468,0.396 0,0.284 -0.208,0.476 -0.396,0.588 -0.136,0.08 -0.284,0.128 -0.44,0.128 -0.244,0 -0.464,-0.132 -0.464,-0.396 0,-0.284 0.204,-0.476 0.392,-0.588 0.136,-0.08 0.284,-0.128 0.44,-0.128 z"
     fill="currentColor"
     id="path120"
     style="stroke-width:0.004" />
  <line
     stroke-linejoin="round"
     stroke-linecap="round"
     stroke-width="0.2051"
     stroke="currentColor"
     x1="48.700001"
     y1="0.57107401"
     x2="48.700001"
     y2="1.2710741"
     id="line122" />
  <line
     stroke-linejoin="round"
     stroke-linecap="round"
     stroke-width="0.2051"
     stroke="currentColor"
     x1="37.431499"
     y1="0.57107401"
     x2="37.431499"
     y2="1.2710741"
     id="line124" />
  <line
     stroke-linejoin="round"
     stroke-linecap="round"
     stroke-width="0.2051"
     stroke="currentColor"
     x1="48.700001"
     y1="0.57107401"
     x2="44.104698"
     y2="0.57107401"
     id="line126" />
  <line
     stroke-linejoin="round"
     stroke-linecap="round"
     stroke-width="0.2051"
     stroke="currentColor"
     x1="37.431499"
     y1="0.57107401"
     x2="42.226799"
     y2="0.57107401"
     id="line128" />
  <text
     font-family="serif"
     font-style="italic"
     font-size="1.7465px"
     text-anchor="start"
     fill="currentColor"
     id="text132"
     x="42.626801"
     y="1.156374"><tspan
       id="tspan130">5</tspan></text>
  <rect
     x="1.6315"
     y="2.811074"
     width="0.1666"
     height="3.0141001"
     ry="0.057100002"
     fill="currentColor"
     id="rect134" />
  <rect
     x="32.831501"
     y="2.811074"
     width="0.1666"
     height="3.0141001"
     ry="0.057100002"
     fill="currentColor"
     id="rect136" />
  <rect
     x="44.831501"
     y="2.811074"
     width="0.1666"
     height="3.0141001"
     ry="0.057100002"
     fill="currentColor"
     id="rect138" />
  <path
     d="m 46.932,5.430974 c 0.244,0 0.468,0.132 0.468,0.396 0,0.284 -0.208,0.476 -0.396,0.588 -0.136,0.08 -0.284,0.128 -0.44,0.128 -0.244,0 -0.464,-0.132 -0.464,-0.396 0,-0.284 0.204,-0.476 0.392,-0.588 0.136,-0.08 0.284,-0.128 0.44,-0.128 z"
     fill="currentColor"
     id="path140"
     style="stroke-width:0.004" />
  <path
     d="m 42.132,5.430974 c 0.244,0 0.468,0.132 0.468,0.396 0,0.284 -0.208,0.476 -0.396,0.588 -0.136,0.08 -0.284,0.128 -0.44,0.128 -0.244,0 -0.464,-0.132 -0.464,-0.396 0,-0.284 0.204,-0.476 0.392,-0.588 0.136,-0.08 0.284,-0.128 0.44,-0.128 z"
     fill="currentColor"
     id="path142"
     style="stroke-width:0.004" />
  <rect
     x="47.231499"
     y="2.811074"
     width="0.1666"
     height="3.0141001"
     ry="0.057100002"
     fill="currentColor"
     id="rect144" />
  <path
     d="m 44.532,5.430974 c 0.244,0 0.468,0.132 0.468,0.396 0,0.284 -0.208,0.476 -0.396,0.588 -0.136,0.08 -0.284,0.128 -0.44,0.128 -0.244,0 -0.464,-0.132 -0.464,-0.396 0,-0.284 0.204,-0.476 0.392,-0.588 0.136,-0.08 0.284,-0.128 0.44,-0.128 z"
     fill="currentColor"
     id="path146"
     style="stroke-width:0.004" />
  <path
     d="m 3.732,5.430974 c 0.244,0 0.468,0.132 0.468,0.396 0,0.284 -0.208,0.476 -0.396,0.588 -0.136,0.08 -0.284,0.128 -0.44,0.128 -0.244,0 -0.464,-0.132 -0.464,-0.396 0,-0.284 0.204,-0.476 0.392,-0.588 0.136,-0.08 0.284,-0.128 0.44,-0.128 z"
     fill="currentColor"
     id="path148"
     style="stroke-width:0.004" />
  <rect
     x="4.0314999"
     y="2.811074"
     width="0.1666"
     height="3.0141001"
     ry="0.057100002"
     fill="currentColor"
     id="rect150" />
  <rect
     x="42.431499"
     y="2.811074"
     width="0.1666"
     height="3.0141001"
     ry="0.057100002"
     fill="currentColor"
     id="rect152" />
</svg>
